<svg xmlns="http://www.w3.org/2000/svg" xmlns:xlink="http://www.w3.org/1999/xlink" width="150" height="149.999" viewBox="0 0 150 149.999">
  <defs>
    <clipPath id="clip-path">
      <path id="パス_57111" data-name="パス 57111" d="M150,75A75,75,0,1,1,75,0a75,75,0,0,1,75,75" transform="translate(1270 -3095.739)" fill="#cce8dc"/>
    </clipPath>
    <clipPath id="clip-path-2">
      <rect id="長方形_7736" data-name="長方形 7736" width="6.822" height="16.204" fill="none"/>
    </clipPath>
  </defs>
  <g id="マスクグループ_7653" data-name="マスクグループ 7653" transform="translate(-1270 3095.739)" clip-path="url(#clip-path)">
    <path id="パス_57100" data-name="パス 57100" d="M150,75A75,75,0,1,1,75,0a75,75,0,0,1,75,75" transform="translate(1270 -3095.739)" fill="#cce8dc"/>
    <path id="パス_57101" data-name="パス 57101" d="M51.038,52.471c-3.53-8.622-2.25-14.118,1.587-21.225a24.912,24.912,0,0,1,13.6-11.324s10.28-6.4,22.788-3.933,18.483,21.232,18.951,27.67c.758,10.423-3.53,22.385-5.614,27.313s1.232,14.663,7.107,15.231,10.2,5.342,8.552,11.394c-1.706,6.254,8.078,7.464,12.7,13.433,6.8,8.793,5.643,19.521-.043,25.394s-14.525,14.942-14.525,14.942Z" transform="translate(1263.025 -3097.936)" fill="#604c3f"/>
    <path id="パス_57102" data-name="パス 57102" d="M101.79,86.62a30.654,30.654,0,0,0-.731,7.047,17.187,17.187,0,0,0,.384,3.447,9.336,9.336,0,0,0,1.612,3.608,7.371,7.371,0,0,0,2.924,2.3,17.217,17.217,0,0,0,3.7.949,17.767,17.767,0,0,1,4.488,1.564,10.772,10.772,0,0,1,3.495,2.85,9.853,9.853,0,0,1,1.8,3.787,9.336,9.336,0,0,1,.248,1.653l.055.834c0,.278-.024.555-.036.833l-.045.832-.13.821c-.093.534-.186,1.069-.28,1.61a5,5,0,0,0,.874,3.926,11.671,11.671,0,0,0,2.811,2.412,28.636,28.636,0,0,1,3.087,2.3,11.007,11.007,0,0,1,2.219,2.7,11.177,11.177,0,0,1,1.22,3.274c.039.223.081.454.121.677a14.756,14.756,0,0,1,.157,2.5,6.377,6.377,0,0,1-.793,3.071l-.23.4a4.593,4.593,0,0,1-2.02,1.743,1.094,1.094,0,0,1-.3.075l.354-.251a5.851,5.851,0,0,0,1.437-1.433,6.031,6.031,0,0,0,.967-2.416,11.4,11.4,0,0,0-.016-3.588,10.237,10.237,0,0,0-1.093-3.423,11.164,11.164,0,0,0-2.659-3.266c-1.179-1.015-2.524-1.832-3.8-2.772a9.388,9.388,0,0,1-1.832-1.709,4.869,4.869,0,0,1-1.009-2.328,13.027,13.027,0,0,1,.358-3.97,11.459,11.459,0,0,0-.33-5,9.24,9.24,0,0,0-.54-1.344c-.11-.216-.208-.441-.326-.653l-.4-.606a9.348,9.348,0,0,0-2.538-2.486,13.735,13.735,0,0,0-3.123-1.475,21.446,21.446,0,0,0-3.421-.866,10.463,10.463,0,0,1-3.468-1.153,7.752,7.752,0,0,1-2.666-2.523,10.841,10.841,0,0,1-1.462-3.789,20.275,20.275,0,0,1-.3-4.795,32.17,32.17,0,0,1,.505-4.3c.144-.8.313-1.588.5-2.373a4.233,4.233,0,0,1,.576-1.481c.025-.033.063-.088.069-.069a1.475,1.475,0,0,1,.115.513,7.954,7.954,0,0,1-.15.826c-.009.037-.015.059-.021.087-.127.473-.238.95-.346,1.429Z" transform="translate(1255.682 -3107.67)"/>
    <path id="パス_57103" data-name="パス 57103" d="M66.161,31.967s-11.3,7.083-13.574,15.185S50.029,70.6,50.029,76.005,56.4,96.141,58.96,97.846s7.131.972,13.242-3.293S84.426,87.66,87.269,78.99c0,0,6.68.426,9.1-2.985s4.265-11.371,1.706-13.076-5.543,2.7-7.959,2.132-1.3-4.809-3.435-6.8-15.232-4-18.051-11.2c-2.411-6.157-2.464-15.09-2.464-15.09" transform="translate(1262.874 -3100.292)" fill="#f4a995"/>
    <g id="グループ_10067" data-name="グループ 10067" transform="translate(1316.03 -3039.969)" opacity="0.45">
      <g id="グループ_10066" data-name="グループ 10066" transform="translate(0 0)">
        <g id="グループ_10065" data-name="グループ 10065" clip-path="url(#clip-path-2)">
          <path id="パス_57104" data-name="パス 57104" d="M60.5,65.033l-1.706,16.2-5.117-5.78Z" transform="translate(-53.675 -65.033)" fill="#fff"/>
        </g>
      </g>
    </g>
    <path id="パス_57105" data-name="パス 57105" d="M90.046,86.14s-1.184,15.988.394,22.108L72.478,134.9c2.567-22.5-1.973-30.6-1.973-30.6L87.48,83.771Z" transform="translate(1259.957 -3107.671)" fill="#f4a995"/>
    <path id="パス_57106" data-name="パス 57106" d="M112.4,277.461s-6.958-37.356-6.76-53.937,14.423-53.211,11.463-65.646-19.186-38.033-19.186-38.033c-4.145-9.278-2.146-11.77-4.935-13.423C89.561,104.4,70.5,127.642,68.132,131.589a29.755,29.755,0,0,0-3.158,6.958s-18.456,29.9-19.344,36.419,4.441,103.186,4.441,103.186Z" transform="translate(1263.515 -3110.88)" fill="#d1c8b4"/>
    <path id="パス_57107" data-name="パス 57107" d="M93.441,124.073a29.083,29.083,0,0,0-7.2,3.988c-.568.375-1.086.819-1.631,1.225s-1.078.831-1.588,1.285c-1.2,1.013-2.354,2.1-3.473,3.206a77.4,77.4,0,0,0-5.99,6.7,50.846,50.846,0,0,0-3.065,4.512l-2.8,4.346q-1.284,2.022-2.533,4.065c-1.324,2.174-2.628,4.312-3.958,6.5-.865,1.44-1.721,2.9-2.547,4.367q-2.215,3.838-4.235,7.781A53.165,53.165,0,0,0,51.3,179.27c-.079.245-.16.5-.238.744l-.843,2.724c-.322,1.084-.6,2.017-1.014,3.422-.044.154-.082.333-.117.5-.221,1.131-.471,2-.634,2.989a1.539,1.539,0,0,1-.118.34c0-.172,0-.341.01-.515a21.932,21.932,0,0,1,.289-2.431c.186-1.033.454-2.05.738-3.056a77.166,77.166,0,0,1,2.712-8.076c.164-.39.325-.771.486-1.153l.548-1.129c.372-.75.729-1.511,1.128-2.247.837-1.628,1.724-3.229,2.6-4.831.933-1.669,1.839-3.35,2.808-5,.765-1.324,1.572-2.626,2.366-3.934l3.1-5.133c.583-.99,1.22-1.984,1.851-2.963l2.33-3.582,2.192-3.477a32.744,32.744,0,0,1,2.52-3.364,77.588,77.588,0,0,1,5.614-6.148l1.7-1.586c.575-.518,1.176-1.009,1.761-1.52.7-.6,1.45-1.152,2.172-1.732.743-.553,1.516-1.069,2.273-1.605l2.158-1.3,2.261-1.125c.888-.316,1.754-.712,2.664-.959a6.52,6.52,0,0,1,1.831-.269c.046,0,.123.005.1.021a1.807,1.807,0,0,1-.471.377,8.714,8.714,0,0,1-.923.3l-.1.024a9.125,9.125,0,0,0-1.617.506Z" transform="translate(1263.116 -3113.238)"/>
    <path id="パス_57108" data-name="パス 57108" d="M74.342,160.18a23.621,23.621,0,0,1,1.225-2.556c.225-.408.492-.79.742-1.182.3-.448.6-.891.917-1.324a22.89,22.89,0,0,1,1.991-2.32c.435-.442.874-.882,1.347-1.287A15.229,15.229,0,0,1,82,150.484a14.643,14.643,0,0,1,1.424-.81,8.855,8.855,0,0,1,1.194-.524,8.32,8.32,0,0,1,1.251-.371,16.626,16.626,0,0,1,1.706-.315,11.237,11.237,0,0,1,1.518-.088,11.815,11.815,0,0,1,1.519.071,16.042,16.042,0,0,1,2.666.492l.256.075c.317.073.616.2.925.3a4.066,4.066,0,0,1,1.118.491.963.963,0,0,0,.158.078,3.721,3.721,0,0,1,.864.605c.042.033.047.086.069.129a1.587,1.587,0,0,1-.17-.041l-.762-.288a10.01,10.01,0,0,0-.97-.386,15.76,15.76,0,0,0-2.724-.767c-.549-.063-1.091-.207-1.647-.237a12.5,12.5,0,0,0-1.818-.069,13.35,13.35,0,0,0-1.875.275c-.5.077-.983.222-1.472.346l-.928.346c-.3.133-.592.293-.879.452-.323.2-.662.385-1,.569a9.123,9.123,0,0,0-2.177,1.689c-.325.322-.665.634-.974.973a20.66,20.66,0,0,0-1.742,2.119c-.3.413-.605.827-.884,1.258-.328.518-.64,1.048-.921,1.593-.262.491-.5.994-.723,1.5-.124.286-.244.575-.346.866a.873.873,0,0,1-.36.517c-.018.009-.045.027-.054.018a.7.7,0,0,1-.186-.255,1.039,1.039,0,0,1,.045-.341.173.173,0,0,1,.012-.033l.225-.544Z" transform="translate(1259.453 -3116.873)"/>
    <path id="パス_57109" data-name="パス 57109" d="M91.927,248.275l6.66-5.4c1.089-.892,2.192-1.763,3.265-2.671.627-.528,1.213-1.047,1.8-1.628s1.189-1.115,1.756-1.688a11.338,11.338,0,0,0,2.616-3.687,12.6,12.6,0,0,0,.891-4.451,33.1,33.1,0,0,0-.416-5.573c-.211-1.761-.461-3.52-.622-5.287-.153-1.638-.352-3.273-.462-4.914q-.342-3.9-.451-7.825c-.021-1.731-.116-3.472-.111-5.21-.045-3.046.027-6.093.127-9.137.108-2.724.254-5.445.463-8.161.022-.265.046-.537.069-.8.083-.975.166-1.948.248-2.924.105-1.249.226-2.48.416-3.669.026-.164.044-.352.06-.529.1-1.192.327-2.1.479-3.119a1.59,1.59,0,0,1,.117-.352c0,.178-.007.382-.009.529-.04.835-.1,1.669-.172,2.5-.1,1.069-.2,2.134-.3,3.2-.247,2.9-.551,5.8-.671,8.716-.075,1.7-.187,3.424-.249,5.139q-.114,2.814-.135,5.632c.007,1.964.033,3.923.1,5.885.045,1.568.064,3.14.153,4.708.077,2.055.238,4.1.438,6.141.118,1.231.229,2.386.343,3.568q.18,2.188.462,4.36c.174,1.393.406,2.782.545,4.2a22.054,22.054,0,0,1-.029,4.347,11.183,11.183,0,0,1-1.267,4.167,13.879,13.879,0,0,1-2.73,3.372l-1.727,1.634c-.593.559-1.2,1.062-1.811,1.578q-2.183,1.829-4.4,3.616l-4.007,3.236L91.12,249.6a6.878,6.878,0,0,1-1.569,1.051c-.045.018-.117.051-.109.029a1.728,1.728,0,0,1,.268-.546,9.626,9.626,0,0,1,.741-.689l.083-.067,1.388-1.1Z" transform="translate(1257.26 -3120.131)"/>
    <path id="パス_57110" data-name="パス 57110" d="M78.953,24.049c-.008,1.67.066,3.34.206,5,.063.821.135,1.639.23,2.457.129.941.278,1.88.473,2.809a30.8,30.8,0,0,0,1.51,5.186,21.384,21.384,0,0,0,1.483,2.914,18.582,18.582,0,0,0,1.811,2.488,17.519,17.519,0,0,0,2.058,1.978,30.555,30.555,0,0,0,3.749,2.568c.869.512,1.779.965,2.693,1.407,1.6.782,3.235,1.506,4.836,2.324a22.538,22.538,0,0,1,4.109,2.578l.366.315.638.611.6.653a6.754,6.754,0,0,1,1.161,1.894c.037.093.088.195.137.29a5.572,5.572,0,0,1,.439,1.827.63.63,0,0,1-.03.224c-.039-.1-.083-.189-.115-.287a11.585,11.585,0,0,0-.515-1.355c-.124-.283-.277-.553-.412-.833-.154-.268-.328-.527-.493-.788a12.46,12.46,0,0,0-3.74-3.383c-.854-.507-1.728-1.011-2.623-1.47-.981-.5-1.976-.978-2.975-1.445-1.046-.489-2.106-.95-3.135-1.486Q90.178,49.882,89,49.123a32.312,32.312,0,0,1-2.965-2.136,14.118,14.118,0,0,1-1.532-1.492c-.3-.321-.556-.674-.833-1.01l-.756-1.065a21.774,21.774,0,0,1-1.308-2.151,22,22,0,0,1-1-2.349,30.142,30.142,0,0,1-1.339-4.872c-.192-.92-.3-1.852-.42-2.783-.134-1.111-.246-2.225-.309-3.343-.069-1.01-.093-2.023-.11-3.035,0-.566,0-1.126.005-1.7a2.319,2.319,0,0,1,.207-1.1c.016-.027.039-.07.049-.057a1,1,0,0,1,.241.336,3.658,3.658,0,0,1,.051.59c0,.032,0,.043,0,.063l-.027,1.034Z" transform="translate(1258.828 -3098.876)"/>
  </g>
</svg>
