<svg xmlns="http://www.w3.org/2000/svg" xmlns:xlink="http://www.w3.org/1999/xlink" width="150" height="149.999" viewBox="0 0 150 149.999">
  <defs>
    <clipPath id="clip-path">
      <path id="パス_57099" data-name="パス 57099" d="M180.76,75a75,75,0,1,1-75-75,75,75,0,0,1,75,75" transform="translate(991 -3072.655)" fill="#cce8eb"/>
    </clipPath>
    <clipPath id="clip-path-2">
      <rect id="長方形_7735" data-name="長方形 7735" width="4.348" height="12.112" fill="none"/>
    </clipPath>
  </defs>
  <g id="マスクグループ_7652" data-name="マスクグループ 7652" transform="translate(-1021.76 3072.654)" clip-path="url(#clip-path)">
    <path id="パス_57085" data-name="パス 57085" d="M180.76,75a75,75,0,1,1-75-75,75,75,0,0,1,75,75" transform="translate(991 -3072.655)" fill="#cce8eb"/>
    <path id="パス_57086" data-name="パス 57086" d="M106.807,100.709s-5.9,5.8-6.108,7.661c-.092.831-5.723,32.923-4.6,48.631,1.4,19.515,9.273,36.416,12.009,37.684,0,0,25.468-37.89,31.265-55.283s2.012-32.688,2.012-34.345-9.628-10.56-11.905-10.974a6.165,6.165,0,0,0-4.141.828Z" transform="translate(981.714 -3086.044)" fill="#f7f8f8"/>
    <path id="パス_57087" data-name="パス 57087" d="M194.7,224.191c-4.717-44.69-14.976-91.931-16.358-94.969s-7.648-6.435-20.015-11.043c-11.061-4.121-23.14-9.773-27.812-12.008a1.548,1.548,0,0,1,.24.62c0,1.657-6.729,12.63-12.527,30.022S97.316,195.2,97.316,195.2c-3.728-21.948-7.454-83.236-7.247-85.1a2.1,2.1,0,0,1,.187-.575c-3.337,2.816-12.636,10.366-19.65,13.2-8.7,3.52-14.079,9.317-15.114,17.6s-6.833,56.112-10.974,65.429-23.19,35.613-23.19,35.613l7.593,4.348s21.659-21.771,27.4-30.643c6.529-10.09,11.532-24.928,13.845-32.527,1.213,6.694,2.625,13.658,4.238,20.38,6.626,27.607,6.9,41.963,6.9,41.963s-3.037,50.521-3.037,53,16.011,11.871,17.668,11.871,2.76-9.662,2.208-19.325,1.1-52.177,1.1-52.177,8.205,56.389,29.263,70.123c12.7,8.281,51.212-11.941,51.212-11.941S155.014,240.2,152.529,218.67a108.338,108.338,0,0,1,9.111-30.92l.385-.837c4.5,7.284,12.8,22.927,17.836,45.975a271.717,271.717,0,0,1,5.8,62.806l10.214-.276s4.625-16.289-1.173-71.226" transform="translate(992.344 -3087.778)" fill="#626c83"/>
    <path id="パス_57088" data-name="パス 57088" d="M72.371,151.262c.145,1.268.289,2.533.435,3.807.069.625.081,1.256.14,1.884.076.735.151,1.448.226,2.169.153,1.372.3,2.746.479,4.115.109.832.287,1.653.416,2.483.109.789.218,1.568.327,2.353.109.725.224,1.451.352,2.174.208,1.148.415,2.293.539,3.456.086.768.25,1.529.376,2.294l.681,4.019.63,3.591c.014.114.03.242.045.356.069.431.129.864.217,1.292a5.659,5.659,0,0,1,.146,1.647.934.934,0,0,0,.022.238,4.025,4.025,0,0,1-.157,1.459c-.012.075-.093.126-.142.189a1.573,1.573,0,0,1-.093-.223c-.089-.363-.184-.725-.256-1.093-.081-.475-.162-.94-.244-1.419-.262-1.278-.371-2.58-.682-3.853-.182-.743-.263-1.513-.382-2.273-.131-.83-.243-1.665-.394-2.491l-.516-2.587c-.125-.692-.194-1.394-.295-2.09a27.31,27.31,0,0,0-.5-2.714,13.017,13.017,0,0,1-.252-1.587c-.083-.65-.119-1.307-.216-1.954-.1-.623-.264-1.235-.371-1.857s-.184-1.267-.267-1.9c-.154-1.262-.309-2.52-.465-3.79-.076-.707-.11-1.418-.178-2.126-.088-.854-.174-1.692-.261-2.533q-.123-1.149-.246-2.291c-.048-.428-.094-.857-.157-1.282a.94.94,0,0,1,.212-.87c.023-.023.057-.062.079-.055a1.543,1.543,0,0,1,.506.195c.1.075.125.284.184.433a.169.169,0,0,1,.006.047l.069.789Z" transform="translate(985.225 -3093.992)"/>
    <path id="パス_57089" data-name="パス 57089" d="M90.8,123.337a15.5,15.5,0,0,0-.563,1.841,2.463,2.463,0,0,0-.082.753v.017c0,.007.019,0-.075.047.111-.04.06-.021.078-.026l.005,0,.005,0c-.011.006.03.034.059.06a1.2,1.2,0,0,0,.3.176,17.207,17.207,0,0,0,1.83.591,6.508,6.508,0,0,1,1.025.394,2.2,2.2,0,0,1,.546.382,1.2,1.2,0,0,1,.379.794.506.506,0,0,1-.005.235.681.681,0,0,1-.061.232,1.659,1.659,0,0,1-.171.324,3.776,3.776,0,0,1-.369.448,8.7,8.7,0,0,1-.769.7c-.521.434-1.056.826-1.585,1.225a38.131,38.131,0,0,0-3.509,2.79,1.914,1.914,0,0,0-.256.317.133.133,0,0,0-.017.087l.014.238.1,1.058c.081.713.166,1.425.267,2.137.195,1.424.413,2.846.665,4.264.293,1.725.692,3.429,1.044,5.144.342,1.615.65,3.239,1.019,4.85q.489,2.245,1.057,4.47c.578,2.363,1.221,4.705,1.762,7.083.381,1.567.837,3.124,1.256,4.687.774,2.728,1.517,5.466,2.342,8.18.717,2.435,1.447,4.864,2.212,7.283.069.238.138.483.207.721.265.872.52,1.749.8,2.615a24.429,24.429,0,0,1,.919,3.32,3.908,3.908,0,0,0,.134.479,15.836,15.836,0,0,1,.513,2.925,1,1,0,0,1-.062.371c-.068-.15-.145-.3-.2-.453-.262-.733-.53-1.466-.776-2.207l-.916-2.863c-.867-2.58-1.543-5.219-2.441-7.8-.5-1.512-.911-3.074-1.36-4.615q-.713-2.535-1.426-5.071c-.52-1.761-1.062-3.513-1.544-5.285-.394-1.415-.728-2.848-1.075-4.276-.472-1.864-.926-3.728-1.45-5.578-.31-1.06-.541-2.171-.768-3.268-.266-1.339-.535-2.694-.8-4.028-.278-1.288-.617-2.561-.877-3.855-.28-1.308-.491-2.634-.721-3.954-.212-1.316-.417-2.634-.6-3.957-.081-.665-.169-1.326-.23-2-.019-.161-.031-.346-.041-.533a1.176,1.176,0,0,1,.232-.8,5.059,5.059,0,0,1,.777-.815C88.768,132.2,90,131.4,91.17,130.5a14.1,14.1,0,0,0,1.926-1.681,1.257,1.257,0,0,0,.232-.352c0-.061.009-.094-.111-.2a3.1,3.1,0,0,0-1.026-.484,13.191,13.191,0,0,1-2.352-.834,1.394,1.394,0,0,1-.586-.615,1.916,1.916,0,0,1-.061-.792,7.954,7.954,0,0,1,.274-1.243c.26-.886.586-1.733.908-2.579a3.192,3.192,0,0,1,.972-1.506c.041-.029.1-.08.117-.053a1.649,1.649,0,0,1,.232.663,4.9,4.9,0,0,1-.239.912.721.721,0,0,1-.037.091c-.212.5-.42,1.007-.609,1.514Z" transform="translate(983.049 -3089.77)"/>
    <path id="パス_57090" data-name="パス 57090" d="M156.7,119.5l.642,4.964.3,2.488.138,1.253c.009.111.023.2.028.33l-.011.291-.006.146c-.015.018.03.06-.035.06l-.026.066c-.129.354-.6.557-.743.629a41.841,41.841,0,0,1-4.766,1.528l-5.464,1.582-1.282.4-.631.212-.443.162c-.048.029-.178.047-.141.124a.966.966,0,0,0,.154.154c.279.227.682.526,1.03.777,1.455,1.045,2.958,2.046,4.418,3.125.444.329.886.662,1.318,1.028a5.251,5.251,0,0,1,.635.627,1.137,1.137,0,0,1,.256.583,2.185,2.185,0,0,1-.176.569,28.626,28.626,0,0,1-1.738,2.856c-1.153,1.722-2.362,3.4-3.543,5.1l-3.259,4.732c-1.7,2.519-3.391,5.041-5.125,7.544-1.142,1.658-2.232,3.37-3.3,5.078-1.888,2.988-3.684,6.04-5.43,9.12q-2.34,4.136-4.567,8.335l-.454.818c-.541,1-1.082,2.006-1.6,3.018a41.052,41.052,0,0,1-2.1,3.752,6.052,6.052,0,0,0-.3.544,26.506,26.506,0,0,1-2.017,3.1,1.381,1.381,0,0,1-.34.3c.074-.193.138-.387.226-.576.411-.882.822-1.766,1.257-2.639l1.721-3.338c1.539-3.033,3.224-5.985,4.783-9.017.913-1.767,1.936-3.507,2.935-5.246,1.1-1.9,2.226-3.784,3.356-5.663,1.172-1.972,2.352-3.943,3.6-5.869,1-1.539,2.049-3.046,3.08-4.563,1.352-1.986,2.708-3.96,4-5.981.74-1.162,1.572-2.309,2.381-3.447.989-1.393,2.017-2.756,2.978-4.161a47.692,47.692,0,0,0,2.546-4.121.81.81,0,0,0,.088-.191c.006,0,.015-.005.011-.006s.017.027-.032-.038-.1-.121-.17-.185a10.933,10.933,0,0,0-.892-.767c-.64-.5-1.314-.985-1.991-1.463-1.351-.959-2.728-1.851-4.086-2.893-.055-.038-.258-.209-.394-.335a1.8,1.8,0,0,1-.364-.419,1.09,1.09,0,0,1-.1-.43c.122-.147.1-.259.234-.378a.986.986,0,0,1,.435-.3,2.421,2.421,0,0,1,.268-.127l.221-.085.6-.214c.8-.269,1.6-.509,2.4-.744l5.347-1.5c1.056-.311,2.114-.629,3.135-1,.256-.091.507-.188.746-.292.109-.045.256-.121.311-.148.037-.024.078-.037.085-.075.007.013-.032-.367-.056-.617l-.089-.821-.731-5.957q-.225-1.665-.45-3.332a5.16,5.16,0,0,1,.012-2.215c.019-.057.043-.151.068-.129a1.854,1.854,0,0,1,.563.572,7.028,7.028,0,0,1,.29,1.149c.009.038.012.083.017.124l.252,2.054Z" transform="translate(978.556 -3089.12)"/>
    <path id="パス_57091" data-name="パス 57091" d="M196.628,142.632a20.038,20.038,0,0,0-2.4,3.418c-.33.614-.735,1.187-1.057,1.81-.361.725-.726,1.451-1.063,2.189-.609,1.419-1.237,2.833-1.736,4.3-.321.884-.583,1.788-.84,2.694-.27.851-.538,1.693-.806,2.54-.238.789-.433,1.592-.635,2.389-.311,1.273-.647,2.533-.99,3.8-.238.835-.4,1.695-.6,2.541-.37,1.481-.652,2.983-.97,4.477-.268,1.339-.579,2.67-.81,4.017l-.09.394c-.1.482-.2.962-.28,1.446a7.085,7.085,0,0,1-.488,1.794,1.218,1.218,0,0,0-.069.26,4.97,4.97,0,0,1-.7,1.483c-.039.074-.135.1-.2.147a1.906,1.906,0,0,1,0-.271c.054-.417.1-.834.176-1.249.1-.533.206-1.057.31-1.592.252-1.447.6-2.872.818-4.329.13-.851.357-1.693.543-2.538.2-.924.426-1.845.609-2.774.193-.945.4-1.966.6-2.911.173-.773.4-1.535.588-2.305.272-1,.553-2,.736-3.024a16.3,16.3,0,0,1,.465-1.753c.233-.7.511-1.392.725-2.1.21-.681.331-1.388.544-2.069s.477-1.369.725-2.05c.466-1.363,1.064-2.682,1.625-4.011.358-.7.743-1.45,1.105-2.157.493-.834.906-1.707,1.454-2.511a19.782,19.782,0,0,1,1.535-2.156l.49-.569.537-.542a1.027,1.027,0,0,1,.994-.347c.036.012.087.029.084.054a4.537,4.537,0,0,1,.009.549c-.019.1-.179.25-.274.375a.177.177,0,0,1-.036.03c-.2.173-.407.365-.607.557Z" transform="translate(969.332 -3092.745)"/>
    <path id="パス_57092" data-name="パス 57092" d="M133.416,53.439a7.218,7.218,0,0,0,2.45-3.8c.725-2.588,2.379-10.859-.207-15.253-3.9-6.626-8.42-6-9.87-7.35s-4.487-7.661-9.663-10.56-20.912,9.214-23.914,11.7-2.381,6.315-1.863,7.971-.828,8.8-.311,9.939S94.8,51.265,94.8,51.265l26.089,8.523Z" transform="translate(982.574 -3074.939)" fill="#3d2523"/>
    <path id="パス_57093" data-name="パス 57093" d="M94.727,50.256s.414,18.636,1.1,21.809,8.006,14.908,9.11,16.841,7.592,1.1,9.663-.276,8.558-10.077,10.352-15.183,1.381-7.73,1.381-7.73,2.588,1.587,4.452-.276,4.969-9.525,3.105-11.181-5.383.724-6,1.863-2.691,1.657-2.691,1.657l-2.381-1.553s.414-6.211-.828-7.453a9.635,9.635,0,0,0-2.036-1.657s.38-3.278-1.069-5.038-4.555-2.312-8.524,1.139a22.5,22.5,0,0,1-8,3.88c-1.75.328-1.071-.6-1.075-2.381,0-1.433-.276-2.689-1.385-1.845-2.174,1.656-2.933,2.864-5.176,7.384" transform="translate(981.888 -3078.45)" fill="#f4a995"/>
    <g id="グループ_10064" data-name="グループ 10064" transform="translate(1080.791 -3020.153)" opacity="0.46">
      <g id="グループ_10063" data-name="グループ 10063" transform="translate(0 0)">
        <g id="グループ_10062" data-name="グループ 10062" clip-path="url(#clip-path-2)">
          <path id="パス_57094" data-name="パス 57094" d="M103.944,61.222,99.6,68.676l4.348,4.659Z" transform="translate(-99.596 -61.222)" fill="#fff"/>
        </g>
      </g>
    </g>
    <path id="パス_57095" data-name="パス 57095" d="M128.142,70.195s.518,21.327,2.9,24.846c0,0-10.663,9.835-13.873,10.456s-8.385-7.557-8.593-8.179.1-2.519-.207-5.314Z" transform="translate(979.945 -3082.654)" fill="#f4a995"/>
    <path id="パス_57096" data-name="パス 57096" d="M106.615,173.23c.9,9.337,1.876,17.753,2.85,23.484,0,0,4.33-11.745,9.243-25.327-1.494-16.222-2.093-34.106-1.5-36.369.571-2.186,5.325-6.973,6.9-8.513-3.485-4.429-7.192-9.348-7.7-9.714-.417-.3-3.988,4.41-6.945,8.46.081.453,1.121,6.047,3.529,9.767,0,0-2.435,10.483-3.569,16.606-1.072,5.785-2.156,15.4-2.8,21.606" transform="translate(980.195 -3089.289)" fill="#6c7ea6"/>
    <path id="パス_57097" data-name="パス 57097" d="M105.15,129.305c.69-.972,1.376-1.948,2.086-2.905.35-.473.744-.911,1.106-1.374l1.24-1.614,2.374-3.055c.479-.62.913-1.276,1.4-1.9a19.793,19.793,0,0,1,1.506-1.693l.088-.084c.048-.044.1-.088.145-.126a1.756,1.756,0,0,1,.305-.209.589.589,0,0,1,.635.034,4.383,4.383,0,0,1,.36.353l.213.233.394.447c.722.827,1.417,1.662,2.05,2.55.418.588.9,1.134,1.346,1.7l2.361,2.976,2.122,2.649.2.27c.25.322.494.646.758.954a5.144,5.144,0,0,1,.856,1.278.814.814,0,0,0,.125.183,3.663,3.663,0,0,1,.53,1.266c.023.067-.021.15-.035.226a1.346,1.346,0,0,1-.183-.133c-.244-.25-.492-.5-.721-.761l-.847-1.043c-.789-.925-1.468-1.936-2.291-2.837-.483-.525-.889-1.12-1.329-1.685-.479-.62-.941-1.253-1.434-1.86l-1.594-1.868c-.412-.508-.787-1.046-1.189-1.562a17.987,17.987,0,0,0-1.671-1.932l-.394-.4c-.011-.027-.039-.014-.057,0a3.1,3.1,0,0,0-.236.208l-.316.3c-.209.209-.415.428-.605.66-.367.449-.665.954-1.011,1.425s-.719.941-1.081,1.411L110.2,124.21c-.4.495-.837,1.043-1.24,1.545l-1.423,1.892-1.261,1.732c-.232.325-.465.653-.683.987a.845.845,0,0,1-.7.465c-.033,0-.081.006-.094-.014a1.537,1.537,0,0,1-.262-.465c-.025-.115.082-.28.131-.424a.164.164,0,0,1,.025-.037l.442-.593Z" transform="translate(980.491 -3089.217)"/>
    <path id="パス_57098" data-name="パス 57098" d="M105.76,0a75,75,0,1,0,75,75A75,75,0,0,0,105.76,0Z" transform="translate(991 -3072.655)" fill="none"/>
  </g>
</svg>
