<svg xmlns="http://www.w3.org/2000/svg" xmlns:xlink="http://www.w3.org/1999/xlink" width="169" height="71" viewBox="0 0 169 71">
  <defs>
    <clipPath id="clip-path">
      <rect id="長方形_7654" data-name="長方形 7654" width="169" height="71" fill="none"/>
    </clipPath>
    <clipPath id="clip-path-2">
      <rect id="長方形_7653" data-name="長方形 7653" width="169" height="70.999" fill="none"/>
    </clipPath>
  </defs>
  <g id="グループ_9926" data-name="グループ 9926" opacity="0.212">
    <g id="グループ_9919" data-name="グループ 9919" clip-path="url(#clip-path)">
      <g id="グループ_9918" data-name="グループ 9918" transform="translate(0 0.001)">
        <g id="グループ_9917" data-name="グループ 9917" clip-path="url(#clip-path-2)">
          <path id="パス_56525" data-name="パス 56525" d="M66.42,71c-.188,0-.341-.234-.341-.523V.519c0-.287.153-.519.341-.519s.34.232.34.519V70.476c0,.289-.153.523-.34.523" transform="translate(18.081 -0.001)" fill="#fff"/>
          <path id="パス_56526" data-name="パス 56526" d="M68.484,60.6c-.188,0-.34-.234-.34-.523V4.107c0-.287.152-.521.34-.521s.341.234.341.521V60.075c0,.289-.154.523-.341.523" transform="translate(18.646 3.408)" fill="#fff"/>
          <path id="パス_56527" data-name="パス 56527" d="M70.549,48.03c-.187,0-.34-.232-.34-.521V8.438c0-.287.153-.521.34-.521s.341.234.341.521V47.509c0,.289-.153.521-.341.521" transform="translate(19.211 7.525)" fill="#fff"/>
          <path id="パス_56528" data-name="パス 56528" d="M72.614,39.1c-.187,0-.341-.234-.341-.523V11.516c0-.287.154-.519.341-.519s.34.232.34.519V38.574c0,.289-.152.523-.34.523" transform="translate(19.776 10.452)" fill="#fff"/>
          <path id="パス_56529" data-name="パス 56529" d="M74.678,33.46c-.187,0-.341-.232-.341-.523V13.462c0-.287.154-.523.341-.523s.341.236.341.523V32.938c0,.291-.153.523-.341.523" transform="translate(20.341 12.298)" fill="#fff"/>
          <path id="パス_56530" data-name="パス 56530" d="M76.743,29.793c-.187,0-.34-.234-.34-.523V14.723c0-.287.153-.519.34-.519s.341.232.341.519V29.27c0,.289-.154.523-.341.523" transform="translate(20.906 13.5)" fill="#fff"/>
          <path id="パス_56531" data-name="パス 56531" d="M78.808,38.887c-.188,0-.341-.234-.341-.523V11.59c0-.289.153-.521.341-.521s.34.232.34.521V38.365c0,.289-.153.523-.34.523" transform="translate(21.471 10.521)" fill="#fff"/>
          <path id="パス_56532" data-name="パス 56532" d="M80.873,33.511c-.187,0-.341-.234-.341-.523V13.444c0-.289.154-.521.341-.521s.341.232.341.521V32.988c0,.289-.153.523-.341.523" transform="translate(22.036 12.283)" fill="#fff"/>
          <path id="パス_56533" data-name="パス 56533" d="M82.937,47.225c-.188,0-.34-.234-.34-.523V8.716c0-.289.152-.521.34-.521s.341.232.341.521V46.7c0,.289-.154.523-.341.523" transform="translate(22.601 7.789)" fill="#fff"/>
          <path id="パス_56534" data-name="パス 56534" d="M85,37.512c-.187,0-.34-.234-.34-.523V12.062c0-.287.153-.519.34-.519s.341.232.341.519V36.99c0,.289-.153.523-.341.523" transform="translate(23.166 10.971)" fill="#fff"/>
          <path id="パス_56535" data-name="パス 56535" d="M122.168,38.288c-.187,0-.341-.232-.341-.521V11.8c0-.289.154-.523.341-.523s.34.234.34.523V37.767c0,.289-.153.521-.34.521" transform="translate(33.335 10.716)" fill="#fff"/>
          <path id="パス_56536" data-name="パス 56536" d="M124.232,30.138c-.188,0-.341-.234-.341-.521V14.6c0-.287.153-.519.341-.519s.341.232.341.519V29.617c0,.287-.154.521-.341.521" transform="translate(33.9 13.387)" fill="#fff"/>
          <path id="パス_56537" data-name="パス 56537" d="M126.3,25.845c-.189,0-.34-.232-.34-.521V16.087c0-.287.152-.523.34-.523s.341.236.341.523v9.238c0,.289-.154.521-.341.521" transform="translate(34.465 14.793)" fill="#fff"/>
          <path id="パス_56538" data-name="パス 56538" d="M128.362,20.873c-.187,0-.341-.232-.341-.521V17.8c0-.289.154-.523.341-.523s.34.234.34.523v2.551c0,.289-.153.521-.34.521" transform="translate(35.03 16.422)" fill="#fff"/>
          <path id="パス_56539" data-name="パス 56539" d="M130.428,22.507c-.189,0-.343-.234-.343-.523V17.237c0-.289.154-.521.343-.521s.34.232.34.521v4.748c0,.289-.153.523-.34.523" transform="translate(35.595 15.888)" fill="#fff"/>
          <path id="パス_56540" data-name="パス 56540" d="M132.5,20.914c-.187,0-.341-.232-.341-.523V17.786c0-.289.154-.521.341-.521s.34.232.34.521v2.606c0,.291-.152.523-.34.523" transform="translate(36.162 16.41)" fill="#fff"/>
          <path id="パス_56541" data-name="パス 56541" d="M107.715,25.606c-.187,0-.341-.232-.341-.521V16.168c0-.287.154-.521.341-.521s.34.234.34.521v8.918c0,.289-.152.521-.34.521" transform="translate(29.38 14.872)" fill="#fff"/>
          <path id="パス_56542" data-name="パス 56542" d="M109.779,33.172c-.187,0-.341-.234-.341-.523V13.558c0-.287.154-.519.341-.519s.341.232.341.519V32.65c0,.289-.154.523-.341.523" transform="translate(29.945 12.393)" fill="#fff"/>
          <path id="パス_56543" data-name="パス 56543" d="M111.844,26.558c-.188,0-.341-.234-.341-.523V15.84c0-.289.153-.521.341-.521s.34.232.34.521v10.2c0,.289-.154.523-.34.523" transform="translate(30.51 14.56)" fill="#fff"/>
          <path id="パス_56544" data-name="パス 56544" d="M113.909,47.225c-.188,0-.341-.234-.341-.523V8.716c0-.289.153-.521.341-.521s.34.232.34.521V46.7c0,.289-.153.523-.34.523" transform="translate(31.075 7.789)" fill="#fff"/>
          <path id="パス_56545" data-name="パス 56545" d="M115.973,40.451c-.187,0-.341-.234-.341-.523V11.051c0-.289.154-.521.341-.521s.34.232.34.521V39.928c0,.289-.153.523-.34.523" transform="translate(31.64 10.008)" fill="#fff"/>
          <path id="パス_56546" data-name="パス 56546" d="M118.038,28.777c-.188,0-.34-.234-.34-.523V15.077c0-.289.152-.523.34-.523s.341.234.341.523V28.254c0,.289-.154.523-.341.523" transform="translate(32.205 13.833)" fill="#fff"/>
          <path id="パス_56547" data-name="パス 56547" d="M120.1,25.606c-.187,0-.34-.232-.34-.521V16.168c0-.287.153-.521.34-.521s.341.234.341.521v8.918c0,.289-.152.521-.341.521" transform="translate(32.77 14.872)" fill="#fff"/>
          <path id="パス_56548" data-name="パス 56548" d="M87.067,34.243c-.187,0-.341-.232-.341-.521V13.191c0-.287.154-.521.341-.521s.34.234.34.521V33.722c0,.289-.153.521-.34.521" transform="translate(23.73 12.042)" fill="#fff"/>
          <path id="パス_56549" data-name="パス 56549" d="M89.132,55.837c-.187,0-.341-.234-.341-.523V5.746c0-.287.154-.519.341-.519s.341.232.341.519V55.315c0,.289-.154.523-.341.523" transform="translate(24.296 4.968)" fill="#fff"/>
          <path id="パス_56550" data-name="パス 56550" d="M91.2,38.887c-.188,0-.34-.234-.34-.523V11.59c0-.289.152-.521.34-.521s.341.232.341.521V38.365c0,.289-.154.523-.341.523" transform="translate(24.861 10.521)" fill="#fff"/>
          <path id="パス_56551" data-name="パス 56551" d="M93.261,43.573c-.189,0-.341-.234-.341-.523V9.975c0-.289.153-.521.341-.521s.34.232.34.521V43.05c0,.289-.153.523-.34.523" transform="translate(25.425 8.985)" fill="#fff"/>
          <path id="パス_56552" data-name="パス 56552" d="M95.326,34.879c-.188,0-.341-.232-.341-.521V12.973c0-.289.153-.523.341-.523s.341.234.341.523V34.358c0,.289-.154.521-.341.521" transform="translate(25.99 11.833)" fill="#fff"/>
          <path id="パス_56553" data-name="パス 56553" d="M97.39,28.287c-.187,0-.34-.232-.34-.521V15.244c0-.287.153-.521.34-.521s.341.234.341.521V27.766c0,.289-.153.521-.341.521" transform="translate(26.555 13.994)" fill="#fff"/>
          <path id="パス_56554" data-name="パス 56554" d="M99.456,26.518c-.188,0-.34-.232-.34-.521V15.853c0-.287.152-.521.34-.521s.34.234.34.521V26c0,.289-.152.521-.34.521" transform="translate(27.121 14.573)" fill="#fff"/>
          <path id="パス_56555" data-name="パス 56555" d="M101.52,40.684c-.188,0-.341-.232-.341-.523V10.972c0-.289.153-.523.341-.523s.34.234.34.523v29.19c0,.291-.153.523-.34.523" transform="translate(27.685 9.931)" fill="#fff"/>
          <path id="パス_56556" data-name="パス 56556" d="M103.585,34.427c-.187,0-.34-.232-.34-.521V13.129c0-.287.153-.523.34-.523s.341.236.341.523V33.906c0,.289-.153.521-.341.521" transform="translate(28.251 11.982)" fill="#fff"/>
          <path id="パス_56557" data-name="パス 56557" d="M105.649,31.034c-.187,0-.34-.234-.34-.523V14.3c0-.291.153-.523.34-.523s.341.232.341.523V30.512c0,.289-.153.523-.341.523" transform="translate(28.815 13.094)" fill="#fff"/>
          <path id="パス_56558" data-name="パス 56558" d="M64.355,60.6c-.188,0-.341-.234-.341-.523V4.107c0-.287.153-.521.341-.521s.34.234.34.521V60.075c0,.289-.153.523-.34.523" transform="translate(17.516 3.408)" fill="#fff"/>
          <path id="パス_56559" data-name="パス 56559" d="M62.29,48.03c-.187,0-.34-.232-.34-.521V8.438c0-.287.153-.521.34-.521s.341.234.341.521V47.509c0,.289-.153.521-.341.521" transform="translate(16.951 7.525)" fill="#fff"/>
          <path id="パス_56560" data-name="パス 56560" d="M60.225,39.1c-.188,0-.341-.234-.341-.523V11.516c0-.287.153-.519.341-.519s.341.232.341.519V38.574c0,.289-.154.523-.341.523" transform="translate(16.386 10.452)" fill="#fff"/>
          <path id="パス_56561" data-name="パス 56561" d="M58.161,33.46c-.187,0-.341-.232-.341-.523V13.462c0-.287.154-.523.341-.523s.34.236.34.523V32.938c0,.291-.153.523-.34.523" transform="translate(15.821 12.298)" fill="#fff"/>
          <path id="パス_56562" data-name="パス 56562" d="M56.1,29.793c-.188,0-.34-.234-.34-.523V14.723c0-.287.152-.519.34-.519s.341.232.341.519V29.27c0,.289-.153.523-.341.523" transform="translate(15.256 13.5)" fill="#fff"/>
          <path id="パス_56563" data-name="パス 56563" d="M54.031,38.887c-.187,0-.341-.234-.341-.523V11.59c0-.289.154-.521.341-.521s.341.232.341.521V38.365c0,.289-.154.523-.341.523" transform="translate(14.691 10.521)" fill="#fff"/>
          <path id="パス_56564" data-name="パス 56564" d="M51.967,33.511c-.187,0-.341-.234-.341-.523V13.444c0-.289.154-.521.341-.521s.34.232.34.521V32.988c0,.289-.153.523-.34.523" transform="translate(14.126 12.283)" fill="#fff"/>
          <path id="パス_56565" data-name="パス 56565" d="M49.9,47.225c-.188,0-.341-.234-.341-.523V8.716c0-.289.153-.521.341-.521s.34.232.34.521V46.7c0,.289-.152.523-.34.523" transform="translate(13.561 7.789)" fill="#fff"/>
          <path id="パス_56566" data-name="パス 56566" d="M47.837,37.512c-.188,0-.34-.234-.34-.523V12.062c0-.287.152-.519.34-.519s.341.232.341.519V36.99c0,.289-.153.523-.341.523" transform="translate(12.996 10.971)" fill="#fff"/>
          <path id="パス_56567" data-name="パス 56567" d="M10.672,38.288c-.187,0-.341-.232-.341-.521V11.8c0-.289.154-.523.341-.523s.341.234.341.523V37.767c0,.289-.154.521-.341.521" transform="translate(2.827 10.716)" fill="#fff"/>
          <path id="パス_56568" data-name="パス 56568" d="M8.607,30.138c-.187,0-.341-.234-.341-.521V14.6c0-.287.154-.519.341-.519s.34.232.34.519V29.617c0,.287-.152.521-.34.521" transform="translate(2.262 13.387)" fill="#fff"/>
          <path id="パス_56569" data-name="パス 56569" d="M6.542,25.845c-.187,0-.34-.232-.34-.521V16.087c0-.287.153-.523.34-.523s.341.236.341.523v9.238c0,.289-.154.521-.341.521" transform="translate(1.697 14.793)" fill="#fff"/>
          <path id="パス_56570" data-name="パス 56570" d="M4.477,20.873c-.187,0-.341-.232-.341-.521V17.8c0-.289.154-.523.341-.523s.341.234.341.523v2.551c0,.289-.153.521-.341.521" transform="translate(1.132 16.422)" fill="#fff"/>
          <path id="パス_56571" data-name="パス 56571" d="M2.413,22.507c-.188,0-.341-.234-.341-.523V17.237c0-.289.153-.521.341-.521s.34.232.34.521v4.748c0,.289-.153.523-.34.523" transform="translate(0.567 15.888)" fill="#fff"/>
          <path id="パス_56572" data-name="パス 56572" d="M.341,20.914c-.187,0-.341-.232-.341-.523V17.786c0-.289.154-.521.341-.521s.341.232.341.521v2.606c0,.291-.153.523-.341.523" transform="translate(0 16.41)" fill="#fff"/>
          <path id="パス_56573" data-name="パス 56573" d="M25.125,25.606c-.188,0-.341-.232-.341-.521V16.168c0-.287.153-.521.341-.521s.341.234.341.521v8.918c0,.289-.154.521-.341.521" transform="translate(6.782 14.872)" fill="#fff"/>
          <path id="パス_56574" data-name="パス 56574" d="M23.06,33.172c-.187,0-.341-.234-.341-.523V13.558c0-.287.154-.519.341-.519s.34.232.34.519V32.65c0,.289-.153.523-.34.523" transform="translate(6.217 12.393)" fill="#fff"/>
          <path id="パス_56575" data-name="パス 56575" d="M21,26.558c-.188,0-.34-.234-.34-.523V15.84c0-.289.152-.521.34-.521s.341.232.341.521v10.2c0,.289-.153.523-.341.523" transform="translate(5.652 14.56)" fill="#fff"/>
          <path id="パス_56576" data-name="パス 56576" d="M18.93,47.225c-.187,0-.34-.234-.34-.523V8.716c0-.289.153-.521.34-.521s.341.232.341.521V46.7c0,.289-.154.523-.341.523" transform="translate(5.087 7.789)" fill="#fff"/>
          <path id="パス_56577" data-name="パス 56577" d="M16.866,40.451c-.187,0-.341-.234-.341-.523V11.051c0-.289.154-.521.341-.521s.34.232.34.521V39.928c0,.289-.152.523-.34.523" transform="translate(4.522 10.008)" fill="#fff"/>
          <path id="パス_56578" data-name="パス 56578" d="M14.8,28.777c-.19,0-.343-.234-.343-.523V15.077c0-.289.153-.523.343-.523s.339.234.339.523V28.254c0,.289-.15.523-.339.523" transform="translate(3.957 13.833)" fill="#fff"/>
          <path id="パス_56579" data-name="パス 56579" d="M12.736,25.606c-.188,0-.34-.232-.34-.521V16.168c0-.287.152-.521.34-.521s.341.234.341.521v8.918c0,.289-.153.521-.341.521" transform="translate(3.392 14.872)" fill="#fff"/>
          <path id="パス_56580" data-name="パス 56580" d="M45.772,34.243c-.187,0-.341-.232-.341-.521V13.191c0-.287.154-.521.341-.521s.341.234.341.521V33.722c0,.289-.154.521-.341.521" transform="translate(12.431 12.042)" fill="#fff"/>
          <path id="パス_56581" data-name="パス 56581" d="M43.708,55.837c-.187,0-.341-.234-.341-.523V5.746c0-.287.154-.519.341-.519s.34.232.34.519V55.315c0,.289-.153.523-.34.523" transform="translate(11.866 4.968)" fill="#fff"/>
          <path id="パス_56582" data-name="パス 56582" d="M41.642,38.887c-.187,0-.34-.234-.34-.523V11.59c0-.289.153-.521.34-.521s.341.232.341.521V38.365c0,.289-.154.523-.341.523" transform="translate(11.301 10.521)" fill="#fff"/>
          <path id="パス_56583" data-name="パス 56583" d="M39.578,43.573c-.187,0-.341-.234-.341-.523V9.975c0-.289.154-.521.341-.521s.341.232.341.521V43.05c0,.289-.153.523-.341.523" transform="translate(10.736 8.985)" fill="#fff"/>
          <path id="パス_56584" data-name="パス 56584" d="M37.513,34.879c-.188,0-.341-.232-.341-.521V12.973c0-.289.153-.523.341-.523s.34.234.34.523V34.358c0,.289-.153.521-.34.521" transform="translate(10.171 11.833)" fill="#fff"/>
          <path id="パス_56585" data-name="パス 56585" d="M35.448,28.287c-.187,0-.34-.232-.34-.521V15.244c0-.287.153-.521.34-.521s.341.234.341.521V27.766c0,.289-.153.521-.341.521" transform="translate(9.606 13.994)" fill="#fff"/>
          <path id="パス_56586" data-name="パス 56586" d="M33.384,26.518c-.189,0-.34-.232-.34-.521V15.853c0-.287.152-.521.34-.521s.34.234.34.521V26c0,.289-.153.521-.34.521" transform="translate(9.042 14.573)" fill="#fff"/>
          <path id="パス_56587" data-name="パス 56587" d="M31.319,40.684c-.187,0-.341-.232-.341-.523V10.972c0-.289.154-.523.341-.523s.34.234.34.523v29.19c0,.291-.152.523-.34.523" transform="translate(8.476 9.931)" fill="#fff"/>
          <path id="パス_56588" data-name="パス 56588" d="M29.255,34.427c-.188,0-.341-.232-.341-.521V13.129c0-.287.153-.523.341-.523s.34.236.34.523V33.906c0,.289-.153.521-.34.521" transform="translate(7.912 11.982)" fill="#fff"/>
          <path id="パス_56589" data-name="パス 56589" d="M27.189,31.034c-.187,0-.34-.234-.34-.523V14.3c0-.291.153-.523.34-.523s.341.232.341.523V30.512c0,.289-.153.523-.341.523" transform="translate(7.347 13.094)" fill="#fff"/>
          <g id="グループ_9916" data-name="グループ 9916" transform="translate(0 -0.001)" opacity="0.3" style="mix-blend-mode: overlay;isolation: isolate">
            <g id="グループ_9915" data-name="グループ 9915" transform="translate(0 0)">
              <g id="グループ_9914" data-name="グループ 9914" clip-path="url(#clip-path)">
                <path id="パス_56590" data-name="パス 56590" d="M66.42,71c-.188,0-.341-.234-.341-.523V.519c0-.287.153-.519.341-.519s.34.232.34.519V70.476c0,.289-.153.523-.34.523" transform="translate(18.081 0)" fill="#fff"/>
                <path id="パス_56591" data-name="パス 56591" d="M68.484,60.6c-.188,0-.34-.234-.34-.523V4.107c0-.287.152-.521.34-.521s.341.234.341.521V60.075c0,.289-.154.523-.341.523" transform="translate(18.646 3.409)" fill="#fff"/>
                <path id="パス_56592" data-name="パス 56592" d="M70.549,48.03c-.187,0-.34-.232-.34-.521V8.438c0-.287.153-.521.34-.521s.341.234.341.521V47.509c0,.289-.153.521-.341.521" transform="translate(19.211 7.525)" fill="#fff"/>
                <path id="パス_56593" data-name="パス 56593" d="M72.614,39.1c-.187,0-.341-.234-.341-.523V11.516c0-.287.154-.519.341-.519s.34.232.34.519V38.574c0,.289-.152.523-.34.523" transform="translate(19.776 10.453)" fill="#fff"/>
                <path id="パス_56594" data-name="パス 56594" d="M74.678,33.46c-.187,0-.341-.232-.341-.523V13.462c0-.287.154-.523.341-.523s.341.236.341.523V32.938c0,.291-.153.523-.341.523" transform="translate(20.341 12.299)" fill="#fff"/>
                <path id="パス_56595" data-name="パス 56595" d="M76.743,29.793c-.187,0-.34-.234-.34-.523V14.723c0-.287.153-.519.34-.519s.341.232.341.519V29.27c0,.289-.154.523-.341.523" transform="translate(20.906 13.501)" fill="#fff"/>
                <path id="パス_56596" data-name="パス 56596" d="M78.808,38.887c-.188,0-.341-.234-.341-.523V11.59c0-.289.153-.521.341-.521s.34.232.34.521V38.365c0,.289-.153.523-.34.523" transform="translate(21.471 10.521)" fill="#fff"/>
                <path id="パス_56597" data-name="パス 56597" d="M80.873,33.511c-.187,0-.341-.234-.341-.523V13.444c0-.289.154-.521.341-.521s.341.232.341.521V32.988c0,.289-.153.523-.341.523" transform="translate(22.036 12.284)" fill="#fff"/>
                <path id="パス_56598" data-name="パス 56598" d="M82.937,47.225c-.188,0-.34-.234-.34-.523V8.716c0-.289.152-.521.34-.521s.341.232.341.521V46.7c0,.289-.154.523-.341.523" transform="translate(22.601 7.79)" fill="#fff"/>
                <path id="パス_56599" data-name="パス 56599" d="M85,37.512c-.187,0-.34-.234-.34-.523V12.062c0-.287.153-.519.34-.519s.341.232.341.519V36.99c0,.289-.153.523-.341.523" transform="translate(23.166 10.972)" fill="#fff"/>
                <path id="パス_56600" data-name="パス 56600" d="M122.168,38.288c-.187,0-.341-.232-.341-.521V11.8c0-.289.154-.523.341-.523s.34.234.34.523V37.767c0,.289-.153.521-.34.521" transform="translate(33.335 10.717)" fill="#fff"/>
                <path id="パス_56601" data-name="パス 56601" d="M124.232,30.138c-.188,0-.341-.234-.341-.521V14.6c0-.287.153-.519.341-.519s.341.232.341.519V29.617c0,.287-.154.521-.341.521" transform="translate(33.9 13.388)" fill="#fff"/>
                <path id="パス_56602" data-name="パス 56602" d="M126.3,25.845c-.189,0-.34-.232-.34-.521V16.087c0-.287.152-.523.34-.523s.341.236.341.523v9.238c0,.289-.154.521-.341.521" transform="translate(34.465 14.794)" fill="#fff"/>
                <path id="パス_56603" data-name="パス 56603" d="M128.362,20.873c-.187,0-.341-.232-.341-.521V17.8c0-.289.154-.523.341-.523s.34.234.34.523v2.551c0,.289-.153.521-.34.521" transform="translate(35.03 16.423)" fill="#fff"/>
                <path id="パス_56604" data-name="パス 56604" d="M130.428,22.507c-.189,0-.343-.234-.343-.523V17.237c0-.289.154-.521.343-.521s.34.232.34.521v4.748c0,.289-.153.523-.34.523" transform="translate(35.595 15.889)" fill="#fff"/>
                <path id="パス_56605" data-name="パス 56605" d="M132.5,20.914c-.187,0-.341-.232-.341-.523V17.786c0-.289.154-.521.341-.521s.34.232.34.521v2.606c0,.291-.152.523-.34.523" transform="translate(36.162 16.411)" fill="#fff"/>
                <path id="パス_56606" data-name="パス 56606" d="M107.715,25.606c-.187,0-.341-.232-.341-.521V16.168c0-.287.154-.521.341-.521s.34.234.34.521v8.918c0,.289-.152.521-.34.521" transform="translate(29.38 14.873)" fill="#fff"/>
                <path id="パス_56607" data-name="パス 56607" d="M109.779,33.172c-.187,0-.341-.234-.341-.523V13.558c0-.287.154-.519.341-.519s.341.232.341.519V32.65c0,.289-.154.523-.341.523" transform="translate(29.945 12.394)" fill="#fff"/>
                <path id="パス_56608" data-name="パス 56608" d="M111.844,26.558c-.188,0-.341-.234-.341-.523V15.84c0-.289.153-.521.341-.521s.34.232.34.521v10.2c0,.289-.154.523-.34.523" transform="translate(30.51 14.561)" fill="#fff"/>
                <path id="パス_56609" data-name="パス 56609" d="M113.909,47.225c-.188,0-.341-.234-.341-.523V8.716c0-.289.153-.521.341-.521s.34.232.34.521V46.7c0,.289-.153.523-.34.523" transform="translate(31.075 7.79)" fill="#fff"/>
                <path id="パス_56610" data-name="パス 56610" d="M115.973,40.451c-.187,0-.341-.234-.341-.523V11.051c0-.289.154-.521.341-.521s.34.232.34.521V39.928c0,.289-.153.523-.34.523" transform="translate(31.64 10.009)" fill="#fff"/>
                <path id="パス_56611" data-name="パス 56611" d="M118.038,28.777c-.188,0-.34-.234-.34-.523V15.077c0-.289.152-.523.34-.523s.341.234.341.523V28.254c0,.289-.154.523-.341.523" transform="translate(32.205 13.834)" fill="#fff"/>
                <path id="パス_56612" data-name="パス 56612" d="M120.1,25.606c-.187,0-.34-.232-.34-.521V16.168c0-.287.153-.521.34-.521s.341.234.341.521v8.918c0,.289-.152.521-.341.521" transform="translate(32.77 14.873)" fill="#fff"/>
                <path id="パス_56613" data-name="パス 56613" d="M87.067,34.243c-.187,0-.341-.232-.341-.521V13.191c0-.287.154-.521.341-.521s.34.234.34.521V33.722c0,.289-.153.521-.34.521" transform="translate(23.73 12.043)" fill="#fff"/>
                <path id="パス_56614" data-name="パス 56614" d="M89.132,55.837c-.187,0-.341-.234-.341-.523V5.746c0-.287.154-.519.341-.519s.341.232.341.519V55.315c0,.289-.154.523-.341.523" transform="translate(24.296 4.968)" fill="#fff"/>
                <path id="パス_56615" data-name="パス 56615" d="M91.2,38.887c-.188,0-.34-.234-.34-.523V11.59c0-.289.152-.521.34-.521s.341.232.341.521V38.365c0,.289-.154.523-.341.523" transform="translate(24.861 10.521)" fill="#fff"/>
                <path id="パス_56616" data-name="パス 56616" d="M93.261,43.573c-.189,0-.341-.234-.341-.523V9.975c0-.289.153-.521.341-.521s.34.232.34.521V43.05c0,.289-.153.523-.34.523" transform="translate(25.425 8.986)" fill="#fff"/>
                <path id="パス_56617" data-name="パス 56617" d="M95.326,34.879c-.188,0-.341-.232-.341-.521V12.973c0-.289.153-.523.341-.523s.341.234.341.523V34.358c0,.289-.154.521-.341.521" transform="translate(25.99 11.834)" fill="#fff"/>
                <path id="パス_56618" data-name="パス 56618" d="M97.39,28.287c-.187,0-.34-.232-.34-.521V15.244c0-.287.153-.521.34-.521s.341.234.341.521V27.766c0,.289-.153.521-.341.521" transform="translate(26.555 13.995)" fill="#fff"/>
                <path id="パス_56619" data-name="パス 56619" d="M99.456,26.518c-.188,0-.34-.232-.34-.521V15.853c0-.287.152-.521.34-.521s.34.234.34.521V26c0,.289-.152.521-.34.521" transform="translate(27.121 14.573)" fill="#fff"/>
                <path id="パス_56620" data-name="パス 56620" d="M101.52,40.684c-.188,0-.341-.232-.341-.523V10.972c0-.289.153-.523.341-.523s.34.234.34.523v29.19c0,.291-.153.523-.34.523" transform="translate(27.685 9.932)" fill="#fff"/>
                <path id="パス_56621" data-name="パス 56621" d="M103.585,34.427c-.187,0-.34-.232-.34-.521V13.129c0-.287.153-.523.34-.523s.341.236.341.523V33.906c0,.289-.153.521-.341.521" transform="translate(28.251 11.982)" fill="#fff"/>
                <path id="パス_56622" data-name="パス 56622" d="M105.649,31.034c-.187,0-.34-.234-.34-.523V14.3c0-.291.153-.523.34-.523s.341.232.341.523V30.512c0,.289-.153.523-.341.523" transform="translate(28.815 13.094)" fill="#fff"/>
                <path id="パス_56623" data-name="パス 56623" d="M64.355,60.6c-.188,0-.341-.234-.341-.523V4.107c0-.287.153-.521.341-.521s.34.234.34.521V60.075c0,.289-.153.523-.34.523" transform="translate(17.516 3.409)" fill="#fff"/>
                <path id="パス_56624" data-name="パス 56624" d="M62.29,48.03c-.187,0-.34-.232-.34-.521V8.438c0-.287.153-.521.34-.521s.341.234.341.521V47.509c0,.289-.153.521-.341.521" transform="translate(16.951 7.525)" fill="#fff"/>
                <path id="パス_56625" data-name="パス 56625" d="M60.225,39.1c-.188,0-.341-.234-.341-.523V11.516c0-.287.153-.519.341-.519s.341.232.341.519V38.574c0,.289-.154.523-.341.523" transform="translate(16.386 10.453)" fill="#fff"/>
                <path id="パス_56626" data-name="パス 56626" d="M58.161,33.46c-.187,0-.341-.232-.341-.523V13.462c0-.287.154-.523.341-.523s.34.236.34.523V32.938c0,.291-.153.523-.34.523" transform="translate(15.821 12.299)" fill="#fff"/>
                <path id="パス_56627" data-name="パス 56627" d="M56.1,29.793c-.188,0-.34-.234-.34-.523V14.723c0-.287.152-.519.34-.519s.341.232.341.519V29.27c0,.289-.153.523-.341.523" transform="translate(15.256 13.501)" fill="#fff"/>
                <path id="パス_56628" data-name="パス 56628" d="M54.031,38.887c-.187,0-.341-.234-.341-.523V11.59c0-.289.154-.521.341-.521s.341.232.341.521V38.365c0,.289-.154.523-.341.523" transform="translate(14.691 10.521)" fill="#fff"/>
                <path id="パス_56629" data-name="パス 56629" d="M51.967,33.511c-.187,0-.341-.234-.341-.523V13.444c0-.289.154-.521.341-.521s.34.232.34.521V32.988c0,.289-.153.523-.34.523" transform="translate(14.126 12.284)" fill="#fff"/>
                <path id="パス_56630" data-name="パス 56630" d="M49.9,47.225c-.188,0-.341-.234-.341-.523V8.716c0-.289.153-.521.341-.521s.34.232.34.521V46.7c0,.289-.152.523-.34.523" transform="translate(13.561 7.79)" fill="#fff"/>
                <path id="パス_56631" data-name="パス 56631" d="M47.837,37.512c-.188,0-.34-.234-.34-.523V12.062c0-.287.152-.519.34-.519s.341.232.341.519V36.99c0,.289-.153.523-.341.523" transform="translate(12.996 10.972)" fill="#fff"/>
                <path id="パス_56632" data-name="パス 56632" d="M10.672,38.288c-.187,0-.341-.232-.341-.521V11.8c0-.289.154-.523.341-.523s.341.234.341.523V37.767c0,.289-.154.521-.341.521" transform="translate(2.827 10.717)" fill="#fff"/>
                <path id="パス_56633" data-name="パス 56633" d="M8.607,30.138c-.187,0-.341-.234-.341-.521V14.6c0-.287.154-.519.341-.519s.34.232.34.519V29.617c0,.287-.152.521-.34.521" transform="translate(2.262 13.388)" fill="#fff"/>
                <path id="パス_56634" data-name="パス 56634" d="M6.542,25.845c-.187,0-.34-.232-.34-.521V16.087c0-.287.153-.523.34-.523s.341.236.341.523v9.238c0,.289-.154.521-.341.521" transform="translate(1.697 14.794)" fill="#fff"/>
                <path id="パス_56635" data-name="パス 56635" d="M4.477,20.873c-.187,0-.341-.232-.341-.521V17.8c0-.289.154-.523.341-.523s.341.234.341.523v2.551c0,.289-.153.521-.341.521" transform="translate(1.132 16.423)" fill="#fff"/>
                <path id="パス_56636" data-name="パス 56636" d="M2.413,22.507c-.188,0-.341-.234-.341-.523V17.237c0-.289.153-.521.341-.521s.34.232.34.521v4.748c0,.289-.153.523-.34.523" transform="translate(0.567 15.889)" fill="#fff"/>
                <path id="パス_56637" data-name="パス 56637" d="M.341,20.914c-.187,0-.341-.232-.341-.523V17.786c0-.289.154-.521.341-.521s.341.232.341.521v2.606c0,.291-.153.523-.341.523" transform="translate(0 16.411)" fill="#fff"/>
                <path id="パス_56638" data-name="パス 56638" d="M25.125,25.606c-.188,0-.341-.232-.341-.521V16.168c0-.287.153-.521.341-.521s.341.234.341.521v8.918c0,.289-.154.521-.341.521" transform="translate(6.782 14.873)" fill="#fff"/>
                <path id="パス_56639" data-name="パス 56639" d="M23.06,33.172c-.187,0-.341-.234-.341-.523V13.558c0-.287.154-.519.341-.519s.34.232.34.519V32.65c0,.289-.153.523-.34.523" transform="translate(6.217 12.394)" fill="#fff"/>
                <path id="パス_56640" data-name="パス 56640" d="M21,26.558c-.188,0-.34-.234-.34-.523V15.84c0-.289.152-.521.34-.521s.341.232.341.521v10.2c0,.289-.153.523-.341.523" transform="translate(5.652 14.561)" fill="#fff"/>
                <path id="パス_56641" data-name="パス 56641" d="M18.93,47.225c-.187,0-.34-.234-.34-.523V8.716c0-.289.153-.521.34-.521s.341.232.341.521V46.7c0,.289-.154.523-.341.523" transform="translate(5.087 7.79)" fill="#fff"/>
                <path id="パス_56642" data-name="パス 56642" d="M16.866,40.451c-.187,0-.341-.234-.341-.523V11.051c0-.289.154-.521.341-.521s.34.232.34.521V39.928c0,.289-.152.523-.34.523" transform="translate(4.522 10.009)" fill="#fff"/>
                <path id="パス_56643" data-name="パス 56643" d="M14.8,28.777c-.19,0-.343-.234-.343-.523V15.077c0-.289.153-.523.343-.523s.339.234.339.523V28.254c0,.289-.15.523-.339.523" transform="translate(3.957 13.834)" fill="#fff"/>
                <path id="パス_56644" data-name="パス 56644" d="M12.736,25.606c-.188,0-.34-.232-.34-.521V16.168c0-.287.152-.521.34-.521s.341.234.341.521v8.918c0,.289-.153.521-.341.521" transform="translate(3.392 14.873)" fill="#fff"/>
                <path id="パス_56645" data-name="パス 56645" d="M45.772,34.243c-.187,0-.341-.232-.341-.521V13.191c0-.287.154-.521.341-.521s.341.234.341.521V33.722c0,.289-.154.521-.341.521" transform="translate(12.431 12.043)" fill="#fff"/>
                <path id="パス_56646" data-name="パス 56646" d="M43.708,55.837c-.187,0-.341-.234-.341-.523V5.746c0-.287.154-.519.341-.519s.34.232.34.519V55.315c0,.289-.153.523-.34.523" transform="translate(11.866 4.968)" fill="#fff"/>
                <path id="パス_56647" data-name="パス 56647" d="M41.642,38.887c-.187,0-.34-.234-.34-.523V11.59c0-.289.153-.521.34-.521s.341.232.341.521V38.365c0,.289-.154.523-.341.523" transform="translate(11.301 10.521)" fill="#fff"/>
                <path id="パス_56648" data-name="パス 56648" d="M39.578,43.573c-.187,0-.341-.234-.341-.523V9.975c0-.289.154-.521.341-.521s.341.232.341.521V43.05c0,.289-.153.523-.341.523" transform="translate(10.736 8.986)" fill="#fff"/>
                <path id="パス_56649" data-name="パス 56649" d="M37.513,34.879c-.188,0-.341-.232-.341-.521V12.973c0-.289.153-.523.341-.523s.34.234.34.523V34.358c0,.289-.153.521-.34.521" transform="translate(10.171 11.834)" fill="#fff"/>
                <path id="パス_56650" data-name="パス 56650" d="M35.448,28.287c-.187,0-.34-.232-.34-.521V15.244c0-.287.153-.521.34-.521s.341.234.341.521V27.766c0,.289-.153.521-.341.521" transform="translate(9.606 13.995)" fill="#fff"/>
                <path id="パス_56651" data-name="パス 56651" d="M33.384,26.518c-.189,0-.34-.232-.34-.521V15.853c0-.287.152-.521.34-.521s.34.234.34.521V26c0,.289-.153.521-.34.521" transform="translate(9.042 14.573)" fill="#fff"/>
                <path id="パス_56652" data-name="パス 56652" d="M31.319,40.684c-.187,0-.341-.232-.341-.523V10.972c0-.289.154-.523.341-.523s.34.234.34.523v29.19c0,.291-.152.523-.34.523" transform="translate(8.476 9.932)" fill="#fff"/>
                <path id="パス_56653" data-name="パス 56653" d="M29.255,34.427c-.188,0-.341-.232-.341-.521V13.129c0-.287.153-.523.341-.523s.34.236.34.523V33.906c0,.289-.153.521-.34.521" transform="translate(7.912 11.982)" fill="#fff"/>
                <path id="パス_56654" data-name="パス 56654" d="M27.189,31.034c-.187,0-.34-.234-.34-.523V14.3c0-.291.153-.523.34-.523s.341.232.341.523V30.512c0,.289-.153.523-.341.523" transform="translate(7.347 13.094)" fill="#fff"/>
              </g>
            </g>
          </g>
        </g>
      </g>
    </g>
  </g>
</svg>
