<svg xmlns="http://www.w3.org/2000/svg" xmlns:xlink="http://www.w3.org/1999/xlink" width="150" height="149.999" viewBox="0 0 150 149.999">
  <defs>
    <clipPath id="clip-path">
      <path id="パス_57084" data-name="パス 57084" d="M150,75A75,75,0,1,1,75,0a75,75,0,0,1,75,75" transform="translate(826.234 -3095.739)" fill="#cce8eb"/>
    </clipPath>
    <clipPath id="clip-path-2">
      <rect id="長方形_7734" data-name="長方形 7734" width="5.081" height="14.293" fill="none"/>
    </clipPath>
  </defs>
  <g id="マスクグループ_7651" data-name="マスクグループ 7651" transform="translate(-826.234 3095.739)" clip-path="url(#clip-path)">
    <path id="パス_57071" data-name="パス 57071" d="M150,75A75,75,0,1,1,75,0a75,75,0,0,1,75,75" transform="translate(826.234 -3095.739)" fill="#cce8eb"/>
    <path id="パス_57072" data-name="パス 57072" d="M160.249,201.006c-2.363-4.016-30.477-45.36-32.6-48.9s-5.67-16.3-6.851-19.373-13.7-7.324-17.483-9.922-10.867-4.962-10.867-4.962l-26.288-6.115c-4.875-6.652-8.891-9.659-10.252-9.32-1.89.473-5.985,11.183-5.985,11.183s-12.757,11.34-21.971,17.01S14.483,162.5,14.483,173.838,36.454,233.215,37.4,243.846s-1.917,29.869-3.386,38.036c-3.938,21.893-8.426,33.706-13.152,52.369l16.3-.866s10.159-3.859,13.466-3.859,38.194,7.088,42.682,7.088,3.859-8.978,6.693-28.587,6.931-50.085,6.222-62.843l13.781.158s7.167,38.588,12.364,57.724,8.033,29.3,9.449,30.24,4.725-11.1,4.489-14.411-11.325-33.744-17-74.574a20.909,20.909,0,0,0,4.477-1.105c4.284-1.863,8.129-4.117,9.563-6.609l.05-.12a20.009,20.009,0,0,0,5.035,1.139c5.434,0,20.554-2.127,21.263-11.577s-7.088-21.026-9.45-25.042m-19.787,13.838c-4.426-.764-10.7-2.061-15.728-3.134l0-.154c-.139-3.881-.307-9.674-.477-15.983l.48.306a130.229,130.229,0,0,1,16.241,19.063Z" transform="translate(824.171 -3110.323)" fill="#595757"/>
    <path id="パス_57073" data-name="パス 57073" d="M88.327,219.609l-.946-1.055-.9-1.094c-.592-.733-1.2-1.452-1.771-2.2s-1.056-1.525-1.6-2.279c-.635-.86-1.218-1.758-1.832-2.633-1.171-1.659-2.23-3.392-3.358-5.078-.659-1.041-1.378-2.043-2.051-3.076-.625-.981-1.2-1.995-1.806-2.986L72.4,196.436c-.906-1.455-1.762-2.936-2.546-4.464-.526-1.006-1.09-2-1.639-3-.954-1.754-1.873-3.528-2.773-5.312-.81-1.593-1.586-3.2-2.35-4.821-.078-.158-.133-.327-.2-.488-.258-.59-.509-1.183-.782-1.764a9.658,9.658,0,0,1-.8-2.3,1.706,1.706,0,0,0-.115-.331,6.773,6.773,0,0,1-.316-2.1c-.01-.106.065-.191.1-.285a2.733,2.733,0,0,1,.181.3c.221.5.449.992.651,1.5l.8,1.941c.786,1.732,1.475,3.511,2.39,5.19.526.983.994,2.011,1.482,3.023.536,1.1,1.087,2.2,1.661,3.29.6,1.134,1.3,2.219,1.916,3.344l1.462,2.713a36.622,36.622,0,0,0,2.087,3.446c.444.634.806,1.34,1.208,2.01.483.826.921,1.678,1.424,2.49.478.787,1.066,1.5,1.573,2.268l1.523,2.35c1.023,1.549,2.041,3.1,3.109,4.615.587.853,1.125,1.739,1.743,2.571.736.991,1.435,2.017,2.225,2.966.7.868,1.386,1.758,2.122,2.6.417.467.835.933,1.264,1.386a1.629,1.629,0,0,1,.566,1.149c0,.043,0,.109-.026.116a1.528,1.528,0,0,1-.642.108c-.156-.025-.371-.251-.559-.389a.4.4,0,0,1-.048-.052l-.768-.887Z" transform="translate(817.563 -3120.178)"/>
    <path id="パス_57074" data-name="パス 57074" d="M49.323,154.6c-.412-.787-.882-1.547-1.36-2.3-.236-.371-.432-.768-.672-1.14-.283-.423-.587-.832-.9-1.23a19.49,19.49,0,0,0-1.947-2.146,15.686,15.686,0,0,0-1.4-1.052c-.451-.312-.883-.655-1.36-.925a10.9,10.9,0,0,0-1.355-.685c-.75-.286-1.5-.547-2.259-.79a7.927,7.927,0,0,0-1.558-.292,13.141,13.141,0,0,0-2.772,0,8.674,8.674,0,0,0-1.231.182l-.611.117-.6.169c-.079.022-.163.027-.243.046a4.756,4.756,0,0,0-.862.262,2.876,2.876,0,0,1-1.128.243.4.4,0,0,0-.161.046c-.337.158-.722.005-1.1-.025-.059-.005-.126-.086-.19-.131a.761.761,0,0,1,.129-.123c.234-.135.468-.274.713-.391a9.969,9.969,0,0,1,.972-.38,27.989,27.989,0,0,1,2.73-.79,6.2,6.2,0,0,1,.822-.174l.843-.057a6.615,6.615,0,0,1,.922-.025c.308.011.616-.014.922.015.322.017.646.012.97.021.322.027.647.055.969.1a10.73,10.73,0,0,1,1.5.429c.647.209,1.267.469,1.928.665a4.463,4.463,0,0,1,1.058.544c.414.255.782.573,1.177.846.389.251.8.475,1.183.744a11.446,11.446,0,0,1,1.061.936,19.344,19.344,0,0,1,1.876,2.076c.323.408.587.858.874,1.289.34.515.68,1.029,1,1.557q.433.716.833,1.45c.15.273.292.534.452.824a.562.562,0,0,1-.048.7c-.021.027-.049.066-.075.069a2.661,2.661,0,0,1-.573.071c-.113-.01-.185-.138-.274-.212a.077.077,0,0,1-.015-.03l-.232-.5Z" transform="translate(822.302 -3116.108)"/>
    <path id="パス_57075" data-name="パス 57075" d="M57.972,122.16c.148.68.309,1.355.481,2.02.086.334.179.659.278.98l.158.452c.078.169.056.13.066.142s.009,0,.035.006c.1.006.226.012.351.012.249,0,.508-.005.768-.016l1.583-.092c1.063-.07,2.132-.15,3.218-.19l.811-.014.492.01a5.921,5.921,0,0,1,.725.072,1.067,1.067,0,0,1,.894.535.566.566,0,0,1,.021.453l-.029.1-.084.122-.172.245-1.075.99-.74.7c-.713.694-1.408,1.408-2.056,2.152a11.516,11.516,0,0,0-1.662,2.338,1.776,1.776,0,0,0-.156.526l-.016.111c0,.033.028.053.037.081l.033.088.077.15c.2.4.45.809.684,1.213.491.811,1,1.618,1.511,2.423,1.026,1.607,2.076,3.2,3.134,4.794,1.287,1.931,2.641,3.818,3.949,5.738l3.662,5.463,3.429,5.042c1.83,2.66,3.644,5.325,5.379,8.057,1.148,1.806,2.37,3.579,3.549,5.373q3.1,4.718,6.137,9.485c1.809,2.843,3.6,5.7,5.34,8.586.166.286.334.576.5.862l1.84,3.136a32.719,32.719,0,0,1,2.122,4.057c.082.19.19.4.3.591a20.346,20.346,0,0,1,1.421,3.664,1.358,1.358,0,0,1,.029.481c-.119-.183-.248-.358-.355-.55l-1.51-2.7c-.632-1.163-1.27-2.327-1.93-3.475-1.815-3.108-3.575-6.251-5.558-9.27-1.156-1.761-2.245-3.6-3.379-5.4-1.237-1.966-2.469-3.939-3.745-5.879L84.433,169.8l-3.189-4.884c-1.4-2.123-2.813-4.235-4.314-6.285-.864-1.177-1.677-2.441-2.493-3.675-1-1.512-1.954-3.052-2.97-4.548-.98-1.442-2.029-2.831-3.02-4.266-1.005-1.454-1.984-2.933-2.96-4.411s-1.941-2.94-2.887-4.433c-.475-.746-.94-1.5-1.39-2.285-.113-.229-.213-.378-.336-.673a1.651,1.651,0,0,1-.07-1.017,5,5,0,0,1,.647-1.378,27.9,27.9,0,0,1,4.029-4.477l.509-.482.163-.15.059-.052c.036-.038.094-.066.113-.12-.021-.054-.089-.051-.14-.063a1.533,1.533,0,0,0-.2-.013l-.686,0c-.925.023-1.862.084-2.8.143l-1.971.117c-.331.016-.663.03-1,.032-.171,0-.34,0-.523-.012a1.591,1.591,0,0,1-.726-.188,2.532,2.532,0,0,1-.294-.4c-.065-.148-.11-.234-.148-.344-.069-.2-.146-.409-.2-.608-.123-.4-.226-.8-.327-1.2-.289-1.166-.541-2.336-.8-3.5a4.97,4.97,0,0,1-.109-2.356c.019-.062.043-.163.071-.142a2.021,2.021,0,0,1,.667.565,7.3,7.3,0,0,1,.393,1.19,1.149,1.149,0,0,1,.027.129l.43,2.139Z" transform="translate(818.215 -3112.565)"/>
    <path id="パス_57076" data-name="パス 57076" d="M120.774,139.539c1.056.682,2.1,1.381,3.131,2.11.515.363,1.024.738,1.528,1.122l.376.292.28.22.179.141c.056.049.142.082.117.172l.008,1.2c0,1.232-.059,2.462-.076,3.694-.012,1.428-.025,2.845-.038,4.266q-.036,4.053-.073,8.1c-.005,1.641.057,3.281.067,4.922q-.018,2.326-.035,4.646c0,1.433.005,2.866.009,4.308.025,2.28.034,4.557-.045,6.841-.051,1.511-.025,3.031-.035,4.548l-.077,7.975L126,201.235c-.01.232-.021.471-.03.7-.019.855-.037,1.706-.056,2.562a18.841,18.841,0,0,1-.232,3.221,3.035,3.035,0,0,0-.033.465,12.3,12.3,0,0,1-.524,2.742c-.032.138-.134.207-.2.308-.018-.154-.048-.306-.051-.462-.013-.729-.032-1.459-.024-2.188.022-.938.045-1.872.067-2.811.022-2.546.179-5.088.123-7.642-.032-1.49.044-3,.069-4.5.029-1.641.085-3.284.088-4.925-.02-1.7-.04-3.447-.06-5.149,0-1.372.057-2.747.075-4.12.023-1.8.039-3.591-.057-5.385-.055-1.032-.019-2.092,0-3.137.021-1.279.1-2.558.093-3.835,0-1.231-.093-2.459-.111-3.69-.019-1.248-.005-2.5,0-3.749q.018-3.727.036-7.452c.027-1.375.056-2.78.084-4.16q.006-1.244.014-2.484v-1.433a.056.056,0,0,0-.031-.069l-.384-.306c-1.173-.908-2.394-1.767-3.637-2.594-.7-.463-1.4-.918-2.116-1.349a2.731,2.731,0,0,1-1.211-1.157c-.019-.046-.055-.117-.027-.129a1.626,1.626,0,0,1,.7-.22,3.512,3.512,0,0,1,.836.334.539.539,0,0,1,.081.05l1.3.854Z" transform="translate(809.447 -3115.437)"/>
    <path id="パス_57077" data-name="パス 57077" d="M142.077,171.364c.028,1.141.068,2.281.079,3.422.006.563-.05,1.125-.06,1.688-.011.649,0,1.3,0,1.948,0,1.233,0,2.465.024,3.7.018.749.109,1.495.143,2.243.031.707.025,1.414.048,2.121.021.655.051,1.31.093,1.965.069,1.039.134,2.077.1,3.122-.019.69.049,1.382.075,2.074q.067,1.819.132,3.639.059,1.627.113,3.254c.005.107-.01.214-.009.322.005.39,0,.78.022,1.17a3.988,3.988,0,0,1-.128,1.476.628.628,0,0,0-.017.213,3.018,3.018,0,0,1-.437,1.267c-.027.064-.127.1-.193.147a1.173,1.173,0,0,1-.066-.208c-.037-.332-.078-.665-.094-1-.019-.428,0-.857-.023-1.284-.063-1.161.023-2.326-.11-3.488-.077-.678-.044-1.369-.057-2.054-.015-.75-.007-1.5-.045-2.249-.041-.783-.145-1.563-.187-2.346-.033-.626-.007-1.255-.021-1.882a18.13,18.13,0,0,0-.172-2.455,9.251,9.251,0,0,1-.063-1.431c0-.585.05-1.171.025-1.753-.024-.562-.133-1.12-.172-1.682s-.044-1.141-.054-1.712c-.022-1.135-.047-2.269-.051-3.4,0-.634.045-1.267.051-1.9.009-.756,0-1.514-.006-2.27q-.008-1.028-.031-2.055c-.009-.383-.018-.767-.045-1.15a.752.752,0,0,1,.326-.759c.03-.019.071-.051.1-.043a1.928,1.928,0,0,1,.556.206c.1.073.115.262.166.4a.142.142,0,0,1,0,.043c0,.236,0,.472,0,.707h-.012" transform="translate(806.158 -3119.955)"/>
    <path id="パス_57078" data-name="パス 57078" d="M79.782,120.387c7.324,13.23,35.2,83.4,35.2,83.4s-7.56-67.568-13.466-79.853l-.473-2.441c-.473-3.465-3.78-14.569-4.725-14.569s-3.622,2.992-4.41,2.835S70.49,97,69.072,97c-1.064,0-.886,5.057-.731,7.581,3.094,2.959,7.211,8.168,11.441,15.808" transform="translate(816.516 -3109.555)" fill="#efefef"/>
    <path id="パス_57079" data-name="パス 57079" d="M63.6,49.049S75.413,58.1,85.493,58.1s16.341-8.9,16.341-8.9,1.063-8.387-.354-14.057a45.581,45.581,0,0,0-3.2-9.1s.25-2.388-2.586-6.877-10.992-4.7-14.418-2.809-9.568,1.772-12.64,3.78-8.977,11.931-8.977,15.475S62.5,47.71,62.5,47.71Z" transform="translate(817.735 -3097.91)"/>
    <path id="パス_57080" data-name="パス 57080" d="M102.8,48.356c-.687-.84-2.013.391-2.866,1.368-.064-2.888-.17-5.2-.323-6.211-.591-3.9-5.552-12.678-5.552-12.678a55.758,55.758,0,0,1-7.8,1.339c-2.127,0-10.632-1.063-13.821.236s-.945,6.5-1.418,6.615-2.717,2.953-2.834,4.488.236,6.969.236,7.442a2.038,2.038,0,0,1-2.008,1.182c-.708-.237-2.363-3.662-4.607-3.426s-.708,8.624.473,12.64a6.2,6.2,0,0,0,4.843,4.488,12.439,12.439,0,0,0,1.3,5.079c1.418,3.308,8.71,12.2,11.458,15.239,1.89,2.086,8.336,1.714,10.041.079,1.968-1.89,9.214-11.655,9.686-13.782.178-.8.305-4.536.364-9.1,1.108-.629,2.59-2,2.59-3.306,0-1.772,1.3-10.4.236-11.695" transform="translate(817.592 -3100.131)" fill="#f4a995"/>
    <g id="グループ_10061" data-name="グループ 10061" transform="translate(905.039 -3048.704)" opacity="0.46">
      <g id="グループ_10060" data-name="グループ 10060" transform="translate(0 0)">
        <g id="グループ_10059" data-name="グループ 10059" clip-path="url(#clip-path-2)">
          <path id="パス_57081" data-name="パス 57081" d="M91.895,54.848s4.961,6.418,5.079,7.6-4.961,6.693-4.961,6.693Z" transform="translate(-91.895 -54.848)" fill="#fff"/>
        </g>
      </g>
    </g>
    <path id="パス_57082" data-name="パス 57082" d="M95.567,109.712c-1.732-10.08-1.575-23-1.575-23L71.784,77.9s.473,12.6,0,18.9c0,0,12.994,12.049,17.6,13.348s6.182-.433,6.182-.433" transform="translate(816.009 -3106.835)" fill="#f4a995"/>
    <path id="パス_57083" data-name="パス 57083" d="M114.264,174.922c-4.088-14.423-10.891-34-10.891-35.136,0-1.181,3.543-4.96,2.717-8.741s-5.434-9.1-6.5-8.977-7.56,9.923-7.56,9.923,7.088,6.969,7.324,8.032c.218.982,2.753,17.178,3.6,29.233,8.112,19.718,15.415,38.1,15.415,38.1s-1.7-15.164-4.111-32.432" transform="translate(813.124 -3113.126)" fill="#bd8f0c"/>
  </g>
</svg>
