<svg xmlns="http://www.w3.org/2000/svg" viewBox="0 0 334.38 160.41"><defs><style>.cls-1{fill:#231815;}.cls-2{fill:#0077c4;}</style></defs><g id="レイヤー_2" data-name="レイヤー 2"><g id="design"><path class="cls-1" d="M20.17,147.45a8.08,8.08,0,0,1-2.58,5.94,8.84,8.84,0,0,1-6,2.39,8.45,8.45,0,1,1-.08-16.89c3.11,0,6.71,1.91,7.87,5.09h-3.6a5.26,5.26,0,0,0-4.34-2.28A5.64,5.64,0,1,0,11.57,153a5.36,5.36,0,0,0,4.81-3H9.58v-2.81H20.17Z"/><path class="cls-1" d="M21.49,155.46V139.22h2.92v16.24Z"/><path class="cls-1" d="M25.75,149.38a6.52,6.52,0,0,1,6.5-6.52,6.42,6.42,0,0,1,6.45,6.47,6.35,6.35,0,0,1-6.45,6.52A6.53,6.53,0,0,1,25.75,149.38Zm10,0a3.73,3.73,0,0,0-3.56-3.86,3.76,3.76,0,0,0-3.55,3.84,3.56,3.56,0,1,0,7.11,0Z"/><path class="cls-1" d="M39.91,155.46V139.22h2.92v5.16a5.42,5.42,0,0,1,3.79-1.52,6.26,6.26,0,0,1,6.12,6.32c0,3.42-2.24,6.67-6.05,6.67A4.94,4.94,0,0,1,42.58,154v1.47Zm9.92-6.13a3.59,3.59,0,1,0-7.18-.13,3.73,3.73,0,0,0,3.66,4A3.55,3.55,0,0,0,49.83,149.33Z"/><path class="cls-1" d="M64,155.46v-1.52a6,6,0,0,1-4.28,1.91c-3.42,0-5.9-2.87-5.9-6.56a6.18,6.18,0,0,1,6.1-6.43,5.32,5.32,0,0,1,4,1.95h0v-1.53h2.68v12.18Zm-.09-6.13a3.59,3.59,0,0,0-3.57-3.79,3.82,3.82,0,0,0,0,7.63A3.62,3.62,0,0,0,63.89,149.33Z"/><path class="cls-1" d="M68.94,155.46V139.22h2.92v16.24Z"/><path class="cls-1" d="M87.2,143.52v0a1.74,1.74,0,0,0-1.82-1.8,1.61,1.61,0,0,0-1.67,1.64c0,1.06.7,1.67,2.08,2.07,3.43,1,4.88,2.54,4.88,5.2a5,5,0,0,1-5.27,5.17,5.19,5.19,0,0,1-5.29-5h3.16a2.2,2.2,0,0,0,4.39.11c0-1.18-.79-1.88-2.08-2.34-2.57-.93-4.88-1.65-4.88-5a4.61,4.61,0,0,1,4.77-4.63,4.79,4.79,0,0,1,4.8,4.63Z"/><path class="cls-1" d="M92.77,155.46v-9.59H91.35v-2.59h1.42v-4.06h2.92v4.06h1.76v2.59H95.69v9.59Z"/><path class="cls-1" d="M108.09,155.46v-1.52a6,6,0,0,1-4.28,1.91c-3.42,0-5.9-2.87-5.9-6.56a6.18,6.18,0,0,1,6.1-6.43,5.32,5.32,0,0,1,4,1.95h0v-1.53h2.68v12.18Zm-.09-6.13a3.59,3.59,0,0,0-3.57-3.79,3.82,3.82,0,0,0,0,7.63A3.62,3.62,0,0,0,108,149.33Z"/><path class="cls-1" d="M120.51,155.46v-6.13c0-2.48-.81-3.79-2.45-3.79-.9,0-2.53.59-2.53,3.27v6.65h-2.92V143.28h2.7v1.05a4.53,4.53,0,0,1,3.36-1.47c1.58,0,4.76,1,4.76,5.4v7.2Z"/><path class="cls-1" d="M134.89,155.46V154h0a4.52,4.52,0,0,1-3.88,1.89,6.5,6.5,0,0,1,.07-13,4.7,4.7,0,0,1,3.62,1.49v-5.13h2.92v16.24Zm0-6.1a3.61,3.61,0,1,0-3.6,3.81A3.74,3.74,0,0,0,134.87,149.36Z"/><path class="cls-1" d="M148.78,155.46v-1.52a6,6,0,0,1-4.28,1.91c-3.42,0-5.9-2.87-5.9-6.56a6.18,6.18,0,0,1,6.1-6.43,5.32,5.32,0,0,1,4,1.95h0v-1.53h2.68v12.18Zm-.09-6.13a3.59,3.59,0,0,0-3.57-3.79,3.82,3.82,0,0,0,0,7.63A3.62,3.62,0,0,0,148.69,149.33Z"/><path class="cls-1" d="M153.61,155.46V143.28h2.68v1.07h0a2.81,2.81,0,0,1,2.79-1.49h.06v2.83a2.49,2.49,0,0,0-2.65,2.83v6.94Z"/><path class="cls-1" d="M169.65,155.46V154h0a4.54,4.54,0,0,1-3.89,1.89,6.5,6.5,0,0,1,.07-13,4.7,4.7,0,0,1,3.62,1.49v-5.13h2.92v16.24Zm0-6.1a3.61,3.61,0,1,0-3.6,3.81A3.74,3.74,0,0,0,169.63,149.36Z"/><path class="cls-1" d="M181,155.46V139.22h8.73V142H184v4h5.49v2.81H184v3.84h5.73v2.81Z"/><path class="cls-1" d="M199.65,155.46v-6.13c0-2.48-.81-3.79-2.46-3.79-.9,0-2.52.59-2.52,3.27v6.65h-2.92V143.28h2.7v1.05a4.52,4.52,0,0,1,3.36-1.47c1.58,0,4.76,1,4.76,5.4v7.2Z"/><path class="cls-1" d="M214.29,153.9a4.58,4.58,0,0,1-4,1.95,6.49,6.49,0,0,1-6.23-6.6,6.36,6.36,0,0,1,6.21-6.39,4.47,4.47,0,0,1,3.89,1.91h0v-1.49H217v10.16c0,4.41-3.07,7-6.65,7a6.47,6.47,0,0,1-6.12-4h3.34a3.65,3.65,0,0,0,3,1.36,3.75,3.75,0,0,0,3.73-3.8Zm-.18-4.65a3.73,3.73,0,0,0-3.6-3.71,3.63,3.63,0,0,0-3.53,3.73,3.75,3.75,0,0,0,3.64,3.9A3.7,3.7,0,0,0,214.11,149.25Z"/><path class="cls-1" d="M219,155.46V139.22h2.92v16.24Z"/><path class="cls-1" d="M224.3,141.9v-2.68h2.91v2.68Zm0,13.56V143.28h2.91v12.18Z"/><path class="cls-1" d="M234.41,146.59c-.15-.64-.48-1.05-1.16-1.05a1.07,1.07,0,0,0-1.12,1.05c0,.57.24.84,2,1.34,2.85.83,3.46,2.11,3.46,3.66a4.17,4.17,0,0,1-4.25,4.26,4.29,4.29,0,0,1-4.57-4.23h3c.24,1.12.77,1.55,1.6,1.55a1.23,1.23,0,0,0,1.32-1.22c0-.86-.64-1.12-2.31-1.67-2.43-.77-3.16-2.13-3.16-3.65a4,4,0,0,1,8,0Z"/><path class="cls-1" d="M246.92,155.46v-6.35c0-2.52-.83-3.57-2.5-3.57s-2.46,1.18-2.46,3.62v6.3H239V139.22H242v4.91a4.38,4.38,0,0,1,3.16-1.27,4.79,4.79,0,0,1,4.72,5.16v7.44Z"/><path class="cls-1" d="M258.58,155.46V142h-3v-2.81h9V142h-3v13.43Z"/><path class="cls-1" d="M265.23,155.46V143.28h2.67v1.07H268a2.8,2.8,0,0,1,2.78-1.49h.07v2.83a2.49,2.49,0,0,0-2.66,2.83v6.94Z"/><path class="cls-1" d="M281.38,155.46v-1.52a6,6,0,0,1-4.28,1.91c-3.43,0-5.9-2.87-5.9-6.56a6.17,6.17,0,0,1,6.09-6.43,5.29,5.29,0,0,1,4,1.95h.05v-1.53h2.67v12.18Zm-.09-6.13a3.59,3.59,0,0,0-3.58-3.79,3.82,3.82,0,0,0,0,7.63A3.62,3.62,0,0,0,281.29,149.33Z"/><path class="cls-1" d="M286.1,141.9v-2.68H289v2.68Zm0,13.56V143.28H289v12.18Z"/><path class="cls-1" d="M299.13,155.46v-6.13c0-2.48-.81-3.79-2.46-3.79-.9,0-2.52.59-2.52,3.27v6.65h-2.92V143.28h2.7v1.05a4.52,4.52,0,0,1,3.36-1.47c1.58,0,4.76,1,4.76,5.4v7.2Z"/><path class="cls-1" d="M304,141.9v-2.68h2.92v2.68Zm0,13.56V143.28h2.92v12.18Z"/><path class="cls-1" d="M316.93,155.46v-6.13c0-2.48-.81-3.79-2.46-3.79-.9,0-2.52.59-2.52,3.27v6.65H309V143.28h2.7v1.05a4.5,4.5,0,0,1,3.36-1.47c1.58,0,4.76,1,4.76,5.4v7.2Z"/><path class="cls-1" d="M331.57,153.9a4.58,4.58,0,0,1-4,1.95,6.49,6.49,0,0,1-6.23-6.6,6.36,6.36,0,0,1,6.21-6.39,4.47,4.47,0,0,1,3.89,1.91h0v-1.49h2.83v10.16c0,4.41-3.07,7-6.65,7a6.46,6.46,0,0,1-6.12-4h3.33a3.68,3.68,0,0,0,3,1.36,3.75,3.75,0,0,0,3.73-3.8Zm-.18-4.65a3.73,3.73,0,0,0-3.6-3.71,3.63,3.63,0,0,0-3.53,3.73,3.75,3.75,0,0,0,3.64,3.9A3.7,3.7,0,0,0,331.39,149.25Z"/><path class="cls-1" d="M179.85,41.51v-.15c-.57-6.85-4.42-11.71-11.85-11.71a10.48,10.48,0,0,0-10.86,10.72c0,6.85,4.57,10.85,13.57,13.42,22.28,6.57,31.71,16.57,31.71,33.85,0,20.71-15,33.71-34.28,33.71-18.42,0-33.28-13.29-34.42-32.43h20.57c1,8.72,6.14,14.14,14,14.14,8,0,14.57-5.85,14.57-13.42s-5.14-12.28-13.57-15.28c-16.71-6-31.7-10.71-31.7-32.85,0-18,14.28-30.14,31-30.14,16.28,0,30.28,12.28,31.28,30.14Z"/><path class="cls-1" d="M210.83,119.2V13.51h56.85V31.8H230.4V57.22h35.71V75.5H230.4v25.42h37.28V119.2Z"/><path class="cls-1" d="M295.24,119.2V31.8H275.68V13.51h58.7V31.8H314.81v87.4Z"/><path class="cls-2" d="M64.59,17.29a47.3,47.3,0,1,1-47.3,47.3,47.35,47.35,0,0,1,47.3-47.3M64.59,0a64.59,64.59,0,1,0,64.58,64.59A64.59,64.59,0,0,0,64.59,0Z"/><path class="cls-1" d="M105.48,59.06H64.59V75.5H85.94a24,24,0,1,1-1.3-24.06H103.7a41.25,41.25,0,1,0,2.16,13.15A42,42,0,0,0,105.48,59.06Z"/></g></g></svg>