<svg id="グループ_5767" data-name="グループ 5767" xmlns="http://www.w3.org/2000/svg" xmlns:xlink="http://www.w3.org/1999/xlink" width="679.62" height="315.316" viewBox="0 0 679.62 315.316">
  <defs>
    <clipPath id="clip-path">
      <rect id="長方形_430" data-name="長方形 430" width="679.62" height="315.316" fill="none"/>
    </clipPath>
  </defs>
  <g id="グループ_5766" data-name="グループ 5766" clip-path="url(#clip-path)">
    <path id="パス_52673" data-name="パス 52673" d="M80.732,230.6l-1.07-9.495c2.608-.066,5.215-.066,7.824-.134V190.345h17.251a27.337,27.337,0,0,0,1.069-4.614l11.567.134a44.479,44.479,0,0,1-1.671,4.48H135.7v14.509c.2-.268.4-.534.6-.8l6.954,6.953a114.1,114.1,0,0,1-7.555,8.626v22.935c0,4.479-2.475,6.82-6.888,6.82H114.365l-1.806-10.1,11.367.067c1.538,0,1.738-.668,1.738-2.072v-8.425c-12.369,9.761-26.545,15.645-41.722,19.524l-4.615-9.629a95.648,95.648,0,0,0,31.494-10.764c-10.03,1.135-20.059,2.072-30.089,2.607m16.917-29.286h28.016v-3.144H97.649Zm0,9.36h28.016v-3.209H97.649ZM125.6,216.89H97.649v3.878c8.357-.268,16.716-.6,25.074-1.2.869-.8,2.006-1.8,2.875-2.674"/>
    <path id="パス_52674" data-name="パス 52674" d="M169.2,190.545a169.093,169.093,0,0,0-2.608,30.758,136.21,136.21,0,0,0,1.8,23.87l-11.166.736a143.83,143.83,0,0,1-1.6-22.734,233.445,233.445,0,0,1,2.341-33.432Zm17.251,29.22c-1.538,2.072-3.21,5.015-3.21,7.622,0,4.882,7.222,4.815,10.7,4.815a160.159,160.159,0,0,0,16.048-.8l.2,10.832a121.019,121.019,0,0,1-12.971.669c-6.486,0-16.047-.334-20.795-5.282-2.206-2.206-3.009-5.55-3.009-8.625a23.937,23.937,0,0,1,3.544-11.769Zm22.466-15.045h-33.5V194.289h33.5Z"/>
    <path id="パス_52675" data-name="パス 52675" d="M258.686,193.956c13.573,0,23,8.759,23,22.533a23.871,23.871,0,0,1-15.78,23.135c-7.155,2.942-15.379,4.012-23.068,4.213L239.5,233.473c6.218,0,13.506-.536,19.39-2.474,6.954-2.341,11.367-6.687,11.367-14.376,0-7.89-4.614-12.169-12.436-12.169-8.626,0-24,4.012-32.9,6.151l-2.607-11.567c11.032-1.6,25.676-5.082,36.374-5.082"/>
    <path id="パス_52676" data-name="パス 52676" d="M313.474,213.614c-1.537,1.069-3.343,2.407-3.343,3.544a1.974,1.974,0,0,0,1.07,1.537c1.2.736,5.282,2.809,6.82,3.611,7.422,3.945,20.6,11.835,26.812,17.05l-10.764,8.024c-9.7-8.158-20.394-14.978-31.026-21.731-2.807-1.806-6.285-4.145-6.285-7.756,0-4.011,4.413-7.288,7.154-9.7,8.225-7.088,15.379-12.972,23.136-20.795l11.634,6.018c-8.157,7.422-16.382,13.573-25.208,20.193"/>
    <path id="パス_52677" data-name="パス 52677" d="M399.411,244.638c-17.92,0-27.615-10.431-27.615-27.949,0-17.251,10.43-27.949,28.35-27.949,8.492,0,15.178,2.207,19.056,4.948l-2.474,11.367c-3.811-3.21-8.826-5.35-15.646-5.35-10.965,0-16.381,6.487-16.381,16.984,0,11.1,5.616,16.983,16.314,16.983a33.52,33.52,0,0,0,8.292-1.069V222.84H397.739v-9.561h22.667v26.077c-3.878,2.808-12.169,5.282-20.995,5.282"/>
    <path id="パス_52678" data-name="パス 52678" d="M434.9,228.324a29.417,29.417,0,0,0,17.117,5.684c5.416,0,7.89-1.806,7.89-4.949,0-3.744-4.213-5.282-10.565-7.355-7.355-2.406-15.98-5.616-15.98-16.315,0-9.561,6.553-16.649,20.393-16.649,6.419,0,12.1,1.4,16.382,3.945l-2.273,11.3a23.406,23.406,0,0,0-14.042-4.613c-5.55,0-7.69,2.072-7.69,4.948,0,3.61,4.147,5.149,10.632,7.221,7.422,2.407,15.847,5.617,15.847,16.382,0,9.963-6.419,16.715-20.861,16.715-7.69,0-14.243-1.872-19.325-5.081Z"/>
    <path id="パス_52679" data-name="パス 52679" d="M485.341,189.81h37.243v10.5H497.711v10.432h22.065V220.9H497.711v12.169h25.475v10.5H485.341Z"/>
    <path id="パス_52680" data-name="パス 52680" d="M549.609,200.307H533.7v-10.5H577.96v10.5H561.979v43.262h-12.37Z"/>
    <path id="パス_52681" data-name="パス 52681" d="M101.244,304.589h7.62v.609a12.6,12.6,0,0,1-.489,3.679,7.863,7.863,0,0,1-1.612,2.772,8.359,8.359,0,0,1-6.535,2.89,8.981,8.981,0,0,1-6.629-2.8,9.627,9.627,0,0,1,10.917-15.468,11.626,11.626,0,0,1,3.524,2.867l-1.983,1.9a6.726,6.726,0,0,0-5.53-3.022,6.609,6.609,0,0,0-4.909,2.018,6.744,6.744,0,0,0-1.982,4.969,6.929,6.929,0,0,0,6.688,6.928,5.559,5.559,0,0,0,3.691-1.385,4.934,4.934,0,0,0,1.828-3.345h-4.6Z" fill="blue"/>
    <path id="パス_52682" data-name="パス 52682" d="M115,295.751v15.826h5.422v2.616h-8.205V295.751Z"/>
    <path id="パス_52683" data-name="パス 52683" d="M121.282,304.888a9.035,9.035,0,0,1,2.855-6.689,9.4,9.4,0,0,1,6.832-2.8,9.646,9.646,0,0,1,9.592,9.591,9.073,9.073,0,0,1-2.843,6.749,9.747,9.747,0,0,1-13.307.311,9.063,9.063,0,0,1-3.129-7.167m2.807.036a6.663,6.663,0,0,0,2.055,5.028,6.8,6.8,0,0,0,9.615-.036,7.157,7.157,0,0,0,.023-9.889,6.5,6.5,0,0,0-4.848-2.007,6.57,6.57,0,0,0-4.862,2.007,6.652,6.652,0,0,0-1.983,4.9"/>
    <path id="パス_52684" data-name="パス 52684" d="M143.958,314.193V295.751h2.77a12.14,12.14,0,0,1,2.951.287,4.424,4.424,0,0,1,1.875.968,5,5,0,0,1,1.23,1.756,5.3,5.3,0,0,1,.466,2.149,4.356,4.356,0,0,1-1.517,3.356,4.463,4.463,0,0,1,2.318,1.756,5.2,5.2,0,0,1-.669,6.546,5.024,5.024,0,0,1-2.067,1.278,12.019,12.019,0,0,1-3.141.346Zm2.783-10.522h.871a3.211,3.211,0,0,0,2.275-.688,2.659,2.659,0,0,0,.723-2.024,2.539,2.539,0,0,0-.74-1.977,3.088,3.088,0,0,0-2.15-.675h-.979Zm0,7.906h1.72a4.265,4.265,0,0,0,2.77-.74,2.56,2.56,0,0,0,.932-2.031,2.6,2.6,0,0,0-.9-2.006,4.639,4.639,0,0,0-3.117-.8h-1.409Z"/>
    <path id="パス_52685" data-name="パス 52685" d="M168.889,309.713h-7.9l-2.054,4.48h-3l9.125-19.6,8.8,19.6h-3.045Zm-1.135-2.615-2.735-6.271-2.867,6.271Z"/>
    <path id="パス_52686" data-name="パス 52686" d="M178.985,295.751v15.826h5.422v2.616H176.2V295.751Z"/>
    <path id="パス_52687" data-name="パス 52687" d="M205.023,298.5l-2.257,1.337a3.877,3.877,0,0,0-1.207-1.433,2.807,2.807,0,0,0-1.54-.383,2.85,2.85,0,0,0-1.924.658,2.035,2.035,0,0,0-.763,1.624q0,1.35,2.005,2.174l1.84.752a7.853,7.853,0,0,1,3.284,2.216,4.988,4.988,0,0,1,1.041,3.207,5.634,5.634,0,0,1-1.7,4.2,5.817,5.817,0,0,1-4.24,1.672,5.67,5.67,0,0,1-3.966-1.421,6.544,6.544,0,0,1-1.923-4l2.819-.621a4.792,4.792,0,0,0,.669,2.245,3.179,3.179,0,0,0,4.671.323,3.016,3.016,0,0,0,.859-2.209,3.1,3.1,0,0,0-.15-.987,2.491,2.491,0,0,0-.465-.823,3.729,3.729,0,0,0-.818-.7,7.9,7.9,0,0,0-1.2-.627l-1.779-.74q-3.788-1.6-3.786-4.683a4.44,4.44,0,0,1,1.588-3.475,5.738,5.738,0,0,1,3.954-1.409,5.518,5.518,0,0,1,4.98,3.1" fill="blue"/>
    <path id="パス_52688" data-name="パス 52688" d="M214.18,298.367v15.826H211.4V298.367h-4.24v-2.616h11.252v2.616Z"/>
    <path id="パス_52689" data-name="パス 52689" d="M230.6,309.713h-7.9l-2.054,4.48h-3l9.125-19.6,8.8,19.6h-3.045Zm-1.135-2.615-2.735-6.271L223.86,307.1Z"/>
    <path id="パス_52690" data-name="パス 52690" d="M237.909,314.193V294.5l13.449,14.07V295.751h2.783v19.565l-13.449-14.035v12.912Z"/>
    <path id="パス_52691" data-name="パス 52691" d="M258.485,314.193V295.751h3.87a14.063,14.063,0,0,1,4.395.55,8.213,8.213,0,0,1,3.141,1.827,9.536,9.536,0,0,1-.119,13.724,8.678,8.678,0,0,1-3.13,1.828,14.252,14.252,0,0,1-4.335.513Zm2.783-2.616h1.254a10.455,10.455,0,0,0,3.117-.394,6.333,6.333,0,0,0,4.3-6.21,6.407,6.407,0,0,0-2.03-4.921,7.691,7.691,0,0,0-5.387-1.685h-1.254Z"/>
    <path id="パス_52692" data-name="パス 52692" d="M286.039,309.713h-7.895l-2.054,4.48h-3l9.125-19.6,8.8,19.6h-3.045ZM284.9,307.1l-2.735-6.271L279.3,307.1Z"/>
    <path id="パス_52693" data-name="パス 52693" d="M299.6,306.333l5.71,7.86h-3.4l-5.268-7.549h-.5v7.549h-2.783V295.75h3.261q3.654,0,5.279,1.374a5.049,5.049,0,0,1,1.791,4.037,5.245,5.245,0,0,1-1.122,3.369,5.007,5.007,0,0,1-2.963,1.8m-3.463-2.114h.884q3.952,0,3.953-3.021,0-2.832-3.846-2.832h-.991Z"/>
    <path id="パス_52694" data-name="パス 52694" d="M307.877,314.193V295.751h3.87a14.063,14.063,0,0,1,4.395.55,8.213,8.213,0,0,1,3.141,1.827,9.536,9.536,0,0,1-.119,13.724,8.678,8.678,0,0,1-3.13,1.828,14.252,14.252,0,0,1-4.335.513Zm2.783-2.616h1.254a10.455,10.455,0,0,0,3.117-.394,6.333,6.333,0,0,0,4.3-6.21,6.407,6.407,0,0,0-2.03-4.921,7.691,7.691,0,0,0-5.387-1.685H310.66Z"/>
    <path id="パス_52695" data-name="パス 52695" d="M343.362,298.367h-7.393V302.8h7.178v2.615h-7.178v6.163h7.393v2.616H333.186V295.751h10.176Z" fill="blue"/>
    <path id="パス_52696" data-name="パス 52696" d="M346.98,314.193V294.5l13.449,14.07V295.751h2.783v19.565l-13.449-14.035v12.912Z"/>
    <path id="パス_52697" data-name="パス 52697" d="M377.015,304.589h7.62v.609a12.6,12.6,0,0,1-.489,3.679,7.863,7.863,0,0,1-1.612,2.772,8.359,8.359,0,0,1-6.535,2.89,8.982,8.982,0,0,1-6.629-2.8,9.627,9.627,0,0,1,10.917-15.468,11.626,11.626,0,0,1,3.524,2.867l-1.983,1.9a6.726,6.726,0,0,0-5.53-3.022,6.609,6.609,0,0,0-4.909,2.018,6.744,6.744,0,0,0-1.982,4.969,6.929,6.929,0,0,0,6.688,6.928,5.559,5.559,0,0,0,3.691-1.385,4.934,4.934,0,0,0,1.828-3.345h-4.6Z"/>
    <path id="パス_52698" data-name="パス 52698" d="M390.766,295.751v15.826h5.422v2.616h-8.205V295.751Z"/>
    <rect id="長方形_426" data-name="長方形 426" width="2.783" height="18.442" transform="translate(398.684 295.751)"/>
    <path id="パス_52699" data-name="パス 52699" d="M416.112,298.5l-2.257,1.337a3.877,3.877,0,0,0-1.207-1.433,2.807,2.807,0,0,0-1.54-.383,2.85,2.85,0,0,0-1.924.658,2.035,2.035,0,0,0-.763,1.624q0,1.35,2.005,2.174l1.84.752a7.853,7.853,0,0,1,3.284,2.216,4.988,4.988,0,0,1,1.041,3.207,5.635,5.635,0,0,1-1.7,4.2,5.817,5.817,0,0,1-4.24,1.672,5.67,5.67,0,0,1-3.966-1.421,6.544,6.544,0,0,1-1.923-4l2.819-.621a4.792,4.792,0,0,0,.669,2.245,3.179,3.179,0,0,0,4.671.323,3.016,3.016,0,0,0,.859-2.209,3.1,3.1,0,0,0-.15-.987,2.491,2.491,0,0,0-.465-.823,3.729,3.729,0,0,0-.818-.7,7.9,7.9,0,0,0-1.2-.627l-1.779-.74q-3.787-1.6-3.786-4.683a4.44,4.44,0,0,1,1.588-3.475,5.738,5.738,0,0,1,3.954-1.409,5.518,5.518,0,0,1,4.98,3.1"/>
    <path id="パス_52700" data-name="パス 52700" d="M422.657,302.965h7.954V295.75h2.783v18.443h-2.783v-8.612h-7.954v8.612h-2.783V295.75h2.783Z"/>
    <path id="パス_52701" data-name="パス 52701" d="M450.451,298.367v15.826h-2.783V298.367h-4.24v-2.616H454.68v2.616Z" fill="blue"/>
    <path id="パス_52702" data-name="パス 52702" d="M463.354,306.333l5.71,7.86h-3.4l-5.268-7.549h-.5v7.549h-2.783V295.75h3.261q3.654,0,5.279,1.374a5.049,5.049,0,0,1,1.791,4.037,5.245,5.245,0,0,1-1.122,3.369,5.007,5.007,0,0,1-2.963,1.8m-3.463-2.114h.884q3.953,0,3.953-3.021,0-2.832-3.846-2.832h-.991Z"/>
    <path id="パス_52703" data-name="パス 52703" d="M483.555,309.713H475.66l-2.054,4.48h-3l9.125-19.6,8.8,19.6H485.49ZM482.42,307.1l-2.735-6.271-2.867,6.271Z"/>
    <rect id="長方形_427" data-name="長方形 427" width="2.783" height="18.442" transform="translate(490.867 295.751)"/>
    <path id="パス_52704" data-name="パス 52704" d="M498.009,314.193V294.5l13.449,14.07V295.751h2.783v19.565l-13.449-14.035v12.912Z"/>
    <rect id="長方形_428" data-name="長方形 428" width="2.783" height="18.442" transform="translate(518.591 295.751)"/>
    <path id="パス_52705" data-name="パス 52705" d="M525.733,314.193V294.5l13.449,14.07V295.751h2.783v19.565l-13.449-14.035v12.912Z"/>
    <path id="パス_52706" data-name="パス 52706" d="M555.767,304.589h7.62v.609a12.6,12.6,0,0,1-.489,3.679,7.863,7.863,0,0,1-1.612,2.772,8.36,8.36,0,0,1-6.535,2.89,8.981,8.981,0,0,1-6.629-2.8,9.627,9.627,0,0,1,10.917-15.468,11.626,11.626,0,0,1,3.524,2.867l-1.983,1.9a6.726,6.726,0,0,0-5.53-3.022,6.609,6.609,0,0,0-4.909,2.018,6.744,6.744,0,0,0-1.982,4.969,6.929,6.929,0,0,0,6.688,6.928,5.559,5.559,0,0,0,3.691-1.385,4.934,4.934,0,0,0,1.828-3.345h-4.6Z"/>
    <rect id="長方形_429" data-name="長方形 429" width="617.102" height="92.477" transform="translate(0 68.439)" fill="blue"/>
    <path id="パス_52707" data-name="パス 52707" d="M73.1,82.957v14.61h8.1v9.972H73.1v22.92H43.186v-22.92H33.839V136.69H79.4v9.972H23.452V107.539H15.42V97.567h8.032V83.58H33.839V97.567h9.347V82.957H53.5v14.61h9.278V82.957ZM53.5,120.834h9.278V107.539H53.5Z" fill="#fff"/>
    <path id="パス_52708" data-name="パス 52708" d="M93.807,132.12l-4.846-10.248c5.677-1.385,11.424-3.254,16-7.132H94.362V84.757H151V114.74H140.063a39.6,39.6,0,0,0,16.411,7.34l-4.639,10.178A63.522,63.522,0,0,1,139.3,126.65v22.02H128.637V121.11h3.047a34.11,34.11,0,0,1-5.469-6.37h-6.787a34.975,34.975,0,0,1-5.955,6.439h3.6c-.277,14.2-3.878,22.436-17.588,27.975l-6.855-9.07c4.5-1.385,9.21-3.463,11.771-7.687a15.366,15.366,0,0,0,1.662-6.094,86.3,86.3,0,0,1-12.257,5.817M104.749,96.6h13.226V93.066H104.749Zm0,10.318h13.226v-3.739H104.749ZM127.53,96.6h13.295V93.066H127.53Zm0,10.318h13.295v-3.739H127.53Z" fill="#fff"/>
    <path id="パス_52709" data-name="パス 52709" d="M182.693,132.466c8.1-.97,14.611-3.116,20.7-8.794,5.748-5.4,9.556-13.018,11.91-20.5l9.972,5.955c-10.041,26.659-26.8,35.037-54.288,35.66l-.069-57.4h11.771Z" fill="#fff"/>
    <path id="パス_52710" data-name="パス 52710" d="M235.406,118.132c3.116-3.6,6.233-7.2,9.21-10.871,1.869-2.355,5.747-7.2,7.686-9.209,2.493-2.632,4.57-4.294,8.448-4.294,4.847,0,7.685,2.978,10.94,6.51l28.459,31.159-8.655,10.18L264.142,110.1c-1.107-1.316-2.423-2.77-3.877-2.77-1.316,0-2.493,1.593-3.74,3.324-4.362,5.817-8.447,11.841-12.879,17.588Zm46.186-27.905a63.719,63.719,0,0,1,9.348,12.464l-5.747,4.086a62.821,62.821,0,0,0-9.071-12.742Zm9.071-5.886a62.827,62.827,0,0,1,9.486,12.325l-5.677,4.225a58.91,58.91,0,0,0-9.209-12.6Z" fill="#fff"/>
    <path id="パス_52711" data-name="パス 52711" d="M330.075,104.354c0,14.264-1.384,31.16-12.326,41.616l-8.378-8.518c8.725-9.486,9.7-19.8,9.7-32.129V88.843h11.009Zm18.765,26.312c4.017-1.938,6.994-3.946,9.349-7.824a39.763,39.763,0,0,0,5.054-14.749l10.526,4.5c-1.87,7.755-4.571,14.957-9.833,21.05-6.509,7.478-16.481,10.525-26.106,10.872V87.111h11.01Z" fill="#fff"/>
    <path id="パス_52712" data-name="パス 52712" d="M415.511,134.474c5.471-.415,11.426-2.146,15.373-6.092,3.739-3.74,4.916-9.141,4.916-14.2,0-9.14-4.985-15.511-14.334-16.48a89.417,89.417,0,0,1-5.678,27.9c-2.63,6.786-7.686,13.85-15.788,13.85-10.593,0-14.471-11.911-14.471-20.774,0-19.18,14.126-31.507,32.891-31.507,17.241,0,29.013,10.318,29.013,27.975,0,8.379-2.908,17.381-9.486,22.989-5.194,4.432-12.187,6.3-18.834,6.994Zm-15.579-28.32a22.7,22.7,0,0,0-3.739,12.81c0,2.7.761,8.586,4.293,8.586,3.323,0,5.469-5.54,6.37-8.17,2.493-7.2,3.324-13.5,4.016-21.051-4.847,1.593-8.032,3.393-10.94,7.825" fill="#fff"/>
    <path id="パス_52713" data-name="パス 52713" d="M459.05,129.627v-9.763h6.994V102.622h20.5V98.883h10.248v3.739h20.5v17.242h6.994v9.763h-22.3a23.929,23.929,0,0,0,10.11,5.817,58.227,58.227,0,0,0,13.295,2.354l-5.539,10.8a44.294,44.294,0,0,1-17.035-6.162,34.254,34.254,0,0,1-11.009-10.6c-6.025,9.14-17.519,14.472-27.767,17.311l-5.817-10.941c7.271-.968,17.173-3.462,22.643-8.586Zm23.058-46.74v4.362h18.9V82.887h10.317v4.362h12.949v9.9H511.329v3.739H501.012V97.152h-18.9v3.739H472V97.152H459.05v-9.9H472V82.887Zm-5.955,28.806v8.171h9.972a20.525,20.525,0,0,0,.415-4.085v-4.086Zm20.635,2.7a29.143,29.143,0,0,1-.415,5.471h10.663v-8.171H496.788Z" fill="#fff"/>
    <path id="パス_52714" data-name="パス 52714" d="M562.547,102.76H535.126V95.074h27.421ZM560.4,92.3H536.925V85.033H560.4Zm0,20.7H536.925v-7.616H560.4Zm0,10.248H536.925v-7.547H560.4Zm0,23.959H536.925v-21.05H560.4Zm-14.057-7.548h5.4v-6.231h-5.4Zm50.9-42.515v13.364h3.531v8.309H562.2v-8.309h6.509c.553-1.87,1.039-3.739,1.592-5.54h-5.747V97.152H572.1a32.487,32.487,0,0,0,.554-3.6H563.17V85.034h36.491v8.517h-16.9c-.276,1.177-.484,2.423-.761,3.6Zm.83,50.063H564.554V122.287h33.514Zm-23.75-8.655h13.918V130.8H574.318Zm4.5-28.044H587.2v-5.54h-6.924c-.485,1.8-.97,3.67-1.454,5.54" fill="#fff"/>
    <path id="パス_52715" data-name="パス 52715" d="M633.763,146.262l-8.221-4.587c4.362-7.272,7.382-17.453,8.948-25.844l-7.606.056V107.5h8.892c.392-3.244.671-6.432.9-9.677l9.172.672c-.336,3.02-.784,5.985-1.175,9.005l3.355-.055c9.954,0,11.744,6.824,11.744,15.271,0,5.09-.559,15.215-3.579,19.3-2.349,3.132-4.922,4.195-8.78,4.195a26.2,26.2,0,0,1-5.536-.615l-.336-8.558a19.45,19.45,0,0,0,4.026.558c2.629,0,3.915-1.4,4.586-3.8a53.289,53.289,0,0,0,1.342-11.915c0-3.859-.392-6.209-4.865-6.153l-3.356.057c-1.677,9.117-4.976,22.487-9.506,30.486m39.985-15.942-8.612,1.23c-.559-8.782-2.07-16.334-7.885-23.27l5.815-3.972c6.6,7.775,9.619,15.942,10.682,26.012M666.981,98.1a47.5,47.5,0,0,1,6.711,9.9l-3.859,2.8a45.853,45.853,0,0,0-6.487-10.125Zm5.928-3.916a50.223,50.223,0,0,1,6.711,9.957l-3.858,2.8a45.918,45.918,0,0,0-6.488-10.125Z"/>
    <path id="パス_52716" data-name="パス 52716" d="M19.051,39.407H12.808V25.39a30.765,30.765,0,0,1-4.136,2.853L6.977,21.048a25.841,25.841,0,0,0,9.676-9.553H7.721V5.623h5.087V.248h6.243V5.623h4.26v5.872A38.757,38.757,0,0,1,19.258,18.4a30.951,30.951,0,0,0,6.533,4.8l-3.224,5.458a34.216,34.216,0,0,1-3.516-3.845Zm27-34.073c0,7.03-.041,14.06-.455,21.048-.165,2.77-.413,7.9-1.447,10.3a4.8,4.8,0,0,1-2.647,2.439,7.267,7.267,0,0,1-2.315.289H32.7l-1.2-6.285h4.425c1.529,0,2.48,0,2.853-3.059A114.175,114.175,0,0,0,39.6,17.574c.083-3.184.124-6.409.124-9.593h-3.97c-.082,3.266-.248,6.533-.537,9.8-.414,4.879-1.2,9.1-3.722,13.4a31.26,31.26,0,0,1-6.988,8.27l-4.342-5.293c4.094-3.6,7.153-7.691,8.312-13.108A62.924,62.924,0,0,0,29.6,7.981H24.262V1.819H46.054Zm-21.048,16L21.2,18.774a34.191,34.191,0,0,0,3.309-5.583l4.011,2.4a32.957,32.957,0,0,1-3.515,5.748" fill="blue"/>
    <path id="パス_52717" data-name="パス 52717" d="M54.152,34.28,48.4,29.69c2.439-5.044,3.225-10.959,3.514-16.5l6.244.663c-.331,6.988-1.075,13.976-4.01,20.427m23.9-29.194-2.77,6.368C69.161,8.394,64.862,7.319,58.245,6L60.6.165a74.99,74.99,0,0,1,17.45,4.921M66.681,11.537v19.89c0,.91.124,1.158,1.033,1.158h3.557a1.326,1.326,0,0,0,1.406-1.117,37.24,37.24,0,0,0,.62-6.409L79.665,27c-.248,2.6-.745,6.823-1.819,9.181-1.034,2.273-2.481,2.728-4.839,2.728H64.489c-3.1,0-4.259-1.571-4.259-4.507V11.537Zm21.875,21.13L81.774,34.28A79.048,79.048,0,0,0,76.564,13.6l6.078-2.068a82.027,82.027,0,0,1,5.914,21.13" fill="blue"/>
    <path id="パス_52718" data-name="パス 52718" d="M122.891,0l5.872,2.9a50.172,50.172,0,0,1-7.526,8.684h8.436v5.5H114.621c-1.157.827-2.316,1.612-3.515,2.4h14.515V38.538h-28.2V26.588q-2.419.93-4.838,1.737l-2.9-6.037a69.178,69.178,0,0,0,13.853-5.21H90.306v-5.5h13.233V8.6H93.408V3.307h10.131V.2h6.327v3.1h8.1V6.285A51.353,51.353,0,0,0,122.891,0m-19.269,26.63H119.46V24.148H103.622Zm0,7.031H119.46V30.847H103.622ZM109.866,8.6v2.978h2.4q1.8-1.428,3.474-2.978Z" fill="blue"/>
    <path id="パス_52719" data-name="パス 52719" d="M141.692,11.855c3.772-.2,7.542-.426,11.314-.557q3.786-.1,7.574-.2l.164,5.248q-1.329-.1-2.656-.1a20.871,20.871,0,0,0-3.213.263,15.656,15.656,0,0,0-8.165,5.213,9.11,9.11,0,0,0-2.46,5.837,4.216,4.216,0,0,0,1.115,2.787,6.682,6.682,0,0,0,3.214,1.443,33.718,33.718,0,0,0,6.525.591q1.476,0,2.952-.1l-.722,5.64c-4.033-.033-8.657-.131-12.428-1.607a8.817,8.817,0,0,1-6.066-8.525c0-4.723,3.279-8.493,7.017-11.019-4.3.362-8.591.657-12.854,1.214l-.3-5.64c2.983-.033,6-.3,8.984-.492m12.4,7.739a28.935,28.935,0,0,1,3.672,6.131L154.875,27.4a28.036,28.036,0,0,0-3.542-6.263Zm4.492-2.1a31.472,31.472,0,0,1,3.8,6.066l-2.919,1.575a28.823,28.823,0,0,0-3.672-6.2Z"/>
    <path id="パス_52720" data-name="パス 52720" d="M185.078,13.56v4.787h-8.756l-.131,4.165h.558a39.076,39.076,0,0,0,7.9-.557l.263,4.754c-1.9.557-6.034.59-8.133.59h-.754v1.017c0,4.164.525,4.722,5.444,4.722,3.639,0,6.262-.329,6.262-4.69a15.7,15.7,0,0,0-1.606-6.328l4.755-1.312a17.077,17.077,0,0,1,2.295,8.4c0,2.787-.754,5.476-3.116,7.214-2.328,1.7-6.1,1.8-8.919,1.8-2.36,0-5.148-.1-7.213-1.411-2.788-1.77-3.214-4.885-3.214-7.935,0-.492,0-.984.033-1.476H165.37V22.512h5.443l.1-4.165H165.6V13.56h5.412l.065-3.64,5.574.033-.131,3.607Z"/>
    <path id="パス_52721" data-name="パス 52721" d="M203.19,11.855c3.772-.2,7.542-.426,11.314-.557q3.786-.1,7.574-.2l.164,5.248q-1.329-.1-2.656-.1a20.871,20.871,0,0,0-3.213.263,15.656,15.656,0,0,0-8.165,5.213,9.11,9.11,0,0,0-2.46,5.837,4.216,4.216,0,0,0,1.115,2.787,6.682,6.682,0,0,0,3.214,1.443,33.718,33.718,0,0,0,6.525.591q1.476,0,2.952-.1l-.722,5.64c-4.033-.033-8.657-.131-12.428-1.607a8.817,8.817,0,0,1-6.066-8.525c0-4.723,3.279-8.493,7.017-11.019-4.3.362-8.591.657-12.854,1.214l-.3-5.64c2.983-.033,6-.3,8.984-.492m12.4,7.739a28.935,28.935,0,0,1,3.672,6.131L216.373,27.4a28.036,28.036,0,0,0-3.542-6.263Zm4.492-2.1a31.473,31.473,0,0,1,3.8,6.066l-2.919,1.575a28.823,28.823,0,0,0-3.672-6.2Z"/>
    <path id="パス_52722" data-name="パス 52722" d="M245.079,20.25a51.061,51.061,0,0,0,8.592-1.181l.689,4.427a64.488,64.488,0,0,1-7.51.984,18.992,18.992,0,0,0,2.624,3.639l-4.656,2.821a20.169,20.169,0,0,1-3.707-6.263H226.979V20.348l12.722.033c-.229-.853-.425-1.7-.623-2.558H228.126V13.4H238.39c-.1-1.148-.2-2.3-.262-3.444l5.41-.131c.033,1.148.131,2.263.2,3.411a44.52,44.52,0,0,0,7.542-1.017l.525,4.525a55.288,55.288,0,0,1-7.378.885c.2.886.394,1.738.655,2.624m-9.115,8.3a3.964,3.964,0,0,0-1.181,2.394c0,2.131,4.427,2.262,6.591,2.262h.754c2.951,0,5.87-.164,8.788-.393l.23,5.05c-2.493.2-4.985.229-7.477.229a65.09,65.09,0,0,1-6.689-.3,13.452,13.452,0,0,1-3.9-1.05,5.823,5.823,0,0,1-3.607-5.147,7.56,7.56,0,0,1,2.263-4.886Z"/>
    <path id="パス_52723" data-name="パス 52723" d="M265.911,10.675c4.361,0,8.756-.1,13.116-.263v4c-2.36,1.606-4.623,3.311-6.885,5.016a16.2,16.2,0,0,1,3.082-.36,9.568,9.568,0,0,1,7.476,3.377,9.509,9.509,0,0,1,1.673,5.542,9.552,9.552,0,0,1-2.854,7.018c-2.589,2.426-6.1,3.246-9.542,3.246a10.878,10.878,0,0,1-7.213-2.164,4.99,4.99,0,0,1-1.739-3.739c0-3.443,3.214-5.41,6.362-5.41a8.631,8.631,0,0,1,7.935,5.214,5.1,5.1,0,0,0,1.935-4.034c0-3.508-3.082-4.853-6.164-4.853-5.149,0-8.952,3.246-13.347,7.477l-2.951-4.4c4.657-3.475,9.215-7.148,13.608-11.017-3.311.2-6.591.328-9.87.393V10.641c1.772,0,3.574.034,5.378.034m3.378,20.232c-.755,0-1.771.393-1.771,1.278,0,1.771,2.656,2,3.935,2a10.394,10.394,0,0,0,1.771-.164c-.722-1.7-1.935-3.114-3.935-3.114"/>
    <path id="パス_52724" data-name="パス 52724" d="M307.793,7.81h5.337l-13.137,35h-5.3Z"/>
    <path id="パス_52725" data-name="パス 52725" d="M326.443,14.8V8.559h18.112V2.315h6.534V8.559h8.931V14.8h-8.89l.042,16.788a5.914,5.914,0,0,1-1.9,4.591c-1.53,1.2-3.349,1.281-5.211,1.281-1.736,0-3.514-.083-5.293-.124l-.95-6.45c1.364.082,3.639.289,4.92.289,1.034,0,1.9-.124,1.9-1.406l-.041-9.221c-4.176,5.541-10.049,9.883-16.086,13.108l-3.927-5.127A51.847,51.847,0,0,0,342.322,14.8Z" fill="blue"/>
    <path id="パス_52726" data-name="パス 52726" d="M381.629,9.882l-3.474,6a53.324,53.324,0,0,0-12.9-6.286l2.935-5.623a54.987,54.987,0,0,1,13.44,5.913m-15.59,20.056c6.658-.579,13.812-2.233,19.021-6.74,4.839-4.219,7.9-11.289,9.511-17.451l5.789,4.011c-5.293,17.409-14.885,25.059-32.832,27.292Z" fill="blue"/>
    <path id="パス_52727" data-name="パス 52727" d="M437.64,13.108c-.661,6.988-2.852,14.39-8.724,18.773-4.632,3.515-12.7,5.127-18.4,5.541l-1.985-6.2c4.466-.248,9.966-.909,14.019-2.811a13.631,13.631,0,0,0,7.236-9.222H404.353V13.108Zm-2.6-3.8H407.372V3.266h27.664Z" fill="blue"/>
    <path id="パス_52728" data-name="パス 52728" d="M465.258,37.339h-7.03V20.84a67.869,67.869,0,0,1-13.233,5.954l-3.307-5.83c11.7-3.805,21.5-9.925,29.441-19.436l5.831,4.094a79.135,79.135,0,0,1-11.7,10.628Z" fill="blue"/>
    <path id="パス_52729" data-name="パス 52729" d="M497.361,9.882l-3.474,6a53.324,53.324,0,0,0-12.9-6.286l2.935-5.623a54.987,54.987,0,0,1,13.44,5.913m-15.59,20.056c6.658-.579,13.812-2.233,19.021-6.74,4.839-4.219,7.9-11.289,9.511-17.451l5.789,4.011C510.8,27.167,501.207,34.817,483.26,37.05Z" fill="blue"/>
    <path id="パス_52730" data-name="パス 52730" d="M528.206,11.855c3.772-.2,7.542-.426,11.314-.557q3.786-.1,7.574-.2l.164,5.248q-1.329-.1-2.656-.1a20.871,20.871,0,0,0-3.213.263,15.656,15.656,0,0,0-8.165,5.213,9.11,9.11,0,0,0-2.46,5.837,4.216,4.216,0,0,0,1.115,2.787,6.682,6.682,0,0,0,3.214,1.443,33.718,33.718,0,0,0,6.525.591q1.476,0,2.952-.1l-.722,5.64c-4.033-.033-8.657-.131-12.428-1.607a8.817,8.817,0,0,1-6.066-8.525c0-4.723,3.279-8.493,7.017-11.019-4.3.362-8.591.657-12.854,1.214l-.3-5.64c2.983-.033,6-.3,8.984-.492m12.4,7.739a28.935,28.935,0,0,1,3.672,6.131L541.389,27.4a28.035,28.035,0,0,0-3.542-6.263Zm4.492-2.1a31.472,31.472,0,0,1,3.8,6.066l-2.919,1.575a28.822,28.822,0,0,0-3.672-6.2Z"/>
    <path id="パス_52731" data-name="パス 52731" d="M571.593,13.56v4.787h-8.757l-.13,4.165h.557a39.081,39.081,0,0,0,7.9-.557l.263,4.754c-1.9.557-6.035.59-8.134.59h-.753v1.017c0,4.164.525,4.722,5.443,4.722,3.64,0,6.262-.329,6.262-4.69a15.681,15.681,0,0,0-1.606-6.328l4.755-1.312a17.067,17.067,0,0,1,2.3,8.4c0,2.787-.754,5.476-3.116,7.214-2.329,1.7-6.1,1.8-8.92,1.8-2.359,0-5.148-.1-7.213-1.411-2.787-1.77-3.214-4.885-3.214-7.935,0-.492,0-.984.034-1.476h-5.378V22.512h5.443l.1-4.165h-5.313V13.56h5.412l.065-3.64,5.573.033-.13,3.607Z"/>
    <path id="パス_52732" data-name="パス 52732" d="M589.705,11.855c3.772-.2,7.542-.426,11.313-.557l7.575-.2.163,5.248c-.886-.066-1.769-.1-2.655-.1a20.871,20.871,0,0,0-3.213.263,15.659,15.659,0,0,0-8.166,5.213,9.114,9.114,0,0,0-2.459,5.837,4.216,4.216,0,0,0,1.115,2.787,6.674,6.674,0,0,0,3.213,1.443,33.721,33.721,0,0,0,6.526.591q1.476,0,2.951-.1l-.722,5.64c-4.033-.033-8.656-.131-12.427-1.607a8.816,8.816,0,0,1-6.067-8.525c0-4.723,3.279-8.493,7.018-11.019-4.3.362-8.591.657-12.854,1.214l-.295-5.64c2.982-.033,6-.3,8.984-.492m12.4,7.739a28.978,28.978,0,0,1,3.672,6.131L602.888,27.4a28.075,28.075,0,0,0-3.542-6.263Zm4.492-2.1a31.42,31.42,0,0,1,3.8,6.066l-2.919,1.575a28.822,28.822,0,0,0-3.672-6.2Z"/>
    <path id="パス_52733" data-name="パス 52733" d="M631.593,20.25a51.061,51.061,0,0,0,8.592-1.181l.689,4.427a64.49,64.49,0,0,1-7.51.984,18.993,18.993,0,0,0,2.624,3.639l-4.656,2.821a20.169,20.169,0,0,1-3.707-6.263H613.493V20.348l12.722.033c-.229-.853-.425-1.7-.623-2.558H614.64V13.4H624.9c-.1-1.148-.2-2.3-.262-3.444l5.41-.131c.033,1.148.131,2.263.2,3.411a44.521,44.521,0,0,0,7.542-1.017l.525,4.525a55.287,55.287,0,0,1-7.378.885c.2.886.394,1.738.655,2.624m-9.115,8.3A3.964,3.964,0,0,0,621.3,30.94c0,2.131,4.427,2.262,6.591,2.262h.754c2.951,0,5.87-.164,8.788-.393l.23,5.05c-2.493.2-4.985.229-7.477.229a65.088,65.088,0,0,1-6.689-.3,13.453,13.453,0,0,1-3.9-1.05,5.823,5.823,0,0,1-3.607-5.147,7.56,7.56,0,0,1,2.263-4.886Z"/>
    <path id="パス_52734" data-name="パス 52734" d="M652.425,10.675c4.361,0,8.755-.1,13.117-.263v4c-2.36,1.606-4.623,3.311-6.886,5.016a16.215,16.215,0,0,1,3.083-.36,9.568,9.568,0,0,1,7.475,3.377,9.51,9.51,0,0,1,1.674,5.542,9.552,9.552,0,0,1-2.854,7.018c-2.589,2.426-6.1,3.246-9.542,3.246a10.878,10.878,0,0,1-7.213-2.164,4.988,4.988,0,0,1-1.74-3.739c0-3.443,3.214-5.41,6.362-5.41a8.63,8.63,0,0,1,7.935,5.214,5.1,5.1,0,0,0,1.935-4.034c0-3.508-3.081-4.853-6.164-4.853-5.149,0-8.951,3.246-13.347,7.477l-2.95-4.4c4.656-3.475,9.214-7.148,13.607-11.017-3.31.2-6.591.328-9.87.393V10.641c1.773,0,3.575.034,5.378.034M655.8,30.907c-.755,0-1.772.393-1.772,1.278,0,1.771,2.656,2,3.935,2a10.406,10.406,0,0,0,1.772-.164c-.723-1.7-1.935-3.114-3.935-3.114"/>
  </g>
</svg>
