<svg xmlns="http://www.w3.org/2000/svg" width="32" height="32" viewBox="0 0 32 32">
  <path id="refresh_FILL0_wght400_GRAD0_opsz24" d="M176-768a15.442,15.442,0,0,1-11.35-4.65A15.442,15.442,0,0,1,160-784a15.442,15.442,0,0,1,4.65-11.35A15.442,15.442,0,0,1,176-800a15.835,15.835,0,0,1,6.6,1.425A15.245,15.245,0,0,1,188-794.5V-800h4v14H178v-4h8.4a11.674,11.674,0,0,0-4.375-4.4A11.856,11.856,0,0,0,176-796a11.573,11.573,0,0,0-8.5,3.5A11.573,11.573,0,0,0,164-784a11.572,11.572,0,0,0,3.5,8.5A11.572,11.572,0,0,0,176-772a11.726,11.726,0,0,0,6.95-2.2,11.618,11.618,0,0,0,4.35-5.8h4.2a15.792,15.792,0,0,1-5.7,8.65A15.519,15.519,0,0,1,176-768Z" transform="translate(-160 800)" fill="#fff"/>
</svg>
