<svg id="グループ_9357" data-name="グループ 9357" xmlns="http://www.w3.org/2000/svg" xmlns:xlink="http://www.w3.org/1999/xlink" width="441.334" height="170.492" viewBox="0 0 441.334 170.492">
  <defs>
    <clipPath id="clip-path">
      <rect id="長方形_5820" data-name="長方形 5820" width="441.334" height="170.492"/>
    </clipPath>
  </defs>
  <g id="グループ_9356" data-name="グループ 9356" clip-path="url(#clip-path)">
    <path id="パス_56174" data-name="パス 56174" d="M206.441,52.154v-.189c-.755-9.048-5.845-15.457-15.648-15.457-8.1,0-14.324,5.843-14.324,14.137,0,9.048,6.031,14.326,17.908,17.72,29.4,8.671,41.846,21.866,41.846,44.675,0,27.334-19.793,44.488-45.241,44.488-24.317,0-43.922-17.531-45.43-42.79H172.7c1.32,11.5,8.107,18.661,18.475,18.661,10.557,0,19.227-7.729,19.227-17.719,0-10.179-6.784-16.212-17.908-20.17-22.053-7.918-41.846-14.139-41.846-43.357,0-23.752,18.849-39.775,40.9-39.775,21.489,0,39.963,16.211,41.282,39.775Z" transform="translate(30.94 2.631)"/>
    <path id="パス_56175" data-name="パス 56175" d="M229.49,154.2V14.711h75.026V38.84h-49.2V72.393h47.125V96.522H255.315v33.554h49.2V154.2Z" transform="translate(48.782 3.127)"/>
    <path id="パス_56176" data-name="パス 56176" d="M325.9,154.2V38.84H300.07V14.711h77.478V38.84H351.721V154.2Z" transform="translate(63.786 3.127)"/>
    <path id="パス_56177" data-name="パス 56177" d="M85.246,22.822A62.424,62.424,0,1,1,22.822,85.246,62.5,62.5,0,0,1,85.246,22.822M85.246,0a85.246,85.246,0,1,0,85.246,85.246A85.246,85.246,0,0,0,85.246,0" fill="#0176c2"/>
    <path id="パス_56178" data-name="パス 56178" d="M133.826,72.555H79.852v21.7h28.185A31.656,31.656,0,1,1,106.32,62.5h25.157a55.023,55.023,0,1,0,2.349,10.059" transform="translate(5.394 5.394)"/>
  </g>
</svg>
