<?xml version="1.0" encoding="UTF-8"?>
<svg id="Layer_2" data-name="Layer 2" xmlns="http://www.w3.org/2000/svg" viewBox="0 0 22.75 365.53">
  <defs>
    <style>
      .cls-1 {
        fill: #004fff;
      }
    </style>
  </defs>
  <g id="_デザイン" data-name="デザイン">
    <g>
      <path class="cls-1" d="M.07,8.42c0-1.65.29-3.11.87-4.38.58-1.27,1.41-2.26,2.49-2.97s2.38-1.07,3.9-1.07h.84v4h-.84c-1.26,0-2.21.4-2.84,1.19-.63.8-.95,1.88-.95,3.24s.27,2.42.81,3.11,1.23,1.03,2.07,1.03c.58,0,1.05-.17,1.41-.5.36-.34.65-.83.89-1.47.23-.64.44-1.42.64-2.34l.15-.7c.32-1.47.72-2.73,1.22-3.78.49-1.05,1.13-1.86,1.93-2.42.8-.56,1.84-.84,3.12-.84s2.37.31,3.28.93c.91.62,1.61,1.5,2.1,2.63.49,1.13.74,2.46.74,4s-.26,2.89-.76,4.09c-.51,1.19-1.27,2.13-2.28,2.82s-2.27,1.03-3.79,1.03h-.9v-4h.9c.8,0,1.44-.16,1.93-.47.49-.32.85-.77,1.08-1.36.23-.59.34-1.3.34-2.11,0-1.22-.22-2.13-.67-2.71-.45-.58-1.07-.87-1.85-.87-.52,0-.96.14-1.32.41-.36.28-.66.69-.9,1.24s-.45,1.26-.63,2.11l-.15.7c-.32,1.53-.73,2.86-1.23,3.99-.5,1.13-1.16,2.02-1.98,2.65s-1.87.95-3.15.95-2.41-.33-3.37-1c-.97-.66-1.73-1.6-2.28-2.82C.34,11.51.07,10.07.07,8.42Z"/>
      <path class="cls-1" d="M.17,26h18v-7h4v17h-4v-6H.17v-4Z"/>
      <path class="cls-1" d="M.02,47.5c0-1.78.33-3.3.98-4.58.65-1.27,1.58-2.24,2.79-2.92,1.21-.67,2.64-1.01,4.3-1.01h14.08v4H7.65c-1.35,0-2.42.39-3.2,1.16-.78.77-1.17,1.89-1.17,3.34s.39,2.57,1.17,3.34c.78.77,1.85,1.16,3.2,1.16h14.51v4h-14.08c-1.65,0-3.09-.34-4.3-1.01s-2.14-1.64-2.79-2.92c-.65-1.27-.98-2.8-.98-4.58Z"/>
      <path class="cls-1" d="M.17,60h4v3h15v-3h3v9c0,2.94-.75,5.17-2.25,6.7-1.5,1.53-3.72,2.3-6.68,2.3h-4.15c-2.95,0-5.18-.77-6.68-2.3-1.5-1.53-2.25-3.77-2.25-6.7v-9ZM4.17,67v2.1c0,1.7.43,2.94,1.28,3.72.85.78,2.05,1.18,3.59,1.18h4.26c1.56,0,2.76-.39,3.61-1.18s1.26-2.03,1.26-3.72v-2.1H4.17Z"/>
      <path class="cls-1" d="M.17,82h22v14h-4v-10h-5v9h-4v-9h-5v10H.17v-14Z"/>
      <path class="cls-1" d="M.17,100h22v8l-19,4.43v.57h19v4H.17v-8.17l19-4.28v-.55H.17v-4Z"/>
      <path class="cls-1" d="M.17,126h18v-6h4v17h-4v-7H.17v-4Z"/>
      <path class="cls-1" d="M.17,154h18v-7h4v17h-4v-6H.17v-4Z"/>
      <path class="cls-1" d="M.17,168h22v13h-4v-9h-5v9h-4v-9h-5v10H.17v-14Z"/>
      <path class="cls-1" d="M.07,192.42c0-1.65.29-3.11.87-4.38.58-1.27,1.41-2.26,2.49-2.97s2.38-1.07,3.9-1.07h.84v4h-.84c-1.26,0-2.21.4-2.84,1.19-.63.8-.95,1.88-.95,3.24s.27,2.42.81,3.11,1.23,1.03,2.07,1.03c.58,0,1.05-.17,1.41-.5.36-.34.65-.83.89-1.47.23-.64.44-1.42.64-2.34l.15-.7c.32-1.47.72-2.73,1.22-3.78.49-1.05,1.13-1.86,1.93-2.42.8-.56,1.84-.84,3.12-.84s2.37.31,3.28.93c.91.62,1.61,1.5,2.1,2.63.49,1.13.74,2.46.74,4s-.26,2.89-.76,4.09c-.51,1.19-1.27,2.13-2.28,2.82s-2.27,1.03-3.79,1.03h-.9v-4h.9c.8,0,1.44-.16,1.93-.47.49-.32.85-.77,1.08-1.36.23-.59.34-1.3.34-2.11,0-1.22-.22-2.13-.67-2.71-.45-.58-1.07-.87-1.85-.87-.52,0-.96.14-1.32.41-.36.28-.66.69-.9,1.24s-.45,1.26-.63,2.11l-.15.7c-.32,1.53-.73,2.86-1.23,3.99-.5,1.13-1.16,2.02-1.98,2.65s-1.87.95-3.15.95-2.41-.33-3.37-1c-.97-.66-1.73-1.6-2.28-2.82-.55-1.21-.83-2.65-.83-4.3Z"/>
      <path class="cls-1" d="M.17,210h18v-7h4v17h-4v-6H.17v-4Z"/>
      <path class="cls-1" d="M.17,224h22v4H.17v-4Z"/>
      <path class="cls-1" d="M.17,232h22v7.51l-19,3.71v.55l19,3.71v7.51H.17v-3h19v-1.12L.17,247.13v-6.81l19-3.75v-.56H.17v-4Z"/>
      <path class="cls-1" d="M0,269c0-2.75.75-4.94,2.27-6.56,1.51-1.62,3.67-2.44,6.48-2.44h5.25c2.81,0,4.97.81,6.48,2.44,1.51,1.63,2.27,3.81,2.27,6.56s-.76,4.94-2.27,6.56c-1.51,1.62-3.67,2.44-6.48,2.44h-5.25c-2.81,0-4.97-.81-6.48-2.44-1.51-1.63-2.27-3.81-2.27-6.56ZM3.49,269c0,1.58.46,2.81,1.38,3.69s2.15,1.31,3.69,1.31h5.64c1.54,0,2.77-.44,3.69-1.31s1.38-2.1,1.38-3.69-.46-2.78-1.38-3.67c-.92-.89-2.15-1.33-3.69-1.33h-5.64c-1.54,0-2.77.44-3.69,1.33-.92.89-1.38,2.11-1.38,3.67Z"/>
      <path class="cls-1" d="M.17,282h22v8l-19,4.43v.57h19v4H.17v-8.17l19-4.28v-.55H.17v-4Z"/>
      <path class="cls-1" d="M.17,303h22v4H.17v-4Z"/>
      <path class="cls-1" d="M.17,310.46l22,5.78v7.23L.17,329.25v-4.11l5-1.23v-8.12l-5-1.23v-4.11ZM9.17,316.82v6.06l11-2.74v-.58l-11-2.74Z"/>
      <path class="cls-1" d="M.17,332h22v4H4.17v10H.17v-14Z"/>
      <path class="cls-1" d="M.07,357.42c0-1.65.29-3.11.87-4.38.58-1.27,1.41-2.26,2.49-2.97s2.38-1.07,3.9-1.07h.84v4h-.84c-1.26,0-2.21.4-2.84,1.19-.63.8-.95,1.88-.95,3.24s.27,2.42.81,3.11,1.23,1.03,2.07,1.03c.58,0,1.05-.17,1.41-.5.36-.34.65-.83.89-1.47.23-.64.44-1.42.64-2.34l.15-.7c.32-1.47.72-2.73,1.22-3.78.49-1.05,1.13-1.86,1.93-2.42.8-.56,1.84-.84,3.12-.84s2.37.31,3.28.93c.91.62,1.61,1.5,2.1,2.63.49,1.13.74,2.46.74,4s-.26,2.89-.76,4.09c-.51,1.19-1.27,2.13-2.28,2.82s-2.27,1.03-3.79,1.03h-.9v-4h.9c.8,0,1.44-.16,1.93-.47.49-.32.85-.77,1.08-1.36.23-.59.34-1.3.34-2.11,0-1.22-.22-2.13-.67-2.71-.45-.58-1.07-.87-1.85-.87-.52,0-.96.14-1.32.41-.36.28-.66.69-.9,1.24s-.45,1.26-.63,2.11l-.15.7c-.32,1.53-.73,2.86-1.23,3.99-.5,1.13-1.16,2.02-1.98,2.65s-1.87.95-3.15.95-2.41-.33-3.37-1c-.97-.66-1.73-1.6-2.28-2.82-.55-1.21-.83-2.65-.83-4.3Z"/>
    </g>
  </g>
</svg>