<?xml version="1.0" encoding="UTF-8"?>
<svg id="Layer_1" xmlns="http://www.w3.org/2000/svg" xmlns:xlink="http://www.w3.org/1999/xlink" version="1.1" viewBox="0 0 1924.2 1516.7">
  <!-- Generator: Adobe Illustrator 29.8.1, SVG Export Plug-In . SVG Version: 2.1.1 Build 2)  -->
  <defs>
    <style>
      .st0 {
        fill: none;
      }

      .st1 {
        fill: #004fff;
      }

      .st2 {
        isolation: isolate;
      }

      .st3 {
        mix-blend-mode: multiply;
      }

      .st4 {
        clip-path: url(#clippath-1);
      }

      .st5 {
        clip-path: url(#clippath);
      }
    </style>
    <clipPath id="clippath">
      <polygon class="st0" points="4.2 1516.7 1924.2 723.3 1924.2 0 4.2 793.4 4.2 1516.7"/>
    </clipPath>
    <clipPath id="clippath-1">
      <polygon class="st0" points="4.2 1516.7 1924.2 723.3 1924.2 0 4.2 793.4 4.2 1516.7"/>
    </clipPath>
  </defs>
  <g class="st2">
    <g id="Layer_2">
      <g id="_レイヤー_1">
        <g>
          <g>
            <path class="st1" d="M207.4,694.7c-38.6,0-73.6-9.6-104.9-28.7-31.4-19.2-56.3-47.2-74.8-84C9.2,545.1,0,500.1,0,447v-148.6c0-79.6,20.4-140.8,61.1-183.5,40.7-42.7,95.9-64.1,165.6-64.1s122.6,20.2,160.4,60.6c37.8,40.4,56.7,95.1,56.7,164v3.5h-104.5v-7.1c0-21.8-4.2-41.6-12.5-59.2-8.3-17.7-20.8-31.7-37.4-42-16.6-10.3-37.5-15.5-62.7-15.5-37.5,0-67,12.7-88.4,38-21.4,25.4-32.2,59.9-32.2,103.5v152.1c0,43,10.7,77.7,32.2,103.9,21.4,26.2,51.5,39.4,90.1,39.4s66.7-11.2,84.4-33.6c17.7-22.4,26.5-50.7,26.5-84.9v-8.8h-133.5v-99h238v316.6h-98.1v-59.2h-14.5c-3.8,10-9.8,20.7-18.1,31.8-8.3,11.2-20.8,20.7-37.4,28.3-16.6,7.7-39.4,11.5-68.3,11.5h0Z"/>
            <path class="st1" d="M756.5,694.7c-43.4,0-81.7-8.5-115-25.7-33.2-17.1-59.2-41.6-78-73.4-18.8-31.8-28.1-70.2-28.1-115v-24.8h104.5v24.8c0,37.1,10.5,65,31.4,83.6s49.3,27.9,85.2,27.9,63.6-8,81.6-23.9c18-15.9,26.9-36.3,26.9-61s-4.4-31-13.3-41.6c-8.8-10.6-21.7-19.3-38.6-26.1-16.9-6.8-37.4-13.1-61.5-19l-18.5-4.4c-38.6-9.4-71.7-21.4-99.3-35.8-27.6-14.4-48.8-33.5-63.5-57-14.8-23.6-22.1-54.2-22.1-92s8.2-70,24.5-96.8c16.3-26.8,39.4-47.4,69.1-61.9,29.8-14.4,64.7-21.7,104.9-21.7s76,7.5,107.3,22.6c31.4,15,56,37.4,74,67.2,18,29.8,26.9,67.1,26.9,111.9v26.5h-104.5v-26.5c0-23.6-4.2-42.6-12.5-57-8.3-14.4-20.2-25.1-35.8-31.8-15.5-6.8-34-10.2-55.5-10.2-32.2,0-55.9,6.6-71.2,19.9-15.3,13.3-22.9,31.4-22.9,54.4s3.6,28.3,10.8,38.9c7.2,10.6,18.1,19.5,32.6,26.5,14.5,7.1,33,13.3,55.5,18.6l18.5,4.4c40.2,9.4,75.2,21.5,104.9,36.3,29.8,14.7,52.9,34.2,69.5,58.4,16.6,24.2,24.9,55.1,24.9,92.9s-8.7,70.9-26.1,99.5c-17.4,28.6-42.1,51-74,67.2-31.9,16.2-69.5,24.3-113,24.3h0s0,0,0,0Z"/>
            <path class="st1" d="M1064.5,682.3V63.2h361.8v106.1h-255.7v147.7h233.2v106.1h-233.2v153h260.5v106.1h-366.6Z"/>
            <path class="st1" d="M1656.2,682.3V169.3h-164V63.2h434.2v106.1h-164v513h-106.1Z"/>
          </g>
          <polygon class="st1" points="4.2 1516.7 1924.2 723.3 1924.2 0 4.2 793.4 4.2 1516.7"/>
          <g class="st5">
            <g class="st3">
              <path d="M207.4,691.8c-38.6,0-73.6-9.6-104.9-28.7-31.4-19.2-56.3-47.2-74.8-84C9.2,542.2,0,497.3,0,444.2v-148.6c0-79.6,20.4-140.8,61.1-183.5,40.7-42.7,95.9-64.1,165.6-64.1s122.6,20.2,160.4,60.6c37.8,40.4,56.7,95.1,56.7,164v3.5h-104.5v-7.1c0-21.8-4.2-41.6-12.5-59.2-8.3-17.7-20.8-31.7-37.4-42-16.6-10.3-37.5-15.5-62.7-15.5-37.5,0-67,12.7-88.4,38-21.4,25.4-32.2,59.9-32.2,103.5v152.1c0,43,10.7,77.7,32.2,103.9,21.4,26.2,51.5,39.4,90.1,39.4s66.7-11.2,84.4-33.6c17.7-22.4,26.5-50.7,26.5-84.9v-8.8h-133.5v-99h238v316.6h-98.1v-59.2h-14.5c-3.8,10-9.8,20.7-18.1,31.8-8.3,11.2-20.8,20.7-37.4,28.3-16.6,7.7-39.4,11.5-68.3,11.5h0Z"/>
              <path d="M756.5,691.8c-43.4,0-81.7-8.5-115-25.7-33.2-17.1-59.2-41.6-78-73.4-18.8-31.8-28.1-70.2-28.1-115v-24.8h104.5v24.8c0,37.1,10.5,65,31.4,83.6s49.3,27.9,85.2,27.9,63.6-8,81.6-23.9c18-15.9,26.9-36.3,26.9-61s-4.4-31-13.3-41.6c-8.8-10.6-21.7-19.3-38.6-26.1-16.9-6.8-37.4-13.1-61.5-19l-18.5-4.4c-38.6-9.4-71.7-21.4-99.3-35.8-27.6-14.4-48.8-33.5-63.5-57-14.8-23.6-22.1-54.2-22.1-92s8.2-70,24.5-96.8c16.3-26.8,39.4-47.4,69.1-61.9,29.8-14.4,64.7-21.7,104.9-21.7s76,7.5,107.3,22.6c31.4,15,56,37.4,74,67.2,18,29.8,26.9,67.1,26.9,111.9v26.5h-104.5v-26.5c0-23.6-4.2-42.6-12.5-57-8.3-14.4-20.2-25.1-35.8-31.8-15.5-6.8-34-10.2-55.5-10.2-32.2,0-55.9,6.6-71.2,19.9-15.3,13.3-22.9,31.4-22.9,54.4s3.6,28.3,10.8,38.9c7.2,10.6,18.1,19.5,32.6,26.5,14.5,7.1,33,13.3,55.5,18.6l18.5,4.4c40.2,9.4,75.2,21.5,104.9,36.3,29.8,14.7,52.9,34.2,69.5,58.4,16.6,24.2,24.9,55.1,24.9,92.9s-8.7,70.9-26.1,99.5c-17.4,28.6-42.1,51-74,67.2-31.9,16.2-69.5,24.3-113,24.3h0s0,0,0,0Z"/>
              <path d="M1064.5,679.5V60.4h361.8v106.1h-255.7v147.7h233.2v106.1h-233.2v153h260.5v106.1h-366.6Z"/>
              <path d="M1656.2,679.5V166.5h-164V60.4h434.2v106.1h-164v513h-106.1Z"/>
            </g>
          </g>
          <g>
            <path class="st1" d="M52.7,994.7h15.3v35.9c0,4.4-.5,8.6-1.5,12.7-1,4.1-2.6,8-5,11.8-2.3,3.8-5.6,7.3-9.8,10.5s-9.5,6.2-16,8.9-14.2,5.1-23.2,7.1c-.6-1.1-1.4-2.5-2.4-4-1-1.5-2.1-3.1-3.3-4.6-1.2-1.5-2.3-2.8-3.5-3.8,8.5-1.5,15.7-3.4,21.5-5.5,5.9-2.1,10.6-4.4,14.3-6.9,3.6-2.5,6.5-5.1,8.4-7.9s3.3-5.8,4-8.9,1-6.2,1-9.4v-35.8h0ZM6.2,1034.8h109.4v13.5H6.2v-13.5ZM7.4,976.7h106.7v13H7.4v-13ZM17.8,1006.8h86.8v33.8h-14.7v-21.2H31.9v21.2h-14.1v-33.8ZM31.1,967.3h14.3v33.2h-14.3s0-33.2,0-33.2ZM67.9,1040c4,8.2,10.2,14.5,18.6,19.1,8.4,4.6,19.2,7.5,32.2,8.9-1,1.1-2,2.4-3.2,3.9s-2.3,3.2-3.3,4.8c-1,1.7-1.9,3.2-2.6,4.7-9.3-1.6-17.4-4-24.4-7.2-6.9-3.2-12.9-7.4-17.8-12.5s-9.1-11.4-12.4-18.7l12.9-3h0ZM75.7,967.3h14.4v33.2h-14.4v-33.2Z"/>
            <path class="st1" d="M143.3,987.9h45.2v11.5h-45.2v-11.5ZM148.8,1039.5h12.2v41.6h-12.2v-41.6ZM149.1,1005.3h35v11h-35v-11h0ZM149.1,1022.3h35v11h-35v-11h0ZM149.9,971.2h34.4v10.9h-34.4v-10.9ZM155.9,1039.5h29.1v36.9h-29.1v-11.5h16.7v-13.8h-16.7v-11.5ZM187.9,1016.5h69.9v12.7h-69.9v-12.7ZM192.3,970.8h61.1v12.4h-61.1v-12.4ZM194.2,991.8h53.1v31.5h-13.9v-19.2h-39.2v-12.4h0ZM196.7,1035.7h53.3v45.1h-14.2v-32.1h-25.5v32.6h-13.7v-45.6h0ZM209.2,975.9l14.1,1.2c-.6,5.1-1.4,10.5-2.3,16.1-.9,5.7-1.8,11.1-2.7,16.4-.9,5.3-1.8,9.9-2.7,13.8h-14.1c.7-3.1,1.4-6.5,2.1-10.4s1.4-7.9,2.1-12.2,1.4-8.5,1.9-12.7c.6-4.2,1.1-8.3,1.6-12.2h0ZM202.1,1063.6h41.8v13h-41.8v-13Z"/>
            <path class="st1" d="M283.4,1010.6c4-1.2,8.9-2.8,14.5-4.7s11.3-3.9,17.2-6l2.2,10.5c-4.9,2-9.9,4.1-14.9,6.2-5,2.1-9.6,4.1-13.9,5.8l-5.1-11.9h0ZM286.6,972.7h39v11.3h-39v-11.3ZM289.8,991.3l6.9-8.4c2.7,1.3,5.5,2.9,8.6,4.8,3.1,1.9,5.5,3.7,7.1,5.3l-7.3,9.3c-1.6-1.7-3.9-3.6-6.9-5.7-3-2.1-5.8-3.9-8.5-5.3h0ZM299.7,1030.2h81.6v51.3h-15.2v-40.4h-52v40.4h-14.4v-51.3ZM307,1048.2h63.2v10.9h-63.2v-10.9ZM307.9,1066.1h62.9v11h-62.9v-11ZM322.4,972.7h13.2v40.3c0,2.8-.4,4.9-1.1,6.4s-2,2.8-3.9,3.8c-1.9.8-4.3,1.3-7,1.4-2.8.1-5.9.2-9.6.2-.2-1.5-.7-3.3-1.5-5.2s-1.5-3.6-2.2-5.1c2.1,0,4.1.1,6.1.1h4.1c.6,0,1.1-.1,1.4-.4s.4-.7.4-1.3v-40.1h0ZM332,1019l15.6,2.2c-1.5,3.2-3.1,6.1-4.9,9s-3.2,5.2-4.5,7.2l-11.9-2.6c1-2.3,2.1-5,3.2-7.9s1.9-5.5,2.4-7.9h0ZM338.5,1008.5c4.4-1.3,9.5-2.9,15.4-4.9s11.9-4,18-6.1l2.3,10.4c-5.3,2-10.6,4-16,6s-10.3,3.8-14.9,5.4l-4.9-10.8h0ZM342.1,972.7h41.8v11.3h-41.8v-11.3ZM344.1,991.2l7-8.6c2.7,1.3,5.6,2.9,8.8,4.8,3.2,1.9,5.7,3.7,7.5,5.3l-7.4,9.5c-1.6-1.7-4-3.6-7.1-5.6s-6-3.8-8.8-5.3ZM377.1,972.7h13.6v39.9c0,3-.4,5.3-1.1,6.8s-2.2,2.8-4.3,3.8c-2,.9-4.5,1.4-7.5,1.6-3,.2-6.4.3-10.4.2-.2-1.7-.8-3.6-1.5-5.6s-1.6-3.9-2.4-5.4c2.3,0,4.7.1,7,.2s3.8,0,4.5,0c.7,0,1.2-.2,1.6-.5.3-.2.5-.7.5-1.3v-39.8h0Z"/>
            <path class="st1" d="M451.1,994.1l12.7,5.3c-2.9,5-6.4,10-10.3,15s-8.1,9.8-12.5,14.2-8.6,8.4-12.9,11.7c-.4-1.1-1-2.7-1.8-4.6-.8-1.9-1.6-3.8-2.5-5.8s-1.8-3.5-2.6-4.6c3.6-2.6,7.3-5.6,10.9-8.9,3.6-3.3,7.1-7,10.4-10.8,3.3-3.8,6.1-7.7,8.5-11.7h0ZM447.9,967.5l13.8,5.6c-2.7,3.7-5.8,7.5-9.3,11.2s-7.2,7.3-11.1,10.6c-3.9,3.3-7.8,6.2-11.6,8.7-.5-1.1-1.1-2.5-2-4s-1.7-3.1-2.7-4.6c-.9-1.5-1.8-2.8-2.5-3.8,3.1-1.9,6.4-4.2,9.6-6.9,3.2-2.7,6.2-5.5,9-8.4,2.8-3,5-5.8,6.7-8.4h0ZM439.1,1021.2l13.5-13.5.7.2v73.1h-14.2v-59.9h0ZM459.7,1037.1h76v12.4h-76v-12.4h0ZM462.7,1018.4h70.4v11.9h-70.5v-11.9h0ZM467.7,1055.6l10.2-6.8c2.6,2.3,5.3,5,8.1,8s5,5.7,6.5,8l-10.8,7.6c-.9-1.5-2.1-3.3-3.7-5.2-1.6-1.9-3.3-3.9-5.1-6s-3.6-3.9-5.3-5.6h0ZM468.9,970.8h60.4v42.3h-60.4v-42.3h0ZM482.9,981.1v5.9h31.8v-5.9h-31.8ZM482.9,996.7v6.1h31.8v-6.1h-31.8ZM504.3,1028.9h14.7v37.9c0,3.3-.4,5.9-1.2,7.8-.8,1.9-2.3,3.3-4.7,4.3-2.3,1.1-5,1.7-8.1,1.9s-6.7.3-10.9.3c-.2-1.9-.8-4.1-1.7-6.6s-1.8-4.6-2.8-6.4c2.5,0,5,.1,7.5.2,2.5,0,4.1,0,4.9,0,.9,0,1.5-.3,1.8-.6s.4-.8.4-1.4v-37.6h0s0,0,0,0Z"/>
            <path class="st1" d="M625.9,987.3c-.8,6.1-1.9,12.7-3.2,19.6-1.3,7-3,14-5.2,21.1-2.3,8.2-5.1,15.2-8.2,21.1-3.2,5.9-6.6,10.4-10.4,13.6s-7.9,4.8-12.3,4.8-8.5-1.5-12.3-4.6-6.8-7.2-9-12.6c-2.2-5.3-3.3-11.4-3.3-18.2s1.4-13.7,4.2-19.9c2.8-6.2,6.8-11.7,11.8-16.5s11-8.6,17.7-11.3,14-4.1,21.9-4.1,14.3,1.2,20.3,3.6,11.2,5.8,15.5,10.1c4.3,4.3,7.6,9.3,9.8,15s3.4,11.9,3.4,18.6-1.7,16.1-5.2,22.8c-3.5,6.7-8.6,12.2-15.5,16.6-6.8,4.4-15.3,7.4-25.5,9l-9.1-14.4c2.3-.2,4.4-.5,6.2-.8,1.8-.3,3.5-.7,5.1-1.1,3.9-1,7.5-2.4,10.8-4.2,3.3-1.8,6.3-4.1,8.8-6.8,2.5-2.7,4.5-5.9,5.9-9.5,1.4-3.6,2.1-7.6,2.1-12s-.7-9.1-2.2-13.1c-1.5-4-3.6-7.4-6.4-10.4s-6.3-5.2-10.3-6.8-8.7-2.4-14-2.4-12.2,1.2-17.1,3.5c-4.9,2.3-9.1,5.3-12.5,8.9-3.4,3.6-6,7.6-7.7,11.8s-2.6,8.2-2.6,12,.5,7.4,1.5,10.1c1,2.7,2.2,4.7,3.6,6.1,1.4,1.3,2.9,2,4.5,2s3.4-.9,5-2.6c1.7-1.7,3.3-4.4,4.9-7.9s3.2-8,4.8-13.5c1.9-5.8,3.4-12,4.7-18.7s2.2-13.1,2.8-19.4l16.5.5h0Z"/>
            <path class="st1" d="M695.2,978.1h62.2v12.4h-62.2v-12.4ZM697.2,1000.4h51v12.5h-39.2v68h-11.9v-80.5ZM705.1,990.8l11.4-2.5c.9,1.8,1.7,3.8,2.4,6.1.7,2.3,1.2,4.3,1.5,5.9l-11.9,3c-.2-1.7-.6-3.7-1.2-6.1-.7-2.3-1.4-4.5-2.2-6.4h0ZM710.9,1020.8h30.2v9.2h-30.2v-9.2ZM713,1037.7h9v29.2h-9v-29.2ZM717.7,1037.7h21.6v24.7h-21.6v-8.8h12.4v-6.9h-12.4v-9h0ZM719.3,968.2h13.6v17h-13.6v-17ZM721.1,1011.5h9.3v29.6h-9.3v-29.6h0ZM743.2,1000.4h12.2v67.7c0,2.8-.3,5.1-.9,6.8s-1.9,3.1-3.8,3.9c-1.8,1-4,1.6-6.6,1.8s-5.8.4-9.5.4c-.2-1.6-.7-3.5-1.4-5.8-.7-2.2-1.5-4.1-2.4-5.5,2.3,0,4.4.1,6.4.1h4c.7,0,1.2-.1,1.5-.4.3-.3.4-.8.4-1.5v-67.5h0ZM735.4,988.3l13.5,2.3c-1,2.4-2,4.7-3,6.8s-1.8,3.9-2.6,5.5l-11.4-2.3c.6-1.8,1.2-3.8,1.9-6.2.7-2.3,1.2-4.4,1.6-6.1h0ZM767,967.3l14.1,2.1c-1.1,7.9-2.7,15.6-4.6,22.9s-4.3,14.2-7,20.4c-2.7,6.3-5.9,11.7-9.5,16.4-.7-.9-1.6-2-3-3.3-1.3-1.3-2.7-2.6-4.1-3.9-1.4-1.3-2.6-2.3-3.6-3.2,3.2-4,6-8.7,8.3-14.1,2.3-5.4,4.2-11.3,5.8-17.7,1.6-6.4,2.8-13,3.6-19.8h0ZM787.7,997.3l14,1.1c-1.4,13.3-3.6,25.2-6.5,35.7-3,10.5-7.2,19.8-12.7,27.6-5.5,7.8-12.6,14.5-21.4,20-.4-1.1-1.1-2.5-2.1-4-1-1.5-2.1-3.1-3.2-4.6s-2.1-2.7-3-3.7c7.9-4.4,14.2-10.1,19-16.9,4.7-6.8,8.3-14.8,10.8-24.1,2.5-9.2,4.2-19.6,5.2-31.2h0ZM774.2,1000.3c1.5,10.3,3.7,20,6.5,29,2.8,9.1,6.6,17.1,11.2,24.1,4.7,6.9,10.5,12.4,17.4,16.5-1.5,1.2-3.2,3-5.1,5.3-1.9,2.3-3.4,4.4-4.5,6.2-7.5-4.9-13.7-11.3-18.7-19s-8.9-16.8-11.9-27-5.4-21.3-7.3-33.3l12.2-1.8h0ZM767.3,989.5h40v13.5h-40v-13.5Z"/>
            <path class="st1" d="M858.5,976.7c-.2.8-.6,1.9-1,3.4s-.8,2.9-1.1,4.2c-.3,1.4-.5,2.4-.7,3.2-.4,1.7-.8,4-1.3,6.8-.5,2.9-1,6.1-1.5,9.7-.5,3.6-1,7.3-1.5,11-.5,3.8-.8,7.3-1.1,10.7-.2,3.4-.4,6.2-.4,8.7s0,2.5,0,3.9c0,1.4.2,2.7.4,3.9.6-1.5,1.2-2.9,1.8-4.2s1.2-2.8,1.9-4.1,1.2-2.8,1.8-4.1l7.4,6.1c-1.1,3.3-2.3,6.8-3.5,10.4-1.2,3.6-2.2,7.1-3.2,10.3-.9,3.2-1.6,5.9-2.1,8.1-.2.8-.3,1.8-.4,2.9s-.2,2.1-.2,2.8,0,1.4,0,2.4c0,.9,0,1.8.2,2.6l-13.7,1.1c-1.3-4.3-2.4-9.8-3.4-16.4-1-6.7-1.5-14.1-1.5-22.4s.2-9.3.6-14.2c.4-5,.9-9.8,1.4-14.4s1.1-8.8,1.6-12.7c.6-3.8,1-6.9,1.3-9.3.2-1.7.5-3.6.7-5.8s.4-4.2.5-6.1l16.7,1.5h0ZM917.7,975.4c-.2,1.1-.3,2.4-.4,3.8-.1,1.4-.2,2.8-.3,4.1,0,1.3-.2,3-.2,5.2s-.1,4.6-.1,7.3v8.5c0,5.5,0,10.7.2,15.5.2,4.8.4,9.3.6,13.3.2,4.1.5,7.8.7,11.2.2,3.4.3,6.6.3,9.5s-.4,6.1-1.3,8.7c-.8,2.7-2.2,5-4.1,7s-4.3,3.6-7.3,4.7c-3,1.1-6.7,1.6-11.1,1.6-8.4,0-15-1.7-19.9-5.1-4.8-3.4-7.3-8.3-7.3-14.7s1.1-7.7,3.3-10.8,5.3-5.5,9.3-7.3c4-1.7,8.8-2.6,14.3-2.6s11,.6,15.6,1.8,9,2.8,12.8,4.8,7.3,4.2,10.4,6.6c3,2.4,5.8,4.7,8.2,6.8l-8.4,12.7c-4.6-4.4-9.1-8.1-13.5-11.3-4.4-3.2-8.7-5.6-13-7.3-4.3-1.7-8.8-2.6-13.4-2.6s-6.2.7-8.3,1.9-3.2,3.1-3.2,5.5,1.1,4.2,3.3,5.3c2.2,1.1,4.8,1.7,8,1.7s4.5-.4,5.9-1.3c1.5-.8,2.5-2.1,3.1-3.8.6-1.7.9-3.7.9-6s0-4.8-.2-8.2-.3-7.2-.5-11.4c-.2-4.2-.4-8.6-.5-13.2-.2-4.6-.2-9-.2-13.4s0-8.8,0-12.5,0-6.6,0-8.4,0-2.1-.2-3.8-.4-3-.6-4.2h17.4ZM871.6,995.9c3.5.3,7,.6,10.5.8s7.1.3,10.7.3c7.4,0,14.8-.3,22.2-1,7.3-.7,14.2-1.7,20.4-3v15.2c-6.3.9-13.1,1.6-20.5,2.1-7.4.5-14.7.8-22.1.8s-7.1,0-10.6-.2c-3.5-.1-7-.3-10.6-.5v-14.4h0Z"/>
            <path class="st1" d="M985,1082.6c-2.2-2.8-4.6-5.6-7.3-8.4-2.7-2.8-5.4-5.6-8.2-8.3s-5.4-5.2-8-7.4l11.3-9.8c2.6,2.1,5.4,4.6,8.4,7.5,3,2.9,5.8,5.8,8.6,8.7s5,5.5,6.8,7.8l-11.7,10h0Z"/>
            <path class="st1" d="M1032.3,1020.4c-3.8,0-6.7-1.4-8.8-4.3s-3.1-6.9-3.1-12.2,1.5-11.7,4.6-16.3c3.1-4.7,7.6-8.5,13.7-11.7l4.1,7.9c-4,2.1-6.9,4.5-8.9,7.3s-3,6.1-3,10.2l.8,11.2-6.4-8.6c1.1-.9,2.1-1.6,3.3-2.1s2.3-.8,3.6-.8c2.7,0,4.9.8,6.8,2.5s2.8,3.9,2.8,6.8-.9,5.5-2.7,7.4c-1.8,1.9-4.1,2.8-6.9,2.8h0s0,0,0,0ZM1062.6,1020.4c-3.8,0-6.7-1.4-8.8-4.3s-3.1-6.9-3.1-12.2,1.5-11.7,4.6-16.3c3.1-4.7,7.6-8.5,13.7-11.7l4.1,7.9c-4,2.1-6.9,4.5-8.8,7.3s-2.9,6.1-2.9,10.2l.7,11.2-6.4-8.6c1.1-.9,2.1-1.6,3.3-2.1s2.3-.8,3.6-.8c2.7,0,4.9.8,6.8,2.5s2.8,3.9,2.8,6.8-.9,5.5-2.7,7.4c-1.8,1.9-4.1,2.8-6.9,2.8h0s0,0,0,0Z"/>
            <path class="st1" d="M1103.6,974.7h84.6v104.9h-15.6v-90.2h-54.1v90.5h-14.9v-105.1h0ZM1113.8,1015.4h65.2v14.3h-65.2v-14.3ZM1113.8,1057.1h65.4v14.7h-65.4v-14.7Z"/>
            <path class="st1" d="M1262,996.3l13.3,4.2c-3.5,8.7-7.7,17.1-12.6,25-4.9,7.9-10.4,15.1-16.6,21.5-6.1,6.4-12.7,11.9-19.7,16.4-.8-1.2-1.9-2.6-3.2-4.1-1.3-1.5-2.6-3-3.8-4.5-1.2-1.5-2.5-2.7-3.7-3.6,5-2.8,9.8-6.1,14.4-10.1,4.6-4,8.9-8.4,12.9-13.2s7.6-10,10.8-15.3c3.2-5.4,5.9-10.8,8.1-16.4h0ZM1220.6,990.9h107.2v14.8h-107.2v-14.8ZM1245.5,1045.8h56.4v14.8h-56.4v-14.8ZM1266.3,967.4h15.4v113.9h-15.4v-113.9ZM1286.2,996.6c2.9,7.1,6.7,14.1,11.5,20.9,4.7,6.8,10.1,13,16.2,18.6s12.4,10.2,19.2,13.7c-1.2,1-2.5,2.2-3.9,3.8-1.4,1.5-2.8,3.1-4.1,4.8s-2.4,3.2-3.3,4.6c-7-4.4-13.6-9.7-19.7-16.1-6.1-6.3-11.6-13.4-16.4-21.3-4.8-7.8-9.1-16-12.6-24.6l13.2-4.4h0Z"/>
            <path class="st1" d="M1357.8,987.9h45.2v11.5h-45.2v-11.5ZM1363.2,1039.5h12.2v41.6h-12.2v-41.6ZM1363.6,1005.3h35v11h-35v-11ZM1363.6,1022.3h35v11h-35v-11h0ZM1364.3,971.2h34.4v10.9h-34.4v-10.9ZM1370.4,1039.5h29.1v36.9h-29.1v-11.5h16.7v-13.8h-16.7v-11.5ZM1402.4,1016.5h69.8v12.7h-69.8v-12.7ZM1406.7,970.8h61.1v12.4h-61.1v-12.4ZM1408.7,991.8h53.1v31.5h-13.9v-19.2h-39.2v-12.4h0ZM1411.1,1035.7h53.3v45.1h-14.2v-32.1h-25.5v32.6h-13.7v-45.6h0ZM1423.6,975.9l14.1,1.2c-.7,5.1-1.4,10.5-2.3,16.1-.9,5.7-1.8,11.1-2.7,16.4-.9,5.3-1.8,9.9-2.7,13.8h-14.1c.7-3.1,1.4-6.5,2.1-10.4s1.4-7.9,2.1-12.2,1.4-8.5,1.9-12.7c.6-4.2,1.1-8.3,1.6-12.2h0ZM1416.6,1063.6h41.8v13h-41.8v-13Z"/>
            <path class="st1" d="M1503.5,1018.9l-4.1-7.8c4-2.2,6.9-4.7,8.9-7.4s3-6.1,3-10.2l-1-11,6.6,8.6c-1,.8-2,1.5-3.2,2-1.2.5-2.4.8-3.7.8-2.6,0-4.8-.8-6.8-2.5-1.9-1.7-2.9-4-2.9-6.8s.9-5.6,2.7-7.4,4.1-2.7,7-2.7,6.8,1.4,8.8,4.2c2,2.8,3,6.8,3,12s-1.5,11.7-4.6,16.4-7.6,8.6-13.6,11.7h0ZM1533.8,1018.9l-4.2-7.8c4-2.2,7.1-4.7,9-7.4s3-6.1,3-10.2l-1-11,6.6,8.6c-1,.8-2,1.5-3.2,2-1.2.5-2.4.8-3.7.8-2.6,0-4.8-.8-6.8-2.5-1.9-1.7-2.9-4-2.9-6.8s.9-5.6,2.7-7.4,4.1-2.7,7-2.7,6.8,1.4,8.8,4.2c2,2.8,3,6.8,3,12s-1.5,11.7-4.6,16.4-7.6,8.6-13.6,11.7h0Z"/>
            <path class="st1" d="M1631.3,974.9c-.5,1.7-1,3.7-1.5,6s-.9,4.1-1.2,5.5c-.6,2.8-1.3,6.1-2.1,10.1s-1.8,8.2-2.7,12.5c-1,4.4-2,8.7-3,12.8-1.1,4.2-2.4,8.8-3.9,13.8-1.5,5-3.1,10.1-4.8,15.2-1.7,5.1-3.5,10-5.3,14.7-1.8,4.7-3.5,8.8-5.2,12.5l-17-5.7c1.9-3.1,3.8-6.8,5.8-11.3s3.9-9.2,5.9-14.2c1.9-5.1,3.7-10.1,5.3-15.2,1.6-5.1,3-9.7,4.1-13.9.7-2.9,1.5-5.9,2.2-8.8.7-3,1.4-5.9,2-8.7s1.1-5.5,1.6-7.9c.4-2.5.8-4.6,1-6.4.2-2.3.4-4.5.5-6.8s0-4.1-.1-5.6l18.6,1.5h0ZM1600.4,993.1c4.9,0,10.1-.2,15.4-.7s10.7-1.2,16.1-2.1,10.8-2,16.1-3.2v15.2c-5,1.2-10.3,2.2-16,3s-11.2,1.4-16.7,1.9c-5.5.5-10.6.7-15.2.7s-5.5,0-7.9-.2c-2.3-.1-4.6-.2-6.8-.3l-.4-15.2c3.2.3,5.9.6,8.1.7s4.7.2,7.2.2h0ZM1645,1042.1c-.5,1.7-.9,3.5-1.2,5.3s-.5,3.4-.5,4.7.3,2.6.8,3.8c.6,1.1,1.5,2.1,2.7,3,1.2.8,2.9,1.5,5,1.9,2.1.4,4.8.7,8.1.7s8.2-.2,12.4-.6c4.2-.4,8.5-1,12.8-1.8l-.6,15.4c-3.4.5-7.2.9-11.3,1.3s-8.6.6-13.5.6c-10.2,0-18-1.7-23.3-5.1-5.4-3.4-8.1-8.1-8.1-14.2s.2-5.7.7-8.5c.4-2.8.9-5.4,1.4-7.8l14.6,1.3h0ZM1638.5,1011.7c3.4-.4,7.2-.7,11.3-.9,4.1-.2,8.1-.3,12-.3s7,0,10.6.2,7.2.5,10.7.8l-.4,14.6c-3-.4-6.3-.8-9.9-1.1-3.6-.3-7.3-.5-11-.5s-8.2,0-12,.3c-3.8.2-7.6.6-11.4,1v-14.2h0ZM1670.1,978.4c1.1,1.5,2.2,3.2,3.3,5.2,1.2,2,2.3,4,3.5,6.1,1.1,2,2.1,3.8,2.8,5.3l-9.7,4.2c-.8-1.7-1.7-3.6-2.8-5.6s-2.1-4-3.3-6.1-2.3-3.8-3.4-5.2l9.6-4h0ZM1684.4,973c1.1,1.5,2.3,3.2,3.5,5.3,1.2,2.1,2.4,4.1,3.6,6.1,1.2,2,2.1,3.7,2.7,5.2l-9.6,4.1c-1.3-2.6-2.8-5.5-4.6-8.6-1.8-3.2-3.5-5.9-5.2-8.1l9.6-3.9h0Z"/>
            <path class="st1" d="M1714.6,1019c1.9-.4,4-.9,6.4-1.5s4.6-1.2,6.4-1.8c2-.7,4.7-1.5,8.1-2.5,3.4-1,7.1-2.1,11.2-3.2,4.1-1,8.2-1.9,12.4-2.7,4.2-.7,8.1-1.1,11.8-1.1,6.4,0,12,1.2,16.8,3.6s8.6,5.8,11.2,10.2c2.7,4.5,4,9.7,4,15.9s-1.2,10.5-3.6,15-6,8.5-10.8,11.9c-4.8,3.4-10.9,6.2-18.1,8.3s-15.7,3.5-25.3,4.1l-6.4-14.9c6.9-.2,13.4-.8,19.2-1.8s10.9-2.6,15.3-4.6c4.3-2,7.7-4.5,10.1-7.6s3.6-6.6,3.6-10.7-.7-5.8-2.1-8.1c-1.4-2.3-3.4-4.1-6-5.4-2.6-1.3-5.7-1.9-9.2-1.9s-6,.4-9.5,1.1-7.1,1.7-10.7,2.8c-3.7,1.1-7.3,2.3-10.8,3.6-3.6,1.3-6.9,2.6-9.9,3.8s-5.6,2.3-7.6,3.2l-6.3-15.8h0Z"/>
            <path class="st1" d="M1872.3,973.6c-.5,1.6-1,3.6-1.5,5.9-.5,2.3-.8,4.2-1.1,5.5-.6,2.8-1.3,6.1-2.1,10.1s-1.8,8.2-2.8,12.6c-1,4.5-2,8.7-3.1,12.7-1.1,4.3-2.3,8.9-3.9,13.9-1.5,5-3.2,10-4.9,15.2-1.7,5.1-3.5,10-5.3,14.7-1.8,4.7-3.5,8.8-5.2,12.4l-16.8-5.7c1.8-3.1,3.7-6.8,5.7-11.2,2-4.4,4-9.2,5.9-14.2s3.7-10.1,5.3-15.2c1.6-5,3-9.7,4.1-14,.8-2.8,1.6-5.7,2.3-8.7.7-3,1.4-5.9,1.9-8.7.6-2.8,1.1-5.5,1.5-7.9.4-2.5.8-4.6,1-6.5.2-2.3.4-4.5.5-6.8,0-2.3,0-4.1-.1-5.5l18.6,1.5h0s0,0,0,0ZM1841.3,991.6c4.9,0,10.1-.2,15.4-.7,5.3-.5,10.7-1.2,16.1-2.1s10.8-1.9,16.1-3.2v15.2c-5,1.1-10.3,2.1-16,2.9s-11.2,1.4-16.7,1.9c-5.5.5-10.6.7-15.2.7s-5.5,0-7.9-.2c-2.3-.1-4.6-.2-6.8-.3l-.4-15.2c3.2.3,5.9.6,8.1.7s4.7.2,7.2.2h0ZM1886,1040.8c-.5,1.7-.9,3.5-1.2,5.3-.3,1.8-.5,3.4-.5,4.8s.3,2.5.8,3.6c.6,1.1,1.5,2.1,2.7,3,1.2.8,2.9,1.5,5,2,2.1.5,4.8.7,8.1.7s8.3-.2,12.4-.7c4.2-.4,8.4-1.1,12.8-1.9l-.6,15.5c-3.4.4-7.2.8-11.3,1.2s-8.6.6-13.5.6c-10.2,0-18-1.7-23.3-5-5.4-3.3-8.1-8.1-8.1-14.2s.2-5.5.7-8.4c.5-2.8,1-5.5,1.5-7.9l14.4,1.5h0ZM1879.4,1010.2c3.4-.3,7.2-.6,11.3-.8,4.1-.2,8.1-.4,12-.4s7,0,10.6.2,7.2.5,10.7.8l-.4,14.5c-3-.4-6.3-.8-9.9-1-3.6-.3-7.3-.4-11-.4s-8.1,0-11.9.3c-3.8.2-7.7.6-11.5,1v-14.3h0Z"/>
          </g>
          <g class="st4">
            <g>
              <path d="M52.7,994.7h15.3v35.9c0,4.4-.5,8.6-1.5,12.7-1,4.1-2.6,8-5,11.8-2.3,3.8-5.6,7.3-9.8,10.5s-9.5,6.2-16,8.9-14.2,5.1-23.2,7.1c-.6-1.1-1.4-2.5-2.4-4-1-1.5-2.1-3.1-3.3-4.6-1.2-1.5-2.3-2.8-3.5-3.8,8.5-1.5,15.7-3.4,21.5-5.5,5.9-2.1,10.6-4.4,14.3-6.9,3.6-2.5,6.5-5.1,8.4-7.9s3.3-5.8,4-8.9,1-6.2,1-9.4v-35.8h0ZM6.2,1034.8h109.4v13.5H6.2v-13.5ZM7.4,976.7h106.7v13H7.4v-13ZM17.8,1006.8h86.8v33.8h-14.7v-21.2H31.9v21.2h-14.1v-33.8ZM31.1,967.3h14.3v33.2h-14.3s0-33.2,0-33.2ZM67.9,1040c4,8.2,10.2,14.5,18.6,19.1,8.4,4.6,19.2,7.5,32.2,8.9-1,1.1-2,2.4-3.2,3.9s-2.3,3.2-3.3,4.8c-1,1.7-1.9,3.2-2.6,4.7-9.3-1.6-17.4-4-24.4-7.2-6.9-3.2-12.9-7.4-17.8-12.5s-9.1-11.4-12.4-18.7l12.9-3h0ZM75.7,967.3h14.4v33.2h-14.4v-33.2Z"/>
              <path d="M143.3,987.9h45.2v11.5h-45.2v-11.5ZM148.8,1039.5h12.2v41.6h-12.2v-41.6ZM149.1,1005.3h35v11h-35v-11h0ZM149.1,1022.3h35v11h-35v-11h0ZM149.9,971.2h34.4v10.9h-34.4v-10.9ZM155.9,1039.5h29.1v36.9h-29.1v-11.5h16.7v-13.8h-16.7v-11.5ZM187.9,1016.5h69.9v12.7h-69.9v-12.7ZM192.3,970.8h61.1v12.4h-61.1v-12.4ZM194.2,991.8h53.1v31.5h-13.9v-19.2h-39.2v-12.4h0ZM196.7,1035.7h53.3v45.1h-14.2v-32.1h-25.5v32.6h-13.7v-45.6h0ZM209.2,975.9l14.1,1.2c-.6,5.1-1.4,10.5-2.3,16.1-.9,5.7-1.8,11.1-2.7,16.4-.9,5.3-1.8,9.9-2.7,13.8h-14.1c.7-3.1,1.4-6.5,2.1-10.4s1.4-7.9,2.1-12.2,1.4-8.5,1.9-12.7c.6-4.2,1.1-8.3,1.6-12.2h0ZM202.1,1063.6h41.8v13h-41.8v-13Z"/>
              <path d="M283.4,1010.6c4-1.2,8.9-2.8,14.5-4.7s11.3-3.9,17.2-6l2.2,10.5c-4.9,2-9.9,4.1-14.9,6.2-5,2.1-9.6,4.1-13.9,5.8l-5.1-11.9h0ZM286.6,972.7h39v11.3h-39v-11.3ZM289.8,991.3l6.9-8.4c2.7,1.3,5.5,2.9,8.6,4.8,3.1,1.9,5.5,3.7,7.1,5.3l-7.3,9.3c-1.6-1.7-3.9-3.6-6.9-5.7-3-2.1-5.8-3.9-8.5-5.3h0ZM299.7,1030.2h81.6v51.3h-15.2v-40.4h-52v40.4h-14.4v-51.3ZM307,1048.2h63.2v10.9h-63.2v-10.9ZM307.9,1066.1h62.9v11h-62.9v-11ZM322.4,972.7h13.2v40.3c0,2.8-.4,4.9-1.1,6.4s-2,2.8-3.9,3.8c-1.9.8-4.3,1.3-7,1.4-2.8.1-5.9.2-9.6.2-.2-1.5-.7-3.3-1.5-5.2s-1.5-3.6-2.2-5.1c2.1,0,4.1.1,6.1.1h4.1c.6,0,1.1-.1,1.4-.4s.4-.7.4-1.3v-40.1h0ZM332,1019l15.6,2.2c-1.5,3.2-3.1,6.1-4.9,9s-3.2,5.2-4.5,7.2l-11.9-2.6c1-2.3,2.1-5,3.2-7.9s1.9-5.5,2.4-7.9h0ZM338.5,1008.5c4.4-1.3,9.5-2.9,15.4-4.9s11.9-4,18-6.1l2.3,10.4c-5.3,2-10.6,4-16,6s-10.3,3.8-14.9,5.4l-4.9-10.8h0ZM342.1,972.7h41.8v11.3h-41.8v-11.3ZM344.1,991.2l7-8.6c2.7,1.3,5.6,2.9,8.8,4.8,3.2,1.9,5.7,3.7,7.5,5.3l-7.4,9.5c-1.6-1.7-4-3.6-7.1-5.6s-6-3.8-8.8-5.3ZM377.1,972.7h13.6v39.9c0,3-.4,5.3-1.1,6.8s-2.2,2.8-4.3,3.8c-2,.9-4.5,1.4-7.5,1.6-3,.2-6.4.3-10.4.2-.2-1.7-.8-3.6-1.5-5.6s-1.6-3.9-2.4-5.4c2.3,0,4.7.1,7,.2s3.8,0,4.5,0c.7,0,1.2-.2,1.6-.5.3-.2.5-.7.5-1.3v-39.8h0Z"/>
              <path d="M451.1,994.1l12.7,5.3c-2.9,5-6.4,10-10.3,15s-8.1,9.8-12.5,14.2-8.6,8.4-12.9,11.7c-.4-1.1-1-2.7-1.8-4.6-.8-1.9-1.6-3.8-2.5-5.8s-1.8-3.5-2.6-4.6c3.6-2.6,7.3-5.6,10.9-8.9,3.6-3.3,7.1-7,10.4-10.8,3.3-3.8,6.1-7.7,8.5-11.7h0ZM447.9,967.5l13.8,5.6c-2.7,3.7-5.8,7.5-9.3,11.2s-7.2,7.3-11.1,10.6c-3.9,3.3-7.8,6.2-11.6,8.7-.5-1.1-1.1-2.5-2-4s-1.7-3.1-2.7-4.6c-.9-1.5-1.8-2.8-2.5-3.8,3.1-1.9,6.4-4.2,9.6-6.9,3.2-2.7,6.2-5.5,9-8.4,2.8-3,5-5.8,6.7-8.4h0ZM439.1,1021.2l13.5-13.5.7.2v73.1h-14.2v-59.9h0ZM459.7,1037.1h76v12.4h-76v-12.4h0ZM462.7,1018.4h70.4v11.9h-70.5v-11.9h0ZM467.7,1055.6l10.2-6.8c2.6,2.3,5.3,5,8.1,8s5,5.7,6.5,8l-10.8,7.6c-.9-1.5-2.1-3.3-3.7-5.2-1.6-1.9-3.3-3.9-5.1-6s-3.6-3.9-5.3-5.6h0ZM468.9,970.8h60.4v42.3h-60.4v-42.3h0ZM482.9,981.1v5.9h31.8v-5.9h-31.8ZM482.9,996.7v6.1h31.8v-6.1h-31.8ZM504.3,1028.9h14.7v37.9c0,3.3-.4,5.9-1.2,7.8-.8,1.9-2.3,3.3-4.7,4.3-2.3,1.1-5,1.7-8.1,1.9s-6.7.3-10.9.3c-.2-1.9-.8-4.1-1.7-6.6s-1.8-4.6-2.8-6.4c2.5,0,5,.1,7.5.2,2.5,0,4.1,0,4.9,0,.9,0,1.5-.3,1.8-.6s.4-.8.4-1.4v-37.6h0s0,0,0,0Z"/>
              <path d="M625.9,987.3c-.8,6.1-1.9,12.7-3.2,19.6-1.3,7-3,14-5.2,21.1-2.3,8.2-5.1,15.2-8.2,21.1-3.2,5.9-6.6,10.4-10.4,13.6s-7.9,4.8-12.3,4.8-8.5-1.5-12.3-4.6-6.8-7.2-9-12.6c-2.2-5.3-3.3-11.4-3.3-18.2s1.4-13.7,4.2-19.9c2.8-6.2,6.8-11.7,11.8-16.5s11-8.6,17.7-11.3,14-4.1,21.9-4.1,14.3,1.2,20.3,3.6,11.2,5.8,15.5,10.1c4.3,4.3,7.6,9.3,9.8,15s3.4,11.9,3.4,18.6-1.7,16.1-5.2,22.8c-3.5,6.7-8.6,12.2-15.5,16.6-6.8,4.4-15.3,7.4-25.5,9l-9.1-14.4c2.3-.2,4.4-.5,6.2-.8,1.8-.3,3.5-.7,5.1-1.1,3.9-1,7.5-2.4,10.8-4.2,3.3-1.8,6.3-4.1,8.8-6.8,2.5-2.7,4.5-5.9,5.9-9.5,1.4-3.6,2.1-7.6,2.1-12s-.7-9.1-2.2-13.1c-1.5-4-3.6-7.4-6.4-10.4s-6.3-5.2-10.3-6.8-8.7-2.4-14-2.4-12.2,1.2-17.1,3.5c-4.9,2.3-9.1,5.3-12.5,8.9-3.4,3.6-6,7.6-7.7,11.8s-2.6,8.2-2.6,12,.5,7.4,1.5,10.1c1,2.7,2.2,4.7,3.6,6.1,1.4,1.3,2.9,2,4.5,2s3.4-.9,5-2.6c1.7-1.7,3.3-4.4,4.9-7.9s3.2-8,4.8-13.5c1.9-5.8,3.4-12,4.7-18.7s2.2-13.1,2.8-19.4l16.5.5h0Z"/>
              <path d="M695.2,978.1h62.2v12.4h-62.2v-12.4ZM697.2,1000.4h51v12.5h-39.2v68h-11.9v-80.5ZM705.1,990.8l11.4-2.5c.9,1.8,1.7,3.8,2.4,6.1.7,2.3,1.2,4.3,1.5,5.9l-11.9,3c-.2-1.7-.6-3.7-1.2-6.1-.7-2.3-1.4-4.5-2.2-6.4h0ZM710.9,1020.8h30.2v9.2h-30.2v-9.2ZM713,1037.7h9v29.2h-9v-29.2ZM717.7,1037.7h21.6v24.7h-21.6v-8.8h12.4v-6.9h-12.4v-9h0ZM719.3,968.2h13.6v17h-13.6v-17ZM721.1,1011.5h9.3v29.6h-9.3v-29.6h0ZM743.2,1000.4h12.2v67.7c0,2.8-.3,5.1-.9,6.8s-1.9,3.1-3.8,3.9c-1.8,1-4,1.6-6.6,1.8s-5.8.4-9.5.4c-.2-1.6-.7-3.5-1.4-5.8-.7-2.2-1.5-4.1-2.4-5.5,2.3,0,4.4.1,6.4.1h4c.7,0,1.2-.1,1.5-.4.3-.3.4-.8.4-1.5v-67.5h0ZM735.4,988.3l13.5,2.3c-1,2.4-2,4.7-3,6.8s-1.8,3.9-2.6,5.5l-11.4-2.3c.6-1.8,1.2-3.8,1.9-6.2.7-2.3,1.2-4.4,1.6-6.1h0ZM767,967.3l14.1,2.1c-1.1,7.9-2.7,15.6-4.6,22.9s-4.3,14.2-7,20.4c-2.7,6.3-5.9,11.7-9.5,16.4-.7-.9-1.6-2-3-3.3-1.3-1.3-2.7-2.6-4.1-3.9-1.4-1.3-2.6-2.3-3.6-3.2,3.2-4,6-8.7,8.3-14.1,2.3-5.4,4.2-11.3,5.8-17.7,1.6-6.4,2.8-13,3.6-19.8h0ZM787.7,997.3l14,1.1c-1.4,13.3-3.6,25.2-6.5,35.7-3,10.5-7.2,19.8-12.7,27.6-5.5,7.8-12.6,14.5-21.4,20-.4-1.1-1.1-2.5-2.1-4-1-1.5-2.1-3.1-3.2-4.6s-2.1-2.7-3-3.7c7.9-4.4,14.2-10.1,19-16.9,4.7-6.8,8.3-14.8,10.8-24.1,2.5-9.2,4.2-19.6,5.2-31.2h0ZM774.2,1000.3c1.5,10.3,3.7,20,6.5,29,2.8,9.1,6.6,17.1,11.2,24.1,4.7,6.9,10.5,12.4,17.4,16.5-1.5,1.2-3.2,3-5.1,5.3-1.9,2.3-3.4,4.4-4.5,6.2-7.5-4.9-13.7-11.3-18.7-19s-8.9-16.8-11.9-27-5.4-21.3-7.3-33.3l12.2-1.8h0ZM767.3,989.5h40v13.5h-40v-13.5Z"/>
              <path d="M858.5,976.7c-.2.8-.6,1.9-1,3.4s-.8,2.9-1.1,4.2c-.3,1.4-.5,2.4-.7,3.2-.4,1.7-.8,4-1.3,6.8-.5,2.9-1,6.1-1.5,9.7-.5,3.6-1,7.3-1.5,11-.5,3.8-.8,7.3-1.1,10.7-.2,3.4-.4,6.2-.4,8.7s0,2.5,0,3.9c0,1.4.2,2.7.4,3.9.6-1.5,1.2-2.9,1.8-4.2s1.2-2.8,1.9-4.1,1.2-2.8,1.8-4.1l7.4,6.1c-1.1,3.3-2.3,6.8-3.5,10.4-1.2,3.6-2.2,7.1-3.2,10.3-.9,3.2-1.6,5.9-2.1,8.1-.2.8-.3,1.8-.4,2.9s-.2,2.1-.2,2.8,0,1.4,0,2.4c0,.9,0,1.8.2,2.6l-13.7,1.1c-1.3-4.3-2.4-9.8-3.4-16.4-1-6.7-1.5-14.1-1.5-22.4s.2-9.3.6-14.2c.4-5,.9-9.8,1.4-14.4s1.1-8.8,1.6-12.7c.6-3.8,1-6.9,1.3-9.3.2-1.7.5-3.6.7-5.8s.4-4.2.5-6.1l16.7,1.5h0ZM917.7,975.4c-.2,1.1-.3,2.4-.4,3.8-.1,1.4-.2,2.8-.3,4.1,0,1.3-.2,3-.2,5.2s-.1,4.6-.1,7.3v8.5c0,5.5,0,10.7.2,15.5.2,4.8.4,9.3.6,13.3.2,4.1.5,7.8.7,11.2.2,3.4.3,6.6.3,9.5s-.4,6.1-1.3,8.7c-.8,2.7-2.2,5-4.1,7s-4.3,3.6-7.3,4.7c-3,1.1-6.7,1.6-11.1,1.6-8.4,0-15-1.7-19.9-5.1-4.8-3.4-7.3-8.3-7.3-14.7s1.1-7.7,3.3-10.8,5.3-5.5,9.3-7.3c4-1.7,8.8-2.6,14.3-2.6s11,.6,15.6,1.8,9,2.8,12.8,4.8,7.3,4.2,10.4,6.6c3,2.4,5.8,4.7,8.2,6.8l-8.4,12.7c-4.6-4.4-9.1-8.1-13.5-11.3-4.4-3.2-8.7-5.6-13-7.3-4.3-1.7-8.8-2.6-13.4-2.6s-6.2.7-8.3,1.9-3.2,3.1-3.2,5.5,1.1,4.2,3.3,5.3c2.2,1.1,4.8,1.7,8,1.7s4.5-.4,5.9-1.3c1.5-.8,2.5-2.1,3.1-3.8.6-1.7.9-3.7.9-6s0-4.8-.2-8.2-.3-7.2-.5-11.4c-.2-4.2-.4-8.6-.5-13.2-.2-4.6-.2-9-.2-13.4s0-8.8,0-12.5,0-6.6,0-8.4,0-2.1-.2-3.8-.4-3-.6-4.2h17.4ZM871.6,995.9c3.5.3,7,.6,10.5.8s7.1.3,10.7.3c7.4,0,14.8-.3,22.2-1,7.3-.7,14.2-1.7,20.4-3v15.2c-6.3.9-13.1,1.6-20.5,2.1-7.4.5-14.7.8-22.1.8s-7.1,0-10.6-.2c-3.5-.1-7-.3-10.6-.5v-14.4h0Z"/>
              <path d="M985,1082.6c-2.2-2.8-4.6-5.6-7.3-8.4-2.7-2.8-5.4-5.6-8.2-8.3s-5.4-5.2-8-7.4l11.3-9.8c2.6,2.1,5.4,4.6,8.4,7.5,3,2.9,5.8,5.8,8.6,8.7s5,5.5,6.8,7.8l-11.7,10h0Z"/>
              <path d="M1032.3,1020.4c-3.8,0-6.7-1.4-8.8-4.3s-3.1-6.9-3.1-12.2,1.5-11.7,4.6-16.3c3.1-4.7,7.6-8.5,13.7-11.7l4.1,7.9c-4,2.1-6.9,4.5-8.9,7.3s-3,6.1-3,10.2l.8,11.2-6.4-8.6c1.1-.9,2.1-1.6,3.3-2.1s2.3-.8,3.6-.8c2.7,0,4.9.8,6.8,2.5s2.8,3.9,2.8,6.8-.9,5.5-2.7,7.4c-1.8,1.9-4.1,2.8-6.9,2.8h0s0,0,0,0ZM1062.6,1020.4c-3.8,0-6.7-1.4-8.8-4.3s-3.1-6.9-3.1-12.2,1.5-11.7,4.6-16.3c3.1-4.7,7.6-8.5,13.7-11.7l4.1,7.9c-4,2.1-6.9,4.5-8.8,7.3s-2.9,6.1-2.9,10.2l.7,11.2-6.4-8.6c1.1-.9,2.1-1.6,3.3-2.1s2.3-.8,3.6-.8c2.7,0,4.9.8,6.8,2.5s2.8,3.9,2.8,6.8-.9,5.5-2.7,7.4c-1.8,1.9-4.1,2.8-6.9,2.8h0s0,0,0,0Z"/>
              <path d="M1103.6,974.7h84.6v104.9h-15.6v-90.2h-54.1v90.5h-14.9v-105.1h0ZM1113.8,1015.4h65.2v14.3h-65.2v-14.3ZM1113.8,1057.1h65.4v14.7h-65.4v-14.7Z"/>
              <path d="M1262,996.3l13.3,4.2c-3.5,8.7-7.7,17.1-12.6,25-4.9,7.9-10.4,15.1-16.6,21.5-6.1,6.4-12.7,11.9-19.7,16.4-.8-1.2-1.9-2.6-3.2-4.1-1.3-1.5-2.6-3-3.8-4.5-1.2-1.5-2.5-2.7-3.7-3.6,5-2.8,9.8-6.1,14.4-10.1,4.6-4,8.9-8.4,12.9-13.2s7.6-10,10.8-15.3c3.2-5.4,5.9-10.8,8.1-16.4h0ZM1220.6,990.9h107.2v14.8h-107.2v-14.8ZM1245.5,1045.8h56.4v14.8h-56.4v-14.8ZM1266.3,967.4h15.4v113.9h-15.4v-113.9ZM1286.2,996.6c2.9,7.1,6.7,14.1,11.5,20.9,4.7,6.8,10.1,13,16.2,18.6s12.4,10.2,19.2,13.7c-1.2,1-2.5,2.2-3.9,3.8-1.4,1.5-2.8,3.1-4.1,4.8s-2.4,3.2-3.3,4.6c-7-4.4-13.6-9.7-19.7-16.1-6.1-6.3-11.6-13.4-16.4-21.3-4.8-7.8-9.1-16-12.6-24.6l13.2-4.4h0Z"/>
              <path d="M1357.8,987.9h45.2v11.5h-45.2v-11.5ZM1363.2,1039.5h12.2v41.6h-12.2v-41.6ZM1363.6,1005.3h35v11h-35v-11ZM1363.6,1022.3h35v11h-35v-11h0ZM1364.3,971.2h34.4v10.9h-34.4v-10.9ZM1370.4,1039.5h29.1v36.9h-29.1v-11.5h16.7v-13.8h-16.7v-11.5ZM1402.4,1016.5h69.8v12.7h-69.8v-12.7ZM1406.7,970.8h61.1v12.4h-61.1v-12.4ZM1408.7,991.8h53.1v31.5h-13.9v-19.2h-39.2v-12.4h0ZM1411.1,1035.7h53.3v45.1h-14.2v-32.1h-25.5v32.6h-13.7v-45.6h0ZM1423.6,975.9l14.1,1.2c-.7,5.1-1.4,10.5-2.3,16.1-.9,5.7-1.8,11.1-2.7,16.4-.9,5.3-1.8,9.9-2.7,13.8h-14.1c.7-3.1,1.4-6.5,2.1-10.4s1.4-7.9,2.1-12.2,1.4-8.5,1.9-12.7c.6-4.2,1.1-8.3,1.6-12.2h0ZM1416.6,1063.6h41.8v13h-41.8v-13Z"/>
              <path d="M1503.5,1018.9l-4.1-7.8c4-2.2,6.9-4.7,8.9-7.4s3-6.1,3-10.2l-1-11,6.6,8.6c-1,.8-2,1.5-3.2,2-1.2.5-2.4.8-3.7.8-2.6,0-4.8-.8-6.8-2.5-1.9-1.7-2.9-4-2.9-6.8s.9-5.6,2.7-7.4,4.1-2.7,7-2.7,6.8,1.4,8.8,4.2c2,2.8,3,6.8,3,12s-1.5,11.7-4.6,16.4-7.6,8.6-13.6,11.7h0ZM1533.8,1018.9l-4.2-7.8c4-2.2,7.1-4.7,9-7.4s3-6.1,3-10.2l-1-11,6.6,8.6c-1,.8-2,1.5-3.2,2-1.2.5-2.4.8-3.7.8-2.6,0-4.8-.8-6.8-2.5-1.9-1.7-2.9-4-2.9-6.8s.9-5.6,2.7-7.4,4.1-2.7,7-2.7,6.8,1.4,8.8,4.2c2,2.8,3,6.8,3,12s-1.5,11.7-4.6,16.4-7.6,8.6-13.6,11.7h0Z"/>
              <path d="M1631.3,974.9c-.5,1.7-1,3.7-1.5,6s-.9,4.1-1.2,5.5c-.6,2.8-1.3,6.1-2.1,10.1s-1.8,8.2-2.7,12.5c-1,4.4-2,8.7-3,12.8-1.1,4.2-2.4,8.8-3.9,13.8-1.5,5-3.1,10.1-4.8,15.2-1.7,5.1-3.5,10-5.3,14.7-1.8,4.7-3.5,8.8-5.2,12.5l-17-5.7c1.9-3.1,3.8-6.8,5.8-11.3s3.9-9.2,5.9-14.2c1.9-5.1,3.7-10.1,5.3-15.2,1.6-5.1,3-9.7,4.1-13.9.7-2.9,1.5-5.9,2.2-8.8.7-3,1.4-5.9,2-8.7s1.1-5.5,1.6-7.9c.4-2.5.8-4.6,1-6.4.2-2.3.4-4.5.5-6.8s0-4.1-.1-5.6l18.6,1.5h0ZM1600.4,993.1c4.9,0,10.1-.2,15.4-.7s10.7-1.2,16.1-2.1,10.8-2,16.1-3.2v15.2c-5,1.2-10.3,2.2-16,3s-11.2,1.4-16.7,1.9c-5.5.5-10.6.7-15.2.7s-5.5,0-7.9-.2c-2.3-.1-4.6-.2-6.8-.3l-.4-15.2c3.2.3,5.9.6,8.1.7s4.7.2,7.2.2h0ZM1645,1042.1c-.5,1.7-.9,3.5-1.2,5.3s-.5,3.4-.5,4.7.3,2.6.8,3.8c.6,1.1,1.5,2.1,2.7,3,1.2.8,2.9,1.5,5,1.9,2.1.4,4.8.7,8.1.7s8.2-.2,12.4-.6c4.2-.4,8.5-1,12.8-1.8l-.6,15.4c-3.4.5-7.2.9-11.3,1.3s-8.6.6-13.5.6c-10.2,0-18-1.7-23.3-5.1-5.4-3.4-8.1-8.1-8.1-14.2s.2-5.7.7-8.5c.4-2.8.9-5.4,1.4-7.8l14.6,1.3h0ZM1638.5,1011.7c3.4-.4,7.2-.7,11.3-.9,4.1-.2,8.1-.3,12-.3s7,0,10.6.2,7.2.5,10.7.8l-.4,14.6c-3-.4-6.3-.8-9.9-1.1-3.6-.3-7.3-.5-11-.5s-8.2,0-12,.3c-3.8.2-7.6.6-11.4,1v-14.2h0ZM1670.1,978.4c1.1,1.5,2.2,3.2,3.3,5.2,1.2,2,2.3,4,3.5,6.1,1.1,2,2.1,3.8,2.8,5.3l-9.7,4.2c-.8-1.7-1.7-3.6-2.8-5.6s-2.1-4-3.3-6.1-2.3-3.8-3.4-5.2l9.6-4h0ZM1684.4,973c1.1,1.5,2.3,3.2,3.5,5.3,1.2,2.1,2.4,4.1,3.6,6.1,1.2,2,2.1,3.7,2.7,5.2l-9.6,4.1c-1.3-2.6-2.8-5.5-4.6-8.6-1.8-3.2-3.5-5.9-5.2-8.1l9.6-3.9h0Z"/>
              <path d="M1714.6,1019c1.9-.4,4-.9,6.4-1.5s4.6-1.2,6.4-1.8c2-.7,4.7-1.5,8.1-2.5,3.4-1,7.1-2.1,11.2-3.2,4.1-1,8.2-1.9,12.4-2.7,4.2-.7,8.1-1.1,11.8-1.1,6.4,0,12,1.2,16.8,3.6s8.6,5.8,11.2,10.2c2.7,4.5,4,9.7,4,15.9s-1.2,10.5-3.6,15-6,8.5-10.8,11.9c-4.8,3.4-10.9,6.2-18.1,8.3s-15.7,3.5-25.3,4.1l-6.4-14.9c6.9-.2,13.4-.8,19.2-1.8s10.9-2.6,15.3-4.6c4.3-2,7.7-4.5,10.1-7.6s3.6-6.6,3.6-10.7-.7-5.8-2.1-8.1c-1.4-2.3-3.4-4.1-6-5.4-2.6-1.3-5.7-1.9-9.2-1.9s-6,.4-9.5,1.1-7.1,1.7-10.7,2.8c-3.7,1.1-7.3,2.3-10.8,3.6-3.6,1.3-6.9,2.6-9.9,3.8s-5.6,2.3-7.6,3.2l-6.3-15.8h0Z"/>
              <path d="M1872.3,973.6c-.5,1.6-1,3.6-1.5,5.9-.5,2.3-.8,4.2-1.1,5.5-.6,2.8-1.3,6.1-2.1,10.1s-1.8,8.2-2.8,12.6c-1,4.5-2,8.7-3.1,12.7-1.1,4.3-2.3,8.9-3.9,13.9-1.5,5-3.2,10-4.9,15.2-1.7,5.1-3.5,10-5.3,14.7-1.8,4.7-3.5,8.8-5.2,12.4l-16.8-5.7c1.8-3.1,3.7-6.8,5.7-11.2,2-4.4,4-9.2,5.9-14.2s3.7-10.1,5.3-15.2c1.6-5,3-9.7,4.1-14,.8-2.8,1.6-5.7,2.3-8.7.7-3,1.4-5.9,1.9-8.7.6-2.8,1.1-5.5,1.5-7.9.4-2.5.8-4.6,1-6.5.2-2.3.4-4.5.5-6.8,0-2.3,0-4.1-.1-5.5l18.6,1.5h0s0,0,0,0ZM1841.3,991.6c4.9,0,10.1-.2,15.4-.7,5.3-.5,10.7-1.2,16.1-2.1s10.8-1.9,16.1-3.2v15.2c-5,1.1-10.3,2.1-16,2.9s-11.2,1.4-16.7,1.9c-5.5.5-10.6.7-15.2.7s-5.5,0-7.9-.2c-2.3-.1-4.6-.2-6.8-.3l-.4-15.2c3.2.3,5.9.6,8.1.7s4.7.2,7.2.2h0ZM1886,1040.8c-.5,1.7-.9,3.5-1.2,5.3-.3,1.8-.5,3.4-.5,4.8s.3,2.5.8,3.6c.6,1.1,1.5,2.1,2.7,3,1.2.8,2.9,1.5,5,2,2.1.5,4.8.7,8.1.7s8.3-.2,12.4-.7c4.2-.4,8.4-1.1,12.8-1.9l-.6,15.5c-3.4.4-7.2.8-11.3,1.2s-8.6.6-13.5.6c-10.2,0-18-1.7-23.3-5-5.4-3.3-8.1-8.1-8.1-14.2s.2-5.5.7-8.4c.5-2.8,1-5.5,1.5-7.9l14.4,1.5h0ZM1879.4,1010.2c3.4-.3,7.2-.6,11.3-.8,4.1-.2,8.1-.4,12-.4s7,0,10.6.2,7.2.5,10.7.8l-.4,14.5c-3-.4-6.3-.8-9.9-1-3.6-.3-7.3-.4-11-.4s-8.1,0-11.9.3c-3.8.2-7.7.6-11.5,1v-14.3h0Z"/>
            </g>
          </g>
        </g>
      </g>
    </g>
  </g>
</svg>