<?xml version="1.0" encoding="UTF-8"?>
<svg id="Layer_2" data-name="Layer 2" xmlns="http://www.w3.org/2000/svg" xmlns:xlink="http://www.w3.org/1999/xlink" viewBox="0 0 867.58 574.3">
  <defs>
    <style>
      .cls-1 {
        fill: url(#_名称未設定グラデーション_7);
      }
    </style>
    <linearGradient id="_名称未設定グラデーション_7" data-name="名称未設定グラデーション 7" x1="-136.28" y1="475.69" x2="1071.03" y2="16.57" gradientTransform="translate(59.24 -71.53) rotate(10.42)" gradientUnits="userSpaceOnUse">
      <stop offset="0" stop-color="#000"/>
      <stop offset=".05" stop-color="#000106"/>
      <stop offset=".11" stop-color="#000717"/>
      <stop offset=".18" stop-color="#001034"/>
      <stop offset=".26" stop-color="#001c5c"/>
      <stop offset=".34" stop-color="#002c8f"/>
      <stop offset=".43" stop-color="#003fcd"/>
      <stop offset=".5" stop-color="#004fff"/>
      <stop offset=".55" stop-color="#0040cf"/>
      <stop offset=".61" stop-color="#002f99"/>
      <stop offset=".68" stop-color="#00206a"/>
      <stop offset=".75" stop-color="#001544"/>
      <stop offset=".81" stop-color="#000b26"/>
      <stop offset=".88" stop-color="#000511"/>
      <stop offset=".94" stop-color="#000104"/>
      <stop offset="1" stop-color="#000"/>
    </linearGradient>
  </defs>
  <g id="_レイヤー_1" data-name="レイヤー 1">
    <path class="cls-1" d="M798.45,51.15c-102.07-87.57-178.27-39.36-201.59-24.53l60.19,51.64c36.73-20.74,69.45-8.57,101.29,18.75,16.14,13.85,72.41,62.12,11.53,140.14l-208.5-178.88c-31.5,41.13-45.41,67.05-52.41,98.16-4.16,17.78-5.19,35.29-3.39,52.25-25.19-44.03-71.21-98.46-126.4-137.97l-50.49,49.62c92.57,67.15,112.89,126.27,114.21,132.45,4.58,21.35-20.07,32.52-40.02,40.91,15.58,17.82,26.13,31.43,42.39,57.92,28.82-10.88,47.88-26.14,52.46-29.47,21.48-16.69,29.46-31.17,29.45-49.28,10.75,18.23,25.12,35.1,42.61,50.1,62.81,53.89,162.17,79.31,248.61-21.45,74.1-86.37,62.05-180-19.96-250.36ZM609.03,276.35c-58.45-50.15-30.99-106.86-21.82-125.5l147,126.11c-20.52,14.2-69.34,47.28-125.17-.62ZM376.92,273.98c18.07,84.29,7.56,172.36-11.7,214.11-12.92,27.46-33.71,48.37-75.3,57.29-6.74,1.45-33.4,5.98-58.77,5.55-.52-5.18-1.04-10.36-2.61-17.66-4.22-19.67-12.53-41.99-21.16-63.06,11.2,2.89,27.94,6.94,54.91,1.16,19.67-4.22,29.26-11.56,36.85-25.53,12.76-22.72,19.98-87.75,5.28-156.31-13.37-62.38-46.61-61.13-69.09-56.31-6.74,1.45-17.18,4.86-23.8,6.87-7.1,98.51-22.9,211.22-81.17,334.22-24.61-10.59-56.4-19.06-78.88-22.47,17.82-32.03,73.24-132.67,85.39-281.63-31.91,15.66-72.21,36.05-93.96,52.47L0,251.34c22.08-9.44,119.65-53.28,139.72-61.11.56-57.72-4.87-99.47-8.76-128.61l85.22,8.18c5.98.48,11.96.96,13.05,6.02.84,3.93-1.56,9.15-13.12,12.81-.04,46.44-.8,64.83-1.2,76.67,40.1-10.36,131.42-34.05,162.02,108.68Z"/>
  </g>
</svg>