<?xml version="1.0" encoding="UTF-8"?>
<svg id="Layer_2" data-name="Layer 2" xmlns="http://www.w3.org/2000/svg" viewBox="0 0 22.75 365.53">
  <defs>
    <style>
      .cls-1 {
        fill: #004fff;
      }
    </style>
  </defs>
  <g id="_デザイン" data-name="デザイン">
    <g>
      <path class="cls-1" d="M.09,8.42c0-1.65.29-3.11.87-4.38.58-1.27,1.41-2.25,2.49-2.97s2.38-1.07,3.9-1.07h.84v4h-.84c-1.26,0-2.21.4-2.84,1.19-.63.8-.94,1.88-.94,3.25s.27,2.42.81,3.11c.54.68,1.23,1.03,2.07,1.03.58,0,1.05-.17,1.41-.51s.65-.83.89-1.47c.23-.64.44-1.42.65-2.34l.15-.7c.32-1.47.72-2.73,1.21-3.78.49-1.05,1.14-1.86,1.94-2.42.8-.56,1.84-.84,3.12-.84s2.37.31,3.29.93c.91.62,1.61,1.5,2.1,2.63.49,1.13.74,2.47.74,4s-.25,2.89-.77,4.09c-.51,1.19-1.27,2.13-2.28,2.82-1.01.68-2.28,1.03-3.8,1.03h-.9v-4h.9c.8,0,1.44-.16,1.94-.47.49-.32.85-.77,1.08-1.36.23-.59.35-1.3.35-2.11,0-1.22-.23-2.13-.68-2.71-.45-.58-1.07-.87-1.85-.87-.52,0-.96.14-1.32.41-.36.28-.66.69-.9,1.24-.24.55-.45,1.25-.63,2.11l-.15.7c-.32,1.53-.73,2.86-1.23,4-.5,1.13-1.16,2.02-1.98,2.65-.82.63-1.87.95-3.15.95s-2.41-.33-3.38-1c-.97-.66-1.73-1.6-2.28-2.82C.36,11.5.09,10.07.09,8.42Z"/>
      <path class="cls-1" d="M.19,25h18v-6h4v17h-4v-7H.19v-4Z"/>
      <path class="cls-1" d="M.04,47.5c0-1.78.33-3.3.98-4.58.65-1.27,1.58-2.24,2.79-2.92s2.64-1.01,4.3-1.01h14.08v4H7.67c-1.35,0-2.42.39-3.2,1.16-.78.77-1.17,1.88-1.17,3.34s.39,2.57,1.17,3.34c.78.77,1.85,1.16,3.2,1.16h14.51v4h-14.08c-1.65,0-3.09-.34-4.3-1.01-1.21-.67-2.14-1.64-2.79-2.92-.65-1.27-.98-2.8-.98-4.58Z"/>
      <path class="cls-1" d="M.19,60h4v3h15v-3h3v9c0,2.94-.75,5.17-2.25,6.7-1.5,1.53-3.72,2.3-6.68,2.3h-4.15c-2.95,0-5.18-.77-6.68-2.3-1.5-1.53-2.25-3.77-2.25-6.7v-9ZM4.19,67v2.1c0,1.7.43,2.94,1.28,3.72s2.05,1.18,3.59,1.18h4.26c1.56,0,2.76-.39,3.61-1.18.84-.78,1.26-2.03,1.26-3.72v-2.1H4.19Z"/>
      <path class="cls-1" d="M.19,82h22v14h-4v-10h-5v9h-4v-9h-5v10H.19v-14Z"/>
      <path class="cls-1" d="M.19,100h22v8l-19,4.43v.57h19v3H.19v-7.17l19-4.28v-.55H.19v-4Z"/>
      <path class="cls-1" d="M.19,126h18v-6h4v17h-4v-7H.19v-4Z"/>
      <path class="cls-1" d="M.19,154h18v-7h4v17h-4v-6H.19v-4Z"/>
      <path class="cls-1" d="M.19,167h22v14h-4v-10h-5v9h-4v-9h-5v10H.19v-14Z"/>
      <path class="cls-1" d="M.09,192.42c0-1.65.29-3.11.87-4.38.58-1.27,1.41-2.26,2.49-2.97,1.08-.71,2.38-1.07,3.9-1.07h.84v4h-.84c-1.26,0-2.21.4-2.84,1.19-.63.8-.94,1.88-.94,3.24s.27,2.42.81,3.11c.54.68,1.23,1.03,2.07,1.03.58,0,1.05-.17,1.41-.5s.65-.83.89-1.47c.23-.64.44-1.42.65-2.34l.15-.7c.32-1.47.72-2.73,1.21-3.78.49-1.05,1.14-1.86,1.94-2.42.8-.56,1.84-.84,3.12-.84s2.37.31,3.29.93c.91.62,1.61,1.5,2.1,2.63.49,1.13.74,2.46.74,3.99s-.25,2.89-.77,4.09-1.27,2.13-2.28,2.82c-1.01.68-2.28,1.03-3.8,1.03h-.9v-4h.9c.8,0,1.44-.16,1.94-.47.49-.32.85-.77,1.08-1.36.23-.59.35-1.3.35-2.11,0-1.22-.23-2.13-.68-2.71-.45-.58-1.07-.87-1.85-.87-.52,0-.96.14-1.32.41-.36.27-.66.69-.9,1.24-.24.55-.45,1.26-.63,2.11l-.15.7c-.32,1.53-.73,2.86-1.23,4-.5,1.13-1.16,2.01-1.98,2.65-.82.63-1.87.95-3.15.95s-2.41-.33-3.38-.99c-.97-.66-1.73-1.6-2.28-2.82-.55-1.21-.83-2.65-.83-4.3Z"/>
      <path class="cls-1" d="M.19,210h18v-7h4v17h-4v-6H.19v-4Z"/>
      <path class="cls-1" d="M.19,223h22v4H.19v-4Z"/>
      <path class="cls-1" d="M.19,232h22v7.51l-19,3.71v.55l19,3.71v7.51H.19v-4h19v-.13L.19,247.12v-6.81l19-3.75v-.56H.19v-4Z"/>
      <path class="cls-1" d="M0,269c0-2.75.76-4.94,2.27-6.56,1.51-1.63,3.67-2.44,6.48-2.44h5.25c2.81,0,4.97.81,6.48,2.44,1.51,1.63,2.27,3.81,2.27,6.56s-.76,4.94-2.27,6.56c-1.51,1.62-3.67,2.44-6.48,2.44h-5.25c-2.81,0-4.97-.81-6.48-2.44-1.51-1.63-2.27-3.81-2.27-6.56ZM3.49,269c0,1.58.46,2.81,1.38,3.69.92.88,2.15,1.31,3.69,1.31h5.64c1.54,0,2.77-.44,3.69-1.31.92-.88,1.38-2.11,1.38-3.69s-.46-2.78-1.38-3.67c-.92-.89-2.15-1.33-3.69-1.33h-5.64c-1.54,0-2.77.44-3.69,1.33-.92.89-1.38,2.11-1.38,3.67Z"/>
      <path class="cls-1" d="M.19,282h22v8l-19,4.43v.57h19v3H.19v-7.17l19-4.28v-.55H.19v-4Z"/>
      <path class="cls-1" d="M.19,303h22v4H.19v-4Z"/>
      <path class="cls-1" d="M.19,310.3l22,5.78v7.23L.19,329.09v-4.1l5-1.23v-8.12l-5-1.23v-4.1ZM9.19,316.67v6.06l11-2.74v-.58l-11-2.74Z"/>
      <path class="cls-1" d="M.19,332h22v4H4.19v10H.19v-14Z"/>
      <path class="cls-1" d="M.09,357.42c0-1.65.29-3.11.87-4.38.58-1.27,1.41-2.26,2.49-2.97s2.38-1.07,3.9-1.07h.84v4h-.84c-1.26,0-2.21.4-2.84,1.19-.63.8-.94,1.88-.94,3.24s.27,2.42.81,3.11c.54.68,1.23,1.03,2.07,1.03.58,0,1.05-.17,1.41-.51.36-.34.65-.83.89-1.47.23-.64.44-1.42.65-2.34l.15-.7c.32-1.47.72-2.73,1.21-3.78.49-1.05,1.14-1.86,1.94-2.42.8-.56,1.84-.84,3.12-.84s2.37.31,3.29.93c.91.62,1.61,1.5,2.1,2.63.49,1.13.74,2.46.74,3.99s-.25,2.89-.77,4.09c-.51,1.19-1.27,2.13-2.28,2.82-1.01.68-2.28,1.03-3.8,1.03h-.9v-4h.9c.8,0,1.44-.16,1.94-.47.49-.32.85-.77,1.08-1.36.23-.59.35-1.3.35-2.11,0-1.22-.23-2.13-.68-2.71-.45-.58-1.07-.87-1.85-.87-.52,0-.96.14-1.32.41-.36.28-.66.69-.9,1.24-.24.55-.45,1.26-.63,2.11l-.15.7c-.32,1.53-.73,2.86-1.23,4-.5,1.13-1.16,2.02-1.98,2.65-.82.63-1.87.95-3.15.95s-2.41-.33-3.38-.99c-.97-.66-1.73-1.6-2.28-2.82-.55-1.21-.83-2.65-.83-4.3Z"/>
    </g>
  </g>
</svg>