<?xml version="1.0" encoding="UTF-8"?>
<svg xmlns="http://www.w3.org/2000/svg" xmlns:xlink="http://www.w3.org/1999/xlink" viewBox="0 0 3380.79 2120.39">
  <defs>
    <style>
      .cls-1 {
        fill: none;
      }

      .cls-2 {
        fill: #004fff;
      }

      .cls-3 {
        isolation: isolate;
      }

      .cls-4 {
        mix-blend-mode: multiply;
      }

      .cls-5 {
        clip-path: url(#clippath-1);
      }

      .cls-6 {
        clip-path: url(#clippath);
      }
    </style>
    <clipPath id="clippath">
      <polygon class="cls-1" points="735.55 1816.43 2655.55 1023 2655.55 626.8 2655.55 299.7 735.55 1093.14 735.55 1816.43"/>
    </clipPath>
    <clipPath id="clippath-1">
      <polygon class="cls-1" points="735.55 1816.43 2655.55 1023 3380.79 723.29 3380.79 0 2655.55 299.7 735.55 1093.14 735.55 1442.54 735.55 1816.43"/>
    </clipPath>
  </defs>
  <g class="cls-3">
    <g id="Layer_2" data-name="Layer 2">
      <g id="_デザイン" data-name="デザイン">
        <g>
          <g>
            <path class="cls-2" d="M938.77,994.37c-38.59,0-73.57-9.59-104.92-28.74-31.36-19.15-56.28-47.16-74.77-84.02-18.49-36.84-27.74-81.81-27.74-134.87v-148.58c0-79.6,20.36-140.76,61.1-183.51,40.73-42.74,95.94-64.12,165.62-64.12s122.61,20.2,160.4,60.58c37.79,40.39,56.68,95.07,56.68,164.05v3.54h-104.52v-7.08c0-21.81-4.16-41.57-12.46-59.25-8.32-17.69-20.78-31.69-37.39-42.01-16.62-10.31-37.52-15.48-62.71-15.48-37.52,0-67.01,12.69-88.44,38.03-21.44,25.36-32.16,59.85-32.16,103.47v152.12c0,43.04,10.72,77.69,32.16,103.92,21.43,26.24,51.46,39.36,90.05,39.36s66.73-11.19,84.42-33.61c17.69-22.4,26.53-50.7,26.53-84.9v-8.84h-133.46v-99.05h237.98v316.61h-98.09v-59.25h-14.47c-3.76,10.03-9.79,20.65-18.09,31.84-8.32,11.21-20.78,20.65-37.39,28.3-16.62,7.66-39.4,11.5-68.34,11.5Z"/>
            <path class="cls-2" d="M1487.89,994.37c-43.42,0-81.74-8.55-114.97-25.65-33.24-17.09-59.23-41.57-77.99-73.4-18.77-31.84-28.14-70.16-28.14-114.97v-24.76h104.52v24.76c0,37.14,10.45,65,31.36,83.57,20.9,18.57,49.31,27.86,85.22,27.86s63.64-7.96,81.61-23.88c17.95-15.92,26.93-36.26,26.93-61.02,0-17.09-4.42-30.95-13.27-41.57-8.84-10.61-21.71-19.3-38.59-26.09-16.88-6.77-37.39-13.11-61.51-19.01l-18.49-4.42c-38.59-9.42-71.69-21.36-99.29-35.82-27.61-14.44-48.78-33.45-63.51-57.04-14.75-23.57-22.11-54.24-22.11-91.98s8.17-70.01,24.52-96.84c16.34-26.82,39.4-47.45,69.14-61.91,29.75-14.44,64.72-21.67,104.92-21.67s75.98,7.52,107.33,22.55c31.36,15.03,56,37.45,73.97,67.21,17.95,29.78,26.93,67.08,26.93,111.88v26.53h-104.52v-26.53c0-23.57-4.16-42.59-12.46-57.04-8.32-14.44-20.24-25.05-35.78-31.84-15.55-6.77-34.04-10.17-55.48-10.17-32.16,0-55.88,6.63-71.15,19.9-15.28,13.27-22.91,31.4-22.91,54.39,0,15.34,3.62,28.3,10.85,38.91,7.24,10.61,18.09,19.46,32.56,26.53s32.96,13.27,55.48,18.57l18.49,4.42c40.2,9.44,75.17,21.53,104.92,36.26,29.75,14.74,52.93,34.2,69.55,58.37,16.61,24.18,24.92,55.14,24.92,92.86s-8.72,70.9-26.13,99.49c-17.42,28.6-42.08,51-73.97,67.21-31.9,16.21-69.55,24.32-112.96,24.32Z"/>
            <path class="cls-2" d="M1795.8,981.99V362.91h361.8v106.13h-255.67v147.69h233.16v106.13h-233.16v153h260.49v106.13h-366.62Z"/>
            <path class="cls-2" d="M2387.53,981.99V469.04h-164.01v-106.13h434.16v106.13h-164.01v512.95h-106.13Z"/>
          </g>
          <g>
            <polygon class="cls-2" points="0 2120.39 3380.79 723.29 3380.79 0 2655.55 299.7 0 1397.1 0 2120.39"/>
            <g class="cls-6">
              <g class="cls-4">
                <path d="M938.77,991.53c-38.59,0-73.57-9.59-104.92-28.74-31.36-19.15-56.28-47.16-74.77-84.02-18.49-36.84-27.74-81.81-27.74-134.87v-148.58c0-79.6,20.36-140.76,61.1-183.51,40.73-42.74,95.94-64.12,165.62-64.12s122.61,20.2,160.4,60.58c37.79,40.39,56.68,95.07,56.68,164.05v3.54h-104.52v-7.08c0-21.81-4.16-41.57-12.46-59.25-8.32-17.69-20.78-31.69-37.39-42.01-16.62-10.31-37.52-15.48-62.71-15.48-37.52,0-67.01,12.69-88.44,38.03-21.44,25.36-32.16,59.85-32.16,103.47v152.12c0,43.04,10.72,77.69,32.16,103.92,21.43,26.24,51.46,39.36,90.05,39.36s66.73-11.19,84.42-33.61c17.69-22.4,26.53-50.7,26.53-84.9v-8.84h-133.46v-99.05h237.98v316.61h-98.09v-59.25h-14.47c-3.76,10.03-9.79,20.65-18.09,31.84-8.32,11.21-20.78,20.65-37.39,28.3-16.62,7.66-39.4,11.5-68.34,11.5Z"/>
                <path d="M1487.89,991.53c-43.42,0-81.74-8.55-114.97-25.65-33.24-17.09-59.23-41.57-77.99-73.4-18.77-31.84-28.14-70.16-28.14-114.97v-24.76h104.52v24.76c0,37.14,10.45,65,31.36,83.57,20.9,18.57,49.31,27.86,85.22,27.86s63.64-7.96,81.61-23.88c17.95-15.92,26.93-36.26,26.93-61.02,0-17.09-4.42-30.95-13.27-41.57-8.84-10.61-21.71-19.3-38.59-26.09-16.88-6.77-37.39-13.11-61.51-19.01l-18.49-4.42c-38.59-9.42-71.69-21.36-99.29-35.82-27.61-14.44-48.78-33.45-63.51-57.04-14.75-23.57-22.11-54.24-22.11-91.98s8.17-70.01,24.52-96.84c16.34-26.82,39.4-47.45,69.14-61.91,29.75-14.44,64.72-21.67,104.92-21.67s75.98,7.52,107.33,22.55c31.36,15.03,56,37.45,73.97,67.21,17.95,29.78,26.93,67.08,26.93,111.88v26.53h-104.52v-26.53c0-23.57-4.16-42.59-12.46-57.04-8.32-14.44-20.24-25.05-35.78-31.84-15.55-6.77-34.04-10.17-55.48-10.17-32.16,0-55.88,6.63-71.15,19.9-15.28,13.27-22.91,31.4-22.91,54.39,0,15.34,3.62,28.3,10.85,38.91,7.24,10.61,18.09,19.46,32.56,26.53s32.96,13.27,55.48,18.57l18.49,4.42c40.2,9.44,75.17,21.53,104.92,36.26,29.75,14.74,52.93,34.2,69.55,58.37,16.61,24.18,24.92,55.14,24.92,92.86s-8.72,70.9-26.13,99.49c-17.42,28.6-42.08,51-73.97,67.21-31.9,16.21-69.55,24.32-112.96,24.32Z"/>
                <path d="M1795.8,979.15V360.08h361.8v106.13h-255.67v147.69h233.16v106.13h-233.16v153h260.49v106.13h-366.62Z"/>
                <path d="M2387.53,979.15V466.2h-164.01v-106.13h434.16v106.13h-164.01v512.95h-106.13Z"/>
              </g>
            </g>
            <g>
              <path class="cls-2" d="M784.07,1294.38h15.28v35.89c0,4.37-.48,8.59-1.46,12.67-.97,4.08-2.63,8-4.97,11.76-2.35,3.76-5.62,7.26-9.82,10.49-4.2,3.23-9.52,6.2-15.95,8.91-6.43,2.71-14.17,5.07-23.22,7.09-.57-1.13-1.35-2.47-2.36-4-1.01-1.54-2.1-3.05-3.27-4.55-1.17-1.5-2.32-2.77-3.46-3.82,8.49-1.53,15.66-3.37,21.52-5.52,5.86-2.14,10.61-4.45,14.25-6.91,3.64-2.47,6.45-5.11,8.43-7.94,1.98-2.83,3.31-5.8,4-8.91.69-3.11,1.03-6.24,1.03-9.4v-35.77ZM737.51,1334.52h109.38v13.46h-109.38v-13.46ZM738.72,1276.43h106.71v12.97h-106.71v-12.97ZM749.15,1306.51h86.82v33.83h-14.67v-21.22h-58.08v21.22h-14.07v-33.83ZM762.49,1266.97h14.31v33.23h-14.31v-33.23ZM799.23,1339.73c3.96,8.17,10.17,14.53,18.61,19.1,8.45,4.57,19.18,7.54,32.19,8.91-.97,1.05-2.04,2.36-3.21,3.94-1.17,1.58-2.26,3.19-3.27,4.85-1.01,1.66-1.88,3.21-2.61,4.67-9.3-1.62-17.42-4.02-24.37-7.22-6.95-3.19-12.9-7.36-17.83-12.49-4.93-5.13-9.06-11.38-12.37-18.73l12.85-3.03ZM806.99,1266.97h14.43v33.23h-14.43v-33.23Z"/>
              <path class="cls-2" d="M874.66,1287.59h45.23v11.52h-45.23v-11.52ZM880.11,1339.25h12.25v41.59h-12.25v-41.59ZM880.48,1305.05h35.04v11.03h-35.04v-11.03ZM880.48,1322.03h35.04v11.03h-35.04v-11.03ZM881.2,1270.85h34.44v10.91h-34.44v-10.91ZM887.27,1339.25h29.1v36.86h-29.1v-11.52h16.73v-13.82h-16.73v-11.52ZM919.28,1316.21h69.85v12.73h-69.85v-12.73ZM923.65,1270.49h61.12v12.37h-61.12v-12.37ZM925.59,1291.47h53.11v31.53h-13.95v-19.16h-39.17v-12.37ZM928.01,1335.37h53.35v45.11h-14.19v-32.13h-25.46v32.62h-13.7v-45.59ZM940.5,1275.58l14.07,1.21c-.65,5.09-1.42,10.47-2.3,16.13-.89,5.66-1.8,11.12-2.73,16.37-.93,5.26-1.84,9.86-2.73,13.82h-14.07c.73-3.07,1.43-6.55,2.12-10.43.69-3.88,1.39-7.94,2.12-12.19s1.37-8.49,1.94-12.73c.56-4.24,1.09-8.31,1.58-12.19ZM933.47,1363.26h41.84v12.98h-41.84v-12.98Z"/>
              <path class="cls-2" d="M1014.71,1310.26c4.04-1.21,8.87-2.77,14.49-4.67,5.62-1.9,11.34-3.9,17.16-6l2.18,10.55c-4.93,2.02-9.88,4.1-14.85,6.25-4.97,2.14-9.6,4.06-13.88,5.76l-5.09-11.88ZM1017.99,1272.43h39.05v11.28h-39.05v-11.28ZM1021.14,1290.98l6.91-8.37c2.67,1.29,5.54,2.89,8.61,4.79,3.07,1.9,5.46,3.66,7.15,5.27l-7.28,9.34c-1.62-1.7-3.92-3.6-6.91-5.7-2.99-2.1-5.82-3.88-8.49-5.34ZM1031.08,1329.91h81.61v51.29h-15.16v-40.38h-52.02v40.38h-14.43v-51.29ZM1038.36,1347.86h63.18v10.91h-63.18v-10.91ZM1039.21,1365.8h62.93v11.03h-62.93v-11.03ZM1053.76,1272.43h13.22v40.26c0,2.75-.36,4.89-1.09,6.43-.73,1.54-2.02,2.79-3.88,3.76-1.94.81-4.29,1.27-7.03,1.39-2.75.12-5.94.18-9.58.18-.24-1.53-.73-3.27-1.46-5.21s-1.46-3.64-2.18-5.09c2.1.08,4.14.12,6.12.12h4.06c.65,0,1.11-.14,1.39-.42s.42-.71.42-1.27v-40.14ZM1063.34,1318.75l15.64,2.18c-1.54,3.15-3.15,6.14-4.85,8.97-1.7,2.83-3.19,5.21-4.49,7.15l-11.88-2.55c1.05-2.34,2.12-4.97,3.21-7.88,1.09-2.91,1.88-5.54,2.36-7.88ZM1069.89,1308.2c4.37-1.29,9.5-2.93,15.4-4.91,5.9-1.98,11.88-4.02,17.95-6.12l2.3,10.43c-5.26,2.02-10.57,4.02-15.95,6-5.38,1.98-10.33,3.78-14.85,5.4l-4.85-10.79ZM1073.4,1272.43h41.83v11.28h-41.83v-11.28ZM1075.46,1290.86l7.03-8.61c2.67,1.29,5.6,2.89,8.79,4.79,3.19,1.9,5.68,3.66,7.46,5.27l-7.4,9.46c-1.62-1.7-3.98-3.58-7.09-5.64-3.11-2.06-6.04-3.82-8.79-5.27ZM1108.45,1272.43h13.58v39.9c0,2.99-.38,5.27-1.15,6.85-.77,1.58-2.2,2.85-4.3,3.82-2.02.89-4.51,1.44-7.46,1.64-2.95.2-6.41.26-10.37.18-.24-1.7-.75-3.58-1.52-5.64-.77-2.06-1.56-3.86-2.36-5.4,2.34.08,4.67.14,6.97.18,2.3.04,3.82.06,4.55.06.73-.08,1.25-.24,1.58-.49.32-.24.48-.69.48-1.33v-39.77Z"/>
              <path class="cls-2" d="M1182.42,1293.77l12.73,5.34c-2.91,5.01-6.35,10.03-10.31,15.04-3.96,5.01-8.12,9.76-12.49,14.25-4.37,4.49-8.65,8.39-12.85,11.7-.41-1.13-.99-2.65-1.76-4.55-.77-1.9-1.62-3.82-2.55-5.76-.93-1.94-1.8-3.48-2.61-4.61,3.64-2.59,7.28-5.56,10.91-8.91,3.64-3.35,7.11-6.95,10.43-10.79,3.31-3.84,6.14-7.74,8.49-11.7ZM1179.27,1267.22l13.82,5.58c-2.67,3.72-5.76,7.46-9.28,11.22-3.52,3.76-7.22,7.3-11.1,10.61-3.88,3.32-7.76,6.23-11.64,8.73-.48-1.13-1.15-2.47-2-4-.85-1.53-1.74-3.07-2.67-4.61-.93-1.53-1.76-2.79-2.49-3.76,3.15-1.94,6.35-4.24,9.58-6.91,3.23-2.67,6.25-5.48,9.03-8.43,2.79-2.95,5.03-5.76,6.73-8.43ZM1170.41,1320.94l13.46-13.46.73.24v73.12h-14.19v-59.9ZM1191.03,1336.82h76.03v12.37h-76.03v-12.37ZM1194.06,1318.15h70.45v11.88h-70.45v-11.88ZM1199.03,1355.25l10.19-6.79c2.59,2.35,5.29,5.01,8.12,8,2.83,2.99,5.01,5.66,6.55,8l-10.79,7.64c-.89-1.54-2.12-3.27-3.7-5.21-1.58-1.94-3.27-3.94-5.09-6-1.82-2.06-3.58-3.94-5.27-5.64ZM1200.24,1270.49h60.39v42.32h-60.39v-42.32ZM1214.19,1280.8v5.94h31.77v-5.94h-31.77ZM1214.19,1296.44v6.06h31.77v-6.06h-31.77ZM1235.65,1328.57h14.67v37.95c0,3.32-.38,5.92-1.15,7.82-.77,1.9-2.32,3.33-4.67,4.3-2.26,1.05-4.95,1.68-8.06,1.88-3.11.2-6.73.3-10.85.3-.24-1.94-.81-4.12-1.7-6.55-.89-2.43-1.82-4.57-2.79-6.43,2.5.08,4.99.14,7.46.18,2.46.04,4.1.06,4.91.06.89-.08,1.47-.26,1.76-.55.28-.28.42-.75.42-1.39v-37.59Z"/>
              <path class="cls-2" d="M1357.28,1286.98c-.81,6.14-1.86,12.69-3.15,19.64-1.29,6.95-3.03,13.99-5.21,21.1-2.35,8.17-5.09,15.2-8.25,21.1-3.15,5.9-6.61,10.45-10.37,13.64-3.76,3.19-7.86,4.79-12.31,4.79s-8.55-1.52-12.31-4.55c-3.76-3.03-6.75-7.22-8.97-12.55-2.22-5.34-3.33-11.4-3.33-18.19s1.41-13.66,4.24-19.89c2.83-6.22,6.77-11.74,11.82-16.55,5.05-4.81,10.95-8.59,17.7-11.34,6.75-2.75,14.04-4.12,21.89-4.12s14.29,1.21,20.31,3.64c6.02,2.43,11.17,5.78,15.46,10.06,4.28,4.29,7.56,9.3,9.82,15.04,2.26,5.74,3.39,11.93,3.39,18.55,0,8.49-1.74,16.09-5.21,22.8-3.48,6.71-8.63,12.25-15.46,16.61-6.83,4.37-15.34,7.36-25.53,8.97l-9.09-14.43c2.34-.24,4.41-.52,6.18-.85,1.78-.32,3.47-.69,5.09-1.09,3.88-.97,7.5-2.36,10.85-4.18,3.35-1.82,6.28-4.08,8.79-6.79,2.5-2.71,4.47-5.88,5.88-9.52,1.41-3.64,2.12-7.64,2.12-12,0-4.77-.73-9.13-2.18-13.1-1.46-3.96-3.6-7.42-6.43-10.37-2.83-2.95-6.27-5.21-10.31-6.79-4.04-1.58-8.69-2.36-13.95-2.36-6.47,0-12.17,1.15-17.1,3.46-4.93,2.3-9.09,5.27-12.49,8.91-3.39,3.64-5.96,7.56-7.7,11.76-1.74,4.2-2.61,8.21-2.61,12,0,4.04.48,7.42,1.46,10.13.97,2.71,2.16,4.73,3.58,6.06,1.41,1.33,2.93,2,4.55,2s3.37-.87,5.03-2.61c1.66-1.74,3.29-4.38,4.91-7.94,1.62-3.56,3.23-8.04,4.85-13.46,1.86-5.82,3.44-12.04,4.73-18.67,1.29-6.63,2.22-13.1,2.79-19.4l16.49.49Z"/>
              <path class="cls-2" d="M1426.52,1277.77h62.21v12.37h-62.21v-12.37ZM1428.58,1300.08h51.05v12.49h-39.17v68.03h-11.88v-80.52ZM1436.46,1290.5l11.4-2.55c.89,1.78,1.68,3.82,2.36,6.12.69,2.3,1.19,4.26,1.52,5.88l-11.88,3.03c-.16-1.7-.57-3.72-1.21-6.06-.65-2.34-1.38-4.49-2.18-6.43ZM1442.28,1320.45h30.19v9.22h-30.19v-9.22ZM1444.34,1337.43h8.97v29.22h-8.97v-29.22ZM1449.07,1337.43h21.58v24.74h-21.58v-8.85h12.37v-6.91h-12.37v-8.97ZM1450.65,1267.94h13.58v16.98h-13.58v-16.98ZM1452.47,1311.23h9.34v29.59h-9.34v-29.59ZM1474.54,1300.08h12.25v67.66c0,2.83-.3,5.11-.91,6.85-.61,1.74-1.88,3.05-3.82,3.94-1.78.97-3.98,1.58-6.61,1.82-2.63.24-5.8.36-9.52.36-.24-1.62-.71-3.54-1.39-5.76-.69-2.22-1.48-4.06-2.36-5.52,2.26.08,4.41.12,6.43.12h4c.73,0,1.23-.14,1.52-.42.28-.28.42-.79.42-1.52v-67.54ZM1466.78,1287.95l13.46,2.3c-1.05,2.43-2.04,4.69-2.97,6.79-.93,2.1-1.8,3.92-2.61,5.46l-11.4-2.3c.56-1.78,1.21-3.84,1.94-6.18.73-2.34,1.25-4.37,1.58-6.06ZM1498.3,1266.97l14.07,2.06c-1.13,7.92-2.67,15.56-4.61,22.92-1.94,7.36-4.26,14.17-6.97,20.43-2.71,6.27-5.88,11.74-9.52,16.43-.65-.89-1.64-1.98-2.97-3.27-1.33-1.29-2.69-2.59-4.06-3.88-1.38-1.29-2.59-2.34-3.64-3.15,3.23-3.96,6-8.65,8.31-14.07,2.3-5.42,4.24-11.32,5.82-17.7,1.58-6.39,2.77-12.97,3.58-19.77ZM1519.04,1297.05l13.95,1.09c-1.38,13.26-3.56,25.16-6.55,35.71-2.99,10.55-7.21,19.75-12.67,27.59-5.46,7.84-12.59,14.51-21.4,20.01-.4-1.13-1.11-2.47-2.12-4-1.01-1.54-2.06-3.05-3.15-4.55-1.09-1.5-2.08-2.73-2.97-3.7,7.92-4.45,14.25-10.08,18.98-16.92,4.73-6.83,8.33-14.85,10.79-24.07,2.47-9.22,4.18-19.6,5.15-31.16ZM1505.58,1299.96c1.53,10.27,3.72,19.95,6.55,29.04s6.57,17.12,11.22,24.07c4.65,6.95,10.45,12.45,17.4,16.49-1.54,1.21-3.23,2.97-5.09,5.27-1.86,2.3-3.36,4.38-4.49,6.25-7.52-4.93-13.74-11.28-18.67-19.04-4.93-7.76-8.89-16.75-11.88-26.98-2.99-10.23-5.42-21.32-7.28-33.29l12.25-1.82ZM1498.67,1289.16h40.02v13.46h-40.02v-13.46Z"/>
              <path class="cls-2" d="M1589.86,1276.43c-.24.81-.59,1.94-1.03,3.4-.45,1.46-.81,2.87-1.09,4.24-.28,1.38-.51,2.43-.67,3.15-.41,1.7-.85,3.98-1.33,6.85-.49,2.87-.99,6.1-1.52,9.7-.53,3.6-1.03,7.28-1.52,11.03-.49,3.76-.85,7.32-1.09,10.67-.24,3.36-.36,6.25-.36,8.67,0,1.21.02,2.53.06,3.94.04,1.42.18,2.73.42,3.94.56-1.46,1.15-2.87,1.76-4.24.61-1.37,1.23-2.75,1.88-4.12.65-1.37,1.25-2.75,1.82-4.12l7.4,6.06c-1.13,3.32-2.29,6.79-3.46,10.43-1.17,3.64-2.22,7.07-3.15,10.31-.93,3.23-1.64,5.94-2.12,8.12-.16.81-.3,1.78-.42,2.91-.12,1.13-.18,2.06-.18,2.79,0,.65.02,1.43.06,2.36.04.93.1,1.8.18,2.61l-13.7,1.09c-1.29-4.29-2.43-9.76-3.4-16.43s-1.46-14.13-1.46-22.37c0-4.53.2-9.28.61-14.25.4-4.97.87-9.76,1.39-14.37.53-4.61,1.07-8.83,1.64-12.67.56-3.84,1.01-6.93,1.33-9.28.24-1.7.49-3.62.73-5.76.24-2.14.4-4.18.48-6.12l16.73,1.46ZM1649.03,1275.1c-.16,1.13-.3,2.39-.42,3.76-.12,1.38-.22,2.75-.3,4.12-.08,1.29-.16,3.03-.24,5.21-.08,2.18-.12,4.63-.12,7.34v8.55c0,5.5.08,10.65.24,15.46.16,4.81.36,9.26.61,13.34.24,4.08.46,7.82.67,11.22.2,3.4.3,6.55.3,9.46,0,3.15-.42,6.06-1.27,8.73s-2.2,5.01-4.06,7.03c-1.86,2.02-4.3,3.58-7.34,4.67-3.03,1.09-6.73,1.64-11.09,1.64-8.41,0-15.04-1.7-19.89-5.09-4.85-3.4-7.28-8.29-7.28-14.67,0-4.12,1.09-7.74,3.27-10.85,2.18-3.11,5.29-5.54,9.34-7.28,4.04-1.74,8.81-2.61,14.31-2.61s10.95.61,15.64,1.82c4.69,1.21,8.97,2.83,12.85,4.85,3.88,2.02,7.34,4.23,10.37,6.61,3.03,2.39,5.76,4.67,8.19,6.85l-8.37,12.73c-4.61-4.37-9.1-8.12-13.46-11.28s-8.71-5.58-13.04-7.28c-4.33-1.7-8.79-2.55-13.4-2.55-3.4,0-6.17.65-8.31,1.94-2.14,1.29-3.21,3.11-3.21,5.46s1.09,4.2,3.27,5.34c2.18,1.13,4.85,1.7,8,1.7,2.51,0,4.49-.42,5.94-1.27,1.46-.85,2.49-2.1,3.09-3.76.61-1.66.91-3.66.91-6,0-2.1-.08-4.85-.24-8.25-.16-3.4-.34-7.19-.54-11.4-.2-4.2-.38-8.59-.55-13.16-.16-4.57-.24-9.03-.24-13.4,0-4.61-.02-8.79-.06-12.55-.04-3.76-.06-6.57-.06-8.43,0-.89-.08-2.14-.24-3.76-.16-1.62-.36-3.03-.61-4.24h17.34ZM1602.95,1295.59c3.47.32,6.97.59,10.49.79,3.52.2,7.09.3,10.73.3,7.44,0,14.83-.32,22.19-.97,7.36-.65,14.15-1.66,20.37-3.03v15.16c-6.31.89-13.14,1.6-20.49,2.12-7.36.53-14.71.79-22.07.79-3.56,0-7.09-.06-10.61-.18-3.52-.12-7.05-.3-10.61-.55v-14.43Z"/>
              <path class="cls-2" d="M1716.39,1382.29c-2.18-2.77-4.62-5.57-7.31-8.4-2.69-2.84-5.42-5.62-8.19-8.35-2.77-2.73-5.42-5.18-7.97-7.37l11.35-9.82c2.62,2.11,5.42,4.6,8.4,7.48,2.98,2.88,5.84,5.77,8.57,8.68,2.73,2.91,5,5.49,6.82,7.75l-11.68,10.04Z"/>
              <path class="cls-2" d="M1763.63,1320.09c-3.8,0-6.73-1.43-8.79-4.3-2.06-2.87-3.09-6.93-3.09-12.19,0-6.22,1.53-11.66,4.61-16.31,3.07-4.65,7.64-8.55,13.7-11.7l4.12,7.88c-3.96,2.1-6.93,4.53-8.91,7.28-1.98,2.75-2.97,6.14-2.97,10.19l.85,11.16-6.43-8.61c1.05-.89,2.14-1.6,3.27-2.12,1.13-.52,2.34-.79,3.64-.79,2.67,0,4.93.83,6.79,2.49,1.86,1.66,2.79,3.94,2.79,6.85,0,3.07-.89,5.54-2.67,7.4-1.78,1.86-4.08,2.79-6.91,2.79ZM1793.94,1320.09c-3.8,0-6.73-1.43-8.79-4.3-2.06-2.87-3.09-6.93-3.09-12.19,0-6.22,1.54-11.66,4.61-16.31,3.07-4.65,7.64-8.55,13.7-11.7l4.12,7.88c-3.96,2.1-6.91,4.53-8.85,7.28-1.94,2.75-2.91,6.14-2.91,10.19l.73,11.16-6.43-8.61c1.05-.89,2.14-1.6,3.27-2.12,1.13-.52,2.34-.79,3.64-.79,2.67,0,4.93.83,6.79,2.49,1.86,1.66,2.79,3.94,2.79,6.85,0,3.07-.89,5.54-2.67,7.4-1.78,1.86-4.08,2.79-6.91,2.79Z"/>
              <path class="cls-2" d="M1834.93,1274.37h84.64v104.89h-15.64v-90.22h-54.08v90.46h-14.92v-105.13ZM1845.11,1315.11h65.24v14.31h-65.24v-14.31ZM1845.11,1356.83h65.36v14.67h-65.36v-14.67Z"/>
              <path class="cls-2" d="M1993.29,1295.96l13.34,4.24c-3.48,8.73-7.68,17.06-12.61,24.98-4.93,7.92-10.45,15.1-16.55,21.52-6.1,6.43-12.67,11.9-19.71,16.43-.81-1.21-1.86-2.57-3.15-4.06-1.29-1.5-2.57-2.99-3.82-4.49-1.25-1.49-2.49-2.69-3.7-3.58,5.01-2.75,9.82-6.1,14.43-10.06,4.61-3.96,8.91-8.37,12.91-13.22,4-4.85,7.6-9.96,10.79-15.34,3.19-5.38,5.88-10.85,8.06-16.43ZM1951.94,1290.62h107.2v14.79h-107.2v-14.79ZM1976.8,1345.55h56.39v14.79h-56.39v-14.79ZM1997.66,1267.1h15.4v113.86h-15.4v-113.86ZM2017.55,1296.32c2.91,7.11,6.73,14.09,11.46,20.92,4.73,6.83,10.12,13.04,16.19,18.61,6.06,5.58,12.45,10.15,19.16,13.7-1.21.97-2.53,2.22-3.94,3.76-1.42,1.54-2.77,3.13-4.06,4.79-1.29,1.66-2.38,3.17-3.27,4.55-7.03-4.37-13.6-9.72-19.71-16.07-6.11-6.35-11.58-13.44-16.43-21.28-4.85-7.84-9.05-16.05-12.61-24.62l13.22-4.37Z"/>
              <path class="cls-2" d="M2089.09,1287.59h45.23v11.52h-45.23v-11.52ZM2094.55,1339.25h12.25v41.59h-12.25v-41.59ZM2094.91,1305.05h35.04v11.03h-35.04v-11.03ZM2094.91,1322.03h35.04v11.03h-35.04v-11.03ZM2095.64,1270.85h34.44v10.91h-34.44v-10.91ZM2101.7,1339.25h29.1v36.86h-29.1v-11.52h16.73v-13.82h-16.73v-11.52ZM2133.72,1316.21h69.85v12.73h-69.85v-12.73ZM2138.08,1270.49h61.12v12.37h-61.12v-12.37ZM2140.02,1291.47h53.11v31.53h-13.95v-19.16h-39.17v-12.37ZM2142.45,1335.37h53.36v45.11h-14.19v-32.13h-25.46v32.62h-13.7v-45.59ZM2154.94,1275.58l14.07,1.21c-.65,5.09-1.42,10.47-2.3,16.13-.89,5.66-1.8,11.12-2.73,16.37-.93,5.26-1.84,9.86-2.73,13.82h-14.07c.73-3.07,1.43-6.55,2.12-10.43.69-3.88,1.39-7.94,2.12-12.19s1.37-8.49,1.94-12.73c.56-4.24,1.09-8.31,1.58-12.19ZM2147.9,1363.26h41.84v12.98h-41.84v-12.98Z"/>
              <path class="cls-2" d="M2234.85,1318.63l-4.12-7.76c3.96-2.18,6.93-4.65,8.91-7.4,1.98-2.75,2.97-6.14,2.97-10.19l-.97-11.03,6.55,8.61c-.97.81-2.04,1.48-3.21,2-1.17.53-2.41.79-3.7.79-2.59,0-4.85-.85-6.79-2.55s-2.91-3.96-2.91-6.79c0-3.15.91-5.62,2.73-7.4,1.82-1.78,4.14-2.67,6.97-2.67,3.88,0,6.81,1.42,8.79,4.24,1.98,2.83,2.97,6.83,2.97,12.01,0,6.23-1.52,11.7-4.55,16.43-3.03,4.73-7.58,8.63-13.64,11.7ZM2265.16,1318.63l-4.24-7.76c4.04-2.18,7.05-4.65,9.03-7.4,1.98-2.75,2.97-6.14,2.97-10.19l-.97-11.03,6.55,8.61c-.97.81-2.04,1.48-3.21,2-1.17.53-2.41.79-3.7.79-2.59,0-4.85-.85-6.79-2.55-1.94-1.7-2.91-3.96-2.91-6.79,0-3.15.91-5.62,2.73-7.4,1.82-1.78,4.14-2.67,6.97-2.67,3.88,0,6.81,1.42,8.79,4.24,1.98,2.83,2.97,6.83,2.97,12.01,0,6.23-1.52,11.7-4.55,16.43-3.03,4.73-7.58,8.63-13.64,11.7Z"/>
              <path class="cls-2" d="M2362.65,1274.61c-.49,1.7-.99,3.7-1.52,6-.53,2.3-.91,4.14-1.15,5.52-.57,2.75-1.27,6.1-2.12,10.06-.85,3.96-1.76,8.15-2.73,12.55-.97,4.41-1.98,8.67-3.03,12.79-1.13,4.2-2.45,8.81-3.94,13.82-1.5,5.01-3.11,10.06-4.85,15.16-1.74,5.09-3.5,9.99-5.28,14.67-1.78,4.69-3.52,8.85-5.21,12.49l-16.98-5.7c1.86-3.07,3.78-6.83,5.76-11.28,1.98-4.45,3.94-9.2,5.88-14.25,1.94-5.05,3.72-10.1,5.33-15.16,1.62-5.05,2.99-9.68,4.12-13.88.73-2.91,1.46-5.86,2.18-8.85.73-2.99,1.39-5.9,2-8.73.61-2.83,1.13-5.48,1.58-7.94.44-2.46.79-4.59,1.03-6.37.24-2.26.4-4.53.48-6.79.08-2.26.04-4.12-.12-5.58l18.55,1.46ZM2331.73,1292.8c4.93,0,10.07-.24,15.4-.73,5.33-.49,10.71-1.19,16.13-2.12,5.42-.93,10.79-2,16.13-3.21v15.16c-5.01,1.21-10.35,2.22-16.01,3.03-5.66.81-11.24,1.44-16.73,1.88-5.5.45-10.55.67-15.16.67-2.91,0-5.54-.06-7.88-.18-2.35-.12-4.61-.22-6.79-.3l-.36-15.16c3.15.32,5.86.57,8.12.73,2.26.16,4.65.24,7.15.24ZM2376.36,1341.79c-.48,1.7-.89,3.48-1.21,5.34-.32,1.86-.48,3.44-.48,4.73,0,1.38.28,2.63.85,3.76.57,1.13,1.46,2.12,2.67,2.97,1.21.85,2.89,1.5,5.03,1.94,2.14.45,4.83.67,8.06.67,4.04,0,8.16-.2,12.37-.61,4.2-.4,8.49-1.01,12.85-1.82l-.61,15.4c-3.39.49-7.15.91-11.28,1.27s-8.61.55-13.46.55c-10.19,0-17.97-1.7-23.34-5.09-5.38-3.4-8.06-8.12-8.06-14.19,0-2.83.22-5.66.67-8.49.44-2.83.91-5.42,1.39-7.76l14.55,1.33ZM2369.81,1311.36c3.4-.4,7.15-.71,11.28-.91,4.12-.2,8.12-.3,12-.3,3.47,0,7.01.08,10.61.24,3.6.16,7.17.45,10.73.85l-.36,14.55c-2.99-.4-6.29-.77-9.88-1.09-3.6-.32-7.26-.49-10.97-.49-4.2,0-8.21.1-12,.3-3.8.2-7.6.55-11.4,1.03v-14.19ZM2401.46,1278.13c1.05,1.46,2.16,3.19,3.33,5.21,1.17,2.02,2.32,4.04,3.46,6.06,1.13,2.02,2.06,3.8,2.79,5.34l-9.7,4.24c-.81-1.7-1.74-3.56-2.79-5.58-1.05-2.02-2.14-4.04-3.27-6.06-1.13-2.02-2.26-3.76-3.4-5.21l9.58-4ZM2415.77,1272.67c1.13,1.46,2.3,3.21,3.52,5.27,1.21,2.06,2.41,4.08,3.58,6.06,1.17,1.98,2.08,3.7,2.73,5.15l-9.58,4.12c-1.29-2.59-2.83-5.46-4.61-8.61-1.78-3.15-3.52-5.86-5.21-8.12l9.58-3.88Z"/>
              <path class="cls-2" d="M2445.96,1318.75c1.86-.4,4-.91,6.43-1.52,2.42-.61,4.57-1.19,6.43-1.76,2.02-.65,4.73-1.49,8.12-2.55,3.39-1.05,7.13-2.1,11.22-3.15,4.08-1.05,8.2-1.94,12.37-2.67,4.16-.73,8.1-1.09,11.82-1.09,6.38,0,11.98,1.19,16.79,3.58,4.81,2.39,8.55,5.8,11.22,10.25,2.67,4.45,4,9.74,4,15.89,0,5.5-1.19,10.51-3.58,15.04-2.38,4.53-6,8.49-10.85,11.88-4.85,3.4-10.89,6.17-18.13,8.31-7.24,2.14-15.66,3.5-25.28,4.06l-6.43-14.92c6.95-.16,13.36-.77,19.22-1.82,5.86-1.05,10.95-2.57,15.28-4.55,4.32-1.98,7.68-4.51,10.06-7.58,2.38-3.07,3.58-6.63,3.58-10.67,0-3.07-.71-5.76-2.12-8.06-1.42-2.3-3.42-4.1-6-5.4-2.59-1.29-5.66-1.94-9.22-1.94-2.83,0-5.98.36-9.46,1.09-3.48.73-7.05,1.66-10.73,2.79-3.68,1.13-7.3,2.35-10.85,3.64-3.56,1.29-6.87,2.55-9.94,3.76-3.07,1.21-5.62,2.26-7.64,3.15l-6.31-15.76Z"/>
              <path class="cls-2" d="M2603.6,1273.28c-.48,1.62-.97,3.6-1.46,5.94-.48,2.35-.85,4.16-1.09,5.46-.57,2.75-1.27,6.1-2.12,10.06-.85,3.96-1.78,8.17-2.79,12.61-1.01,4.45-2.04,8.69-3.09,12.73-1.05,4.29-2.35,8.91-3.88,13.88-1.54,4.97-3.17,10.02-4.91,15.16-1.74,5.13-3.5,10.02-5.27,14.67-1.78,4.65-3.52,8.79-5.21,12.43l-16.86-5.7c1.78-3.07,3.68-6.81,5.7-11.22,2.02-4.41,3.98-9.16,5.88-14.25,1.9-5.09,3.66-10.14,5.28-15.16,1.62-5.01,2.99-9.66,4.12-13.95.81-2.83,1.58-5.74,2.3-8.73.73-2.99,1.37-5.9,1.94-8.73.56-2.83,1.07-5.48,1.52-7.94.44-2.47.79-4.63,1.03-6.49.24-2.26.4-4.53.49-6.79.08-2.26.04-4.08-.12-5.46l18.55,1.46ZM2572.68,1291.35c4.93,0,10.06-.24,15.4-.73,5.34-.48,10.71-1.17,16.13-2.06,5.42-.89,10.79-1.94,16.13-3.15v15.16c-5.01,1.13-10.35,2.1-16.01,2.91-5.66.81-11.24,1.44-16.73,1.88-5.5.45-10.55.67-15.16.67-2.91,0-5.54-.06-7.88-.18-2.35-.12-4.61-.22-6.79-.3l-.36-15.16c3.15.32,5.86.57,8.12.73,2.26.16,4.65.24,7.15.24ZM2617.31,1340.46c-.49,1.7-.89,3.46-1.21,5.27-.32,1.82-.49,3.42-.49,4.79,0,1.29.28,2.51.85,3.64.56,1.13,1.46,2.12,2.67,2.97,1.21.85,2.89,1.52,5.03,2,2.14.49,4.83.73,8.06.73,4.12,0,8.27-.22,12.43-.67,4.16-.44,8.43-1.07,12.79-1.88l-.61,15.52c-3.4.4-7.15.79-11.28,1.15s-8.61.55-13.46.55c-10.19,0-17.97-1.68-23.34-5.03-5.38-3.35-8.06-8.1-8.06-14.25,0-2.75.24-5.54.73-8.37.49-2.83.97-5.46,1.46-7.88l14.43,1.46ZM2610.76,1309.9c3.4-.32,7.15-.61,11.28-.85,4.12-.24,8.12-.36,12-.36,3.48,0,7.01.08,10.61.24,3.6.16,7.17.45,10.73.85l-.36,14.55c-2.99-.4-6.29-.75-9.88-1.03-3.6-.28-7.26-.42-10.97-.42-4.12,0-8.11.1-11.95.3-3.84.2-7.66.55-11.46,1.03v-14.31Z"/>
            </g>
          </g>
          <g class="cls-5">
            <g>
              <path d="M784.07,1294.38h15.28v35.89c0,4.37-.48,8.59-1.46,12.67-.97,4.08-2.63,8-4.97,11.76-2.35,3.76-5.62,7.26-9.82,10.49-4.2,3.23-9.52,6.2-15.95,8.91-6.43,2.71-14.17,5.07-23.22,7.09-.57-1.13-1.35-2.47-2.36-4-1.01-1.54-2.1-3.05-3.27-4.55-1.17-1.5-2.32-2.77-3.46-3.82,8.49-1.53,15.66-3.37,21.52-5.52,5.86-2.14,10.61-4.45,14.25-6.91,3.64-2.47,6.45-5.11,8.43-7.94,1.98-2.83,3.31-5.8,4-8.91.69-3.11,1.03-6.24,1.03-9.4v-35.77ZM737.51,1334.52h109.38v13.46h-109.38v-13.46ZM738.72,1276.43h106.71v12.97h-106.71v-12.97ZM749.15,1306.51h86.82v33.83h-14.67v-21.22h-58.08v21.22h-14.07v-33.83ZM762.49,1266.97h14.31v33.23h-14.31v-33.23ZM799.23,1339.73c3.96,8.17,10.17,14.53,18.61,19.1,8.45,4.57,19.18,7.54,32.19,8.91-.97,1.05-2.04,2.36-3.21,3.94-1.17,1.58-2.26,3.19-3.27,4.85-1.01,1.66-1.88,3.21-2.61,4.67-9.3-1.62-17.42-4.02-24.37-7.22-6.95-3.19-12.9-7.36-17.83-12.49-4.93-5.13-9.06-11.38-12.37-18.73l12.85-3.03ZM806.99,1266.97h14.43v33.23h-14.43v-33.23Z"/>
              <path d="M874.66,1287.59h45.23v11.52h-45.23v-11.52ZM880.11,1339.25h12.25v41.59h-12.25v-41.59ZM880.48,1305.05h35.04v11.03h-35.04v-11.03ZM880.48,1322.03h35.04v11.03h-35.04v-11.03ZM881.2,1270.85h34.44v10.91h-34.44v-10.91ZM887.27,1339.25h29.1v36.86h-29.1v-11.52h16.73v-13.82h-16.73v-11.52ZM919.28,1316.21h69.85v12.73h-69.85v-12.73ZM923.65,1270.49h61.12v12.37h-61.12v-12.37ZM925.59,1291.47h53.11v31.53h-13.95v-19.16h-39.17v-12.37ZM928.01,1335.37h53.35v45.11h-14.19v-32.13h-25.46v32.62h-13.7v-45.59ZM940.5,1275.58l14.07,1.21c-.65,5.09-1.42,10.47-2.3,16.13-.89,5.66-1.8,11.12-2.73,16.37-.93,5.26-1.84,9.86-2.73,13.82h-14.07c.73-3.07,1.43-6.55,2.12-10.43.69-3.88,1.39-7.94,2.12-12.19s1.37-8.49,1.94-12.73c.56-4.24,1.09-8.31,1.58-12.19ZM933.47,1363.26h41.84v12.98h-41.84v-12.98Z"/>
              <path d="M1014.71,1310.26c4.04-1.21,8.87-2.77,14.49-4.67,5.62-1.9,11.34-3.9,17.16-6l2.18,10.55c-4.93,2.02-9.88,4.1-14.85,6.25-4.97,2.14-9.6,4.06-13.88,5.76l-5.09-11.88ZM1017.99,1272.43h39.05v11.28h-39.05v-11.28ZM1021.14,1290.98l6.91-8.37c2.67,1.29,5.54,2.89,8.61,4.79,3.07,1.9,5.46,3.66,7.15,5.27l-7.28,9.34c-1.62-1.7-3.92-3.6-6.91-5.7-2.99-2.1-5.82-3.88-8.49-5.34ZM1031.08,1329.91h81.61v51.29h-15.16v-40.38h-52.02v40.38h-14.43v-51.29ZM1038.36,1347.86h63.18v10.91h-63.18v-10.91ZM1039.21,1365.8h62.93v11.03h-62.93v-11.03ZM1053.76,1272.43h13.22v40.26c0,2.75-.36,4.89-1.09,6.43-.73,1.54-2.02,2.79-3.88,3.76-1.94.81-4.29,1.27-7.03,1.39-2.75.12-5.94.18-9.58.18-.24-1.53-.73-3.27-1.46-5.21s-1.46-3.64-2.18-5.09c2.1.08,4.14.12,6.12.12h4.06c.65,0,1.11-.14,1.39-.42s.42-.71.42-1.27v-40.14ZM1063.34,1318.75l15.64,2.18c-1.54,3.15-3.15,6.14-4.85,8.97-1.7,2.83-3.19,5.21-4.49,7.15l-11.88-2.55c1.05-2.34,2.12-4.97,3.21-7.88,1.09-2.91,1.88-5.54,2.36-7.88ZM1069.89,1308.2c4.37-1.29,9.5-2.93,15.4-4.91,5.9-1.98,11.88-4.02,17.95-6.12l2.3,10.43c-5.26,2.02-10.57,4.02-15.95,6-5.38,1.98-10.33,3.78-14.85,5.4l-4.85-10.79ZM1073.4,1272.43h41.83v11.28h-41.83v-11.28ZM1075.46,1290.86l7.03-8.61c2.67,1.29,5.6,2.89,8.79,4.79,3.19,1.9,5.68,3.66,7.46,5.27l-7.4,9.46c-1.62-1.7-3.98-3.58-7.09-5.64-3.11-2.06-6.04-3.82-8.79-5.27ZM1108.45,1272.43h13.58v39.9c0,2.99-.38,5.27-1.15,6.85-.77,1.58-2.2,2.85-4.3,3.82-2.02.89-4.51,1.44-7.46,1.64-2.95.2-6.41.26-10.37.18-.24-1.7-.75-3.58-1.52-5.64-.77-2.06-1.56-3.86-2.36-5.4,2.34.08,4.67.14,6.97.18,2.3.04,3.82.06,4.55.06.73-.08,1.25-.24,1.58-.49.32-.24.48-.69.48-1.33v-39.77Z"/>
              <path d="M1182.42,1293.77l12.73,5.34c-2.91,5.01-6.35,10.03-10.31,15.04-3.96,5.01-8.12,9.76-12.49,14.25-4.37,4.49-8.65,8.39-12.85,11.7-.41-1.13-.99-2.65-1.76-4.55-.77-1.9-1.62-3.82-2.55-5.76-.93-1.94-1.8-3.48-2.61-4.61,3.64-2.59,7.28-5.56,10.91-8.91,3.64-3.35,7.11-6.95,10.43-10.79,3.31-3.84,6.14-7.74,8.49-11.7ZM1179.27,1267.22l13.82,5.58c-2.67,3.72-5.76,7.46-9.28,11.22-3.52,3.76-7.22,7.3-11.1,10.61-3.88,3.32-7.76,6.23-11.64,8.73-.48-1.13-1.15-2.47-2-4-.85-1.53-1.74-3.07-2.67-4.61-.93-1.53-1.76-2.79-2.49-3.76,3.15-1.94,6.35-4.24,9.58-6.91,3.23-2.67,6.25-5.48,9.03-8.43,2.79-2.95,5.03-5.76,6.73-8.43ZM1170.41,1320.94l13.46-13.46.73.24v73.12h-14.19v-59.9ZM1191.03,1336.82h76.03v12.37h-76.03v-12.37ZM1194.06,1318.15h70.45v11.88h-70.45v-11.88ZM1199.03,1355.25l10.19-6.79c2.59,2.35,5.29,5.01,8.12,8,2.83,2.99,5.01,5.66,6.55,8l-10.79,7.64c-.89-1.54-2.12-3.27-3.7-5.21-1.58-1.94-3.27-3.94-5.09-6-1.82-2.06-3.58-3.94-5.27-5.64ZM1200.24,1270.49h60.39v42.32h-60.39v-42.32ZM1214.19,1280.8v5.94h31.77v-5.94h-31.77ZM1214.19,1296.44v6.06h31.77v-6.06h-31.77ZM1235.65,1328.57h14.67v37.95c0,3.32-.38,5.92-1.15,7.82-.77,1.9-2.32,3.33-4.67,4.3-2.26,1.05-4.95,1.68-8.06,1.88-3.11.2-6.73.3-10.85.3-.24-1.94-.81-4.12-1.7-6.55-.89-2.43-1.82-4.57-2.79-6.43,2.5.08,4.99.14,7.46.18,2.46.04,4.1.06,4.91.06.89-.08,1.47-.26,1.76-.55.28-.28.42-.75.42-1.39v-37.59Z"/>
              <path d="M1357.28,1286.98c-.81,6.14-1.86,12.69-3.15,19.64-1.29,6.95-3.03,13.99-5.21,21.1-2.35,8.17-5.09,15.2-8.25,21.1-3.15,5.9-6.61,10.45-10.37,13.64-3.76,3.19-7.86,4.79-12.31,4.79s-8.55-1.52-12.31-4.55c-3.76-3.03-6.75-7.22-8.97-12.55-2.22-5.34-3.33-11.4-3.33-18.19s1.41-13.66,4.24-19.89c2.83-6.22,6.77-11.74,11.82-16.55,5.05-4.81,10.95-8.59,17.7-11.34,6.75-2.75,14.04-4.12,21.89-4.12s14.29,1.21,20.31,3.64c6.02,2.43,11.17,5.78,15.46,10.06,4.28,4.29,7.56,9.3,9.82,15.04,2.26,5.74,3.39,11.93,3.39,18.55,0,8.49-1.74,16.09-5.21,22.8-3.48,6.71-8.63,12.25-15.46,16.61-6.83,4.37-15.34,7.36-25.53,8.97l-9.09-14.43c2.34-.24,4.41-.52,6.18-.85,1.78-.32,3.47-.69,5.09-1.09,3.88-.97,7.5-2.36,10.85-4.18,3.35-1.82,6.28-4.08,8.79-6.79,2.5-2.71,4.47-5.88,5.88-9.52,1.41-3.64,2.12-7.64,2.12-12,0-4.77-.73-9.13-2.18-13.1-1.46-3.96-3.6-7.42-6.43-10.37-2.83-2.95-6.27-5.21-10.31-6.79-4.04-1.58-8.69-2.36-13.95-2.36-6.47,0-12.17,1.15-17.1,3.46-4.93,2.3-9.09,5.27-12.49,8.91-3.39,3.64-5.96,7.56-7.7,11.76-1.74,4.2-2.61,8.21-2.61,12,0,4.04.48,7.42,1.46,10.13.97,2.71,2.16,4.73,3.58,6.06,1.41,1.33,2.93,2,4.55,2s3.37-.87,5.03-2.61c1.66-1.74,3.29-4.38,4.91-7.94,1.62-3.56,3.23-8.04,4.85-13.46,1.86-5.82,3.44-12.04,4.73-18.67,1.29-6.63,2.22-13.1,2.79-19.4l16.49.49Z"/>
              <path d="M1426.52,1277.77h62.21v12.37h-62.21v-12.37ZM1428.58,1300.08h51.05v12.49h-39.17v68.03h-11.88v-80.52ZM1436.46,1290.5l11.4-2.55c.89,1.78,1.68,3.82,2.36,6.12.69,2.3,1.19,4.26,1.52,5.88l-11.88,3.03c-.16-1.7-.57-3.72-1.21-6.06-.65-2.34-1.38-4.49-2.18-6.43ZM1442.28,1320.45h30.19v9.22h-30.19v-9.22ZM1444.34,1337.43h8.97v29.22h-8.97v-29.22ZM1449.07,1337.43h21.58v24.74h-21.58v-8.85h12.37v-6.91h-12.37v-8.97ZM1450.65,1267.94h13.58v16.98h-13.58v-16.98ZM1452.47,1311.23h9.34v29.59h-9.34v-29.59ZM1474.54,1300.08h12.25v67.66c0,2.83-.3,5.11-.91,6.85-.61,1.74-1.88,3.05-3.82,3.94-1.78.97-3.98,1.58-6.61,1.82-2.63.24-5.8.36-9.52.36-.24-1.62-.71-3.54-1.39-5.76-.69-2.22-1.48-4.06-2.36-5.52,2.26.08,4.41.12,6.43.12h4c.73,0,1.23-.14,1.52-.42.28-.28.42-.79.42-1.52v-67.54ZM1466.78,1287.95l13.46,2.3c-1.05,2.43-2.04,4.69-2.97,6.79-.93,2.1-1.8,3.92-2.61,5.46l-11.4-2.3c.56-1.78,1.21-3.84,1.94-6.18.73-2.34,1.25-4.37,1.58-6.06ZM1498.3,1266.97l14.07,2.06c-1.13,7.92-2.67,15.56-4.61,22.92-1.94,7.36-4.26,14.17-6.97,20.43-2.71,6.27-5.88,11.74-9.52,16.43-.65-.89-1.64-1.98-2.97-3.27-1.33-1.29-2.69-2.59-4.06-3.88-1.38-1.29-2.59-2.34-3.64-3.15,3.23-3.96,6-8.65,8.31-14.07,2.3-5.42,4.24-11.32,5.82-17.7,1.58-6.39,2.77-12.97,3.58-19.77ZM1519.04,1297.05l13.95,1.09c-1.38,13.26-3.56,25.16-6.55,35.71-2.99,10.55-7.21,19.75-12.67,27.59-5.46,7.84-12.59,14.51-21.4,20.01-.4-1.13-1.11-2.47-2.12-4-1.01-1.54-2.06-3.05-3.15-4.55-1.09-1.5-2.08-2.73-2.97-3.7,7.92-4.45,14.25-10.08,18.98-16.92,4.73-6.83,8.33-14.85,10.79-24.07,2.47-9.22,4.18-19.6,5.15-31.16ZM1505.58,1299.96c1.53,10.27,3.72,19.95,6.55,29.04s6.57,17.12,11.22,24.07c4.65,6.95,10.45,12.45,17.4,16.49-1.54,1.21-3.23,2.97-5.09,5.27-1.86,2.3-3.36,4.38-4.49,6.25-7.52-4.93-13.74-11.28-18.67-19.04-4.93-7.76-8.89-16.75-11.88-26.98-2.99-10.23-5.42-21.32-7.28-33.29l12.25-1.82ZM1498.67,1289.16h40.02v13.46h-40.02v-13.46Z"/>
              <path d="M1589.86,1276.43c-.24.81-.59,1.94-1.03,3.4-.45,1.46-.81,2.87-1.09,4.24-.28,1.38-.51,2.43-.67,3.15-.41,1.7-.85,3.98-1.33,6.85-.49,2.87-.99,6.1-1.52,9.7-.53,3.6-1.03,7.28-1.52,11.03-.49,3.76-.85,7.32-1.09,10.67-.24,3.36-.36,6.25-.36,8.67,0,1.21.02,2.53.06,3.94.04,1.42.18,2.73.42,3.94.56-1.46,1.15-2.87,1.76-4.24.61-1.37,1.23-2.75,1.88-4.12.65-1.37,1.25-2.75,1.82-4.12l7.4,6.06c-1.13,3.32-2.29,6.79-3.46,10.43-1.17,3.64-2.22,7.07-3.15,10.31-.93,3.23-1.64,5.94-2.12,8.12-.16.81-.3,1.78-.42,2.91-.12,1.13-.18,2.06-.18,2.79,0,.65.02,1.43.06,2.36.04.93.1,1.8.18,2.61l-13.7,1.09c-1.29-4.29-2.43-9.76-3.4-16.43s-1.46-14.13-1.46-22.37c0-4.53.2-9.28.61-14.25.4-4.97.87-9.76,1.39-14.37.53-4.61,1.07-8.83,1.64-12.67.56-3.84,1.01-6.93,1.33-9.28.24-1.7.49-3.62.73-5.76.24-2.14.4-4.18.48-6.12l16.73,1.46ZM1649.03,1275.1c-.16,1.13-.3,2.39-.42,3.76-.12,1.38-.22,2.75-.3,4.12-.08,1.29-.16,3.03-.24,5.21-.08,2.18-.12,4.63-.12,7.34v8.55c0,5.5.08,10.65.24,15.46.16,4.81.36,9.26.61,13.34.24,4.08.46,7.82.67,11.22.2,3.4.3,6.55.3,9.46,0,3.15-.42,6.06-1.27,8.73s-2.2,5.01-4.06,7.03c-1.86,2.02-4.3,3.58-7.34,4.67-3.03,1.09-6.73,1.64-11.09,1.64-8.41,0-15.04-1.7-19.89-5.09-4.85-3.4-7.28-8.29-7.28-14.67,0-4.12,1.09-7.74,3.27-10.85,2.18-3.11,5.29-5.54,9.34-7.28,4.04-1.74,8.81-2.61,14.31-2.61s10.95.61,15.64,1.82c4.69,1.21,8.97,2.83,12.85,4.85,3.88,2.02,7.34,4.23,10.37,6.61,3.03,2.39,5.76,4.67,8.19,6.85l-8.37,12.73c-4.61-4.37-9.1-8.12-13.46-11.28s-8.71-5.58-13.04-7.28c-4.33-1.7-8.79-2.55-13.4-2.55-3.4,0-6.17.65-8.31,1.94-2.14,1.29-3.21,3.11-3.21,5.46s1.09,4.2,3.27,5.34c2.18,1.13,4.85,1.7,8,1.7,2.51,0,4.49-.42,5.94-1.27,1.46-.85,2.49-2.1,3.09-3.76.61-1.66.91-3.66.91-6,0-2.1-.08-4.85-.24-8.25-.16-3.4-.34-7.19-.54-11.4-.2-4.2-.38-8.59-.55-13.16-.16-4.57-.24-9.03-.24-13.4,0-4.61-.02-8.79-.06-12.55-.04-3.76-.06-6.57-.06-8.43,0-.89-.08-2.14-.24-3.76-.16-1.62-.36-3.03-.61-4.24h17.34ZM1602.95,1295.59c3.47.32,6.97.59,10.49.79,3.52.2,7.09.3,10.73.3,7.44,0,14.83-.32,22.19-.97,7.36-.65,14.15-1.66,20.37-3.03v15.16c-6.31.89-13.14,1.6-20.49,2.12-7.36.53-14.71.79-22.07.79-3.56,0-7.09-.06-10.61-.18-3.52-.12-7.05-.3-10.61-.55v-14.43Z"/>
              <path d="M1716.39,1382.29c-2.18-2.77-4.62-5.57-7.31-8.4-2.69-2.84-5.42-5.62-8.19-8.35-2.77-2.73-5.42-5.18-7.97-7.37l11.35-9.82c2.62,2.11,5.42,4.6,8.4,7.48,2.98,2.88,5.84,5.77,8.57,8.68,2.73,2.91,5,5.49,6.82,7.75l-11.68,10.04Z"/>
              <path d="M1763.63,1320.09c-3.8,0-6.73-1.43-8.79-4.3-2.06-2.87-3.09-6.93-3.09-12.19,0-6.22,1.53-11.66,4.61-16.31,3.07-4.65,7.64-8.55,13.7-11.7l4.12,7.88c-3.96,2.1-6.93,4.53-8.91,7.28-1.98,2.75-2.97,6.14-2.97,10.19l.85,11.16-6.43-8.61c1.05-.89,2.14-1.6,3.27-2.12,1.13-.52,2.34-.79,3.64-.79,2.67,0,4.93.83,6.79,2.49,1.86,1.66,2.79,3.94,2.79,6.85,0,3.07-.89,5.54-2.67,7.4-1.78,1.86-4.08,2.79-6.91,2.79ZM1793.94,1320.09c-3.8,0-6.73-1.43-8.79-4.3-2.06-2.87-3.09-6.93-3.09-12.19,0-6.22,1.54-11.66,4.61-16.31,3.07-4.65,7.64-8.55,13.7-11.7l4.12,7.88c-3.96,2.1-6.91,4.53-8.85,7.28-1.94,2.75-2.91,6.14-2.91,10.19l.73,11.16-6.43-8.61c1.05-.89,2.14-1.6,3.27-2.12,1.13-.52,2.34-.79,3.64-.79,2.67,0,4.93.83,6.79,2.49,1.86,1.66,2.79,3.94,2.79,6.85,0,3.07-.89,5.54-2.67,7.4-1.78,1.86-4.08,2.79-6.91,2.79Z"/>
              <path d="M1834.93,1274.37h84.64v104.89h-15.64v-90.22h-54.08v90.46h-14.92v-105.13ZM1845.11,1315.11h65.24v14.31h-65.24v-14.31ZM1845.11,1356.83h65.36v14.67h-65.36v-14.67Z"/>
              <path d="M1993.29,1295.96l13.34,4.24c-3.48,8.73-7.68,17.06-12.61,24.98-4.93,7.92-10.45,15.1-16.55,21.52-6.1,6.43-12.67,11.9-19.71,16.43-.81-1.21-1.86-2.57-3.15-4.06-1.29-1.5-2.57-2.99-3.82-4.49-1.25-1.49-2.49-2.69-3.7-3.58,5.01-2.75,9.82-6.1,14.43-10.06,4.61-3.96,8.91-8.37,12.91-13.22,4-4.85,7.6-9.96,10.79-15.34,3.19-5.38,5.88-10.85,8.06-16.43ZM1951.94,1290.62h107.2v14.79h-107.2v-14.79ZM1976.8,1345.55h56.39v14.79h-56.39v-14.79ZM1997.66,1267.1h15.4v113.86h-15.4v-113.86ZM2017.55,1296.32c2.91,7.11,6.73,14.09,11.46,20.92,4.73,6.83,10.12,13.04,16.19,18.61,6.06,5.58,12.45,10.15,19.16,13.7-1.21.97-2.53,2.22-3.94,3.76-1.42,1.54-2.77,3.13-4.06,4.79-1.29,1.66-2.38,3.17-3.27,4.55-7.03-4.37-13.6-9.72-19.71-16.07-6.11-6.35-11.58-13.44-16.43-21.28-4.85-7.84-9.05-16.05-12.61-24.62l13.22-4.37Z"/>
              <path d="M2089.09,1287.59h45.23v11.52h-45.23v-11.52ZM2094.55,1339.25h12.25v41.59h-12.25v-41.59ZM2094.91,1305.05h35.04v11.03h-35.04v-11.03ZM2094.91,1322.03h35.04v11.03h-35.04v-11.03ZM2095.64,1270.85h34.44v10.91h-34.44v-10.91ZM2101.7,1339.25h29.1v36.86h-29.1v-11.52h16.73v-13.82h-16.73v-11.52ZM2133.72,1316.21h69.85v12.73h-69.85v-12.73ZM2138.08,1270.49h61.12v12.37h-61.12v-12.37ZM2140.02,1291.47h53.11v31.53h-13.95v-19.16h-39.17v-12.37ZM2142.45,1335.37h53.36v45.11h-14.19v-32.13h-25.46v32.62h-13.7v-45.59ZM2154.94,1275.58l14.07,1.21c-.65,5.09-1.42,10.47-2.3,16.13-.89,5.66-1.8,11.12-2.73,16.37-.93,5.26-1.84,9.86-2.73,13.82h-14.07c.73-3.07,1.43-6.55,2.12-10.43.69-3.88,1.39-7.94,2.12-12.19s1.37-8.49,1.94-12.73c.56-4.24,1.09-8.31,1.58-12.19ZM2147.9,1363.26h41.84v12.98h-41.84v-12.98Z"/>
              <path d="M2234.85,1318.63l-4.12-7.76c3.96-2.18,6.93-4.65,8.91-7.4,1.98-2.75,2.97-6.14,2.97-10.19l-.97-11.03,6.55,8.61c-.97.81-2.04,1.48-3.21,2-1.17.53-2.41.79-3.7.79-2.59,0-4.85-.85-6.79-2.55s-2.91-3.96-2.91-6.79c0-3.15.91-5.62,2.73-7.4,1.82-1.78,4.14-2.67,6.97-2.67,3.88,0,6.81,1.42,8.79,4.24,1.98,2.83,2.97,6.83,2.97,12.01,0,6.23-1.52,11.7-4.55,16.43-3.03,4.73-7.58,8.63-13.64,11.7ZM2265.16,1318.63l-4.24-7.76c4.04-2.18,7.05-4.65,9.03-7.4,1.98-2.75,2.97-6.14,2.97-10.19l-.97-11.03,6.55,8.61c-.97.81-2.04,1.48-3.21,2-1.17.53-2.41.79-3.7.79-2.59,0-4.85-.85-6.79-2.55-1.94-1.7-2.91-3.96-2.91-6.79,0-3.15.91-5.62,2.73-7.4,1.82-1.78,4.14-2.67,6.97-2.67,3.88,0,6.81,1.42,8.79,4.24,1.98,2.83,2.97,6.83,2.97,12.01,0,6.23-1.52,11.7-4.55,16.43-3.03,4.73-7.58,8.63-13.64,11.7Z"/>
              <path d="M2362.65,1274.61c-.49,1.7-.99,3.7-1.52,6-.53,2.3-.91,4.14-1.15,5.52-.57,2.75-1.27,6.1-2.12,10.06-.85,3.96-1.76,8.15-2.73,12.55-.97,4.41-1.98,8.67-3.03,12.79-1.13,4.2-2.45,8.81-3.94,13.82-1.5,5.01-3.11,10.06-4.85,15.16-1.74,5.09-3.5,9.99-5.28,14.67-1.78,4.69-3.52,8.85-5.21,12.49l-16.98-5.7c1.86-3.07,3.78-6.83,5.76-11.28,1.98-4.45,3.94-9.2,5.88-14.25,1.94-5.05,3.72-10.1,5.33-15.16,1.62-5.05,2.99-9.68,4.12-13.88.73-2.91,1.46-5.86,2.18-8.85.73-2.99,1.39-5.9,2-8.73.61-2.83,1.13-5.48,1.58-7.94.44-2.46.79-4.59,1.03-6.37.24-2.26.4-4.53.48-6.79.08-2.26.04-4.12-.12-5.58l18.55,1.46ZM2331.73,1292.8c4.93,0,10.07-.24,15.4-.73,5.33-.49,10.71-1.19,16.13-2.12,5.42-.93,10.79-2,16.13-3.21v15.16c-5.01,1.21-10.35,2.22-16.01,3.03-5.66.81-11.24,1.44-16.73,1.88-5.5.45-10.55.67-15.16.67-2.91,0-5.54-.06-7.88-.18-2.35-.12-4.61-.22-6.79-.3l-.36-15.16c3.15.32,5.86.57,8.12.73,2.26.16,4.65.24,7.15.24ZM2376.36,1341.79c-.48,1.7-.89,3.48-1.21,5.34-.32,1.86-.48,3.44-.48,4.73,0,1.38.28,2.63.85,3.76.57,1.13,1.46,2.12,2.67,2.97,1.21.85,2.89,1.5,5.03,1.94,2.14.45,4.83.67,8.06.67,4.04,0,8.16-.2,12.37-.61,4.2-.4,8.49-1.01,12.85-1.82l-.61,15.4c-3.39.49-7.15.91-11.28,1.27s-8.61.55-13.46.55c-10.19,0-17.97-1.7-23.34-5.09-5.38-3.4-8.06-8.12-8.06-14.19,0-2.83.22-5.66.67-8.49.44-2.83.91-5.42,1.39-7.76l14.55,1.33ZM2369.81,1311.36c3.4-.4,7.15-.71,11.28-.91,4.12-.2,8.12-.3,12-.3,3.47,0,7.01.08,10.61.24,3.6.16,7.17.45,10.73.85l-.36,14.55c-2.99-.4-6.29-.77-9.88-1.09-3.6-.32-7.26-.49-10.97-.49-4.2,0-8.21.1-12,.3-3.8.2-7.6.55-11.4,1.03v-14.19ZM2401.46,1278.13c1.05,1.46,2.16,3.19,3.33,5.21,1.17,2.02,2.32,4.04,3.46,6.06,1.13,2.02,2.06,3.8,2.79,5.34l-9.7,4.24c-.81-1.7-1.74-3.56-2.79-5.58-1.05-2.02-2.14-4.04-3.27-6.06-1.13-2.02-2.26-3.76-3.4-5.21l9.58-4ZM2415.77,1272.67c1.13,1.46,2.3,3.21,3.52,5.27,1.21,2.06,2.41,4.08,3.58,6.06,1.17,1.98,2.08,3.7,2.73,5.15l-9.58,4.12c-1.29-2.59-2.83-5.46-4.61-8.61-1.78-3.15-3.52-5.86-5.21-8.12l9.58-3.88Z"/>
              <path d="M2445.96,1318.75c1.86-.4,4-.91,6.43-1.52,2.42-.61,4.57-1.19,6.43-1.76,2.02-.65,4.73-1.49,8.12-2.55,3.39-1.05,7.13-2.1,11.22-3.15,4.08-1.05,8.2-1.94,12.37-2.67,4.16-.73,8.1-1.09,11.82-1.09,6.38,0,11.98,1.19,16.79,3.58,4.81,2.39,8.55,5.8,11.22,10.25,2.67,4.45,4,9.74,4,15.89,0,5.5-1.19,10.51-3.58,15.04-2.38,4.53-6,8.49-10.85,11.88-4.85,3.4-10.89,6.17-18.13,8.31-7.24,2.14-15.66,3.5-25.28,4.06l-6.43-14.92c6.95-.16,13.36-.77,19.22-1.82,5.86-1.05,10.95-2.57,15.28-4.55,4.32-1.98,7.68-4.51,10.06-7.58,2.38-3.07,3.58-6.63,3.58-10.67,0-3.07-.71-5.76-2.12-8.06-1.42-2.3-3.42-4.1-6-5.4-2.59-1.29-5.66-1.94-9.22-1.94-2.83,0-5.98.36-9.46,1.09-3.48.73-7.05,1.66-10.73,2.79-3.68,1.13-7.3,2.35-10.85,3.64-3.56,1.29-6.87,2.55-9.94,3.76-3.07,1.21-5.62,2.26-7.64,3.15l-6.31-15.76Z"/>
              <path d="M2603.6,1273.28c-.48,1.62-.97,3.6-1.46,5.94-.48,2.35-.85,4.16-1.09,5.46-.57,2.75-1.27,6.1-2.12,10.06-.85,3.96-1.78,8.17-2.79,12.61-1.01,4.45-2.04,8.69-3.09,12.73-1.05,4.29-2.35,8.91-3.88,13.88-1.54,4.97-3.17,10.02-4.91,15.16-1.74,5.13-3.5,10.02-5.27,14.67-1.78,4.65-3.52,8.79-5.21,12.43l-16.86-5.7c1.78-3.07,3.68-6.81,5.7-11.22,2.02-4.41,3.98-9.16,5.88-14.25,1.9-5.09,3.66-10.14,5.28-15.16,1.62-5.01,2.99-9.66,4.12-13.95.81-2.83,1.58-5.74,2.3-8.73.73-2.99,1.37-5.9,1.94-8.73.56-2.83,1.07-5.48,1.52-7.94.44-2.47.79-4.63,1.03-6.49.24-2.26.4-4.53.49-6.79.08-2.26.04-4.08-.12-5.46l18.55,1.46ZM2572.68,1291.35c4.93,0,10.06-.24,15.4-.73,5.34-.48,10.71-1.17,16.13-2.06,5.42-.89,10.79-1.94,16.13-3.15v15.16c-5.01,1.13-10.35,2.1-16.01,2.91-5.66.81-11.24,1.44-16.73,1.88-5.5.45-10.55.67-15.16.67-2.91,0-5.54-.06-7.88-.18-2.35-.12-4.61-.22-6.79-.3l-.36-15.16c3.15.32,5.86.57,8.12.73,2.26.16,4.65.24,7.15.24ZM2617.31,1340.46c-.49,1.7-.89,3.46-1.21,5.27-.32,1.82-.49,3.42-.49,4.79,0,1.29.28,2.51.85,3.64.56,1.13,1.46,2.12,2.67,2.97,1.21.85,2.89,1.52,5.03,2,2.14.49,4.83.73,8.06.73,4.12,0,8.27-.22,12.43-.67,4.16-.44,8.43-1.07,12.79-1.88l-.61,15.52c-3.4.4-7.15.79-11.28,1.15s-8.61.55-13.46.55c-10.19,0-17.97-1.68-23.34-5.03-5.38-3.35-8.06-8.1-8.06-14.25,0-2.75.24-5.54.73-8.37.49-2.83.97-5.46,1.46-7.88l14.43,1.46ZM2610.76,1309.9c3.4-.32,7.15-.61,11.28-.85,4.12-.24,8.12-.36,12-.36,3.48,0,7.01.08,10.61.24,3.6.16,7.17.45,10.73.85l-.36,14.55c-2.99-.4-6.29-.75-9.88-1.03-3.6-.28-7.26-.42-10.97-.42-4.12,0-8.11.1-11.95.3-3.84.2-7.66.55-11.46,1.03v-14.31Z"/>
            </g>
          </g>
        </g>
      </g>
    </g>
  </g>
</svg>