<?xml version="1.0" encoding="UTF-8"?>
<svg id="Layer_2" data-name="Layer 2" xmlns="http://www.w3.org/2000/svg" viewBox="0 0 22 92.79">
  <defs>
    <style>
      .cls-1 {
        fill: #004fff;
      }
    </style>
  </defs>
  <g id="_デザイン" data-name="デザイン">
    <g>
      <path class="cls-1" d="M0,0h22v7.51L3,11.22v.55l19,3.71v7.51H0v-4h19v-.12L0,15.13v-6.81l19-3.75v-.56H0V0Z"/>
      <path class="cls-1" d="M0,28h22v14h-4v-10h-5v9h-4v-9h-5v10H0v-14Z"/>
      <path class="cls-1" d="M0,45h4v3h15v-3h3v9c0,2.94-.75,5.17-2.25,6.7-1.5,1.53-3.72,2.3-6.68,2.3h-4.15c-2.95,0-5.18-.77-6.68-2.3-1.5-1.53-2.25-3.77-2.25-6.7v-9ZM4,52v2.1c0,1.7.43,2.94,1.28,3.72.85.78,2.05,1.18,3.59,1.18h4.26c1.56,0,2.76-.39,3.61-1.18.84-.79,1.26-2.03,1.26-3.72v-2.1H4Z"/>
      <path class="cls-1" d="M0,67h22v4H0v-4Z"/>
      <path class="cls-1" d="M0,74l22,5.78v7.23L0,92.79v-4.1l5-1.23v-8.12l-5-1.23v-4.1ZM9,80.36v6.06l11-2.74v-.58l-11-2.74Z"/>
    </g>
  </g>
</svg>