<?xml version="1.0" encoding="UTF-8"?>
<svg id="Layer_2" data-name="Layer 2" xmlns="http://www.w3.org/2000/svg" viewBox="0 0 24.33 187.3">
  <defs>
    <style>
      .cls-1 {
        fill: #004fff;
      }
    </style>
  </defs>
  <g id="_デザイン" data-name="デザイン">
    <g>
      <path class="cls-1" d="M.71,0l22,5.78v7.23L.71,18.79v-4.1l5-1.23V5.34L.71,4.1V0ZM9.71,6.37v6.06l11-2.74v-.58l-11-2.74Z"/>
      <path class="cls-1" d="M.71,21.3h4v3h14v-3h4v12.06c0,1.2-.2,2.24-.6,3.13-.4.89-.97,1.58-1.71,2.07-.74.49-1.62.74-2.65.74h-.28c-.9,0-1.63-.17-2.2-.5-.57-.34-1.01-.73-1.32-1.19s-.53-.89-.66-1.3h-1.52s-.36.33-.7.87c-.34.54-.83,1-1.47,1.38-.64.38-1.48.57-2.51.75h-.31c-1.2-.17-2.23-.45-3.08-1.01-.86-.56-1.51-1.33-1.97-2.31-.45-.98-1.02-3.43-1.02-3.43v-11.25ZM4.71,28.3v3.95c0,.91.2,1.65.61,2.21.41.56.99.84,1.74.84h.29c.76,0,1.34-.28,1.74-.83.41-.55.61-1.29.61-2.23v-3.95h-5ZM13.71,28.3v3.95c0,.89.21,1.61.63,2.19.42.57.99.86,1.73.86h.3c.75,0,1.33-.28,1.74-.84.41-.56.61-1.3.61-2.2v-3.95h-5Z"/>
      <path class="cls-1" d="M.52,51.3c0-2.75.76-4.94,2.27-6.56,1.51-1.62,3.67-2.44,6.48-2.44h5.25c2.81,0,4.97.81,6.48,2.44,1.51,1.62,2.27,3.81,2.27,6.56s-.76,4.94-2.27,6.56c-1.51,1.63-3.67,2.44-6.48,2.44h-5.25c-2.81,0-4.97-.81-6.48-2.44-1.51-1.63-2.27-3.81-2.27-6.56ZM4.01,51.3c0,1.58.46,2.81,1.38,3.69.92.88,2.15,1.31,3.69,1.31h5.64c1.54,0,2.77-.44,3.69-1.31.92-.88,1.38-2.1,1.38-3.69s-.46-2.78-1.38-3.67c-.92-.89-2.15-1.33-3.69-1.33h-5.64c-1.54,0-2.77.44-3.69,1.33-.92.89-1.38,2.11-1.38,3.67Z"/>
      <path class="cls-1" d="M.56,72.8c0-1.78.33-3.3.98-4.58.65-1.27,1.58-2.24,2.79-2.92,1.21-.67,2.64-1.01,4.3-1.01h14.08v4h-14.51c-1.35,0-2.42.39-3.2,1.16-.78.77-1.17,1.89-1.17,3.34s.39,2.57,1.17,3.34c.78.77,1.85,1.16,3.2,1.16h14.51v4h-14.08c-1.65,0-3.09-.34-4.3-1.01-1.21-.67-2.14-1.64-2.79-2.92-.65-1.27-.98-2.8-.98-4.58Z"/>
      <path class="cls-1" d="M.71,91.3h18v-7h4v17h-4v-6H.71v-4Z"/>
      <path class="cls-1" d="M0,121.25c0-1.48.36-2.82,1.09-4.02s1.78-2.16,3.17-2.86c1.39-.71,3.09-1.06,5.1-1.06h5.61c3.01,0,5.32.78,6.93,2.34,1.62,1.56,2.42,3.67,2.42,6.34s-.76,4.7-2.29,6.14c-1.53,1.45-3.59,2.17-6.2,2.17h-.13v-4h.27c.82,0,1.57-.16,2.23-.48.67-.32,1.19-.8,1.58-1.44.39-.64.58-1.45.58-2.42,0-1.45-.48-2.59-1.43-3.41-.96-.83-2.26-1.24-3.9-1.24h-5.73c-1.62,0-2.93.41-3.92,1.24-.99.83-1.48,1.99-1.48,3.48s.42,2.58,1.27,3.26c.84.68,1.91,1.02,3.2,1.02h.33v-5h3v9H.71v-4h2v-.31c-.38-.14-.78-.37-1.2-.69-.42-.32-.78-.8-1.07-1.43s-.43-1.51-.43-2.62Z"/>
      <path class="cls-1" d="M.61,141.72c0-1.65.29-3.11.87-4.38.58-1.27,1.41-2.26,2.49-2.97,1.08-.71,2.38-1.07,3.9-1.07h.84v4h-.84c-1.26,0-2.21.4-2.84,1.19-.63.8-.94,1.88-.94,3.25s.27,2.42.81,3.11c.54.68,1.23,1.03,2.07,1.03.58,0,1.05-.17,1.41-.51.36-.34.65-.83.89-1.47.23-.64.44-1.42.65-2.34l.15-.7c.32-1.47.72-2.73,1.21-3.78.49-1.05,1.14-1.86,1.94-2.42.8-.56,1.84-.84,3.12-.84s2.37.31,3.29.93c.91.62,1.61,1.5,2.1,2.63.49,1.13.74,2.46.74,4s-.25,2.89-.77,4.09c-.51,1.19-1.27,2.13-2.28,2.82-1.01.68-2.28,1.03-3.8,1.03h-.9v-4h.9c.8,0,1.44-.16,1.94-.47.49-.32.85-.77,1.08-1.36.23-.59.35-1.3.35-2.11,0-1.22-.23-2.13-.68-2.71-.45-.58-1.07-.87-1.85-.87-.52,0-.96.14-1.32.41-.36.28-.66.69-.9,1.24-.24.55-.45,1.25-.63,2.11l-.15.7c-.32,1.53-.73,2.86-1.23,4-.5,1.13-1.16,2.01-1.98,2.65-.82.63-1.87.95-3.15.95s-2.41-.33-3.38-1c-.97-.66-1.73-1.6-2.28-2.82-.55-1.22-.83-2.65-.83-4.3Z"/>
      <path class="cls-1" d="M.71,154.3h22v14h-4v-10h-5v9h-4v-9h-5v10H.71v-14Z"/>
      <path class="cls-1" d="M.71,177.3h18v-7h4v17h-4v-6H.71v-4Z"/>
    </g>
  </g>
</svg>