<?xml version="1.0" encoding="UTF-8"?>
<svg id="Layer_1" xmlns="http://www.w3.org/2000/svg" xmlns:xlink="http://www.w3.org/1999/xlink" version="1.1" viewBox="0 0 751.7 592.5">
  <!-- Generator: Adobe Illustrator 29.8.1, SVG Export Plug-In . SVG Version: 2.1.1 Build 2)  -->
  <defs>
    <style>
      .st0 {
        fill: none;
      }

      .st1 {
        fill: #004fff;
      }

      .st2 {
        isolation: isolate;
      }

      .st3 {
        mix-blend-mode: multiply;
      }

      .st4 {
        clip-path: url(#clippath);
      }
    </style>
    <clipPath id="clippath">
      <polygon class="st0" points="1.6 592.5 751.7 282.5 751.7 0 1.6 309.9 1.6 592.5"/>
    </clipPath>
  </defs>
  <g class="st2">
    <g id="Layer_2">
      <g id="_デザイン">
        <g>
          <path class="st1" d="M81.4,270.2c-15.1,0-28.9-3.8-41.2-11.3-12.3-7.5-22.1-18.5-29.3-33C3.6,211.5,0,193.9,0,173.1v-58.3c0-31.2,8-55.2,24-72,16-16.8,37.7-25.2,65-25.2s48.1,7.9,62.9,23.8c14.8,15.8,22.2,37.3,22.2,64.4v1.4h-41v-2.8c0-8.6-1.6-16.3-4.9-23.2-3.3-6.9-8.2-12.4-14.7-16.5-6.5-4-14.7-6.1-24.6-6.1-14.7,0-26.3,5-34.7,14.9-8.4,9.9-12.6,23.5-12.6,40.6v59.7c0,16.9,4.2,30.5,12.6,40.8,8.4,10.3,20.2,15.4,35.3,15.4s26.2-4.4,33.1-13.2c6.9-8.8,10.4-19.9,10.4-33.3v-3.5h-52.4v-38.9h93.4v124.2h-38.5v-23.2h-5.7c-1.5,3.9-3.8,8.1-7.1,12.5-3.3,4.4-8.2,8.1-14.7,11.1-6.5,3-15.5,4.5-26.8,4.5h0Z"/>
          <path class="st1" d="M296.9,270.2c-17,0-32.1-3.4-45.1-10.1-13-6.7-23.2-16.3-30.6-28.8-7.4-12.5-11-27.5-11-45.1v-9.7h41v9.7c0,14.6,4.1,25.5,12.3,32.8,8.2,7.3,19.4,10.9,33.4,10.9s25-3.1,32-9.4c7-6.2,10.6-14.2,10.6-23.9s-1.7-12.1-5.2-16.3-8.5-7.6-15.1-10.2c-6.6-2.7-14.7-5.1-24.1-7.5l-7.3-1.7c-15.1-3.7-28.1-8.4-39-14.1-10.8-5.7-19.1-13.1-24.9-22.4-5.8-9.2-8.7-21.3-8.7-36.1s3.2-27.5,9.6-38c6.4-10.5,15.5-18.6,27.1-24.3,11.7-5.7,25.4-8.5,41.2-8.5s29.8,3,42.1,8.9,22,14.7,29,26.4c7,11.7,10.6,26.3,10.6,43.9v10.4h-41v-10.4c0-9.2-1.6-16.7-4.9-22.4-3.3-5.7-7.9-9.8-14-12.5-6.1-2.7-13.4-4-21.8-4-12.6,0-21.9,2.6-27.9,7.8-6,5.2-9,12.3-9,21.3s1.4,11.1,4.3,15.3,7.1,7.6,12.8,10.4c5.7,2.8,12.9,5.2,21.8,7.3l7.3,1.7c15.8,3.7,29.5,8.4,41.2,14.2,11.7,5.8,20.8,13.4,27.3,22.9,6.5,9.5,9.8,21.6,9.8,36.4s-3.4,27.8-10.2,39c-6.8,11.2-16.5,20-29,26.4-12.5,6.4-27.3,9.5-44.3,9.5h0Z"/>
          <path class="st1" d="M417.7,265.4V22.4h142v41.7h-100.3v58h91.5v41.7h-91.5v60h102.2v41.6h-143.9,0Z"/>
          <path class="st1" d="M649.9,265.4V64.1h-64.4V22.4h170.4v41.7h-64.4v201.3h-41.7Z"/>
        </g>
        <g>
          <path class="st1" d="M122,353h8.7v20.4c0,2.5-.3,4.9-.8,7.2s-1.5,4.5-2.8,6.7c-1.3,2.1-3.2,4.1-5.6,6-2.4,1.8-5.4,3.5-9.1,5.1-3.7,1.5-8.1,2.9-13.2,4-.3-.6-.8-1.4-1.3-2.3-.6-.9-1.2-1.7-1.9-2.6-.7-.9-1.3-1.6-2-2.2,4.8-.9,8.9-1.9,12.2-3.1,3.3-1.2,6-2.5,8.1-3.9s3.7-2.9,4.8-4.5c1.1-1.6,1.9-3.3,2.3-5.1.4-1.8.6-3.5.6-5.3v-20.3h0ZM95.6,375.8h62.2v7.6h-62.2v-7.6ZM96.2,342.8h60.7v7.4h-60.7v-7.4ZM102.2,359.9h49.4v19.2h-8.3v-12.1h-33v12.1h-8s0-19.2,0-19.2ZM109.8,337.4h8.1v18.9h-8.1v-18.9ZM130.6,378.7c2.2,4.6,5.8,8.3,10.6,10.9,4.8,2.6,10.9,4.3,18.3,5.1-.6.6-1.2,1.3-1.8,2.2s-1.3,1.8-1.9,2.8c-.6.9-1.1,1.8-1.5,2.6-5.3-.9-9.9-2.3-13.9-4.1-3.9-1.8-7.3-4.2-10.1-7.1s-5.2-6.5-7-10.6l7.3-1.7h0ZM135.1,337.4h8.2v18.9h-8.2v-18.9Z"/>
          <path class="st1" d="M173.5,349.1h25.7v6.5h-25.7v-6.5ZM176.6,378.5h7v23.6h-7v-23.6ZM176.8,359h19.9v6.3h-19.9v-6.3ZM176.8,368.7h19.9v6.3h-19.9v-6.3ZM177.2,339.6h19.6v6.2h-19.6v-6.2ZM180.7,378.5h16.6v21h-16.6v-6.5h9.5v-7.9h-9.5v-6.5h0ZM198.9,365.4h39.7v7.2h-39.7v-7.2ZM201.4,339.4h34.8v7h-34.8v-7ZM202.5,351.3h30.2v17.9h-7.9v-10.9h-22.3v-7h0ZM203.9,376.3h30.3v25.6h-8.1v-18.3h-14.5v18.5h-7.8v-25.9h0ZM211,342.3l8,.7c-.4,2.9-.8,6-1.3,9.2s-1,6.3-1.6,9.3-1.1,5.6-1.6,7.9h-8c.4-1.8.8-3.7,1.2-5.9s.8-4.5,1.2-6.9c.4-2.4.8-4.8,1.1-7.2s.6-4.7.9-6.9h0ZM207,392.1h23.8v7.4h-23.8v-7.4Z"/>
          <path class="st1" d="M253.2,362c2.3-.7,5-1.6,8.2-2.6,3.2-1.1,6.5-2.2,9.8-3.4l1.2,6c-2.8,1.1-5.6,2.3-8.5,3.5-2.8,1.2-5.5,2.3-7.9,3.3l-2.9-6.8h0ZM255,340.5h22.2v6.4h-22.2v-6.4ZM256.8,351l3.9-4.8c1.5.7,3.1,1.6,4.9,2.7,1.8,1.1,3.1,2.1,4.1,3l-4.1,5.3c-.9-1-2.2-2-3.9-3.2-1.7-1.2-3.3-2.2-4.8-3h0ZM262.5,373.2h46.4v29.2h-8.6v-23h-29.6v23h-8.2v-29.2ZM266.6,383.4h35.9v6.2h-35.9v-6.2h0ZM267.1,393.6h35.8v6.3h-35.8v-6.3ZM275.4,340.5h7.5v22.9c0,1.6-.2,2.8-.6,3.6s-1.1,1.6-2.2,2.1c-1.1.5-2.4.7-4,.8s-3.4.1-5.5.1c-.1-.9-.4-1.9-.8-3-.4-1.1-.8-2.1-1.2-2.9,1.2,0,2.4,0,3.5,0h2.3c.4,0,.6,0,.8-.2s.2-.4.2-.7v-22.8h0ZM280.8,366.8l8.9,1.2c-.9,1.8-1.8,3.5-2.8,5.1-1,1.6-1.8,3-2.5,4.1l-6.8-1.5c.6-1.3,1.2-2.8,1.8-4.5.6-1.6,1.1-3.1,1.3-4.5h0ZM284.5,360.8c2.5-.7,5.4-1.7,8.8-2.8,3.4-1.1,6.8-2.3,10.2-3.5l1.3,5.9c-3,1.1-6,2.3-9.1,3.4-3.1,1.1-5.9,2.1-8.5,3.1l-2.8-6.1h0ZM286.5,340.5h23.8v6.4h-23.8v-6.4ZM287.7,351l4-4.9c1.5.7,3.2,1.6,5,2.7s3.2,2.1,4.2,3l-4.2,5.4c-.9-1-2.3-2-4-3.2-1.8-1.2-3.4-2.2-5-3ZM306.5,340.5h7.7v22.7c0,1.7-.2,3-.7,3.9s-1.2,1.6-2.5,2.2c-1.1.5-2.6.8-4.2.9-1.7.1-3.6.1-5.9.1-.1-1-.4-2-.9-3.2s-.9-2.2-1.3-3.1c1.3,0,2.6,0,4,.1,1.3,0,2.2,0,2.6,0,.4,0,.7-.1.9-.3s.3-.4.3-.8v-22.6h0Z"/>
          <path class="st1" d="M348.5,352.6l7.2,3c-1.6,2.9-3.6,5.7-5.9,8.5-2.2,2.9-4.6,5.5-7.1,8.1-2.5,2.5-4.9,4.8-7.3,6.6-.2-.6-.6-1.5-1-2.6-.4-1.1-.9-2.2-1.5-3.3-.5-1.1-1-2-1.5-2.6,2.1-1.5,4.1-3.2,6.2-5.1,2.1-1.9,4-4,5.9-6.1,1.9-2.2,3.5-4.4,4.8-6.6h0ZM346.7,337.5l7.9,3.2c-1.5,2.1-3.3,4.2-5.3,6.4-2,2.1-4.1,4.1-6.3,6-2.2,1.9-4.4,3.5-6.6,5-.3-.6-.7-1.4-1.1-2.3-.5-.9-1-1.8-1.5-2.6s-1-1.6-1.4-2.1c1.8-1.1,3.6-2.4,5.5-3.9,1.8-1.5,3.5-3.1,5.1-4.8,1.6-1.7,2.9-3.3,3.8-4.8h0ZM341.7,368.1l7.6-7.6h.4v41.7h-8.1v-34.1h0ZM353.4,377.1h43.2v7h-43.2v-7ZM355.1,366.5h40.1v6.8h-40.1v-6.8ZM358,387.6l5.8-3.9c1.5,1.3,3,2.9,4.6,4.5,1.6,1.7,2.9,3.2,3.7,4.5l-6.1,4.3c-.5-.9-1.2-1.9-2.1-3-.9-1.1-1.9-2.2-2.9-3.4-1-1.2-2-2.2-3-3.2h0ZM358.6,339.4h34.3v24.1h-34.3v-24.1ZM366.6,345.2v3.4h18.1v-3.4h-18.1ZM366.6,354.1v3.5h18.1v-3.5h-18.1ZM378.8,372.4h8.3v21.6c0,1.9-.2,3.4-.7,4.5-.4,1.1-1.3,1.9-2.6,2.5-1.3.6-2.8,1-4.6,1.1-1.8.1-3.8.2-6.2.2-.1-1.1-.5-2.3-1-3.7s-1-2.6-1.6-3.6c1.4,0,2.8,0,4.2.1,1.4,0,2.3,0,2.8,0,.5,0,.8-.1,1-.3s.2-.4.2-.8v-21.4h0Z"/>
          <path class="st1" d="M447.9,348.8c-.5,3.5-1.1,7.2-1.8,11.2-.7,4-1.7,8-3,12-1.3,4.6-2.9,8.6-4.7,12s-3.8,5.9-5.9,7.8c-2.1,1.8-4.5,2.7-7,2.7s-4.9-.9-7-2.6c-2.1-1.7-3.8-4.1-5.1-7.1-1.3-3-1.9-6.5-1.9-10.3s.8-7.8,2.4-11.3c1.6-3.5,3.9-6.7,6.7-9.4s6.2-4.9,10.1-6.5c3.8-1.6,8-2.3,12.4-2.3s8.1.7,11.5,2.1c3.4,1.4,6.4,3.3,8.8,5.7,2.4,2.4,4.3,5.3,5.6,8.5,1.3,3.3,1.9,6.8,1.9,10.5s-1,9.1-3,13c-2,3.8-4.9,7-8.8,9.5-3.9,2.5-8.7,4.2-14.5,5.1l-5.2-8.2c1.3-.1,2.5-.3,3.5-.5,1-.2,2-.4,2.9-.6,2.2-.5,4.3-1.3,6.2-2.4,1.9-1,3.6-2.3,5-3.9,1.4-1.5,2.5-3.3,3.3-5.4s1.2-4.3,1.2-6.8-.4-5.2-1.2-7.5c-.8-2.2-2-4.2-3.6-5.9-1.6-1.7-3.6-3-5.9-3.9s-4.9-1.3-7.9-1.3-6.9.7-9.7,2c-2.8,1.3-5.2,3-7.1,5.1s-3.4,4.3-4.4,6.7-1.5,4.7-1.5,6.8.3,4.2.8,5.8,1.2,2.7,2,3.5,1.7,1.1,2.6,1.1,1.9-.5,2.9-1.5c.9-1,1.9-2.5,2.8-4.5.9-2,1.8-4.6,2.8-7.6,1.1-3.3,2-6.9,2.7-10.6.7-3.8,1.3-7.5,1.6-11l9.4.3h0Z"/>
          <path class="st1" d="M487.3,343.5h35.4v7h-35.4v-7h0ZM488.5,356.2h29v7.1h-22.3v38.7h-6.8v-45.8ZM492.9,350.8l6.5-1.5c.5,1,1,2.2,1.3,3.5.4,1.3.7,2.4.9,3.3l-6.8,1.7c0-1-.3-2.1-.7-3.5-.4-1.3-.8-2.5-1.2-3.6h0ZM496.2,367.8h17.2v5.2h-17.2v-5.2h0ZM497.4,377.4h5.1v16.6h-5.1v-16.6ZM500.1,377.4h12.3v14.1h-12.3v-5h7v-3.9h-7v-5.1h0ZM501,337.9h7.7v9.6h-7.7v-9.6ZM502,362.5h5.3v16.8h-5.3v-16.8ZM514.6,356.2h7v38.5c0,1.6-.2,2.9-.5,3.9-.3,1-1.1,1.7-2.2,2.2-1,.5-2.3.9-3.8,1-1.5.1-3.3.2-5.4.2-.1-.9-.4-2-.8-3.3-.4-1.3-.8-2.3-1.3-3.1,1.3,0,2.5,0,3.6,0h2.3c.4,0,.7,0,.9-.2s.2-.5.2-.9v-38.4h0ZM510.2,349.3l7.7,1.3c-.6,1.4-1.2,2.7-1.7,3.9-.5,1.2-1,2.2-1.5,3.1l-6.5-1.3c.3-1,.7-2.2,1.1-3.5.4-1.3.7-2.5.9-3.5h0ZM528.1,337.4l8,1.2c-.6,4.5-1.5,8.9-2.6,13s-2.4,8.1-4,11.6c-1.5,3.6-3.3,6.7-5.4,9.3-.4-.5-.9-1.1-1.7-1.9-.8-.7-1.5-1.5-2.3-2.2-.8-.7-1.5-1.3-2.1-1.8,1.8-2.2,3.4-4.9,4.7-8s2.4-6.4,3.3-10.1c.9-3.6,1.6-7.4,2-11.2h0ZM539.9,354.5l7.9.6c-.8,7.5-2,14.3-3.7,20.3-1.7,6-4.1,11.2-7.2,15.7-3.1,4.5-7.2,8.2-12.2,11.4-.2-.6-.6-1.4-1.2-2.3-.6-.9-1.2-1.7-1.8-2.6s-1.2-1.5-1.7-2.1c4.5-2.5,8.1-5.7,10.8-9.6,2.7-3.9,4.7-8.5,6.1-13.7,1.4-5.2,2.4-11.1,2.9-17.7h0ZM532.2,356.1c.9,5.8,2.1,11.3,3.7,16.5s3.7,9.7,6.4,13.7c2.6,4,5.9,7.1,9.9,9.4-.9.7-1.8,1.7-2.9,3s-1.9,2.5-2.5,3.5c-4.3-2.8-7.8-6.4-10.6-10.8-2.8-4.4-5.1-9.5-6.8-15.3-1.7-5.8-3.1-12.1-4.1-18.9l7-1h0ZM528.3,350h22.8v7.6h-22.8v-7.6Z"/>
          <path class="st1" d="M580.2,342.8c-.1.5-.3,1.1-.6,1.9-.2.8-.5,1.6-.6,2.4s-.3,1.4-.4,1.8c-.2,1-.5,2.3-.8,3.9-.3,1.6-.6,3.5-.9,5.5s-.6,4.1-.9,6.3c-.3,2.1-.5,4.2-.6,6.1s-.2,3.5-.2,4.9,0,1.4,0,2.2,0,1.5.2,2.2c.3-.8.7-1.6,1-2.4s.7-1.6,1.1-2.3.7-1.6,1-2.3l4.2,3.5c-.6,1.9-1.3,3.9-2,5.9-.7,2.1-1.3,4-1.8,5.9-.5,1.8-.9,3.4-1.2,4.6,0,.5-.2,1-.2,1.6,0,.6,0,1.2,0,1.6s0,.8,0,1.3c0,.5,0,1,0,1.5l-7.8.6c-.7-2.4-1.4-5.5-1.9-9.3s-.8-8-.8-12.7.1-5.3.3-8.1c.2-2.8.5-5.5.8-8.2.3-2.6.6-5,.9-7.2.3-2.2.6-3.9.8-5.3.1-1,.3-2.1.4-3.3.1-1.2.2-2.4.3-3.5l9.5.8h0ZM613.8,342c0,.6-.2,1.4-.2,2.1,0,.8-.1,1.6-.2,2.3,0,.7,0,1.7-.1,3s0,2.6,0,4.2v4.9c0,3.1,0,6.1.1,8.8s.2,5.3.3,7.6c.1,2.3.3,4.5.4,6.4.1,1.9.2,3.7.2,5.4s-.2,3.5-.7,5-1.2,2.9-2.3,4-2.5,2-4.2,2.6-3.8.9-6.3.9c-4.8,0-8.5-1-11.3-2.9s-4.1-4.7-4.1-8.3.6-4.4,1.9-6.2c1.2-1.8,3-3.1,5.3-4.1,2.3-1,5-1.5,8.1-1.5s6.2.3,8.9,1c2.7.7,5.1,1.6,7.3,2.8,2.2,1.1,4.2,2.4,5.9,3.8,1.7,1.4,3.3,2.6,4.7,3.9l-4.8,7.2c-2.6-2.5-5.2-4.6-7.7-6.4-2.5-1.8-5-3.2-7.4-4.1-2.5-1-5-1.5-7.6-1.5s-3.5.4-4.7,1.1c-1.2.7-1.8,1.8-1.8,3.1s.6,2.4,1.9,3c1.2.6,2.8,1,4.5,1s2.5-.2,3.4-.7,1.4-1.2,1.8-2.1c.3-.9.5-2.1.5-3.4s0-2.8-.1-4.7-.2-4.1-.3-6.5c-.1-2.4-.2-4.9-.3-7.5s-.1-5.1-.1-7.6,0-5,0-7.1,0-3.7,0-4.8,0-1.2-.1-2.1-.2-1.7-.3-2.4h9.9ZM587.6,353.6c2,.2,4,.3,6,.5,2,.1,4,.2,6.1.2,4.2,0,8.4-.2,12.6-.5,4.2-.4,8-.9,11.6-1.7v8.6c-3.6.5-7.5.9-11.7,1.2-4.2.3-8.4.5-12.5.5s-4,0-6-.1-4-.2-6-.3v-8.2h0Z"/>
          <path class="st1" d="M652.1,402.9c-1.2-1.6-2.6-3.2-4.2-4.8-1.5-1.6-3.1-3.2-4.7-4.8s-3.1-3-4.5-4.2l6.5-5.6c1.5,1.2,3.1,2.6,4.8,4.2s3.3,3.3,4.9,4.9,2.8,3.1,3.9,4.4l-6.6,5.7Z"/>
          <path class="st1" d="M106.7,451.5c-2.2,0-3.8-.8-5-2.5s-1.8-3.9-1.8-6.9.9-6.6,2.6-9.3c1.8-2.6,4.3-4.9,7.8-6.6l2.3,4.5c-2.2,1.2-3.9,2.6-5.1,4.1-1.1,1.6-1.7,3.5-1.7,5.8l.5,6.3-3.7-4.9c.6-.5,1.2-.9,1.9-1.2s1.3-.5,2.1-.5c1.5,0,2.8.5,3.9,1.4s1.6,2.2,1.6,3.9-.5,3.1-1.5,4.2c-1,1.1-2.3,1.6-3.9,1.6h0ZM123.9,451.5c-2.2,0-3.8-.8-5-2.5s-1.8-3.9-1.8-6.9.9-6.6,2.6-9.3c1.8-2.6,4.3-4.9,7.8-6.6l2.3,4.5c-2.2,1.2-3.9,2.6-5,4.1-1.1,1.6-1.7,3.5-1.7,5.8l.4,6.3-3.7-4.9c.6-.5,1.2-.9,1.9-1.2s1.3-.5,2.1-.5c1.5,0,2.8.5,3.9,1.4,1.1.9,1.6,2.2,1.6,3.9s-.5,3.1-1.5,4.2-2.3,1.6-3.9,1.6h0Z"/>
          <path class="st1" d="M147.2,425.6h48.1v59.6h-8.9v-51.3h-30.8v51.4h-8.5v-59.8h0ZM153,448.7h37.1v8.1h-37.1v-8.1ZM153,472.4h37.2v8.3h-37.2v-8.3Z"/>
          <path class="st1" d="M237.2,437.8l7.6,2.4c-2,5-4.4,9.7-7.2,14.2-2.8,4.5-5.9,8.6-9.4,12.2-3.5,3.6-7.2,6.8-11.2,9.3-.5-.7-1.1-1.5-1.8-2.3-.7-.9-1.5-1.7-2.2-2.5-.7-.9-1.4-1.5-2.1-2,2.9-1.6,5.6-3.5,8.2-5.7s5.1-4.8,7.3-7.5c2.3-2.8,4.3-5.7,6.1-8.7,1.8-3.1,3.3-6.2,4.6-9.3h0ZM213.7,434.8h61v8.4h-60.9v-8.4h0ZM227.9,466h32.1v8.4h-32.1v-8.4h0ZM239.7,421.4h8.8v64.7h-8.8v-64.7ZM251,438c1.7,4,3.8,8,6.5,11.9s5.8,7.4,9.2,10.6c3.5,3.2,7.1,5.8,10.9,7.8-.7.5-1.4,1.3-2.2,2.1-.8.9-1.6,1.8-2.3,2.7-.7.9-1.4,1.8-1.9,2.6-4-2.5-7.7-5.5-11.2-9.1-3.5-3.6-6.6-7.6-9.3-12.1s-5.1-9.1-7.2-14l7.5-2.5h0Z"/>
          <path class="st1" d="M291.7,433.1h25.7v6.5h-25.7v-6.5ZM294.8,462.4h7v23.6h-7v-23.6ZM295,443h19.9v6.3h-19.9v-6.3ZM295,452.6h19.9v6.3h-19.9v-6.3ZM295.4,423.6h19.6v6.2h-19.6v-6.2ZM298.9,462.4h16.5v21h-16.5v-6.5h9.5v-7.9h-9.5v-6.5h0ZM317.1,449.3h39.7v7.2h-39.7v-7.2ZM319.5,423.4h34.8v7h-34.8v-7ZM320.6,435.3h30.2v17.9h-7.9v-10.9h-22.3v-7h0ZM322,460.2h30.3v25.6h-8.1v-18.3h-14.5v18.5h-7.8v-25.9h0ZM329.1,426.3l8,.7c-.4,2.9-.8,6-1.3,9.2s-1,6.3-1.5,9.3-1,5.6-1.5,7.9h-8c.4-1.8.8-3.7,1.2-5.9.4-2.2.8-4.5,1.2-6.9.4-2.4.8-4.8,1.1-7.2s.6-4.7.9-6.9h0ZM325.1,476.1h23.8v7.4h-23.8v-7.4Z"/>
          <path class="st1" d="M374.6,450.7l-2.3-4.4c2.2-1.2,3.9-2.6,5.1-4.2,1.1-1.6,1.7-3.5,1.7-5.8l-.5-6.3,3.7,4.9c-.5.5-1.2.8-1.8,1.1-.7.3-1.4.5-2.1.5-1.5,0-2.8-.5-3.9-1.5-1.1-1-1.6-2.2-1.6-3.9s.5-3.2,1.5-4.2c1-1,2.4-1.5,4-1.5s3.9.8,5,2.4c1.1,1.6,1.7,3.9,1.7,6.8s-.9,6.6-2.6,9.3c-1.7,2.7-4.3,4.9-7.8,6.6h0ZM391.8,450.7l-2.4-4.4c2.3-1.2,4-2.6,5.1-4.2,1.1-1.6,1.7-3.5,1.7-5.8l-.5-6.3,3.7,4.9c-.5.5-1.2.8-1.8,1.1-.7.3-1.4.5-2.1.5-1.5,0-2.8-.5-3.9-1.5-1.1-1-1.6-2.2-1.6-3.9s.5-3.2,1.5-4.2c1-1,2.4-1.5,4-1.5s3.9.8,5,2.4c1.1,1.6,1.7,3.9,1.7,6.8s-.9,6.6-2.6,9.3c-1.7,2.7-4.3,4.9-7.8,6.6h0Z"/>
          <path class="st1" d="M447.2,425.7c-.3,1-.6,2.1-.9,3.4s-.5,2.4-.7,3.1c-.3,1.6-.7,3.5-1.2,5.7-.5,2.2-1,4.6-1.5,7.1s-1.1,4.9-1.7,7.3c-.6,2.4-1.4,5-2.2,7.9-.9,2.9-1.8,5.7-2.8,8.6-1,2.9-2,5.7-3,8.3-1,2.7-2,5-3,7.1l-9.6-3.2c1.1-1.8,2.1-3.9,3.3-6.4,1.1-2.5,2.2-5.2,3.3-8.1s2.1-5.7,3-8.6c.9-2.9,1.7-5.5,2.3-7.9.4-1.6.8-3.3,1.2-5s.8-3.4,1.1-5c.3-1.6.6-3.1.9-4.5.2-1.4.5-2.6.6-3.6.1-1.3.2-2.6.3-3.9,0-1.3,0-2.3,0-3.2l10.5.8h0ZM429.6,436c2.8,0,5.7-.1,8.8-.4,3-.3,6.1-.7,9.2-1.2,3.1-.5,6.1-1.1,9.2-1.8v8.6c-2.9.7-5.9,1.3-9.1,1.7s-6.4.8-9.5,1.1c-3.1.2-6,.4-8.6.4s-3.1,0-4.5-.1c-1.3,0-2.6-.1-3.9-.2l-.2-8.6c1.8.2,3.3.3,4.6.4s2.6.1,4.1.1h0ZM455,463.9c-.3,1-.5,2-.7,3-.2,1.1-.3,2-.3,2.7s.2,1.5.5,2.1c.3.6.8,1.2,1.5,1.7s1.6.9,2.9,1.1c1.2.2,2.8.4,4.6.4s4.6-.1,7-.3c2.4-.2,4.8-.6,7.3-1l-.3,8.8c-1.9.3-4.1.5-6.4.7-2.3.2-4.9.3-7.6.3-5.8,0-10.2-1-13.3-2.9-3.1-1.9-4.6-4.6-4.6-8.1s.1-3.2.4-4.8.5-3.1.8-4.4l8.3.8h0ZM451.3,446.6c1.9-.2,4.1-.4,6.4-.5,2.3-.1,4.6-.2,6.8-.2s4,0,6,.1c2,0,4.1.2,6.1.5l-.2,8.3c-1.7-.2-3.6-.4-5.6-.6-2-.2-4.1-.3-6.2-.3s-4.7,0-6.8.2c-2.2.1-4.3.3-6.5.6v-8.1h0ZM469.3,427.7c.6.8,1.2,1.8,1.9,3,.7,1.1,1.3,2.3,2,3.5.6,1.1,1.2,2.2,1.6,3l-5.5,2.4c-.5-1-1-2-1.6-3.2-.6-1.1-1.2-2.3-1.9-3.5-.6-1.1-1.3-2.1-1.9-3l5.5-2.3h0ZM477.4,424.6c.6.8,1.3,1.8,2,3s1.4,2.3,2,3.5c.7,1.1,1.2,2.1,1.5,2.9l-5.5,2.3c-.7-1.5-1.6-3.1-2.6-4.9s-2-3.3-3-4.6l5.5-2.2Z"/>
          <path class="st1" d="M494.6,450.8c1.1-.2,2.3-.5,3.6-.9s2.6-.7,3.6-1c1.1-.4,2.7-.9,4.6-1.5s4.1-1.2,6.4-1.8c2.3-.6,4.7-1.1,7-1.5,2.4-.4,4.6-.6,6.7-.6,3.6,0,6.8.7,9.5,2,2.7,1.4,4.9,3.3,6.4,5.8s2.3,5.5,2.3,9-.7,6-2,8.5c-1.4,2.6-3.4,4.8-6.2,6.8-2.8,1.9-6.2,3.5-10.3,4.7-4.1,1.2-8.9,2-14.4,2.3l-3.6-8.5c3.9,0,7.6-.4,10.9-1,3.3-.6,6.2-1.5,8.7-2.6s4.4-2.6,5.7-4.3c1.4-1.8,2-3.8,2-6.1s-.4-3.3-1.2-4.6c-.8-1.3-1.9-2.3-3.4-3.1-1.5-.7-3.2-1.1-5.2-1.1s-3.4.2-5.4.6-4,.9-6.1,1.6c-2.1.6-4.1,1.3-6.2,2.1-2,.7-3.9,1.5-5.6,2.1-1.8.7-3.2,1.3-4.3,1.8l-3.6-9h0Z"/>
          <path class="st1" d="M584.2,424.9c-.3.9-.5,2-.8,3.4-.3,1.3-.5,2.4-.6,3.1-.3,1.6-.7,3.5-1.2,5.7-.5,2.2-1,4.6-1.6,7.2s-1.2,4.9-1.8,7.2c-.6,2.4-1.3,5.1-2.2,7.9-.9,2.8-1.8,5.7-2.8,8.6-1,2.9-2,5.7-3,8.3-1,2.6-2,5-3,7.1l-9.6-3.2c1-1.8,2.1-3.9,3.2-6.4,1.2-2.5,2.3-5.2,3.3-8.1,1.1-2.9,2.1-5.8,3-8.6s1.7-5.5,2.3-7.9c.5-1.6.9-3.3,1.3-5,.4-1.7.8-3.4,1.1-5,.3-1.6.6-3.1.9-4.5.2-1.4.5-2.6.6-3.7.1-1.3.2-2.6.3-3.9,0-1.3,0-2.3,0-3.1l10.5.8h0ZM566.6,435.2c2.8,0,5.7-.1,8.8-.4,3-.3,6.1-.7,9.2-1.2,3.1-.5,6.1-1.1,9.2-1.8v8.6c-2.8.6-5.9,1.2-9.1,1.6-3.2.5-6.4.8-9.5,1.1-3.1.2-6,.4-8.6.4s-3.2,0-4.5-.1c-1.3,0-2.6-.1-3.9-.2l-.2-8.6c1.8.2,3.3.3,4.6.4s2.6.1,4.1.1h0ZM592,463.1c-.3,1-.5,2-.7,3-.2,1-.3,1.9-.3,2.7s.2,1.4.5,2.1.8,1.2,1.5,1.7,1.6.9,2.9,1.1,2.8.4,4.6.4,4.7-.1,7.1-.4,4.8-.6,7.3-1.1l-.3,8.8c-1.9.2-4.1.5-6.4.6-2.3.2-4.9.3-7.7.3-5.8,0-10.2-1-13.3-2.9-3.1-1.9-4.6-4.6-4.6-8.1s.1-3.1.4-4.8c.3-1.6.5-3.1.8-4.5l8.2.8h0ZM588.3,445.8c1.9-.2,4.1-.3,6.4-.5,2.3-.1,4.6-.2,6.8-.2s4,0,6,.1c2,0,4.1.2,6.1.5l-.2,8.3c-1.7-.2-3.6-.4-5.6-.6-2-.2-4.1-.2-6.2-.2s-4.6,0-6.8.2c-2.2.1-4.4.3-6.5.6v-8.1h0Z"/>
        </g>
        <polygon class="st1" points="1.6 592.5 751.7 282.5 751.7 0 1.6 309.9 1.6 592.5"/>
        <g class="st4">
          <g>
            <g class="st3">
              <path d="M81.4,270.1c-15.1,0-28.9-3.8-41.2-11.3-12.3-7.5-22.1-18.5-29.3-33C3.6,211.4,0,193.8,0,172.9v-58.3c0-31.2,8-55.2,24-72,16-16.8,37.7-25.2,65-25.2s48.1,7.9,62.9,23.8c14.8,15.8,22.2,37.3,22.2,64.4v1.4h-41v-2.8c0-8.6-1.6-16.3-4.9-23.2-3.3-6.9-8.2-12.4-14.7-16.5-6.5-4-14.7-6.1-24.6-6.1-14.7,0-26.3,5-34.7,14.9-8.4,9.9-12.6,23.5-12.6,40.6v59.7c0,16.9,4.2,30.5,12.6,40.8,8.4,10.3,20.2,15.4,35.3,15.4s26.2-4.4,33.1-13.2c6.9-8.8,10.4-19.9,10.4-33.3v-3.5h-52.4v-38.9h93.4v124.2h-38.5v-23.2h-5.7c-1.5,3.9-3.8,8.1-7.1,12.5-3.3,4.4-8.2,8.1-14.7,11.1-6.5,3-15.5,4.5-26.8,4.5h0Z"/>
              <path d="M296.9,270.1c-17,0-32.1-3.4-45.1-10.1-13-6.7-23.2-16.3-30.6-28.8-7.4-12.5-11-27.5-11-45.1v-9.7h41v9.7c0,14.6,4.1,25.5,12.3,32.8,8.2,7.3,19.4,10.9,33.4,10.9s25-3.1,32-9.4c7-6.2,10.6-14.2,10.6-23.9s-1.7-12.1-5.2-16.3-8.5-7.6-15.1-10.2c-6.6-2.7-14.7-5.1-24.1-7.5l-7.3-1.7c-15.1-3.7-28.1-8.4-39-14.1-10.8-5.7-19.1-13.1-24.9-22.4-5.8-9.2-8.7-21.3-8.7-36.1s3.2-27.5,9.6-38c6.4-10.5,15.5-18.6,27.1-24.3,11.7-5.7,25.4-8.5,41.2-8.5s29.8,3,42.1,8.9,22,14.7,29,26.4c7,11.7,10.6,26.3,10.6,43.9v10.4h-41v-10.4c0-9.2-1.6-16.7-4.9-22.4-3.3-5.7-7.9-9.8-14-12.5-6.1-2.7-13.4-4-21.8-4-12.6,0-21.9,2.6-27.9,7.8-6,5.2-9,12.3-9,21.3s1.4,11.1,4.3,15.3,7.1,7.6,12.8,10.4c5.7,2.8,12.9,5.2,21.8,7.3l7.3,1.7c15.8,3.7,29.5,8.4,41.2,14.2,11.7,5.8,20.8,13.4,27.3,22.9,6.5,9.5,9.8,21.6,9.8,36.4s-3.4,27.8-10.2,39c-6.8,11.2-16.5,20-29,26.4-12.5,6.4-27.3,9.5-44.3,9.5h0Z"/>
              <path d="M417.7,265.3V22.3h142v41.7h-100.3v58h91.5v41.6h-91.5v60h102.2v41.6h-143.9,0Z"/>
              <path d="M649.9,265.3V64h-64.4V22.3h170.4v41.7h-64.4v201.3h-41.7Z"/>
            </g>
            <g>
              <path d="M122,353h8.7v20.4c0,2.5-.3,4.9-.8,7.2s-1.5,4.5-2.8,6.7c-1.3,2.1-3.2,4.1-5.6,6-2.4,1.8-5.4,3.5-9.1,5.1-3.7,1.5-8.1,2.9-13.2,4-.3-.6-.8-1.4-1.3-2.3-.6-.9-1.2-1.7-1.9-2.6-.7-.9-1.3-1.6-2-2.2,4.8-.9,8.9-1.9,12.2-3.1,3.3-1.2,6-2.5,8.1-3.9s3.7-2.9,4.8-4.5c1.1-1.6,1.9-3.3,2.3-5.1.4-1.8.6-3.5.6-5.3v-20.3h0ZM95.6,375.8h62.2v7.6h-62.2v-7.6ZM96.2,342.8h60.7v7.4h-60.7v-7.4ZM102.2,359.9h49.4v19.2h-8.3v-12.1h-33v12.1h-8s0-19.2,0-19.2ZM109.8,337.4h8.1v18.9h-8.1v-18.9ZM130.6,378.7c2.2,4.6,5.8,8.3,10.6,10.9,4.8,2.6,10.9,4.3,18.3,5.1-.6.6-1.2,1.3-1.8,2.2s-1.3,1.8-1.9,2.8c-.6.9-1.1,1.8-1.5,2.6-5.3-.9-9.9-2.3-13.9-4.1-3.9-1.8-7.3-4.2-10.1-7.1s-5.2-6.5-7-10.6l7.3-1.7h0ZM135.1,337.4h8.2v18.9h-8.2v-18.9Z"/>
              <path d="M173.5,349.1h25.7v6.5h-25.7v-6.5ZM176.6,378.5h7v23.6h-7v-23.6ZM176.8,359h19.9v6.3h-19.9v-6.3ZM176.8,368.7h19.9v6.3h-19.9v-6.3ZM177.2,339.6h19.6v6.2h-19.6v-6.2ZM180.7,378.5h16.6v21h-16.6v-6.5h9.5v-7.9h-9.5v-6.5h0ZM198.9,365.4h39.7v7.2h-39.7v-7.2ZM201.4,339.4h34.8v7h-34.8v-7ZM202.5,351.3h30.2v17.9h-7.9v-10.9h-22.3v-7h0ZM203.9,376.3h30.3v25.6h-8.1v-18.3h-14.5v18.5h-7.8v-25.9h0ZM211,342.3l8,.7c-.4,2.9-.8,6-1.3,9.2s-1,6.3-1.6,9.3-1.1,5.6-1.6,7.9h-8c.4-1.8.8-3.7,1.2-5.9s.8-4.5,1.2-6.9c.4-2.4.8-4.8,1.1-7.2s.6-4.7.9-6.9h0ZM207,392.1h23.8v7.4h-23.8v-7.4Z"/>
              <path d="M253.2,362c2.3-.7,5-1.6,8.2-2.6,3.2-1.1,6.5-2.2,9.8-3.4l1.2,6c-2.8,1.1-5.6,2.3-8.5,3.5-2.8,1.2-5.5,2.3-7.9,3.3l-2.9-6.8h0ZM255,340.5h22.2v6.4h-22.2v-6.4ZM256.8,351l3.9-4.8c1.5.7,3.1,1.6,4.9,2.7,1.8,1.1,3.1,2.1,4.1,3l-4.1,5.3c-.9-1-2.2-2-3.9-3.2-1.7-1.2-3.3-2.2-4.8-3h0ZM262.5,373.2h46.4v29.2h-8.6v-23h-29.6v23h-8.2v-29.2ZM266.6,383.4h35.9v6.2h-35.9v-6.2h0ZM267.1,393.6h35.8v6.3h-35.8v-6.3ZM275.4,340.5h7.5v22.9c0,1.6-.2,2.8-.6,3.6s-1.1,1.6-2.2,2.1c-1.1.5-2.4.7-4,.8s-3.4.1-5.5.1c-.1-.9-.4-1.9-.8-3-.4-1.1-.8-2.1-1.2-2.9,1.2,0,2.4,0,3.5,0h2.3c.4,0,.6,0,.8-.2s.2-.4.2-.7v-22.8h0ZM280.8,366.8l8.9,1.2c-.9,1.8-1.8,3.5-2.8,5.1-1,1.6-1.8,3-2.5,4.1l-6.8-1.5c.6-1.3,1.2-2.8,1.8-4.5.6-1.6,1.1-3.1,1.3-4.5h0ZM284.5,360.8c2.5-.7,5.4-1.7,8.8-2.8,3.4-1.1,6.8-2.3,10.2-3.5l1.3,5.9c-3,1.1-6,2.3-9.1,3.4-3.1,1.1-5.9,2.1-8.5,3.1l-2.8-6.1h0ZM286.5,340.5h23.8v6.4h-23.8v-6.4ZM287.7,351l4-4.9c1.5.7,3.2,1.6,5,2.7s3.2,2.1,4.2,3l-4.2,5.4c-.9-1-2.3-2-4-3.2-1.8-1.2-3.4-2.2-5-3ZM306.5,340.5h7.7v22.7c0,1.7-.2,3-.7,3.9s-1.2,1.6-2.5,2.2c-1.1.5-2.6.8-4.2.9-1.7.1-3.6.1-5.9.1-.1-1-.4-2-.9-3.2s-.9-2.2-1.3-3.1c1.3,0,2.6,0,4,.1,1.3,0,2.2,0,2.6,0,.4,0,.7-.1.9-.3s.3-.4.3-.8v-22.6h0Z"/>
              <path d="M348.5,352.6l7.2,3c-1.6,2.9-3.6,5.7-5.9,8.5-2.2,2.9-4.6,5.5-7.1,8.1-2.5,2.5-4.9,4.8-7.3,6.6-.2-.6-.6-1.5-1-2.6-.4-1.1-.9-2.2-1.5-3.3-.5-1.1-1-2-1.5-2.6,2.1-1.5,4.1-3.2,6.2-5.1,2.1-1.9,4-4,5.9-6.1,1.9-2.2,3.5-4.4,4.8-6.6h0ZM346.7,337.5l7.9,3.2c-1.5,2.1-3.3,4.2-5.3,6.4-2,2.1-4.1,4.1-6.3,6-2.2,1.9-4.4,3.5-6.6,5-.3-.6-.7-1.4-1.1-2.3-.5-.9-1-1.8-1.5-2.6s-1-1.6-1.4-2.1c1.8-1.1,3.6-2.4,5.5-3.9,1.8-1.5,3.5-3.1,5.1-4.8,1.6-1.7,2.9-3.3,3.8-4.8h0ZM341.7,368.1l7.6-7.6h.4v41.7h-8.1v-34.1h0ZM353.4,377.1h43.2v7h-43.2v-7ZM355.1,366.5h40.1v6.8h-40.1v-6.8ZM358,387.6l5.8-3.9c1.5,1.3,3,2.9,4.6,4.5,1.6,1.7,2.9,3.2,3.7,4.5l-6.1,4.3c-.5-.9-1.2-1.9-2.1-3-.9-1.1-1.9-2.2-2.9-3.4-1-1.2-2-2.2-3-3.2h0ZM358.6,339.4h34.3v24.1h-34.3v-24.1ZM366.6,345.2v3.4h18.1v-3.4h-18.1ZM366.6,354.1v3.5h18.1v-3.5h-18.1ZM378.8,372.4h8.3v21.6c0,1.9-.2,3.4-.7,4.5-.4,1.1-1.3,1.9-2.6,2.5-1.3.6-2.8,1-4.6,1.1-1.8.1-3.8.2-6.2.2-.1-1.1-.5-2.3-1-3.7s-1-2.6-1.6-3.6c1.4,0,2.8,0,4.2.1,1.4,0,2.3,0,2.8,0,.5,0,.8-.1,1-.3s.2-.4.2-.8v-21.4h0Z"/>
              <path d="M447.9,348.8c-.5,3.5-1.1,7.2-1.8,11.2-.7,4-1.7,8-3,12-1.3,4.6-2.9,8.6-4.7,12s-3.8,5.9-5.9,7.8c-2.1,1.8-4.5,2.7-7,2.7s-4.9-.9-7-2.6c-2.1-1.7-3.8-4.1-5.1-7.1-1.3-3-1.9-6.5-1.9-10.3s.8-7.8,2.4-11.3c1.6-3.5,3.9-6.7,6.7-9.4s6.2-4.9,10.1-6.5c3.8-1.6,8-2.3,12.4-2.3s8.1.7,11.5,2.1c3.4,1.4,6.4,3.3,8.8,5.7,2.4,2.4,4.3,5.3,5.6,8.5,1.3,3.3,1.9,6.8,1.9,10.5s-1,9.1-3,13c-2,3.8-4.9,7-8.8,9.5-3.9,2.5-8.7,4.2-14.5,5.1l-5.2-8.2c1.3-.1,2.5-.3,3.5-.5,1-.2,2-.4,2.9-.6,2.2-.5,4.3-1.3,6.2-2.4,1.9-1,3.6-2.3,5-3.9,1.4-1.5,2.5-3.3,3.3-5.4s1.2-4.3,1.2-6.8-.4-5.2-1.2-7.5c-.8-2.2-2-4.2-3.6-5.9-1.6-1.7-3.6-3-5.9-3.9s-4.9-1.3-7.9-1.3-6.9.7-9.7,2c-2.8,1.3-5.2,3-7.1,5.1s-3.4,4.3-4.4,6.7-1.5,4.7-1.5,6.8.3,4.2.8,5.8,1.2,2.7,2,3.5,1.7,1.1,2.6,1.1,1.9-.5,2.9-1.5c.9-1,1.9-2.5,2.8-4.5.9-2,1.8-4.6,2.8-7.6,1.1-3.3,2-6.9,2.7-10.6.7-3.8,1.3-7.5,1.6-11l9.4.3h0Z"/>
              <path d="M487.3,343.5h35.4v7h-35.4v-7h0ZM488.5,356.2h29v7.1h-22.3v38.7h-6.8v-45.8ZM492.9,350.8l6.5-1.5c.5,1,1,2.2,1.3,3.5.4,1.3.7,2.4.9,3.3l-6.8,1.7c0-1-.3-2.1-.7-3.5-.4-1.3-.8-2.5-1.2-3.6h0ZM496.2,367.8h17.2v5.2h-17.2v-5.2h0ZM497.4,377.4h5.1v16.6h-5.1v-16.6ZM500.1,377.4h12.3v14.1h-12.3v-5h7v-3.9h-7v-5.1h0ZM501,337.9h7.7v9.6h-7.7v-9.6ZM502,362.5h5.3v16.8h-5.3v-16.8ZM514.6,356.2h7v38.5c0,1.6-.2,2.9-.5,3.9-.3,1-1.1,1.7-2.2,2.2-1,.5-2.3.9-3.8,1-1.5.1-3.3.2-5.4.2-.1-.9-.4-2-.8-3.3-.4-1.3-.8-2.3-1.3-3.1,1.3,0,2.5,0,3.6,0h2.3c.4,0,.7,0,.9-.2s.2-.5.2-.9v-38.4h0ZM510.2,349.3l7.7,1.3c-.6,1.4-1.2,2.7-1.7,3.9-.5,1.2-1,2.2-1.5,3.1l-6.5-1.3c.3-1,.7-2.2,1.1-3.5.4-1.3.7-2.5.9-3.5h0ZM528.1,337.4l8,1.2c-.6,4.5-1.5,8.9-2.6,13s-2.4,8.1-4,11.6c-1.5,3.6-3.3,6.7-5.4,9.3-.4-.5-.9-1.1-1.7-1.9-.8-.7-1.5-1.5-2.3-2.2-.8-.7-1.5-1.3-2.1-1.8,1.8-2.2,3.4-4.9,4.7-8s2.4-6.4,3.3-10.1c.9-3.6,1.6-7.4,2-11.2h0ZM539.9,354.5l7.9.6c-.8,7.5-2,14.3-3.7,20.3-1.7,6-4.1,11.2-7.2,15.7-3.1,4.5-7.2,8.2-12.2,11.4-.2-.6-.6-1.4-1.2-2.3-.6-.9-1.2-1.7-1.8-2.6s-1.2-1.5-1.7-2.1c4.5-2.5,8.1-5.7,10.8-9.6,2.7-3.9,4.7-8.5,6.1-13.7,1.4-5.2,2.4-11.1,2.9-17.7h0ZM532.2,356.1c.9,5.8,2.1,11.3,3.7,16.5s3.7,9.7,6.4,13.7c2.6,4,5.9,7.1,9.9,9.4-.9.7-1.8,1.7-2.9,3s-1.9,2.5-2.5,3.5c-4.3-2.8-7.8-6.4-10.6-10.8-2.8-4.4-5.1-9.5-6.8-15.3-1.7-5.8-3.1-12.1-4.1-18.9l7-1h0ZM528.3,350h22.8v7.6h-22.8v-7.6Z"/>
              <path d="M580.2,342.8c-.1.5-.3,1.1-.6,1.9-.2.8-.5,1.6-.6,2.4s-.3,1.4-.4,1.8c-.2,1-.5,2.3-.8,3.9-.3,1.6-.6,3.5-.9,5.5s-.6,4.1-.9,6.3c-.3,2.1-.5,4.2-.6,6.1s-.2,3.5-.2,4.9,0,1.4,0,2.2,0,1.5.2,2.2c.3-.8.7-1.6,1-2.4s.7-1.6,1.1-2.3.7-1.6,1-2.3l4.2,3.5c-.6,1.9-1.3,3.9-2,5.9-.7,2.1-1.3,4-1.8,5.9-.5,1.8-.9,3.4-1.2,4.6,0,.5-.2,1-.2,1.6,0,.6,0,1.2,0,1.6s0,.8,0,1.3c0,.5,0,1,0,1.5l-7.8.6c-.7-2.4-1.4-5.5-1.9-9.3s-.8-8-.8-12.7.1-5.3.3-8.1c.2-2.8.5-5.5.8-8.2.3-2.6.6-5,.9-7.2.3-2.2.6-3.9.8-5.3.1-1,.3-2.1.4-3.3.1-1.2.2-2.4.3-3.5l9.5.8h0ZM613.8,342c0,.6-.2,1.4-.2,2.1,0,.8-.1,1.6-.2,2.3,0,.7,0,1.7-.1,3s0,2.6,0,4.2v4.9c0,3.1,0,6.1.1,8.8s.2,5.3.3,7.6c.1,2.3.3,4.5.4,6.4.1,1.9.2,3.7.2,5.4s-.2,3.5-.7,5-1.2,2.9-2.3,4-2.5,2-4.2,2.6-3.8.9-6.3.9c-4.8,0-8.5-1-11.3-2.9s-4.1-4.7-4.1-8.3.6-4.4,1.9-6.2c1.2-1.8,3-3.1,5.3-4.1,2.3-1,5-1.5,8.1-1.5s6.2.3,8.9,1c2.7.7,5.1,1.6,7.3,2.8,2.2,1.1,4.2,2.4,5.9,3.8,1.7,1.4,3.3,2.6,4.7,3.9l-4.8,7.2c-2.6-2.5-5.2-4.6-7.7-6.4-2.5-1.8-5-3.2-7.4-4.1-2.5-1-5-1.5-7.6-1.5s-3.5.4-4.7,1.1c-1.2.7-1.8,1.8-1.8,3.1s.6,2.4,1.9,3c1.2.6,2.8,1,4.5,1s2.5-.2,3.4-.7,1.4-1.2,1.8-2.1c.3-.9.5-2.1.5-3.4s0-2.8-.1-4.7-.2-4.1-.3-6.5c-.1-2.4-.2-4.9-.3-7.5s-.1-5.1-.1-7.6,0-5,0-7.1,0-3.7,0-4.8,0-1.2-.1-2.1-.2-1.7-.3-2.4h9.9ZM587.6,353.6c2,.2,4,.3,6,.5,2,.1,4,.2,6.1.2,4.2,0,8.4-.2,12.6-.5,4.2-.4,8-.9,11.6-1.7v8.6c-3.6.5-7.5.9-11.7,1.2-4.2.3-8.4.5-12.5.5s-4,0-6-.1-4-.2-6-.3v-8.2h0Z"/>
              <path d="M652.1,402.9c-1.2-1.6-2.6-3.2-4.2-4.8-1.5-1.6-3.1-3.2-4.7-4.8s-3.1-3-4.5-4.2l6.5-5.6c1.5,1.2,3.1,2.6,4.8,4.2s3.3,3.3,4.9,4.9,2.8,3.1,3.9,4.4l-6.6,5.7Z"/>
              <path d="M106.7,451.5c-2.2,0-3.8-.8-5-2.5s-1.8-3.9-1.8-6.9.9-6.6,2.6-9.3c1.8-2.6,4.3-4.9,7.8-6.6l2.3,4.5c-2.2,1.2-3.9,2.6-5.1,4.1-1.1,1.6-1.7,3.5-1.7,5.8l.5,6.3-3.7-4.9c.6-.5,1.2-.9,1.9-1.2s1.3-.5,2.1-.5c1.5,0,2.8.5,3.9,1.4s1.6,2.2,1.6,3.9-.5,3.1-1.5,4.2c-1,1.1-2.3,1.6-3.9,1.6h0ZM123.9,451.5c-2.2,0-3.8-.8-5-2.5s-1.8-3.9-1.8-6.9.9-6.6,2.6-9.3c1.8-2.6,4.3-4.9,7.8-6.6l2.3,4.5c-2.2,1.2-3.9,2.6-5,4.1-1.1,1.6-1.7,3.5-1.7,5.8l.4,6.3-3.7-4.9c.6-.5,1.2-.9,1.9-1.2s1.3-.5,2.1-.5c1.5,0,2.8.5,3.9,1.4,1.1.9,1.6,2.2,1.6,3.9s-.5,3.1-1.5,4.2-2.3,1.6-3.9,1.6h0Z"/>
              <path d="M147.2,425.6h48.1v59.6h-8.9v-51.3h-30.8v51.4h-8.5v-59.8h0ZM153,448.7h37.1v8.1h-37.1v-8.1ZM153,472.4h37.2v8.3h-37.2v-8.3Z"/>
              <path d="M237.2,437.8l7.6,2.4c-2,5-4.4,9.7-7.2,14.2-2.8,4.5-5.9,8.6-9.4,12.2-3.5,3.6-7.2,6.8-11.2,9.3-.5-.7-1.1-1.5-1.8-2.3-.7-.9-1.5-1.7-2.2-2.5-.7-.9-1.4-1.5-2.1-2,2.9-1.6,5.6-3.5,8.2-5.7s5.1-4.8,7.3-7.5c2.3-2.8,4.3-5.7,6.1-8.7,1.8-3.1,3.3-6.2,4.6-9.3h0ZM213.7,434.8h61v8.4h-60.9v-8.4h0ZM227.9,466h32.1v8.4h-32.1v-8.4h0ZM239.7,421.4h8.8v64.7h-8.8v-64.7ZM251,438c1.7,4,3.8,8,6.5,11.9s5.8,7.4,9.2,10.6c3.5,3.2,7.1,5.8,10.9,7.8-.7.5-1.4,1.3-2.2,2.1-.8.9-1.6,1.8-2.3,2.7-.7.9-1.4,1.8-1.9,2.6-4-2.5-7.7-5.5-11.2-9.1-3.5-3.6-6.6-7.6-9.3-12.1s-5.1-9.1-7.2-14l7.5-2.5h0Z"/>
              <path d="M291.7,433.1h25.7v6.5h-25.7v-6.5ZM294.8,462.4h7v23.6h-7v-23.6ZM295,443h19.9v6.3h-19.9v-6.3ZM295,452.6h19.9v6.3h-19.9v-6.3ZM295.4,423.6h19.6v6.2h-19.6v-6.2ZM298.9,462.4h16.5v21h-16.5v-6.5h9.5v-7.9h-9.5v-6.5h0ZM317.1,449.3h39.7v7.2h-39.7v-7.2ZM319.5,423.4h34.8v7h-34.8v-7ZM320.6,435.3h30.2v17.9h-7.9v-10.9h-22.3v-7h0ZM322,460.2h30.3v25.6h-8.1v-18.3h-14.5v18.5h-7.8v-25.9h0ZM329.1,426.3l8,.7c-.4,2.9-.8,6-1.3,9.2s-1,6.3-1.5,9.3-1,5.6-1.5,7.9h-8c.4-1.8.8-3.7,1.2-5.9.4-2.2.8-4.5,1.2-6.9.4-2.4.8-4.8,1.1-7.2s.6-4.7.9-6.9h0ZM325.1,476.1h23.8v7.4h-23.8v-7.4Z"/>
              <path d="M374.6,450.7l-2.3-4.4c2.2-1.2,3.9-2.6,5.1-4.2,1.1-1.6,1.7-3.5,1.7-5.8l-.5-6.3,3.7,4.9c-.5.5-1.2.8-1.8,1.1-.7.3-1.4.5-2.1.5-1.5,0-2.8-.5-3.9-1.5-1.1-1-1.6-2.2-1.6-3.9s.5-3.2,1.5-4.2c1-1,2.4-1.5,4-1.5s3.9.8,5,2.4c1.1,1.6,1.7,3.9,1.7,6.8s-.9,6.6-2.6,9.3c-1.7,2.7-4.3,4.9-7.8,6.6h0ZM391.8,450.7l-2.4-4.4c2.3-1.2,4-2.6,5.1-4.2,1.1-1.6,1.7-3.5,1.7-5.8l-.5-6.3,3.7,4.9c-.5.5-1.2.8-1.8,1.1-.7.3-1.4.5-2.1.5-1.5,0-2.8-.5-3.9-1.5-1.1-1-1.6-2.2-1.6-3.9s.5-3.2,1.5-4.2c1-1,2.4-1.5,4-1.5s3.9.8,5,2.4c1.1,1.6,1.7,3.9,1.7,6.8s-.9,6.6-2.6,9.3c-1.7,2.7-4.3,4.9-7.8,6.6h0Z"/>
              <path d="M447.2,425.7c-.3,1-.6,2.1-.9,3.4s-.5,2.4-.7,3.1c-.3,1.6-.7,3.5-1.2,5.7-.5,2.2-1,4.6-1.5,7.1s-1.1,4.9-1.7,7.3c-.6,2.4-1.4,5-2.2,7.9-.9,2.9-1.8,5.7-2.8,8.6-1,2.9-2,5.7-3,8.3-1,2.7-2,5-3,7.1l-9.6-3.2c1.1-1.8,2.1-3.9,3.3-6.4,1.1-2.5,2.2-5.2,3.3-8.1s2.1-5.7,3-8.6c.9-2.9,1.7-5.5,2.3-7.9.4-1.6.8-3.3,1.2-5s.8-3.4,1.1-5c.3-1.6.6-3.1.9-4.5.2-1.4.5-2.6.6-3.6.1-1.3.2-2.6.3-3.9,0-1.3,0-2.3,0-3.2l10.5.8h0ZM429.6,436c2.8,0,5.7-.1,8.8-.4,3-.3,6.1-.7,9.2-1.2,3.1-.5,6.1-1.1,9.2-1.8v8.6c-2.9.7-5.9,1.3-9.1,1.7s-6.4.8-9.5,1.1c-3.1.2-6,.4-8.6.4s-3.1,0-4.5-.1c-1.3,0-2.6-.1-3.9-.2l-.2-8.6c1.8.2,3.3.3,4.6.4s2.6.1,4.1.1h0ZM455,463.9c-.3,1-.5,2-.7,3-.2,1.1-.3,2-.3,2.7s.2,1.5.5,2.1c.3.6.8,1.2,1.5,1.7s1.6.9,2.9,1.1c1.2.2,2.8.4,4.6.4s4.6-.1,7-.3c2.4-.2,4.8-.6,7.3-1l-.3,8.8c-1.9.3-4.1.5-6.4.7-2.3.2-4.9.3-7.6.3-5.8,0-10.2-1-13.3-2.9-3.1-1.9-4.6-4.6-4.6-8.1s.1-3.2.4-4.8.5-3.1.8-4.4l8.3.8h0ZM451.3,446.6c1.9-.2,4.1-.4,6.4-.5,2.3-.1,4.6-.2,6.8-.2s4,0,6,.1c2,0,4.1.2,6.1.5l-.2,8.3c-1.7-.2-3.6-.4-5.6-.6-2-.2-4.1-.3-6.2-.3s-4.7,0-6.8.2c-2.2.1-4.3.3-6.5.6v-8.1h0ZM469.3,427.7c.6.8,1.2,1.8,1.9,3,.7,1.1,1.3,2.3,2,3.5.6,1.1,1.2,2.2,1.6,3l-5.5,2.4c-.5-1-1-2-1.6-3.2-.6-1.1-1.2-2.3-1.9-3.5-.6-1.1-1.3-2.1-1.9-3l5.5-2.3h0ZM477.4,424.6c.6.8,1.3,1.8,2,3s1.4,2.3,2,3.5c.7,1.1,1.2,2.1,1.5,2.9l-5.5,2.3c-.7-1.5-1.6-3.1-2.6-4.9s-2-3.3-3-4.6l5.5-2.2Z"/>
              <path d="M494.6,450.8c1.1-.2,2.3-.5,3.6-.9s2.6-.7,3.6-1c1.1-.4,2.7-.9,4.6-1.5s4.1-1.2,6.4-1.8c2.3-.6,4.7-1.1,7-1.5,2.4-.4,4.6-.6,6.7-.6,3.6,0,6.8.7,9.5,2,2.7,1.4,4.9,3.3,6.4,5.8s2.3,5.5,2.3,9-.7,6-2,8.5c-1.4,2.6-3.4,4.8-6.2,6.8-2.8,1.9-6.2,3.5-10.3,4.7-4.1,1.2-8.9,2-14.4,2.3l-3.6-8.5c3.9,0,7.6-.4,10.9-1,3.3-.6,6.2-1.5,8.7-2.6s4.4-2.6,5.7-4.3c1.4-1.8,2-3.8,2-6.1s-.4-3.3-1.2-4.6c-.8-1.3-1.9-2.3-3.4-3.1-1.5-.7-3.2-1.1-5.2-1.1s-3.4.2-5.4.6-4,.9-6.1,1.6c-2.1.6-4.1,1.3-6.2,2.1-2,.7-3.9,1.5-5.6,2.1-1.8.7-3.2,1.3-4.3,1.8l-3.6-9h0Z"/>
              <path d="M584.2,424.9c-.3.9-.5,2-.8,3.4-.3,1.3-.5,2.4-.6,3.1-.3,1.6-.7,3.5-1.2,5.7-.5,2.2-1,4.6-1.6,7.2s-1.2,4.9-1.8,7.2c-.6,2.4-1.3,5.1-2.2,7.9-.9,2.8-1.8,5.7-2.8,8.6-1,2.9-2,5.7-3,8.3-1,2.6-2,5-3,7.1l-9.6-3.2c1-1.8,2.1-3.9,3.2-6.4,1.2-2.5,2.3-5.2,3.3-8.1,1.1-2.9,2.1-5.8,3-8.6s1.7-5.5,2.3-7.9c.5-1.6.9-3.3,1.3-5,.4-1.7.8-3.4,1.1-5,.3-1.6.6-3.1.9-4.5.2-1.4.5-2.6.6-3.7.1-1.3.2-2.6.3-3.9,0-1.3,0-2.3,0-3.1l10.5.8h0ZM566.6,435.2c2.8,0,5.7-.1,8.8-.4,3-.3,6.1-.7,9.2-1.2,3.1-.5,6.1-1.1,9.2-1.8v8.6c-2.8.6-5.9,1.2-9.1,1.6-3.2.5-6.4.8-9.5,1.1-3.1.2-6,.4-8.6.4s-3.2,0-4.5-.1c-1.3,0-2.6-.1-3.9-.2l-.2-8.6c1.8.2,3.3.3,4.6.4s2.6.1,4.1.1h0ZM592,463.1c-.3,1-.5,2-.7,3-.2,1-.3,1.9-.3,2.7s.2,1.4.5,2.1.8,1.2,1.5,1.7,1.6.9,2.9,1.1,2.8.4,4.6.4,4.7-.1,7.1-.4,4.8-.6,7.3-1.1l-.3,8.8c-1.9.2-4.1.5-6.4.6-2.3.2-4.9.3-7.7.3-5.8,0-10.2-1-13.3-2.9-3.1-1.9-4.6-4.6-4.6-8.1s.1-3.1.4-4.8c.3-1.6.5-3.1.8-4.5l8.2.8h0ZM588.3,445.8c1.9-.2,4.1-.3,6.4-.5,2.3-.1,4.6-.2,6.8-.2s4,0,6,.1c2,0,4.1.2,6.1.5l-.2,8.3c-1.7-.2-3.6-.4-5.6-.6-2-.2-4.1-.2-6.2-.2s-4.6,0-6.8.2c-2.2.1-4.4.3-6.5.6v-8.1h0Z"/>
            </g>
          </g>
        </g>
      </g>
    </g>
  </g>
</svg>