<?xml version="1.0" encoding="UTF-8"?>
<svg id="Layer_2" data-name="Layer 2" xmlns="http://www.w3.org/2000/svg" viewBox="0 0 198.44 1414.23">
  <defs>
    <style>
      .cls-1 {
        fill: #004fff;
      }
    </style>
  </defs>
  <g id="_デザイン" data-name="デザイン">
    <g>
      <g>
        <path class="cls-1" d="M174.29,318.89h17.98v-6.32h3.72v16.74h-3.72v-6.32h-17.98v-4.09Z"/>
        <path class="cls-1" d="M174.29,332.72h21.7v4.09h-8.96v8.06h8.96v4.09h-21.7v-4.09h9.02v-8.06h-9.02v-4.09Z"/>
        <path class="cls-1" d="M174.29,353.67h21.7v13.95h-3.72v-9.86h-5.18v8.99h-3.72v-8.99h-5.36v10.04h-3.72v-14.14Z"/>
        <path class="cls-1" d="M174.29,379.96h21.7v9.42c0,1.36-.24,2.55-.71,3.57-.48,1.01-1.15,1.8-2.02,2.36-.87.56-1.89.84-3.07.84h-.37c-1.3,0-2.36-.31-3.16-.93s-1.4-1.38-1.77-2.29h-.56c-.04.83-.33,1.47-.85,1.92-.53.45-1.22.68-2.09.68h-7.1v-4.09h6.51c.5,0,.9-.13,1.21-.39.31-.26.46-.69.46-1.29v-5.7h-8.18v-4.09ZM186.19,384.05v4.9c0,.97.26,1.73.79,2.28.53.55,1.22.82,2.09.82h.31c.87,0,1.57-.27,2.09-.81.53-.54.79-1.3.79-2.29v-4.9h-6.08Z"/>
        <path class="cls-1" d="M174.29,400.17h21.7v13.95h-3.72v-9.86h-5.18v8.99h-3.72v-8.99h-5.36v10.04h-3.72v-14.14Z"/>
        <path class="cls-1" d="M174.29,416.48l21.7,5.7v7.13l-21.7,5.7v-4.22l4.77-1.18v-7.75l-4.77-1.18v-4.22ZM182.84,422.83v5.83l10.57-2.63v-.56l-10.57-2.63Z"/>
        <path class="cls-1" d="M173.85,445.77c0-1.67.3-3.15.9-4.43.6-1.28,1.46-2.28,2.57-3.01s2.46-1.08,4.03-1.08h.87v4.03h-.87c-1.3,0-2.28.4-2.93,1.21-.65.81-.98,1.9-.98,3.29s.28,2.45.84,3.15,1.27,1.04,2.14,1.04c.6,0,1.08-.17,1.46-.51.37-.34.68-.84.92-1.49.24-.65.46-1.44.67-2.37l.16-.71c.33-1.49.75-2.76,1.26-3.83.51-1.06,1.17-1.88,2-2.45.83-.57,1.9-.85,3.22-.85s2.45.32,3.39.95c.94.63,1.66,1.52,2.17,2.67.51,1.15.76,2.5.76,4.05s-.26,2.93-.79,4.14c-.53,1.21-1.31,2.16-2.36,2.85s-2.35,1.04-3.92,1.04h-.93v-4.03h.93c.83,0,1.49-.16,2-.48.51-.32.88-.78,1.12-1.38.24-.6.36-1.31.36-2.14,0-1.24-.23-2.15-.7-2.74-.46-.59-1.1-.88-1.91-.88-.54,0-.99.14-1.36.42-.37.28-.68.7-.93,1.26s-.46,1.27-.65,2.14l-.16.71c-.33,1.55-.75,2.9-1.27,4.04-.52,1.15-1.2,2.04-2.05,2.68s-1.93.96-3.25.96-2.49-.34-3.49-1.01c-1-.67-1.79-1.62-2.36-2.85-.57-1.23-.85-2.68-.85-4.36Z"/>
        <path class="cls-1" d="M173.85,466.08c0-2.73.75-4.9,2.25-6.51,1.5-1.61,3.64-2.42,6.43-2.42h5.21c2.79,0,4.93.81,6.43,2.42,1.5,1.61,2.25,3.78,2.25,6.51s-.75,4.9-2.25,6.51c-1.5,1.61-3.64,2.42-6.43,2.42h-5.21c-2.79,0-4.93-.81-6.43-2.42-1.5-1.61-2.25-3.78-2.25-6.51ZM177.51,466.08c0,1.53.44,2.72,1.33,3.57s2.08,1.27,3.57,1.27h5.46c1.49,0,2.68-.42,3.56-1.27s1.33-2.04,1.33-3.57-.44-2.69-1.33-3.55c-.89-.86-2.08-1.29-3.56-1.29h-5.46c-1.49,0-2.68.43-3.57,1.29-.89.86-1.33,2.04-1.33,3.55Z"/>
        <path class="cls-1" d="M174.29,479.22h21.7v7.78l-18.91,4.31v.56h18.91v4.03h-21.7v-7.78l18.91-4.31v-.56h-18.91v-4.03Z"/>
        <path class="cls-1" d="M174.29,510.84l21.7-2.85v4.06l-18.85,2.11v.56l18.85,2.73v7.07l-18.85,2.73v.56l18.85,2.11v4.06l-21.7-2.85v-7.07l19.28-2.79v-.56l-19.28-2.79v-7.07Z"/>
        <path class="cls-1" d="M174.29,537.56h21.7v4.09h-8.96v8.06h8.96v4.09h-21.7v-4.09h9.02v-8.06h-9.02v-4.09Z"/>
        <path class="cls-1" d="M174.29,564.1h7.47l14.23-7.38v4.56l-9.3,4.59v.56l9.3,4.59v4.56l-14.23-7.38h-7.47v-4.09Z"/>
        <path class="cls-1" d="M174.29,588.71l21.7-2.85v4.06l-18.85,2.11v.56l18.85,2.73v7.07l-18.85,2.73v.56l18.85,2.11v4.06l-21.7-2.85v-7.07l19.28-2.79v-.56l-19.28-2.79v-7.07Z"/>
        <path class="cls-1" d="M174.29,615.43h21.7v13.95h-3.72v-9.86h-5.18v8.99h-3.72v-8.99h-5.36v10.04h-3.72v-14.14Z"/>
        <path class="cls-1" d="M173.85,647.95c0-2.23.61-4,1.83-5.32,1.22-1.31,2.92-1.97,5.12-1.97h2.05v4.09h-2.05c-.97,0-1.73.27-2.28.81s-.82,1.29-.82,2.26c0,.91.27,1.62.81,2.12.54.51,1.3.76,2.29.76h11.47v-3.72h3.72v10.29h-3.72v-2.48h-11.47c-2.25,0-3.97-.61-5.16-1.83s-1.78-2.89-1.78-5.02Z"/>
        <path class="cls-1" d="M174.29,659.76l21.7,5.7v7.13l-21.7,5.7v-4.22l4.77-1.18v-7.75l-4.77-1.18v-4.22ZM182.84,666.12v5.83l10.57-2.63v-.56l-10.57-2.63Z"/>
        <path class="cls-1" d="M174.29,681.52h21.7v8.93c0,1.36-.27,2.57-.82,3.61-.55,1.04-1.32,1.86-2.31,2.45-.99.59-2.17.88-3.53.88h-.43c-1.34,0-2.52-.3-3.52-.91-1-.61-1.78-1.44-2.32-2.48-.55-1.04-.82-2.23-.82-3.55v-4.84h-7.94v-4.09ZM185.94,685.62v4.43c0,.97.27,1.76.81,2.36s1.27.9,2.2.9h.31c.93,0,1.66-.3,2.2-.9s.81-1.38.81-2.36v-4.43h-6.32Z"/>
        <path class="cls-1" d="M174.29,699.38l21.7,5.7v7.13l-21.7,5.7v-4.22l4.77-1.18v-7.75l-4.77-1.18v-4.22ZM182.84,705.73v5.83l10.57-2.63v-.56l-10.57-2.63Z"/>
        <path class="cls-1" d="M174.29,721.14h21.7v7.78l-18.91,4.31v.56h18.91v4.03h-21.7v-7.78l18.91-4.31v-.56h-18.91v-4.03Z"/>
        <path class="cls-1" d="M174.29,742.53h21.7v13.95h-3.72v-9.86h-5.18v8.99h-3.72v-8.99h-5.36v10.04h-3.72v-14.14Z"/>
        <path class="cls-1" d="M173.85,767.86c0-1.67.3-3.15.9-4.43.6-1.28,1.46-2.28,2.57-3.01s2.46-1.08,4.03-1.08h.87v4.03h-.87c-1.3,0-2.28.4-2.93,1.21-.65.81-.98,1.9-.98,3.29s.28,2.45.84,3.15,1.27,1.04,2.14,1.04c.6,0,1.08-.17,1.46-.51.37-.34.68-.84.92-1.49.24-.65.46-1.44.67-2.37l.16-.71c.33-1.49.75-2.76,1.26-3.83.51-1.06,1.17-1.88,2-2.45.83-.57,1.9-.85,3.22-.85s2.45.32,3.39.95c.94.63,1.66,1.52,2.17,2.67.51,1.15.76,2.5.76,4.05s-.26,2.93-.79,4.14c-.53,1.21-1.31,2.16-2.36,2.85s-2.35,1.04-3.92,1.04h-.93v-4.03h.93c.83,0,1.49-.16,2-.48.51-.32.88-.78,1.12-1.38.24-.6.36-1.31.36-2.14,0-1.24-.23-2.15-.7-2.74-.46-.59-1.1-.88-1.91-.88-.54,0-.99.14-1.36.42-.37.28-.68.7-.93,1.26s-.46,1.27-.65,2.14l-.16.71c-.33,1.55-.75,2.9-1.27,4.04-.52,1.15-1.2,2.04-2.05,2.68s-1.93.96-3.25.96-2.49-.34-3.49-1.01c-1-.67-1.79-1.62-2.36-2.85-.57-1.23-.85-2.68-.85-4.36Z"/>
        <path class="cls-1" d="M174.29,779.73h21.7v13.95h-3.72v-9.86h-5.18v8.99h-3.72v-8.99h-5.36v10.04h-3.72v-14.14Z"/>
        <path class="cls-1" d="M174.29,806.02h21.7v8.93c0,1.36-.27,2.57-.82,3.61-.55,1.04-1.32,1.86-2.31,2.45-.99.59-2.17.88-3.53.88h-.43c-1.34,0-2.52-.3-3.52-.91-1-.61-1.78-1.44-2.32-2.48-.55-1.04-.82-2.23-.82-3.55v-4.84h-7.94v-4.09ZM185.94,810.11v4.43c0,.97.27,1.76.81,2.36s1.27.9,2.2.9h.31c.93,0,1.66-.3,2.2-.9s.81-1.38.81-2.36v-4.43h-6.32Z"/>
        <path class="cls-1" d="M174.29,825.36h21.7v13.95h-3.72v-9.86h-5.18v8.99h-3.72v-8.99h-5.36v10.04h-3.72v-14.14Z"/>
        <path class="cls-1" d="M173.85,851.59c0-2.73.75-4.9,2.25-6.51,1.5-1.61,3.64-2.42,6.43-2.42h5.21c2.79,0,4.93.81,6.43,2.42,1.5,1.61,2.25,3.78,2.25,6.51s-.75,4.9-2.25,6.51c-1.5,1.61-3.64,2.42-6.43,2.42h-5.21c-2.79,0-4.93-.81-6.43-2.42-1.5-1.61-2.25-3.78-2.25-6.51ZM177.51,851.59c0,1.53.44,2.72,1.33,3.57s2.08,1.27,3.57,1.27h5.46c1.49,0,2.68-.42,3.56-1.27s1.33-2.04,1.33-3.57-.44-2.69-1.33-3.55c-.89-.86-2.08-1.29-3.56-1.29h-5.46c-1.49,0-2.68.43-3.57,1.29-.89.86-1.33,2.04-1.33,3.55Z"/>
        <path class="cls-1" d="M174.29,864.73h21.7v8.93c0,1.36-.27,2.57-.82,3.61-.55,1.04-1.32,1.86-2.31,2.45-.99.59-2.17.88-3.53.88h-.43c-1.34,0-2.52-.3-3.52-.91-1-.61-1.78-1.44-2.32-2.48-.55-1.04-.82-2.23-.82-3.55v-4.84h-7.94v-4.09ZM185.94,868.82v4.43c0,.97.27,1.76.81,2.36s1.27.9,2.2.9h.31c.93,0,1.66-.3,2.2-.9s.81-1.38.81-2.36v-4.43h-6.32Z"/>
        <path class="cls-1" d="M174.29,884.07h21.7v4.09h-17.98v9.92h-3.72v-14.01Z"/>
        <path class="cls-1" d="M174.29,901.5h21.7v13.95h-3.72v-9.86h-5.18v8.99h-3.72v-8.99h-5.36v10.04h-3.72v-14.14Z"/>
        <path class="cls-1" d="M173.85,935.32c0-1.67.3-3.15.9-4.43.6-1.28,1.46-2.28,2.57-3.01s2.46-1.08,4.03-1.08h.87v4.03h-.87c-1.3,0-2.28.4-2.93,1.21-.65.81-.98,1.9-.98,3.29s.28,2.45.84,3.15,1.27,1.04,2.14,1.04c.6,0,1.08-.17,1.46-.51.37-.34.68-.84.92-1.49.24-.65.46-1.44.67-2.37l.16-.71c.33-1.49.75-2.76,1.26-3.83.51-1.06,1.17-1.88,2-2.45.83-.57,1.9-.85,3.22-.85s2.45.32,3.39.95c.94.63,1.66,1.52,2.17,2.67.51,1.15.76,2.5.76,4.05s-.26,2.93-.79,4.14c-.53,1.21-1.31,2.16-2.36,2.85s-2.35,1.04-3.92,1.04h-.93v-4.03h.93c.83,0,1.49-.16,2-.48.51-.32.88-.78,1.12-1.38.24-.6.36-1.31.36-2.14,0-1.24-.23-2.15-.7-2.74-.46-.59-1.1-.88-1.91-.88-.54,0-.99.14-1.36.42-.37.28-.68.7-.93,1.26s-.46,1.27-.65,2.14l-.16.71c-.33,1.55-.75,2.9-1.27,4.04-.52,1.15-1.2,2.04-2.05,2.68s-1.93.96-3.25.96-2.49-.34-3.49-1.01c-1-.67-1.79-1.62-2.36-2.85-.57-1.23-.85-2.68-.85-4.36Z"/>
        <path class="cls-1" d="M174.29,952.21h17.98v-6.32h3.72v16.74h-3.72v-6.32h-17.98v-4.09Z"/>
        <path class="cls-1" d="M174.29,966.04h21.7v9.42c0,1.36-.24,2.55-.71,3.57-.48,1.01-1.15,1.8-2.02,2.36-.87.56-1.89.84-3.07.84h-.37c-1.3,0-2.36-.31-3.16-.93s-1.4-1.38-1.77-2.29h-.56c-.04.83-.33,1.47-.85,1.92-.53.45-1.22.68-2.09.68h-7.1v-4.09h6.51c.5,0,.9-.13,1.21-.39.31-.26.46-.69.46-1.29v-5.7h-8.18v-4.09ZM186.19,970.13v4.9c0,.97.26,1.73.79,2.28.53.55,1.22.82,2.09.82h.31c.87,0,1.57-.27,2.09-.81.53-.54.79-1.3.79-2.29v-4.9h-6.08Z"/>
        <path class="cls-1" d="M173.85,994.62c0-1.78.33-3.3.98-4.57.65-1.27,1.58-2.24,2.79-2.91,1.21-.67,2.64-1.01,4.29-1.01h14.07v4.09h-14.2c-1.32,0-2.37.38-3.13,1.13-.76.75-1.15,1.84-1.15,3.27s.38,2.52,1.15,3.27c.76.75,1.81,1.13,3.13,1.13h14.2v4.09h-14.07c-1.65,0-3.08-.34-4.29-1.01s-2.14-1.64-2.79-2.91c-.65-1.27-.98-2.79-.98-4.57Z"/>
        <path class="cls-1" d="M173.85,1015.2c0-1.49.34-2.84,1.01-4.04.67-1.21,1.65-2.17,2.95-2.88,1.29-.71,2.87-1.07,4.73-1.07h5.21c2.79,0,4.93.79,6.43,2.36,1.5,1.57,2.25,3.7,2.25,6.39s-.71,4.73-2.12,6.18c-1.42,1.46-3.33,2.19-5.75,2.19h-.12v-4.03h.25c.76,0,1.46-.16,2.08-.48s1.11-.8,1.47-1.44c.36-.64.54-1.45.54-2.42,0-1.45-.44-2.58-1.33-3.41-.89-.83-2.1-1.24-3.63-1.24h-5.33c-1.51,0-2.72.41-3.64,1.24-.92.83-1.38,1.98-1.38,3.47s.39,2.57,1.18,3.26c.79.68,1.78,1.02,2.98,1.02h.31v-5.15h3.47v9.18h-11.1v-3.78h2.08v-.56c-.35-.15-.72-.38-1.12-.7s-.72-.8-.99-1.44-.4-1.52-.4-2.63Z"/>
        <path class="cls-1" d="M173.85,1036.34c0-1.49.34-2.84,1.01-4.04.67-1.21,1.65-2.17,2.95-2.88,1.29-.71,2.87-1.07,4.73-1.07h5.21c2.79,0,4.93.79,6.43,2.36,1.5,1.57,2.25,3.7,2.25,6.39s-.71,4.73-2.12,6.18c-1.42,1.46-3.33,2.19-5.75,2.19h-.12v-4.03h.25c.76,0,1.46-.16,2.08-.48s1.11-.8,1.47-1.44c.36-.64.54-1.45.54-2.42,0-1.45-.44-2.58-1.33-3.41-.89-.83-2.1-1.24-3.63-1.24h-5.33c-1.51,0-2.72.41-3.64,1.24-.92.83-1.38,1.98-1.38,3.47s.39,2.57,1.18,3.26c.79.68,1.78,1.02,2.98,1.02h.31v-5.15h3.47v9.18h-11.1v-3.78h2.08v-.56c-.35-.15-.72-.38-1.12-.7s-.72-.8-.99-1.44-.4-1.52-.4-2.63Z"/>
        <path class="cls-1" d="M174.29,1049.98h21.7v4.09h-17.98v9.92h-3.72v-14.01Z"/>
        <path class="cls-1" d="M174.29,1067.4h21.7v13.95h-3.72v-9.86h-5.18v8.99h-3.72v-8.99h-5.36v10.04h-3.72v-14.14Z"/>
        <path class="cls-1" d="M174.29,1098.72h17.98v-6.32h3.72v16.74h-3.72v-6.32h-17.98v-4.09Z"/>
        <path class="cls-1" d="M173.85,1120.97c0-2.73.75-4.9,2.25-6.51,1.5-1.61,3.64-2.42,6.43-2.42h5.21c2.79,0,4.93.81,6.43,2.42,1.5,1.61,2.25,3.78,2.25,6.51s-.75,4.9-2.25,6.51c-1.5,1.61-3.64,2.42-6.43,2.42h-5.21c-2.79,0-4.93-.81-6.43-2.42-1.5-1.61-2.25-3.78-2.25-6.51ZM177.51,1120.97c0,1.53.44,2.72,1.33,3.57s2.08,1.27,3.57,1.27h5.46c1.49,0,2.68-.42,3.56-1.27s1.33-2.04,1.33-3.57-.44-2.69-1.33-3.55c-.89-.86-2.08-1.29-3.56-1.29h-5.46c-1.49,0-2.68.43-3.57,1.29-.89.86-1.33,2.04-1.33,3.55Z"/>
        <path class="cls-1" d="M174.29,1141.12l21.7,5.7v7.13l-21.7,5.7v-4.22l4.77-1.18v-7.75l-4.77-1.18v-4.22ZM182.84,1147.48v5.83l10.57-2.63v-.56l-10.57-2.63Z"/>
        <path class="cls-1" d="M173.85,1171.13c0-2.69.75-4.82,2.25-6.39,1.5-1.57,3.64-2.36,6.43-2.36h5.21c2.79,0,4.93.79,6.43,2.36,1.5,1.57,2.25,3.7,2.25,6.39s-.73,4.73-2.19,6.18-3.46,2.19-6,2.19h-.19v-4.03h.31c1.28,0,2.33-.36,3.16-1.07.83-.71,1.24-1.8,1.24-3.27s-.44-2.58-1.33-3.41c-.89-.83-2.1-1.24-3.63-1.24h-5.33c-1.51,0-2.71.41-3.61,1.24-.9.83-1.35,1.96-1.35,3.41s.42,2.56,1.26,3.27,1.89,1.07,3.15,1.07h.56v4.03h-.43c-2.54,0-4.54-.73-6-2.19s-2.19-3.52-2.19-6.18Z"/>
        <path class="cls-1" d="M168.71,1193.33c0-1.01.32-1.83.95-2.46s1.47-.95,2.53-.95h2.11v3.97h-1.49c-.62,0-.93.29-.93.87v1.83h-3.16v-3.25ZM173.85,1191.9c0-2.73.75-4.9,2.25-6.51,1.5-1.61,3.64-2.42,6.43-2.42h5.21c2.79,0,4.93.81,6.43,2.42,1.5,1.61,2.25,3.78,2.25,6.51s-.75,4.9-2.25,6.51c-1.5,1.61-3.64,2.42-6.43,2.42h-5.21c-2.79,0-4.93-.81-6.43-2.42-1.5-1.61-2.25-3.78-2.25-6.51ZM177.51,1191.9c0,1.53.44,2.72,1.33,3.57s2.08,1.27,3.57,1.27h5.46c1.49,0,2.68-.42,3.56-1.27s1.33-2.04,1.33-3.57-.44-2.69-1.33-3.55c-.89-.86-2.08-1.29-3.56-1.29h-5.46c-1.49,0-2.68.43-3.57,1.29-.89.86-1.33,2.04-1.33,3.55Z"/>
        <path class="cls-1" d="M173.85,1213.41c0-1.78.33-3.3.98-4.57.65-1.27,1.58-2.24,2.79-2.91,1.21-.67,2.64-1.01,4.29-1.01h14.07v4.09h-14.2c-1.32,0-2.37.38-3.13,1.13-.76.75-1.15,1.84-1.15,3.27s.38,2.52,1.15,3.27c.76.75,1.81,1.13,3.13,1.13h14.2v4.09h-14.07c-1.65,0-3.08-.34-4.29-1.01s-2.14-1.64-2.79-2.91c-.65-1.27-.98-2.79-.98-4.57Z"/>
        <path class="cls-1" d="M174.29,1226.5h21.7v4.09h-21.7v-4.09Z"/>
        <path class="cls-1" d="M174.29,1235.3h21.7v9.42c0,1.36-.24,2.55-.71,3.57-.48,1.01-1.15,1.8-2.02,2.36-.87.56-1.89.84-3.07.84h-.37c-1.3,0-2.36-.31-3.16-.93s-1.4-1.38-1.77-2.29h-.56c-.04.83-.33,1.47-.85,1.92-.53.45-1.22.68-2.09.68h-7.1v-4.09h6.51c.5,0,.9-.13,1.21-.39.31-.26.46-.69.46-1.29v-5.7h-8.18v-4.09ZM186.19,1239.39v4.9c0,.97.26,1.73.79,2.28.53.55,1.22.82,2.09.82h.31c.87,0,1.57-.27,2.09-.81.53-.54.79-1.3.79-2.29v-4.9h-6.08Z"/>
        <path class="cls-1" d="M174.29,1255.51h21.7v13.95h-3.72v-9.86h-5.18v8.99h-3.72v-8.99h-5.36v10.04h-3.72v-14.14Z"/>
        <path class="cls-1" d="M174.29,1281.8h21.7v13.95h-3.72v-9.86h-5.18v8.99h-3.72v-8.99h-5.36v10.04h-3.72v-14.14Z"/>
        <path class="cls-1" d="M174.29,1299.59h21.7v7.78l-18.91,4.31v.56h18.91v4.03h-21.7v-7.78l18.91-4.31v-.56h-18.91v-4.03Z"/>
        <path class="cls-1" d="M173.85,1328.48c0-1.49.34-2.84,1.01-4.04.67-1.21,1.65-2.17,2.95-2.88,1.29-.71,2.87-1.07,4.73-1.07h5.21c2.79,0,4.93.79,6.43,2.36,1.5,1.57,2.25,3.7,2.25,6.39s-.71,4.73-2.12,6.18c-1.42,1.46-3.33,2.19-5.75,2.19h-.12v-4.03h.25c.76,0,1.46-.16,2.08-.48s1.11-.8,1.47-1.44c.36-.64.54-1.45.54-2.42,0-1.45-.44-2.58-1.33-3.41-.89-.83-2.1-1.24-3.63-1.24h-5.33c-1.51,0-2.72.41-3.64,1.24-.92.83-1.38,1.98-1.38,3.47s.39,2.57,1.18,3.26c.79.68,1.78,1.02,2.98,1.02h.31v-5.15h3.47v9.18h-11.1v-3.78h2.08v-.56c-.35-.15-.72-.38-1.12-.7s-.72-.8-.99-1.44-.4-1.52-.4-2.63Z"/>
        <path class="cls-1" d="M174.29,1342.12h21.7v4.09h-17.98v9.92h-3.72v-14.01Z"/>
        <path class="cls-1" d="M174.29,1359.55h21.7v4.09h-21.7v-4.09Z"/>
        <path class="cls-1" d="M173.85,1375.88c0-1.67.3-3.15.9-4.43.6-1.28,1.46-2.28,2.57-3.01s2.46-1.08,4.03-1.08h.87v4.03h-.87c-1.3,0-2.28.4-2.93,1.21-.65.81-.98,1.9-.98,3.29s.28,2.45.84,3.15,1.27,1.04,2.14,1.04c.6,0,1.08-.17,1.46-.51.37-.34.68-.84.92-1.49.24-.65.46-1.44.67-2.37l.16-.71c.33-1.49.75-2.76,1.26-3.83.51-1.06,1.17-1.88,2-2.45.83-.57,1.9-.85,3.22-.85s2.45.32,3.39.95c.94.63,1.66,1.52,2.17,2.67.51,1.15.76,2.5.76,4.05s-.26,2.93-.79,4.14c-.53,1.21-1.31,2.16-2.36,2.85s-2.35,1.04-3.92,1.04h-.93v-4.03h.93c.83,0,1.49-.16,2-.48.51-.32.88-.78,1.12-1.38.24-.6.36-1.31.36-2.14,0-1.24-.23-2.15-.7-2.74-.46-.59-1.1-.88-1.91-.88-.54,0-.99.14-1.36.42-.37.28-.68.7-.93,1.26s-.46,1.27-.65,2.14l-.16.71c-.33,1.55-.75,2.9-1.27,4.04-.52,1.15-1.2,2.04-2.05,2.68s-1.93.96-3.25.96-2.49-.34-3.49-1.01c-1-.67-1.79-1.62-2.36-2.85-.57-1.23-.85-2.68-.85-4.36Z"/>
        <path class="cls-1" d="M174.29,1387.75h21.7v4.09h-8.96v8.06h8.96v4.09h-21.7v-4.09h9.02v-8.06h-9.02v-4.09Z"/>
        <path class="cls-1" d="M173.85,1411.31c0-.85.27-1.56.82-2.12.55-.57,1.25-.85,2.12-.85s1.58.28,2.12.85c.55.57.82,1.28.82,2.12s-.27,1.52-.82,2.08c-.55.56-1.26.84-2.12.84s-1.58-.28-2.12-.84c-.55-.56-.82-1.25-.82-2.08Z"/>
      </g>
      <g>
        <rect class="cls-1" width="198.44" height="24.57"/>
        <rect class="cls-1" x="86.93" y="86.93" width="198.44" height="24.57" transform="translate(285.37 -86.93) rotate(90)"/>
      </g>
    </g>
  </g>
</svg>