<?xml version="1.0" encoding="UTF-8"?>
<svg id="Layer_2" data-name="Layer 2" xmlns="http://www.w3.org/2000/svg" xmlns:xlink="http://www.w3.org/1999/xlink" viewBox="0 0 656.95 509.89">
  <defs>
    <style>
      .cls-1 {
        fill: url(#_名称未設定グラデーション_9);
      }
    </style>
    <linearGradient id="_名称未設定グラデーション_9" data-name="名称未設定グラデーション 9" x1="66.79" y1="47.97" x2="680.06" y2="542.65" gradientUnits="userSpaceOnUse">
      <stop offset="0" stop-color="#000"/>
      <stop offset=".04" stop-color="#00030a"/>
      <stop offset=".11" stop-color="#000c27"/>
      <stop offset=".2" stop-color="#001a56"/>
      <stop offset=".31" stop-color="#002e97"/>
      <stop offset=".43" stop-color="#0048e9"/>
      <stop offset=".46" stop-color="#004fff"/>
      <stop offset=".48" stop-color="#004af0"/>
      <stop offset=".56" stop-color="#0037b1"/>
      <stop offset=".65" stop-color="#00267b"/>
      <stop offset=".73" stop-color="#00184f"/>
      <stop offset=".81" stop-color="#000d2c"/>
      <stop offset=".88" stop-color="#000614"/>
      <stop offset=".95" stop-color="#000105"/>
      <stop offset="1" stop-color="#000"/>
    </linearGradient>
  </defs>
  <g id="_レイヤー_1" data-name="レイヤー 1">
    <path class="cls-1" d="M655.02,311.03l-50.44,24.61c8.01,30.23-13.1,46.82-23.26,51.77-40.28,19.65-65.63-27.72-72.9-41.7l136.07-66.38c-18.45-33.22-66.72-120.18-149.45-79.82-38.46,18.76-46.17,49.93-48.81,62-35-21.11-74.92-1.63-83.63,2.61-4.74,2.31-9.3,4.9-13.63,7.74,3.67-51.97-36.7-98.07-86.27-123.08-14.42-7.27-29.03-12.38-44.9-16.77,2-3.06,13.24-18.19,15.78-21.43,66.18,23.89,109.67,30.9,127.35,33.49l13.71-46.9c-17.15-.96-53.61-3.98-109.15-22.95,13.77-13.85,21.56-20.33,28.44-25.9,3.97,1.1,9.02,2.74,11.02-1.22,1.27-2.52-1.24-5.6-3.76-7.78L260.88,0c-12.14,12.42-25.37,26.09-48.04,54-11.54-4.92-21.99-10.19-24.15-11.28-28.84-14.55-40.72-24.16-47.92-29.6l-23.08,42.17c10.45,7.08,19.27,12.89,36.94,21.8,4.69,2.36,24.52,11.46,30.82,14.19-10.52,14.59-16.15,23.96-21.06,32.79-70.76-4.04-130.45,26.44-155.73,76.55-10.55,20.91-18.62,56.63,20.67,76.45,27.76,14,61.17,11.41,74.17,9.83-.93,8.12-1.12,9.38-1.14,16.61,14.09-1.03,37.57-2.76,51.83-4.15.56-6.5,1.13-12.09,2.79-22.56,40.31-12.68,90.24-41.75,116.68-62.78,32.75,31.89,18.73,63.26,14.92,70.83-24.55,48.66-91.33,41.21-140.93,26.59,8.02,28.92,7.98,42.46,7.95,50.58,59.15,15.55,114.38,14.54,151.74-13.9.66,8.02,2.59,16.36,5.99,24.96l48.26-23.54c-3.34-9.6-11.43-31.71,22.32-48.17,10.89-5.31,34.45-15.01,46.67,10.03,2.83,5.81,5.64,14.32,1.78,21.14-3.5,6.65-8.41,10.39-50.61,42.66-18.74,14.08-58.39,44.21-34.14,93.92,18.59,38.1,56.18,52.55,101.9,30.25,48.26-23.54,57.31-63,60.91-80.48,36.59,25.27,70.44,16.4,91.85,5.95,59.51-29.03,57-86.66,52.75-113.78ZM112.7,241.78c-2.17.71-33.61,7.46-51.27-1.44-11.17-5.64-8.61-16.1-4.97-23.31,17.64-34.96,69.86-46.16,84.49-48.27-17.1,37.5-23.67,56.79-28.24,73.02ZM171.45,221.22c7.66-21.46,14.21-36.24,21.12-49.04,18.58,4.4,30.48,9.5,37.87,12.77-15.57,12.04-38.37,26.77-58.99,36.26ZM471.14,411.07c-.5,14.62-8.82,34.4-28.42,43.96-4.72,2.3-31.21,15.22-44.48-11.99-12.21-25.04,1.79-35.91,13.63-45.73,14.74-12.13,31.69-28.04,34.06-30.54,2.19-1.96,3.87-7.73,5.7-10.42,15.06,29.94,19.81,42.44,19.51,54.72ZM492.33,311.79c-3.35-8.7-8.98-23.02-7.04-37.45,2.16-17.67,14.37-29.47,24.89-34.61,10.16-4.96,26.98-7.32,42.77,2.04,12.39,6.98,20.38,20.6,24.64,28.41l-85.27,41.6Z"/>
  </g>
</svg>